<?xml version="1.0" encoding="UTF-8" standalone="no"?>
<svg
   id="logo"
   width="512"
   height="512"
   version="1.1"
   viewBox="0 0 512 512"
   sodipodi:docname="cheeky.svg"
   inkscape:version="1.2.2 (b0a8486541, 2022-12-01)"
   xmlns:inkscape="http://www.inkscape.org/namespaces/inkscape"
   xmlns:sodipodi="http://sodipodi.sourceforge.net/DTD/sodipodi-0.dtd"
   xmlns="http://www.w3.org/2000/svg"
   xmlns:svg="http://www.w3.org/2000/svg"
   xmlns:rdf="http://www.w3.org/1999/02/22-rdf-syntax-ns#"
   xmlns:cc="http://creativecommons.org/ns#"
   xmlns:dc="http://purl.org/dc/elements/1.1/">
  <defs
     id="defs3579">
    <inkscape:path-effect
       effect="skeletal"
       id="path-effect840"
       is_visible="true"
       lpeversion="1"
       pattern="M 0,18.867925 C 0,8.4528302 8.4528302,0 18.867925,0 c 10.415094,0 18.867924,8.4528302 18.867924,18.867925 0,10.415094 -8.45283,18.867924 -18.867924,18.867924 C 8.4528302,37.735849 0,29.283019 0,18.867925 Z"
       copytype="single_stretched"
       prop_scale="0.038874507"
       scale_y_rel="false"
       spacing="0"
       normal_offset="0"
       tang_offset="0"
       prop_units="false"
       vertical_pattern="false"
       hide_knot="false"
       fuse_tolerance="0" />
    <inkscape:path-effect
       effect="skeletal"
       id="path-effect836"
       is_visible="true"
       lpeversion="1"
       pattern="M 0,18.867925 C 0,8.4528302 8.4528302,0 18.867925,0 c 10.415094,0 18.867924,8.4528302 18.867924,18.867925 0,10.415094 -8.45283,18.867924 -18.867924,18.867924 C 8.4528302,37.735849 0,29.283019 0,18.867925 Z"
       copytype="single_stretched"
       prop_scale="0.22298434"
       scale_y_rel="false"
       spacing="0"
       normal_offset="0"
       tang_offset="0"
       prop_units="false"
       vertical_pattern="false"
       hide_knot="false"
       fuse_tolerance="0" />
    <inkscape:path-effect
       effect="skeletal"
       id="path-effect799"
       is_visible="true"
       lpeversion="1"
       pattern="M 0,18.867925 C 0,8.4528302 8.4528302,0 18.867925,0 c 10.415094,0 18.867924,8.4528302 18.867924,18.867925 0,10.415094 -8.45283,18.867924 -18.867924,18.867924 C 8.4528302,37.735849 0,29.283019 0,18.867925 Z"
       copytype="single_stretched"
       prop_scale="0.12654675"
       scale_y_rel="false"
       spacing="0"
       normal_offset="0"
       tang_offset="0"
       prop_units="false"
       vertical_pattern="false"
       hide_knot="false"
       fuse_tolerance="0" />
    <inkscape:path-effect
       effect="skeletal"
       id="path-effect584"
       is_visible="true"
       lpeversion="1"
       pattern="M 0,18.867925 C 0,8.4528302 8.4528302,0 18.867925,0 c 10.415094,0 18.867924,8.4528302 18.867924,18.867925 0,10.415094 -8.45283,18.867924 -18.867924,18.867924 C 8.4528302,37.735849 0,29.283019 0,18.867925 Z"
       copytype="single_stretched"
       prop_scale="0.22298434"
       scale_y_rel="false"
       spacing="0"
       normal_offset="0"
       tang_offset="0"
       prop_units="false"
       vertical_pattern="false"
       hide_knot="false"
       fuse_tolerance="0" />
    <inkscape:path-effect
       effect="skeletal"
       id="path-effect3212"
       is_visible="true"
       lpeversion="1"
       pattern="M 0,18.867925 C 0,8.4528302 8.4528302,0 18.867925,0 c 10.415094,0 18.867924,8.4528302 18.867924,18.867925 0,10.415094 -8.45283,18.867924 -18.867924,18.867924 C 8.4528302,37.735849 0,29.283019 0,18.867925 Z"
       copytype="single_stretched"
       prop_scale="0.18071763"
       scale_y_rel="false"
       spacing="0"
       normal_offset="0"
       tang_offset="0"
       prop_units="false"
       vertical_pattern="false"
       hide_knot="false"
       fuse_tolerance="0" />
    <inkscape:path-effect
       effect="skeletal"
       id="path-effect2308"
       is_visible="true"
       lpeversion="1"
       pattern="M 0,18.867925 C 0,8.4528302 8.4528302,0 18.867925,0 c 10.415094,0 18.867924,8.4528302 18.867924,18.867925 0,10.415094 -8.45283,18.867924 -18.867924,18.867924 C 8.4528302,37.735849 0,29.283019 0,18.867925 Z"
       copytype="single_stretched"
       prop_scale="0.16195015"
       scale_y_rel="false"
       spacing="0"
       normal_offset="0"
       tang_offset="0"
       prop_units="false"
       vertical_pattern="false"
       hide_knot="false"
       fuse_tolerance="0" />
    <inkscape:path-effect
       effect="skeletal"
       id="path-effect2252"
       is_visible="true"
       lpeversion="1"
       pattern="M 0,18.867925 C 0,8.4528302 8.4528302,0 18.867925,0 c 10.415094,0 18.867924,8.4528302 18.867924,18.867925 0,10.415094 -8.45283,18.867924 -18.867924,18.867924 C 8.4528302,37.735849 0,29.283019 0,18.867925 Z"
       copytype="single_stretched"
       prop_scale="0.18576939"
       scale_y_rel="false"
       spacing="0"
       normal_offset="0"
       tang_offset="0"
       prop_units="false"
       vertical_pattern="false"
       hide_knot="false"
       fuse_tolerance="0" />
    <inkscape:path-effect
       effect="skeletal"
       id="path-effect2248"
       is_visible="true"
       lpeversion="1"
       pattern="M 0,18.867925 C 0,8.4528302 8.4528302,0 18.867925,0 c 10.415094,0 18.867924,8.4528302 18.867924,18.867925 0,10.415094 -8.45283,18.867924 -18.867924,18.867924 C 8.4528302,37.735849 0,29.283019 0,18.867925 Z"
       copytype="single_stretched"
       prop_scale="0.18576939"
       scale_y_rel="false"
       spacing="0"
       normal_offset="0"
       tang_offset="0"
       prop_units="false"
       vertical_pattern="false"
       hide_knot="false"
       fuse_tolerance="0" />
    <inkscape:path-effect
       effect="skeletal"
       id="path-effect2244"
       is_visible="true"
       lpeversion="1"
       pattern="M 0,18.867925 C 0,8.4528302 8.4528302,0 18.867925,0 c 10.415094,0 18.867924,8.4528302 18.867924,18.867925 0,10.415094 -8.45283,18.867924 -18.867924,18.867924 C 8.4528302,37.735849 0,29.283019 0,18.867925 Z"
       copytype="single_stretched"
       prop_scale="0.18576939"
       scale_y_rel="false"
       spacing="0"
       normal_offset="0"
       tang_offset="0"
       prop_units="false"
       vertical_pattern="false"
       hide_knot="false"
       fuse_tolerance="0" />
    <inkscape:path-effect
       effect="skeletal"
       id="path-effect3583"
       is_visible="true"
       lpeversion="1"
       pattern="M 0,4.9920401 C 0,2.236434 2.236434,0 4.9920401,0 c 2.7556061,0 4.9920401,2.236434 4.9920401,4.9920401 0,2.7556061 -2.236434,4.9920401 -4.9920401,4.9920401 C 2.236434,9.9840802 0,7.7476462 0,4.9920401 Z"
       copytype="single_stretched"
       prop_scale="0.16377935"
       scale_y_rel="false"
       spacing="0"
       normal_offset="0"
       tang_offset="0"
       prop_units="false"
       vertical_pattern="false"
       hide_knot="false"
       fuse_tolerance="0" />
  </defs>
  <sodipodi:namedview
     id="namedview3577"
     pagecolor="#ffffff"
     bordercolor="#000000"
     borderopacity="0.25"
     inkscape:showpageshadow="2"
     inkscape:pageopacity="0.0"
     inkscape:pagecheckerboard="0"
     inkscape:deskcolor="#d1d1d1"
     showgrid="false"
     inkscape:zoom="1.1927449"
     inkscape:cx="356.32096"
     inkscape:cy="289.24878"
     inkscape:window-width="1366"
     inkscape:window-height="699"
     inkscape:window-x="0"
     inkscape:window-y="0"
     inkscape:window-maximized="1"
     inkscape:current-layer="logo" />
  <metadata
     id="metadata3516">
    <rdf:RDF>
      <cc:Work
         rdf:about="">
        <dc:format>image/svg+xml</dc:format>
        <dc:type
           rdf:resource="http://purl.org/dc/dcmitype/StillImage" />
      </cc:Work>
    </rdf:RDF>
  </metadata>
  <path
     style="fill:#ff0000;stroke:#ff0000;stroke-width:0;stroke-dasharray:none;stroke-opacity:1"
     d="m 180.04483,401.78651 c -3.13471,-0.55445 -6.65912,-4.0118 -9.87071,-9.6829 -2.4458,-4.31886 -5.40375,-11.19046 -7.29856,-16.95524 -0.9892,-3.00954 -2.16056,-6.20739 -2.83589,-7.74203 -0.25924,-0.58911 -0.47135,-1.09418 -0.47135,-1.12237 0,-0.0282 0.49079,0.24634 1.09064,0.61007 3.42669,2.07786 7.45818,3.84639 12.08364,5.30084 4.3407,1.36492 7.97394,2.13553 12.64258,2.68149 2.01595,0.23576 8.44719,0.20059 10.5158,-0.0575 3.68862,-0.4602 7.14791,-1.26504 9.77689,-2.2747 0.22062,-0.0847 -0.48909,1.25116 -3.00173,5.6502 -7.53945,13.19983 -13.15724,20.23916 -18.16878,22.76629 -1.44116,0.72673 -3.19152,1.05065 -4.46253,0.82584 z m 1.76736,-9.94875 c 0.0277,-0.0812 0.0253,-1.63644 -0.005,-3.45603 -0.0598,-3.53774 0.0218,-4.7064 0.63314,-9.06485 0.50613,-3.60855 0.40934,-4.50413 -0.3292,-3.04604 -0.70145,1.38486 -1.36343,3.8645 -1.68347,6.30596 -0.42871,3.27033 -0.0511,7.36379 0.83794,9.08373 0.17521,0.33895 0.46033,0.43132 0.54709,0.17723 z"
     id="path1648" />
  <rect
     style="fill:#ffffff;fill-opacity:1;stroke-width:0"
     id="rect494"
     width="656.91217"
     height="540.18237"
     x="-72.336395"
     y="-13.971497" />
  <g
     transform="translate(-10.292,-6.4467)"
     display="none"
     fill="#684338"
     id="g3522">
    <path
       transform="scale(0.26458)"
       d="m 336.37,57.961 c -32.337,-1.75e-4 -58.551,20.933 -58.551,46.756 -0.001,25.823 26.213,46.758 58.551,46.758 32.337,1.7e-4 58.552,-20.934 58.551,-46.758 0,-4.1532 -0.10627,-12.819 -2.0606,-12.295 -2.4325,0.45751 -4.9948,0.69114 -7.5781,0.69141 -12.38,4.5e-5 -22.416,-5.251 -22.416,-11.729 2e-5,-4.6854 7.0552,-4.274 13.555,-10.773 7.1439,-7.1439 -25.173,-12.65 -40.051,-12.65 z m -20.998,11.193 c 1.1119,-0.0012 2.2216,0.07178 3.3242,0.21875 16.626,2.2224 28.324,20.452 26.129,40.717 -2.1946,20.265 -17.452,34.892 -34.078,32.67 -16.626,-2.2223 -28.325,-20.453 -26.129,-40.719 2.0272,-18.707 15.276,-32.875 30.754,-32.887 z"
       style="paint-order:markers fill stroke"
       id="path3518" />
    <path
       transform="matrix(-0.55675,0.83068,-0.99938,0.035244,-24.308,-23.317)"
       d="m 72.49,-90.929 c -10e-7,2.3455 -3.838,7.9289 -7.8579,7.9289 -2.1718,0 -2.0217,-2.308 -3.1999,-4.1764 -1.0026,-1.5899 -3.4995,-2.6742 -3.4995,-3.7525 -10e-7,-2.3455 3.2588,-4.2469 7.2787,-4.2469 4.0199,0 7.2787,1.9014 7.2787,4.2469 z"
       stroke-width="0"
       style="paint-order:markers fill stroke"
       id="path3520" />
  </g>
  <g
     id="g3538"
     transform="matrix(4.2368884,0,0,4.2368884,-152.20173,-5.5039648)"
     style="stroke-width:7.2309">
    <path
       d="m 98.607,67.778 c -0.26842,2.2305 -5.9248,7.5019 -8.463,7.1965 -2.5383,-0.30546 -6.7778,-6.8435 -6.5094,-9.074 0.26842,-2.2305 5.5303,-3.5246 8.0686,-3.2191 2.5383,0.30546 7.1723,2.8662 6.9039,5.0966 z"
       id="path3524" />
    <circle
       transform="rotate(6.8621)"
       cx="103.62"
       cy="69.821999"
       r="0.94344002"
       style="paint-order:markers fill stroke"
       id="circle3526" />
    <circle
       transform="rotate(6.8621)"
       cx="110.97"
       cy="59.455002"
       r="0.94344002"
       style="paint-order:markers fill stroke"
       id="circle3528" />
    <circle
       transform="rotate(6.8621)"
       cx="113.42"
       cy="68.699997"
       r="0.94344002"
       style="paint-order:markers fill stroke"
       id="circle3530" />
    <circle
       transform="rotate(6.8621)"
       cx="91.964996"
       cy="65.737"
       r="0.92624003"
       style="paint-order:markers fill stroke"
       id="circle3532" />
    <circle
       transform="rotate(6.8621)"
       cx="84.413002"
       cy="60.097"
       r="0.92624003"
       style="paint-order:markers fill stroke"
       id="circle3534" />
    <circle
       transform="rotate(6.8621)"
       cx="84.928001"
       cy="70.742996"
       r="0.92624003"
       style="paint-order:markers fill stroke"
       id="circle3536" />
  </g>
  <path
     style="fill:#000000;stroke:none"
     d="m 424.45041,147.38268 c 0.208,-0.15592 1.35822,0.9206 3.55601,3.04908 1.29544,1.25199 3.37524,3.3052 5.46301,5.41988 3.85828,3.9078 9.54231,9.83481 15.56809,16.53071 0,0 1e-5,1e-5 1e-5,1e-5 10.33464,11.48116 24.96802,28.69198 37.98362,48.78061 5.50916,8.50132 11.04193,18.00543 15.6831,28.32535 3.9039,8.65739 7.32494,18.24731 8.93437,28.48211 1.36927,8.59077 1.28883,17.93838 -1.58843,26.88425 -1.38909,4.25288 -3.42188,8.32926 -6.04898,12.04524 -0.53997,0.76136 -1.10251,1.50573 -1.68616,2.23286 -2.49062,3.10289 -5.33381,5.8523 -8.38141,8.24428 -3.99787,3.15451 -8.31585,5.91006 -12.97316,8.01575 -4.02524,1.81952 -8.29219,3.09097 -12.674,3.64806 -8.26529,1.00644 -16.44506,-0.76444 -23.39436,-4.28718 -7.83421,-3.99003 -14.25648,-9.77189 -19.47563,-15.76558 -6.35824,-7.26988 -11.3916,-15.1861 -15.4758,-22.76809 -4.81668,-8.92949 -8.52489,-17.77848 -11.40736,-25.93929 -3.28685,-9.29904 -5.53233,-17.76717 -7.04035,-25.34239 0,0 0,-1e-5 0,-1e-5 -1.7174,-8.59634 -2.36323,-15.17238 -2.28379,-20.94199 0.0408,-3.13985 0.31774,-5.54938 0.79865,-7.6095 0.80921,-3.5767 2.20122,-4.94788 2.43795,-4.7915 0.23034,0.15217 -0.55734,1.71388 -0.85286,5.04262 -0.16364,2.02937 -0.15253,4.21478 0.0873,7.2798 0.44667,5.64906 1.4821,11.74483 3.61579,20.16009 10e-6,10e-6 10e-6,10e-6 10e-6,10e-6 1.86448,7.32915 4.40315,15.47627 7.92905,24.45405 3.09089,7.86472 6.94502,16.36553 11.79989,24.86711 4.12836,7.21954 9.07368,14.68102 15.13738,21.3639 5.00114,5.48611 10.87196,10.68481 17.71151,14.00764 5.94726,2.90426 12.83936,4.35995 19.53482,3.44289 3.61392,-0.47094 7.2132,-1.57984 10.68387,-3.15446 4.03238,-1.829 7.85733,-4.30505 11.50824,-7.17919 2.66354,-2.10945 5.12916,-4.48925 7.24987,-7.13236 0.49702,-0.61945 0.97365,-1.25157 1.42844,-1.89616 2.21836,-3.13231 3.94595,-6.58368 5.12893,-10.17463 2.5267,-7.53433 2.57694,-15.82532 1.44622,-23.67455 -1.37684,-9.40296 -4.534,-18.47721 -8.15456,-26.86277 -4.3183,-9.97331 -9.54807,-19.31186 -14.76381,-27.75831 -12.23878,-19.81556 -26.35143,-37.61362 -35.92192,-49.41436 0,0 0,-1e-5 0,-1e-5 -5.81091,-7.16365 -10.7195,-13.01993 -14.35938,-17.48613 -2.04522,-2.50952 -3.53766,-4.38117 -4.78446,-6.04772 -1.81954,-2.43172 -2.6277,-3.8942 -2.4197,-4.05012 z"
     id="path2242"
     inkscape:path-effect="#path-effect2244"
     inkscape:original-d="m 424.45041,147.38268 c 9.4878,12.65694 128.1482,129.29932 67.3168,177.24575 -66.68933,52.56356 -111.62855,-94.40297 -99.32143,-113.03307"
     class="UnoptimicedTransforms"
     sodipodi:nodetypes="csc" />
  <g
     transform="matrix(4.2199204,0.37880798,-0.37880798,4.2199204,-141.79051,-50.805926)"
     stroke-width="7.2309"
     id="g3546" />
  <g
     transform="matrix(-4.2199204,0.37880798,0.37880798,4.2199204,649.25961,-50.805926)"
     stroke-width="7.2309"
     id="g3550" />
  <path
     d="m 230.2537,309.69935 c -1.64866,-0.44174 -7.12305,18.86771 -16.49759,44.55935 -0.96847,2.88452 -2.78889,5.65159 -5.27874,7.64547 -2.39605,1.96808 -5.51008,3.29651 -8.94111,4.17083 -0.27201,0.0688 -0.54537,0.1344 -0.82001,0.19664 -7.87044,1.78398 -16.23872,0.7365 -23.48126,-1.13252 -9.15549,-2.51845 -15.87773,-5.93715 -20.62093,-10.74857 -2.52646,-2.57001 -4.07487,-5.07452 -4.78514,-7.5603 v 0 c -1.67959,-5.41305 0.33891,-9.41733 -0.3265,-9.76434 -0.6654,-0.34683 -4.46991,2.86312 -3.70126,10.51893 v 0 c 0.3881,3.36257 1.86322,7.0523 4.66905,10.48545 5.04614,6.20789 12.73905,11.13793 22.72752,14.13638 7.99331,2.52413 17.51402,3.84142 27.2148,1.74284 0.33667,-0.0728 0.67248,-0.1496 1.00728,-0.23027 4.33942,-1.04062 8.48437,-2.94879 11.9815,-5.82826 3.66597,-3.07022 6.16552,-7.10442 7.40184,-11.33495 8.55174,-26.72079 11.09896,-46.41088 9.44996,-46.85575 z"
     id="path3554"
     style="stroke-width:30.6365" />
  <path
     style="fill:#d20051;stroke:#d20051;stroke-width:1;stroke-dasharray:none;stroke-opacity:1;fill-opacity:1"
     d="m 179.84544,406.36712 c -5.59668,-1.03484 -11.51611,-7.96414 -17.25035,-20.19332 -2.53831,-5.41335 -5.2227,-12.12809 -6.86473,-17.17141 -0.53696,-1.64921 -1.36031,-4.07211 -1.82967,-5.38421 -0.46936,-1.31211 -0.82862,-2.4104 -0.79837,-2.44065 0.0302,-0.0302 0.40181,0.26739 0.82568,0.66143 5.55827,5.16706 13.59031,9.15643 23.21844,11.53221 4.62648,1.1416 8.58733,1.62704 13.29751,1.62976 3.74936,0.002 6.03412,-0.21523 9.45782,-0.89987 6.20056,-1.23994 11.70835,-4.04308 15.32688,-7.80046 0.48878,-0.50754 0.88869,-0.87706 0.88869,-0.82115 0,0.11272 -2.30401,4.27373 -4.44941,8.03557 -5.41902,9.50195 -10.68872,17.45402 -15.05027,22.71108 -1.61857,1.95091 -5.39379,5.66786 -6.89955,6.79306 -2.51067,1.87614 -4.76901,2.97902 -6.83933,3.34006 -1.35688,0.23662 -1.79027,0.23775 -3.03334,0.008 z m 2.06567,-10.70057 c 0.0225,-0.27154 -0.007,-1.47128 -0.0665,-2.66608 -0.19324,-3.91054 -0.0165,-6.68388 0.81401,-12.77087 0.21242,-1.55686 0.42155,-3.18613 0.46474,-3.62061 0.14424,-1.45079 -0.27556,-1.45754 -0.95694,-0.0154 -0.93611,1.98128 -1.8147,5.56613 -2.13127,8.69614 -0.19411,1.91911 -0.0971,5.48617 0.19242,7.07495 0.24568,1.34821 0.77571,3.08196 1.0698,3.49936 0.31809,0.45147 0.56663,0.3715 0.61372,-0.19749 z"
     id="path2423" />
  <path
     d="m 286.13403,365.17716 c 0.29315,0.0441 1.60837,3.70779 -2.83113,8.64834 -2.13442,2.41511 -5.10672,4.64999 -9.06694,6.54854 v 0 c -6.73835,3.26854 -15.4477,5.5088 -25.73359,5.41728 -7.52514,0.0642 -16.75181,-1.26501 -24.43032,-6.92562 -0.28375,-0.21362 -0.563,-0.43521 -0.83721,-0.66459 -2.8499,-2.38385 -5.04741,-5.51474 -6.23459,-9.10508 -1.43452,-4.78133 -1.01558,-9.52664 0.23028,-13.51694 7.56496,-26.25261 11.28622,-46.15667 13.02589,-45.87703 1.73975,0.27764 1.00024,20.5773 -5.77996,47.85989 -0.7368,3.10106 -1.04783,6.42185 -0.0526,9.12245 0.63549,2.02065 2.05692,3.92238 3.89217,5.48719 0.17659,0.15058 0.35632,0.29747 0.53876,0.44042 5.27239,4.24325 13.05682,5.36687 19.84771,5.82022 9.29743,0.44288 17.06576,-0.86331 23.4355,-3.07484 v 0 c 3.73122,-1.31573 6.37059,-2.65141 8.55004,-4.30172 3.85845,-2.96332 4.76311,-5.98206 5.44568,-5.87953 z"
     id="path3556"
     style="stroke-width:30.6365" />
  <path
     style="fill:#000000;stroke:none"
     d="m 198.46924,143.37414 c -0.0396,-0.0155 -0.34848,-0.66506 0.62601,-1.33023 0.44495,-0.31072 1.04043,-0.5468 1.77505,-0.65723 1.46355,-0.2381 3.14308,-0.1329 5.3029,0.36487 3.98577,0.88854 8.83842,2.80344 14.28435,6.49577 4.40149,2.95326 9.40879,7.30474 13.0191,13.39275 3.14038,5.32493 4.93075,12.32399 3.53778,19.61669 0,0 0,10e-6 0,10e-6 -1.92982,10.17203 -6.92676,21.70666 -16.91016,29.49868 -6.66696,5.16911 -15.68609,8.25765 -24.91416,6.85309 0,0 -0.0402,-0.006 -0.0402,-0.006 -4.5827,-0.75998 -8.86319,-2.283 -12.77031,-4.10854 -4.71771,-2.1804 -9.08538,-4.90522 -12.94598,-8.15233 -3.98576,-3.32055 -7.39102,-7.2939 -9.68135,-11.92317 -2.39077,-4.88015 -3.08616,-10.30282 -2.10325,-15.32597 0.66678,-3.17429 2.01125,-5.94673 3.51548,-8.29133 1.85862,-2.93621 4.01968,-5.49242 6.15839,-7.71762 5.40609,-5.63371 11.31034,-10.02217 16.14628,-13.24304 6.17135,-4.12157 11.00161,-6.64313 14.85802,-8.2215 0.97431,-0.39914 1.81794,-0.70383 2.59936,-0.93719 0.74145,-0.22279 1.34187,-0.35993 1.91434,-0.41371 0.2362,-0.0237 0.46128,-0.0291 0.68173,-0.005 0,0 0,0 0,0 0.15448,4.2e-4 0.36169,0.0622 0.54984,0.17915 0.21612,0.16865 0.25669,0.38108 0.22536,0.54292 0,0 0,1e-5 0,1e-5 -0.13099,0.40516 -0.3982,0.37132 -0.43305,0.35012 -0.084,-0.0511 -0.0348,-0.29075 -0.14988,-0.37837 0,0 0,0 0,0 -0.0243,0.0219 -0.0474,0.0585 0.007,0.13895 0.001,0.0165 -0.0286,0.0699 -0.13882,0.0873 0,0 0,0 0,0 -0.1388,0.0512 -0.25176,0.11095 -0.44648,0.20311 -0.49128,0.23872 -0.84889,0.4514 -1.5372,0.85292 -0.68896,0.40638 -1.35411,0.8179 -2.23968,1.38144 -3.58647,2.28169 -7.59275,4.98989 -13.42973,9.60574 -4.41031,3.49796 -9.84305,8.09407 -14.56804,13.54749 -1.86944,2.16169 -3.70543,4.52289 -5.16535,7.0717 -1.15823,2.05602 -2.15507,4.22192 -2.4829,6.37824 -0.63121,3.62901 0.0564,7.68327 1.89781,11.26329 1.81179,3.57057 4.71017,6.73743 8.17882,9.61163 3.39216,2.78009 7.27396,5.13309 11.49935,7.0628 3.54633,1.59997 7.23848,2.92577 10.98629,3.52177 1e-5,0 0.0299,0.005 0.0299,0.005 6.85956,1.18968 14.12416,-1.33264 19.65559,-5.40242 8.33424,-6.08285 12.90027,-16.21889 15.06365,-25.30261 0,-1e-5 0,-1e-5 0,-1e-5 1.32462,-5.4901 0.1012,-11.2481 -2.22355,-15.74141 -2.73805,-5.3166 -7.01467,-9.53484 -10.82974,-12.60418 -4.84782,-3.85594 -8.94969,-6.04707 -12.53472,-7.44661 -2.00608,-0.76262 -3.18434,-1.12157 -4.49633,-1.24421 -0.6311,-0.0509 -1.00882,-0.0596 -1.39526,0.0261 -0.61751,0.12982 -0.91319,0.46506 -1.07649,0.40103 z"
     id="path2250"
     inkscape:path-effect="#path-effect2252"
     inkscape:original-d="m 198.46924,143.37414 c 2.37295,-6.05145 41.09832,11.15201 35.55064,37.24598 -5.54768,26.09397 -24.31512,35.80017 -38.30684,33.52272 -13.99172,-2.27744 -38.60034,-16.3549 -35.03158,-35.48475 3.56876,-19.12985 46.08538,-43.09507 43.18334,-38.32288"
     class="UnoptimicedTransforms"
     sodipodi:nodetypes="czzzc" />
  <path
     style="fill:#000000;stroke:none"
     d="m 102.98303,124.77892 c -0.0754,-0.0203 -0.0773,-0.23454 -0.19989,-0.3312 0,0 0,0 0,0 -0.0253,-0.0115 -0.0659,-0.013 -0.0744,0.0142 -0.04,0.001 -0.10371,0.0398 -0.21885,0.0683 -0.1428,0.0497 -0.27492,0.11811 -0.46533,0.21625 -0.47444,0.24899 -0.86468,0.50976 -1.51391,0.95128 -0.674792,0.46328 -1.33478,0.94674 -2.194615,1.59796 -1.843243,1.39675 -3.603819,2.8111 -6.156266,4.94075 -2.442205,2.03879 -5.032533,4.26815 -8.08914,6.98357 0,0 -5e-6,0 -5e-6,0 -5.809846,5.16154 -12.408385,11.2817 -19.947473,18.79391 -6.722413,6.69942 -14.131582,14.45557 -21.57231,23.08136 0,0 -8e-6,1e-5 -8e-6,1e-5 -6.397113,7.41881 -13.072419,15.73291 -19.087163,24.7666 -4.817798,7.25795 -9.484405,15.18438 -12.47619,23.69286 -1.2002941,3.41521 -2.1461369,6.92261 -2.5381679,10.44858 -0.3315481,3.03983 -0.297887,6.10146 0.3810001,8.94904 0.4910881,2.11129 1.3403488,4.15918 2.5116228,5.99708 0.305759,0.47977 0.632613,0.94389 0.979574,1.38996 1.888664,2.47367 4.475683,4.49199 7.298343,6.1281 3.090838,1.76362 6.341611,3.12127 9.664923,3.9391 3.121094,0.77394 6.331517,1.08526 9.485521,0.95303 6.606291,-0.2422 13.083023,-2.53629 18.864261,-5.59644 6.841065,-3.63991 12.939525,-8.52603 18.329604,-13.54074 0,0 8e-6,-1e-5 8e-6,-1e-5 6.357891,-5.92761 11.952801,-12.34624 16.812718,-18.44487 11.383433,-14.2836 20.267273,-28.84445 25.867163,-38.3065 6.4774,-11.79172 10.43233,-18.41238 10.97287,-18.17108 0,0 0,1e-5 0,1e-5 0,0 1e-5,0 1e-5,0 0,0 0,0 0,0 0,0 0,0 0,0 0,0 0,0 0,0 0,0 0,0 0,0 0.002,8.3e-4 0.002,7.4e-4 0.001,6.5e-4 -2e-4,-9e-5 -3.9e-4,-1.9e-4 0.001,6.6e-4 0,0 1e-5,0 1e-5,0 0,0 0,0 0,0 0,0 0,0 0,0 0,0 0,1e-5 0,1e-5 0,0 0,0 0,0 0,0 0,0 0,0 0.52869,0.26521 -2.42219,7.3662 -8.07882,19.68607 -5.00403,10.04163 -13.17692,24.97744 -24.479173,40.09656 -4.785027,6.40067 -10.393729,13.16579 -16.923333,19.51896 -4e-6,1e-5 -6e-6,1e-5 -9e-6,1e-5 -5.517965,5.37978 -11.95263,10.69036 -19.423034,14.82873 -6.339477,3.52744 -13.715631,6.17091 -21.635897,6.60168 -3.783152,0.18912 -7.631929,-0.15751 -11.39832,-1.06745 -4.000089,-0.97264 -7.84249,-2.54625 -11.429912,-4.59058 -3.450215,-1.94068 -6.7107415,-4.53107 -9.3189333,-7.85785 -0.4754392,-0.61474 -0.9222243,-1.2507 -1.339282,-1.90551 -1.5975088,-2.5082 -2.7418868,-5.26628 -3.4003074,-8.12408 -0.8595583,-3.80283 -0.9238859,-7.63386 -0.4818807,-11.26582 0.5024936,-4.18921 1.5860174,-8.18684 2.9482716,-11.93208 3.3770656,-9.28764 8.3714478,-17.6322 13.4703148,-25.03598 6.363872,-9.26796 13.345248,-17.64632 20.03361,-25.03596 0,0 8e-6,-1e-5 8e-6,-1e-5 7.782658,-8.60204 15.514951,-16.21981 22.574038,-22.7353 7.877055,-7.27144 14.910217,-13.17703 21.075807,-17.97729 0,0 6e-6,0 6e-6,0 3.231053,-2.51568 6.081789,-4.61462 8.704871,-6.42883 2.681679,-1.85532 4.818904,-3.21122 6.80123,-4.31295 0.946708,-0.52642 1.75853,-0.93686 2.527131,-1.27172 0.716674,-0.31415 1.296244,-0.52191 1.866724,-0.64156 0.23663,-0.0511 0.46138,-0.0795 0.6823,-0.0766 0.17426,-0.007 0.37045,0.034 0.54575,0.12422 0.19222,0.10976 0.27339,0.28017 0.29125,0.42888 0,0 0,1e-5 0,1e-5 0.0142,0.41141 -0.17364,0.47247 -0.24908,0.45212 z"
     id="path3210"
     sodipodi:nodetypes="czc"
     inkscape:original-d="M 102.98303,124.77892 C 105.77685,114.42228 -38.46461,233.26192 17.935522,265.42136 74.335653,297.5808 129.61831,173.30061 129.61831,173.30061"
     inkscape:path-effect="#path-effect3212"
     class="UnoptimicedTransforms" />
  <path
     style="fill:#000000;stroke:none"
     d="m 266.6137,186.54344 c -0.022,-0.0276 -0.0403,-0.0575 -0.0553,-0.0905 -0.0145,-0.0318 -0.0257,-0.066 -0.0336,-0.10275 -0.0158,-0.0733 -0.0185,-0.15604 -0.008,-0.24835 0,0 0,0 0,0 l 0,0 c 0.0204,-0.18384 0.0921,-0.40401 0.21388,-0.65888 l 0,0 c 0.24043,-0.50333 0.6748,-1.13576 1.29799,-1.87798 l 0,0 c 1.20519,-1.43542 3.11081,-3.27188 5.67552,-5.30468 l 0,0 c 4.57336,-3.63384 11.6209,-8.20682 20.43843,-11.28628 3.13439,-1.09635 6.55722,-1.9954 10.18889,-2.48593 0.90903,-0.12279 1.81832,-0.21824 2.72734,-0.28538 4.65191,-0.35158 9.18067,0.15949 13.33,1.52442 5.04326,1.69107 9.04337,4.6082 11.85773,7.68349 0,0 0,0 0,0 7.13532,7.88255 7.60276,14.74542 6.39992,15.26575 -1.20284,0.52033 -4.13865,-5.31046 -10.87019,-10.53711 0,0 0,-1e-5 0,-1e-5 -2.57748,-2.02325 -5.86664,-3.87399 -9.6587,-4.82859 -3.14678,-0.82023 -6.64415,-1.0282 -10.415,-0.73238 -0.74228,0.0598 -1.49054,0.14122 -2.24538,0.2432 -3.00807,0.4064 -5.97515,1.12009 -8.79426,1.94858 -7.82097,2.30408 -15.09504,5.81502 -20.03499,8.15784 l 0,0 c -2.80839,1.33533 -5.12641,2.44079 -6.8066,3.10552 l 0,0 c -0.87182,0.34496 -1.5866,0.57661 -2.12164,0.67115 l 0,0 c -0.27186,0.048 -0.49973,0.0606 -0.68025,0.0357 l 0,0 c 0,0 0,0 0,0 -0.0911,-0.0125 -0.17053,-0.0347 -0.23772,-0.0668 -0.0337,-0.0161 -0.0645,-0.0348 -0.0921,-0.056 -0.0286,-0.022 -0.0537,-0.0465 -0.0757,-0.0741 z"
     id="path582"
     inkscape:path-effect="#path-effect584"
     inkscape:original-d="m 266.61369,186.54345 c 0,0 52.7286,-42.49134 72.0325,2.13294"
     class="UnoptimicedTransforms" />
  <path
     style="fill:#000000;stroke:none"
     d="m 227.56036,154.28061 c 0.002,-0.0374 0.0125,-0.0741 0.0309,-0.11017 0,0 0,0 0,0 0.0237,-0.0349 0.0577,-0.0689 0.10208,-0.10209 0,0 0,0 0,0 0.0885,-0.0662 0.21757,-0.12892 0.3857,-0.18772 l 0,0 c 0.33536,-0.11713 0.82355,-0.21788 1.45342,-0.299 l 0,0 c 1.24696,-0.16061 3.02836,-0.24186 5.25629,-0.2092 l 0,0 c 4.29057,0.0626 10.21362,0.5427 16.89526,1.78259 2.27579,0.42064 4.6499,0.92962 7.06743,1.55183 4.61994,1.18906 8.78066,2.63326 12.5267,4.32138 5.21329,2.31253 8.86612,4.8225 11.35851,7.31055 2.37213,2.36802 3.15366,4.17426 2.81976,4.46378 -0.36346,0.31515 -1.82285,-0.84189 -4.43263,-2.4311 -2.95201,-1.79761 -6.12536,-3.34341 -11.39415,-5.32871 -3.6745,-1.35774 -7.59463,-2.55968 -12.06789,-3.70845 -2.31947,-0.59566 -4.61352,-1.13255 -6.80759,-1.62431 -6.42886,-1.43626 -12.15559,-2.4749 -16.28942,-3.31454 l 0,0 c -2.13652,-0.43383 -3.87564,-0.81861 -5.05749,-1.16046 l 0,0 c -0.60166,-0.17403 -1.06838,-0.33953 -1.38191,-0.49668 l 0,0 c -0.1581,-0.0792 -0.27802,-0.1566 -0.35759,-0.23225 0,0 0,0 0,0 -0.0399,-0.0379 -0.0697,-0.0755 -0.0892,-0.11266 0,0 0,0 0,0 -0.0142,-0.0378 -0.0203,-0.0754 -0.0182,-0.11279 z"
     id="path797"
     inkscape:path-effect="#path-effect799"
     inkscape:original-d="m 227.55159,154.28016 c 0,0 43.77305,2.22422 57.90483,18.52239"
     class="UnoptimicedTransforms"
     sodipodi:nodetypes="cc" />
  <path
     style="fill:#000000;stroke:none"
     d="m 163.3105,425.69875 c 1.05257,-0.25432 3.55445,5.89266 6.79462,16.13325 1.51579,4.06503 3.44727,9.05654 5.8141,14.00505 1.95294,4.0647 4.2866,8.49515 7.30446,12.2028 1.21898,1.4942 2.52159,2.89006 3.95312,3.97439 1.23075,0.91988 2.5181,1.67784 3.80049,2.02322 1.19019,0.35262 2.52583,0.41648 3.80002,0.18123 0.18713,-0.03 0.37537,-0.0678 0.56466,-0.11297 1.40358,-0.33496 2.84447,-1.07001 4.25893,-1.95411 2.24924,-1.43259 4.30039,-3.39617 6.22836,-5.46832 2.78855,-3.02215 5.24741,-6.39362 7.44513,-9.63655 5.88313,-8.68999 11.06577,-18.44242 14.06661,-23.82327 3.34019,-5.98934 5.52288,-9.42483 6.306,-9.1079 0.78312,0.31693 0.0702,4.33181 -2.10373,10.94636 -2.08564,6.3459 -5.91612,16.10563 -11.81828,26.06651 -2.12567,3.59012 -4.6677,7.39677 -7.77963,11.00111 -2.1216,2.47561 -4.65851,4.95265 -7.74179,7.02497 -1.95582,1.33107 -4.25299,2.45194 -6.85014,3.10406 -0.34963,0.0878 -0.70373,0.16683 -1.06217,0.23665 -2.58998,0.47158 -5.23579,0.31359 -7.72195,-0.43759 -2.53605,-0.80115 -4.72143,-2.07623 -6.52786,-3.56333 -2.07917,-1.69792 -3.78599,-3.60533 -5.20196,-5.52101 -3.48863,-4.7133 -5.8395,-9.77975 -7.56718,-14.27899 -2.16771,-5.60551 -3.62506,-10.96364 -4.60839,-15.40554 -1.82299,-10.71734 -2.40653,-17.33558 -1.35342,-17.59002 z"
     id="path834"
     inkscape:path-effect="#path-effect836"
     inkscape:original-d="m 163.3105,425.69874 c 0,0 21.13155,119.99908 70.33649,-1.58314"
     class="UnoptimicedTransforms"
     transform="matrix(1.0732361,0,0,1.0732361,-26.047922,-102.51455)" />
  <path
     style="fill:#000000;stroke:none"
     d="m 181.83389,374.80875 c 0.38106,0.13684 -0.44176,2.95487 -0.85705,6.30933 -0.41528,3.35445 0.26211,5.98005 -0.11708,6.12198 -0.4545,0.17011 -1.76457,-2.55181 -1.33867,-6.29463 0.42533,-3.73794 2.03737,-6.23559 2.3128,-6.13668 z"
     id="path838"
     inkscape:path-effect="#path-effect840"
     inkscape:original-d="m 181.83389,374.80875 c -1.46011,4.06599 -2.57446,8.15566 -0.97414,12.43128"
     class="UnoptimicedTransforms"
     transform="matrix(1.2574251,0,0,1.6503343,-45.679037,-243.0003)"
     sodipodi:nodetypes="cc" />
</svg>
