<?xml version="1.0" encoding="UTF-8" standalone="no"?>
<svg
   id="logo"
   width="512"
   height="512"
   version="1.1"
   viewBox="0 0 512 512"
   sodipodi:docname="curious.svg"
   inkscape:version="1.2.2 (b0a8486541, 2022-12-01)"
   inkscape:export-filename="../../../../static/icons/avatars/foodogsquared/curious.webp"
   inkscape:export-xdpi="96"
   inkscape:export-ydpi="96"
   xmlns:inkscape="http://www.inkscape.org/namespaces/inkscape"
   xmlns:sodipodi="http://sodipodi.sourceforge.net/DTD/sodipodi-0.dtd"
   xmlns="http://www.w3.org/2000/svg"
   xmlns:svg="http://www.w3.org/2000/svg"
   xmlns:rdf="http://www.w3.org/1999/02/22-rdf-syntax-ns#"
   xmlns:cc="http://creativecommons.org/ns#"
   xmlns:dc="http://purl.org/dc/elements/1.1/">
  <defs
     id="defs3579">
    <inkscape:path-effect
       effect="skeletal"
       id="path-effect1896"
       is_visible="true"
       lpeversion="1"
       pattern="M 0,18.867925 C 0,8.4528302 8.4528302,0 18.867925,0 c 10.415094,0 18.867924,8.4528302 18.867924,18.867925 0,10.415094 -8.45283,18.867924 -18.867924,18.867924 C 8.4528302,37.735849 0,29.283019 0,18.867925 Z"
       copytype="single_stretched"
       prop_scale="0.26192181"
       scale_y_rel="false"
       spacing="0"
       normal_offset="0"
       tang_offset="0"
       prop_units="false"
       vertical_pattern="false"
       hide_knot="false"
       fuse_tolerance="0" />
    <inkscape:path-effect
       effect="skeletal"
       id="path-effect1888"
       is_visible="true"
       lpeversion="1"
       pattern="M 0,18.867925 C 0,8.4528302 8.4528302,0 18.867925,0 c 10.415094,0 18.867924,8.4528302 18.867924,18.867925 0,10.415094 -8.45283,18.867924 -18.867924,18.867924 C 8.4528302,37.735849 0,29.283019 0,18.867925 Z"
       copytype="single_stretched"
       prop_scale="0.75798837"
       scale_y_rel="false"
       spacing="0"
       normal_offset="0"
       tang_offset="0"
       prop_units="false"
       vertical_pattern="false"
       hide_knot="false"
       fuse_tolerance="0" />
    <inkscape:path-effect
       effect="skeletal"
       id="path-effect1827"
       is_visible="true"
       lpeversion="1"
       pattern="M 0,18.867925 C 0,8.4528302 8.4528302,0 18.867925,0 c 10.415094,0 18.867924,8.4528302 18.867924,18.867925 0,10.415094 -8.45283,18.867924 -18.867924,18.867924 C 8.4528302,37.735849 0,29.283019 0,18.867925 Z"
       copytype="single_stretched"
       prop_scale="0.11565231"
       scale_y_rel="false"
       spacing="0"
       normal_offset="0"
       tang_offset="0"
       prop_units="false"
       vertical_pattern="false"
       hide_knot="false"
       fuse_tolerance="0" />
    <inkscape:path-effect
       effect="skeletal"
       id="path-effect1815"
       is_visible="true"
       lpeversion="1"
       pattern="M 0,18.867925 C 0,8.4528302 8.4528302,0 18.867925,0 c 10.415094,0 18.867924,8.4528302 18.867924,18.867925 0,10.415094 -8.45283,18.867924 -18.867924,18.867924 C 8.4528302,37.735849 0,29.283019 0,18.867925 Z"
       copytype="single_stretched"
       prop_scale="0.11565231"
       scale_y_rel="false"
       spacing="0"
       normal_offset="0"
       tang_offset="0"
       prop_units="false"
       vertical_pattern="false"
       hide_knot="false"
       fuse_tolerance="0" />
    <inkscape:path-effect
       effect="skeletal"
       id="path-effect1811"
       is_visible="true"
       lpeversion="1"
       pattern="M 0,18.867925 C 0,8.4528302 8.4528302,0 18.867925,0 c 10.415094,0 18.867924,8.4528302 18.867924,18.867925 0,10.415094 -8.45283,18.867924 -18.867924,18.867924 C 8.4528302,37.735849 0,29.283019 0,18.867925 Z"
       copytype="single_stretched"
       prop_scale="0.11565231"
       scale_y_rel="false"
       spacing="0"
       normal_offset="0"
       tang_offset="0"
       prop_units="false"
       vertical_pattern="false"
       hide_knot="false"
       fuse_tolerance="0" />
    <inkscape:path-effect
       effect="skeletal"
       id="path-effect1748"
       is_visible="true"
       lpeversion="1"
       pattern="M 0,18.867925 C 0,8.4528302 8.4528302,0 18.867925,0 c 10.415094,0 18.867924,8.4528302 18.867924,18.867925 0,10.415094 -8.45283,18.867924 -18.867924,18.867924 C 8.4528302,37.735849 0,29.283019 0,18.867925 Z"
       copytype="single_stretched"
       prop_scale="0.11565231"
       scale_y_rel="false"
       spacing="0"
       normal_offset="0"
       tang_offset="0"
       prop_units="false"
       vertical_pattern="false"
       hide_knot="false"
       fuse_tolerance="0" />
    <inkscape:path-effect
       effect="skeletal"
       id="path-effect1740"
       is_visible="true"
       lpeversion="1"
       pattern="M 0,18.867925 C 0,8.4528302 8.4528302,0 18.867925,0 c 10.415094,0 18.867924,8.4528302 18.867924,18.867925 0,10.415094 -8.45283,18.867924 -18.867924,18.867924 C 8.4528302,37.735849 0,29.283019 0,18.867925 Z"
       copytype="single_stretched"
       prop_scale="0.11565231"
       scale_y_rel="false"
       spacing="0"
       normal_offset="0"
       tang_offset="0"
       prop_units="false"
       vertical_pattern="false"
       hide_knot="false"
       fuse_tolerance="0" />
    <inkscape:path-effect
       effect="skeletal"
       id="path-effect3583"
       is_visible="true"
       lpeversion="1"
       pattern="M 0,4.9920401 C 0,2.236434 2.236434,0 4.9920401,0 c 2.7556061,0 4.9920401,2.236434 4.9920401,4.9920401 0,2.7556061 -2.236434,4.9920401 -4.9920401,4.9920401 C 2.236434,9.9840802 0,7.7476462 0,4.9920401 Z"
       copytype="single_stretched"
       prop_scale="0.16377935"
       scale_y_rel="false"
       spacing="0"
       normal_offset="0"
       tang_offset="0"
       prop_units="false"
       vertical_pattern="false"
       hide_knot="false"
       fuse_tolerance="0" />
  </defs>
  <sodipodi:namedview
     id="namedview3577"
     pagecolor="#ffffff"
     bordercolor="#000000"
     borderopacity="0.25"
     inkscape:showpageshadow="2"
     inkscape:pageopacity="0.0"
     inkscape:pagecheckerboard="true"
     inkscape:deskcolor="#d1d1d1"
     showgrid="false"
     inkscape:zoom="0.81658406"
     inkscape:cx="301.86727"
     inkscape:cy="281.66114"
     inkscape:window-width="1366"
     inkscape:window-height="699"
     inkscape:window-x="0"
     inkscape:window-y="0"
     inkscape:window-maximized="1"
     inkscape:current-layer="logo" />
  <metadata
     id="metadata3516">
    <rdf:RDF>
      <cc:Work
         rdf:about="">
        <dc:format>image/svg+xml</dc:format>
        <dc:type
           rdf:resource="http://purl.org/dc/dcmitype/StillImage" />
      </cc:Work>
    </rdf:RDF>
  </metadata>
  <rect
     style="fill:#ffffff;stroke-width:0"
     id="rect1954"
     width="561.5141"
     height="565.10181"
     x="-25.82691"
     y="-17.517714" />
  <g
     transform="translate(-10.292,-6.4467)"
     display="none"
     fill="#684338"
     id="g3522">
    <path
       transform="scale(0.26458)"
       d="m 336.37,57.961 c -32.337,-1.75e-4 -58.551,20.933 -58.551,46.756 -0.001,25.823 26.213,46.758 58.551,46.758 32.337,1.7e-4 58.552,-20.934 58.551,-46.758 0,-4.1532 -0.10627,-12.819 -2.0606,-12.295 -2.4325,0.45751 -4.9948,0.69114 -7.5781,0.69141 -12.38,4.5e-5 -22.416,-5.251 -22.416,-11.729 2e-5,-4.6854 7.0552,-4.274 13.555,-10.773 7.1439,-7.1439 -25.173,-12.65 -40.051,-12.65 z m -20.998,11.193 c 1.1119,-0.0012 2.2216,0.07178 3.3242,0.21875 16.626,2.2224 28.324,20.452 26.129,40.717 -2.1946,20.265 -17.452,34.892 -34.078,32.67 -16.626,-2.2223 -28.325,-20.453 -26.129,-40.719 2.0272,-18.707 15.276,-32.875 30.754,-32.887 z"
       style="paint-order:markers fill stroke"
       id="path3518" />
    <path
       transform="matrix(-0.55675,0.83068,-0.99938,0.035244,-24.308,-23.317)"
       d="m 72.49,-90.929 c -10e-7,2.3455 -3.838,7.9289 -7.8579,7.9289 -2.1718,0 -2.0217,-2.308 -3.1999,-4.1764 -1.0026,-1.5899 -3.4995,-2.6742 -3.4995,-3.7525 -10e-7,-2.3455 3.2588,-4.2469 7.2787,-4.2469 4.0199,0 7.2787,1.9014 7.2787,4.2469 z"
       stroke-width="0"
       style="paint-order:markers fill stroke"
       id="path3520" />
  </g>
  <g
     transform="matrix(30.407139,3.7335271,-3.7335271,30.407139,-907.25047,-1068.2451)"
     id="g3574">
    <g
       transform="translate(-3.8513e-6,1.6565)"
       id="g3572">
      <g
         transform="translate(0,-1.6565)"
         id="g3570">
        <g
           transform="matrix(0.1383,0,0,0.1383,29.742,29.695)"
           stroke-width="7.2309"
           id="g3558">
          <g
             id="g3544">
            <g
               id="g3538">
              <path
                 d="m 98.607,67.778 c -0.26842,2.2305 -5.9248,7.5019 -8.463,7.1965 -2.5383,-0.30546 -6.7778,-6.8435 -6.5094,-9.074 0.26842,-2.2305 5.5303,-3.5246 8.0686,-3.2191 2.5383,0.30546 7.1723,2.8662 6.9039,5.0966 z"
                 id="path3524" />
              <circle
                 transform="rotate(6.8621)"
                 cx="103.62"
                 cy="69.821999"
                 r="0.94344002"
                 style="paint-order:markers fill stroke"
                 id="circle3526" />
              <circle
                 transform="rotate(6.8621)"
                 cx="110.97"
                 cy="59.455002"
                 r="0.94344002"
                 style="paint-order:markers fill stroke"
                 id="circle3528" />
              <circle
                 transform="rotate(6.8621)"
                 cx="113.42"
                 cy="68.699997"
                 r="0.94344002"
                 style="paint-order:markers fill stroke"
                 id="circle3530" />
              <circle
                 transform="rotate(6.8621)"
                 cx="91.964996"
                 cy="65.737"
                 r="0.92624003"
                 style="paint-order:markers fill stroke"
                 id="circle3532" />
              <circle
                 transform="rotate(6.8621)"
                 cx="84.413002"
                 cy="60.097"
                 r="0.92624003"
                 style="paint-order:markers fill stroke"
                 id="circle3534" />
              <circle
                 transform="rotate(6.8621)"
                 cx="84.928001"
                 cy="70.742996"
                 r="0.92624003"
                 style="paint-order:markers fill stroke"
                 id="circle3536" />
            </g>
            <path
               d="m 60.365,31.119 c -0.03353,-0.18871 -4.0209,0.3521 -8.9525,4.0802 -2.7671,2.0761 -5.7527,4.8735 -8.689,8.6062 -2.1657,2.7446 -4.4069,6.085 -5.805,9.9376 -0.51822,1.421 -0.92313,2.9754 -0.98675,4.6071 -0.05788,1.3041 0.16508,2.7045 0.86713,3.9512 0.08233,0.13964 0.16907,0.27609 0.26,0.40928 1.3075,1.915 3.4238,3.0786 5.5762,3.4021 3.0368,0.4471 6.0017,-0.41501 8.4104,-1.6703 7.1912,-3.7482 11.054,-10.607 12.97,-14.898 2.0407,-4.5707 2.6074,-7.4379 2.4466,-7.4895 -0.16078,-0.05158 -1.0465,2.7166 -3.2786,7.0922 -2.09,4.0968 -6.0275,10.66 -12.802,13.984 -2.2539,1.1057 -4.9315,1.8832 -7.5071,1.4525 -1.7657,-0.28928 -3.5272,-1.2414 -4.5244,-2.7435 -0.0694,-0.10453 -0.13488,-0.21145 -0.19624,-0.32068 -0.53116,-0.88927 -0.68979,-2.0128 -0.66576,-3.1161 0.03961,-1.4026 0.4057,-2.8061 0.87288,-4.1451 1.2743,-3.6327 3.3983,-6.8833 5.4525,-9.6122 2.7964,-3.7031 5.6057,-6.506 8.2207,-8.6545 4.71,-3.8396 8.3644,-4.6834 8.3309,-4.8722 z"
               id="path3540" />
            <path
               d="m 136.01,36.031 c -0.1321,0.135 2.7179,3.0095 6.8918,8.2491 v 2e-6 c 2.2607,2.839 5.1336,6.6628 7.6263,11.028 1.8862,3.3156 3.8371,7.283 4.4858,11.524 0.25913,1.6917 0.31013,3.4598 -0.0478,5.1516 -0.2937,1.4062 -0.88404,2.7753 -1.7454,3.9669 -0.10994,0.15209 -0.22394,0.3008 -0.34187,0.44588 -1.0536,1.304 -2.2777,2.4142 -3.6887,3.0693 -1.2045,0.56858 -2.553,0.7928 -3.8364,0.66436 -3.0933,-0.26683 -5.8103,-2.4151 -7.8492,-4.5662 -3.0914,-3.3095 -5.0532,-7.2698 -6.3213,-10.627 v -2e-6 c -3.0997,-8.2309 -2.631,-14.007 -2.8523,-14.012 -0.22133,-0.0054 -1.1266,5.8309 1.7909,14.393 v 2e-6 c 1.1868,3.4942 3.1251,7.6387 6.338,11.204 2.0905,2.3523 5.0662,4.6976 8.7372,5.1282 1.5608,0.16473 3.1835,-0.09477 4.6517,-0.7782 1.6846,-0.79494 3.0992,-2.0472 4.2478,-3.4936 0.13627,-0.16806 0.26788,-0.34007 0.3947,-0.51578 0.9937,-1.3769 1.6675,-2.9458 1.9992,-4.5636 0.39163,-1.9322 0.33334,-3.8834 0.0322,-5.7074 -0.75126,-4.5437 -2.8142,-8.634 -4.813,-11.973 -2.6392,-4.4256 -5.6396,-8.1944 -8.0426,-10.973 v -2e-6 c -4.4172,-5.1101 -7.5252,-7.7487 -7.6573,-7.6137 z"
               id="path3542" />
          </g>
          <g
             stroke-width="7.2309"
             id="g3548">
            <g
               transform="rotate(5.1295,120.58,22.083)"
               stroke-width="7.2309"
               id="g3546" />
          </g>
          <g
             transform="matrix(-1,0,0,1,191.62,0)"
             stroke-width="7.2309"
             id="g3552">
            <g
               transform="rotate(5.1295,120.58,22.083)"
               stroke-width="7.2309"
               id="g3550" />
          </g>
          <path
             transform="translate(-1.2292e-6)"
             d="m 90.268,74.395 c -0.38912,-0.10426 -1.6812,4.4532 -3.8938,10.517 -0.22858,0.68081 -0.65824,1.3339 -1.2459,1.8045 -0.56552,0.46451 -1.3005,0.77805 -2.1103,0.98441 -0.0642,0.01625 -0.12872,0.03172 -0.19354,0.04641 -1.8576,0.42106 -3.8327,0.17383 -5.5421,-0.2673 -2.1609,-0.59441 -3.7475,-1.4013 -4.867,-2.5369 -0.5963,-0.60658 -0.96176,-1.1977 -1.1294,-1.7844 v -10e-7 c -0.39642,-1.2776 0.07999,-2.2227 -0.07706,-2.3046 -0.15705,-0.08186 -1.055,0.67576 -0.87358,2.4827 v 10e-7 c 0.0916,0.79364 0.43976,1.6645 1.102,2.4748 1.191,1.4652 3.0067,2.6288 5.3642,3.3365 1.8866,0.59575 4.1337,0.90666 6.4233,0.41135 0.07946,-0.01719 0.15872,-0.03531 0.23774,-0.05435 1.0242,-0.24561 2.0025,-0.69598 2.8279,-1.3756 0.86525,-0.72464 1.4552,-1.6768 1.747,-2.6753 2.0184,-6.3067 2.6196,-10.954 2.2304,-11.059 z"
             id="path3554" />
          <path
             transform="translate(24.308,23.317)"
             d="m 79.149,64.172 c 0.06919,0.0104 0.37961,0.87512 -0.66821,2.0412 -0.50377,0.57002 -1.2053,1.0975 -2.14,1.5456 h -10e-7 c -1.5904,0.77145 -3.646,1.3002 -6.0737,1.2786 -1.7761,0.01516 -3.9538,-0.29857 -5.7661,-1.6346 -0.06697,-0.05042 -0.13288,-0.10272 -0.1976,-0.15686 -0.67264,-0.56264 -1.1913,-1.3016 -1.4715,-2.149 -0.33858,-1.1285 -0.2397,-2.2485 0.05435,-3.1903 1.7855,-6.1962 2.6638,-10.894 3.0744,-10.828 0.41062,0.06553 0.23608,4.8567 -1.3642,11.296 -0.1739,0.73192 -0.24731,1.5157 -0.01241,2.1531 0.14999,0.47692 0.48548,0.92577 0.91864,1.2951 0.04168,0.03554 0.0841,0.07021 0.12716,0.10395 1.2444,1.0015 3.0817,1.2667 4.6845,1.3737 2.1944,0.10453 4.0279,-0.20376 5.5313,-0.72573 l 10e-7,-10e-7 c 0.88065,-0.31054 1.5036,-0.62579 2.018,-1.0153 0.91068,-0.69941 1.1242,-1.4119 1.2853,-1.3877 z"
             id="path3556" />
        </g>
        <g
           transform="translate(-0.33446,0.20222)"
           id="g3568">
          <g
             id="g3566">
            <path
               d="m 41.326,34.367 c -6.9e-4,0.0268 0.60493,-0.0933 1.0791,0.41098 0.25426,0.24757 0.24127,0.68998 0.05241,1.1659 -0.15498,0.33363 -0.51554,0.62931 -0.92086,0.6265 -0.04466,-3.09e-4 -0.08923,-0.0044 -0.13342,-0.01234 -0.42904,-0.06604 -0.7919,-0.34009 -0.96111,-0.67231 -0.10998,-0.43527 0.17227,-0.84437 0.43165,-1.0843 0.47501,-0.43425 0.88643,-0.52216 0.8817,-0.54664 -0.0044,-0.0226 -0.42993,-4.59e-4 -0.96647,0.44979 -0.29534,0.24564 -0.61565,0.69369 -0.50843,1.2383 1e-6,0 0,0 0,0 0.19231,0.39309 0.60492,0.71718 1.0929,0.79923 0.05461,0.008 0.10931,0.0116 0.16378,0.01104 0.49498,-0.0052 0.90599,-0.34486 1.0816,-0.73965 0.21628,-0.51203 0.18496,-1.0306 -0.11825,-1.3324 -0.58705,-0.54172 -1.1739,-0.34089 -1.1746,-0.31409 z"
               id="path3560" />
            <path
               d="m 44.399,34.58 c 0.0063,0.02801 0.75292,-0.32884 1.3849,0.22956 0.3232,0.25785 0.32248,0.77845 0.13632,1.3332 -0.1358,0.30181 -0.43386,0.55455 -0.78425,0.61965 -0.10939,0.02033 -0.2203,0.0213 -0.32836,8.29e-4 -0.42468,-0.07941 -0.80052,-0.33299 -0.89863,-0.67574 -0.14524,-0.45309 0.1369,-0.90975 0.39422,-1.1431 0.51829,-0.45908 0.9846,-0.48484 0.98419,-0.50972 -3.6e-4,-0.02182 -0.46772,-0.08505 -1.0677,0.41214 -0.29756,0.2416 -0.62278,0.73339 -0.47524,1.2889 0.12757,0.4226 0.54789,0.73174 1.0312,0.81074 0.13159,0.02133 0.26474,0.01865 0.3948,-0.0061 0.41677,-0.07933 0.75767,-0.37287 0.91639,-0.73113 0.21749,-0.59114 0.16834,-1.1914 -0.21228,-1.5103 -0.77541,-0.5949 -1.4819,-0.1469 -1.4756,-0.1189 z"
               id="path3562" />
            <path
               d="m 42.432,34.724 c 0.01626,0.04291 0.50038,-0.13997 1.0483,-0.17549 0.54795,-0.03552 0.87631,0.26576 0.90954,0.23413 0.03323,-0.03164 -0.32059,-0.42096 -0.91803,-0.3967 -0.59744,0.02425 -1.0561,0.29516 -1.0398,0.33807 z"
               id="path3564" />
          </g>
        </g>
      </g>
    </g>
  </g>
  <path
     style="fill:#000000;stroke:none;stroke-width:0"
     d="m 335.99408,267.33756 c 0.83441,0.0326 0.0761,13.61536 2.57578,32.88809 0.71953,5.30582 1.52909,11.64241 4.29756,16.59553 0.72322,1.25049 1.48908,2.40055 2.45483,3.01833 0.62914,0.42968 1.41022,0.68537 2.1,0.61509 0.52229,-0.0106 1.08511,-0.19419 1.6726,-0.47633 0.32815,-0.15759 0.66228,-0.34509 0.99799,-0.54773 1.19406,-0.75531 2.27522,-1.81287 3.30605,-2.96087 2.80232,-3.14215 4.91741,-6.93262 6.69114,-10.59989 2.31786,-4.82686 3.96927,-9.59603 5.14065,-14.04338 1.45281,-5.54778 2.08364,-10.14526 2.1538,-14.29716 0.0855,-7.57933 -2.11802,-11.70018 -1.70068,-11.95702 0.39157,-0.24096 3.72777,3.45214 4.31328,11.878 0.32646,4.36809 -0.004,9.37299 -1.25403,15.20988 -1.00267,4.71196 -2.56419,9.79212 -4.89752,14.95776 -1.75294,3.90944 -4.01225,8.05931 -7.18599,11.71734 -1.16413,1.34962 -2.53927,2.67258 -4.19981,3.76066 -0.46564,0.31484 -0.97228,0.60393 -1.5166,0.85252 -0.97403,0.44483 -2.05809,0.75508 -3.23165,0.85724 -1.79756,0.0951 -3.50461,-0.43269 -4.88287,-1.41106 -1.75136,-1.28824 -2.93462,-2.94139 -3.74317,-4.54004 -3.13982,-6.03782 -3.88903,-12.80743 -4.34809,-18.20684 -1.81443,-19.90442 0.42232,-33.34267 1.25673,-33.31012 z"
     id="path1825"
     inkscape:path-effect="#path-effect1827"
     inkscape:original-d="m 335.99408,267.33756 c -4.36629,111.94061 45.23007,23.48749 29.68974,-1.76531"
     class="UnoptimicedTransforms"
     sodipodi:nodetypes="cc" />
  <g
     id="g1900"
     transform="matrix(0.69812839,0,0,0.59157582,215.88869,69.065077)">
    <path
       style="fill:#000000;stroke:none;stroke-width:0"
       d="m 195.40552,45.857447 c -0.0845,-0.01511 -0.16761,-0.03667 -0.24943,-0.06475 -0.0795,-0.03198 -0.15734,-0.07236 -0.23345,-0.121184 0,0 0,0 0,0 -0.15143,-0.09713 -0.29559,-0.227269 -0.43304,-0.390242 0,0 0,-10e-7 0,-10e-7 l 0,0 c -0.27158,-0.322953 -0.51365,-0.773205 -0.72667,-1.348158 l 0,0 c -0.41471,-1.11938 -0.71162,-2.704246 -0.87268,-4.729118 l 0,-1e-6 c -0.30013,-3.772187 -0.12477,-9.133425 0.76898,-15.750182 l 0,0 c 0.78817,-5.848376 2.18313,-12.946584 4.50698,-20.7001639 l 0,0 c 1.95917,-6.5774977 4.75343,-14.0799531 8.89197,-21.6980381 l 0,0 c 3.29161,-6.187682 7.97172,-12.927132 14.79413,-18.887144 l 0,0 c 2.97549,-2.565519 6.50018,-4.903921 10.5937,-6.771815 l 0,0 c 3.95268,-1.779092 8.30745,-2.94305 12.92839,-3.322688 l 0,0 c 4.87168,-0.351397 9.66722,0.12456 14.19163,1.354456 l 0,0 c 5.21292,1.425152 9.98761,3.543402 14.25795,6.116974 l 0,0 c 11.46351,6.957002 20.6716,16.105049 28.50309,25.920042 2.43503,2.942467 4.87771,6.029789 7.26171,9.2711941 4.95864,6.7420341 9.4747,13.8957391 13.2227,21.6597569 3.66044,6.938878 6.38112,15.723494 6.27591,25.926402 l 0,0 c -0.12699,3.840318 -1.02679,7.839752 -2.75134,11.798502 v 0 l -10e-6,2.2e-5 0,0 c -1.67157,3.639567 -3.9474,6.773792 -6.66355,9.332663 l 0,0 c -5.97122,5.262696 -12.2495,8.010194 -17.78984,9.141934 l 0,0 c -6.54038,1.541708 -12.70727,1.961164 -18.21621,1.85965 l 0,0 c -5.85388,-0.06937 -11.39931,-0.605182 -16.52209,-1.371856 l 0,0 c -4.28611,-0.636052 -8.38397,-1.435959 -12.27604,-2.357148 -1.21248,-0.286668 -2.41894,-0.587762 -3.62274,-0.908699 l 0,0 -10e-6,-3e-6 0,0 c -0.32997,-0.08798 -0.66784,-0.179128 -1.01416,-0.274535 l 0,0 2.3e-4,-2.04e-4 0,0 c 1.97703,-1.769978 3.94296,-3.536196 5.89786,-5.29876 0,0 2.3e-4,-2.04e-4 2.3e-4,-2.04e-4 0,1e-6 -1e-5,0 -1e-5,0 -0.0184,-0.0071 -0.0368,-0.01416 -0.0552,-0.02128 9e-4,3.52e-4 -0.015,-0.0058 -0.0141,-0.0055 3.8188,26.827867 2.18431,46.259948 -2.31853,46.417648 -4.03472,0.1413 -7.56282,-20.075276 -5.90409,-56.117708 0.006,0.0012 0.0215,0.0021 0.0223,0.0022 0.022,0.0013 0.044,0.0026 0.066,0.0039 0,10e-7 0,10e-7 0,10e-7 0,0 2.4e-4,-1.99e-4 2.4e-4,-1.99e-4 2.11265,-1.729972 4.23659,-3.464106 6.37184,-5.202263 l 0,0 2.5e-4,-2e-4 0,0 c 0.26058,0.02661 0.53045,0.05327 0.81317,0.08128 l 0,0 1e-5,1e-6 0,0 c 1.02997,0.101987 2.08369,0.193589 3.1737,0.280727 l 0,0 c 3.49682,0.278626 7.12983,0.471009 10.87936,0.545308 l 0,0 c 4.48195,0.08286 9.11302,0.0096 13.6607,-0.414215 l 0,0 c 4.34423,-0.43725 8.56407,-1.050168 12.12675,-2.299067 2.90584,-1.20142 5.27342,-2.155555 5.84609,-3.304684 0.26416,-0.36396 0.46861,-0.732625 0.49327,-0.989691 v 0 c 0,0 0,-2e-6 0,-2e-6 0.11905,-0.276905 0.12956,-0.92404 0.15351,-1.78518 l 0,0 c 0.32077,-3.012243 -1.70645,-7.133788 -4.10385,-12.610646 -2.82536,-5.707337 -6.51817,-11.297661 -10.80175,-17.082884 -2.05564,-2.7762636 -4.21694,-5.556752 -6.40226,-8.3257422 -7.04856,-8.5790208 -13.46281,-15.7719438 -20.79473,-20.4243778 l 0,0 c -2.57566,-1.654919 -4.96795,-2.970152 -7.23988,-3.705515 l 0,0 c -1.89703,-0.623634 -3.69921,-1.007771 -5.2949,-1.005519 l 0,0 c -1.49486,-0.04508 -3.08963,0.217242 -4.61392,0.701878 l 0,0 c -1.63934,0.501751 -3.35709,1.427985 -5.07147,2.559312 l 0,0 c -4.10997,2.66119 -7.81592,6.984876 -11.17313,11.3829299 l 0,0 c -4.05335,5.4273307 -7.48954,11.4455645 -10.37163,16.862609 l 0,0 c -3.33243,6.2861201 -6.27872,12.6015861 -8.58959,17.5272681 l 0,0 c -2.69259,5.744801 -4.84489,10.305469 -6.69717,13.520245 l 0,1e-6 c -0.97968,1.700512 -1.86601,3.0008 -2.66202,3.852277 l 0,0 c -0.40948,0.438031 -0.79855,0.75915 -1.16477,0.957475 l 0,0 c 0,0 0,1e-6 0,1e-6 -0.18569,0.100915 -0.3665,0.170271 -0.5416,0.207354 0,0 0,0 0,0 -0.0882,0.01867 -0.17504,0.0292 -0.26058,0.03144 -0.0864,-0.0022 -0.1718,-0.0108 -0.25626,-0.0259 z"
       id="path1886"
       inkscape:path-effect="#path-effect1888"
       inkscape:original-d="m 195.40434,45.864213 c 0,0 24.30815,-139.833888 95.82778,-51.4235116 71.51962,88.4103766 -39.28571,64.9260966 -39.28571,64.9260966 l 1.7955,51.268252"
       class="UnoptimicedTransforms"
       transform="translate(6.321516,-26.022206)" />
    <path
       style="fill:#000000;stroke:none;stroke-width:0"
       d="m 261.95162,94.81056 c 1.26586,-0.695957 5.33756,4.042202 10.94611,12.42395 0,0 0,1e-5 0,1e-5 1.59383,3.89935 2.66728,9.23869 1.322,15.11308 -1.78761,6.11974 -6.10169,11.32309 -11.83275,14.64765 -1.25922,0.78308 -2.7454,1.58539 -4.4943,2.24911 -0.0268,0.0127 -0.0541,0.0253 -0.0817,0.0379 -0.99185,0.44899 -2.5062,0.76725 -4.49512,0.72218 -1.70716,-0.0391 -3.44322,-0.94008 -4.98966,-2.68793 l 0,0 c -1.1569,-1.88314 -1.57729,-3.44216 -1.45576,-4.51722 l 0,0 c 0.0357,-3.25952 0.85828,-5.80215 1.65443,-7.61901 l 0,0 c 1.16337,-3.03607 2.55517,-5.80052 3.89687,-8.23812 l 0,0 c 3.62162,-6.6025 7.55513,-12.14927 10.52116,-15.8329 l 0,0 c 1.7995,-2.237047 3.37383,-3.944158 4.61758,-5.043183 l 0,0 c 0.65522,-0.578983 1.21919,-0.990037 1.67996,-1.222206 l 0,0 c 0.23516,-0.118484 0.44299,-0.190332 0.62222,-0.21389 l 0,0 c 0,0 0,0 0,0 0.0905,-0.01201 0.17356,-0.01168 0.24909,0.0012 l 0,0 c 0,0 0,0 0,0 0.0975,0.04502 0.14941,0.06498 0.17698,0.07359 0.0266,0.0083 0.0304,0.006 0.0308,0.0056 0,0 0,0 0,0 2e-5,-2.1e-5 0,1e-5 0,8e-6 0,-2e-6 2e-5,-3.1e-5 1e-5,-3e-6 0,0 0,0 0,0 -2e-4,5.02e-4 -7.7e-4,0.0049 0.0177,0.02573 0.0192,0.02157 0.0588,0.06066 0.13996,0.130987 0,0 0,1e-6 0,1e-6 l 0,0 c 0.043,0.06324 0.078,0.138398 0.10514,0.225035 0,0 0,0 0,0 l 0,0 c 0.0535,0.171879 0.0762,0.389675 0.069,0.651065 l 0,0 c -0.014,0.511869 -0.14165,1.192764 -0.37224,2.026653 l 0,0 c -0.43875,1.586655 -1.24827,3.724856 -2.34732,6.327506 l 0,0 c -1.86935,4.42741 -4.62425,10.14558 -7.46822,16.77777 l 0,0 c -1.03067,2.41171 -2.10327,4.98101 -2.90918,7.50327 l 0,0 c -0.50135,1.84726 -1.05441,3.27908 -0.88023,4.08065 l 0,0 c 0.16511,0.14075 -0.0425,-0.1449 -0.4622,-1.04218 l 0,0 c -0.89096,-0.87169 -1.53206,-1.30012 -2.13728,-1.25431 -0.37699,0.0881 -0.19886,-0.0651 0.34865,-0.18123 0.0161,-0.003 0.0325,-0.007 0.0493,-0.0102 0.84823,-0.29418 1.80001,-0.82563 2.86664,-1.43109 4.0661,-2.52454 7.17147,-5.45506 8.26539,-8.81198 1.3225,-2.91668 1.12984,-6.61482 0.60814,-9.68114 0,0 -10e-6,0 -10e-6,0 -3.7364,-8.60541 -5.52273,-14.542746 -4.26118,-15.23633 z"
       id="path1894"
       inkscape:path-effect="#path-effect1896"
       inkscape:original-d="m 261.9516,94.81054 c 0,0 20.96278,24.19569 -2.08847,37.95709 -23.05124,13.76139 10.45634,-38.057304 10.45634,-38.057304"
       class="UnoptimicedTransforms" />
  </g>
</svg>
