<?xml version="1.0" encoding="UTF-8" standalone="no"?>
<svg
   id="logo"
   width="512"
   height="512"
   version="1.1"
   viewBox="0 0 512 512"
   sodipodi:docname="disappointed.svg"
   inkscape:version="1.2.2 (b0a8486541, 2022-12-01)"
   inkscape:export-filename="../../../../static/icons/avatars/foodogsquared/disappointed.webp"
   inkscape:export-xdpi="96"
   inkscape:export-ydpi="96"
   xmlns:inkscape="http://www.inkscape.org/namespaces/inkscape"
   xmlns:sodipodi="http://sodipodi.sourceforge.net/DTD/sodipodi-0.dtd"
   xmlns="http://www.w3.org/2000/svg"
   xmlns:svg="http://www.w3.org/2000/svg"
   xmlns:rdf="http://www.w3.org/1999/02/22-rdf-syntax-ns#"
   xmlns:cc="http://creativecommons.org/ns#"
   xmlns:dc="http://purl.org/dc/elements/1.1/">
  <defs
     id="defs3579">
    <inkscape:path-effect
       effect="skeletal"
       id="path-effect7329"
       is_visible="true"
       lpeversion="1"
       pattern="M 0,18.867925 C 0,8.4528302 8.4528302,0 18.867925,0 c 10.415094,0 18.867924,8.4528302 18.867924,18.867925 0,10.415094 -8.45283,18.867924 -18.867924,18.867924 C 8.4528302,37.735849 0,29.283019 0,18.867925 Z"
       copytype="single_stretched"
       prop_scale="-0.017256777"
       scale_y_rel="false"
       spacing="0"
       normal_offset="0"
       tang_offset="0"
       prop_units="false"
       vertical_pattern="false"
       hide_knot="false"
       fuse_tolerance="0" />
    <inkscape:path-effect
       effect="skeletal"
       id="path-effect7325"
       is_visible="true"
       lpeversion="1"
       pattern="M 0,18.867925 C 0,8.4528302 8.4528302,0 18.867925,0 c 10.415094,0 18.867924,8.4528302 18.867924,18.867925 0,10.415094 -8.45283,18.867924 -18.867924,18.867924 C 8.4528302,37.735849 0,29.283019 0,18.867925 Z"
       copytype="single_stretched"
       prop_scale="-0.056901661"
       scale_y_rel="false"
       spacing="0"
       normal_offset="0"
       tang_offset="0"
       prop_units="false"
       vertical_pattern="false"
       hide_knot="false"
       fuse_tolerance="0" />
    <inkscape:path-effect
       effect="skeletal"
       id="path-effect7321"
       is_visible="true"
       lpeversion="1"
       pattern="M 0,18.867925 C 0,8.4528302 8.4528302,0 18.867925,0 c 10.415094,0 18.867924,8.4528302 18.867924,18.867925 0,10.415094 -8.45283,18.867924 -18.867924,18.867924 C 8.4528302,37.735849 0,29.283019 0,18.867925 Z"
       copytype="single_stretched"
       prop_scale="-0.056901661"
       scale_y_rel="false"
       spacing="0"
       normal_offset="0"
       tang_offset="0"
       prop_units="false"
       vertical_pattern="false"
       hide_knot="false"
       fuse_tolerance="0" />
    <inkscape:path-effect
       effect="skeletal"
       id="path-effect7317"
       is_visible="true"
       lpeversion="1"
       pattern="M 0,18.867925 C 0,8.4528302 8.4528302,0 18.867925,0 c 10.415094,0 18.867924,8.4528302 18.867924,18.867925 0,10.415094 -8.45283,18.867924 -18.867924,18.867924 C 8.4528302,37.735849 0,29.283019 0,18.867925 Z"
       copytype="single_stretched"
       prop_scale="-0.056901661"
       scale_y_rel="false"
       spacing="0"
       normal_offset="0"
       tang_offset="0"
       prop_units="false"
       vertical_pattern="false"
       hide_knot="false"
       fuse_tolerance="0" />
    <inkscape:path-effect
       effect="skeletal"
       id="path-effect2933"
       is_visible="true"
       lpeversion="1"
       pattern="M 0,18.867925 C 0,8.4528302 8.4528302,0 18.867925,0 c 10.415094,0 18.867924,8.4528302 18.867924,18.867925 0,10.415094 -8.45283,18.867924 -18.867924,18.867924 C 8.4528302,37.735849 0,29.283019 0,18.867925 Z"
       copytype="single_stretched"
       prop_scale="0.34700306"
       scale_y_rel="false"
       spacing="0"
       normal_offset="0"
       tang_offset="0"
       prop_units="false"
       vertical_pattern="false"
       hide_knot="false"
       fuse_tolerance="0" />
    <inkscape:path-effect
       effect="skeletal"
       id="path-effect2929"
       is_visible="true"
       lpeversion="1"
       pattern="M 0,18.867925 C 0,8.4528302 8.4528302,0 18.867925,0 c 10.415094,0 18.867924,8.4528302 18.867924,18.867925 0,10.415094 -8.45283,18.867924 -18.867924,18.867924 C 8.4528302,37.735849 0,29.283019 0,18.867925 Z"
       copytype="single_stretched"
       prop_scale="0.34700306"
       scale_y_rel="false"
       spacing="0"
       normal_offset="0"
       tang_offset="0"
       prop_units="false"
       vertical_pattern="false"
       hide_knot="false"
       fuse_tolerance="0" />
    <inkscape:path-effect
       effect="skeletal"
       id="path-effect2925"
       is_visible="true"
       lpeversion="1"
       pattern="M 0,18.867925 C 0,8.4528302 8.4528302,0 18.867925,0 c 10.415094,0 18.867924,8.4528302 18.867924,18.867925 0,10.415094 -8.45283,18.867924 -18.867924,18.867924 C 8.4528302,37.735849 0,29.283019 0,18.867925 Z"
       copytype="single_stretched"
       prop_scale="0.34700306"
       scale_y_rel="false"
       spacing="0"
       normal_offset="0"
       tang_offset="0"
       prop_units="false"
       vertical_pattern="false"
       hide_knot="false"
       fuse_tolerance="0" />
    <inkscape:path-effect
       effect="skeletal"
       id="path-effect2509"
       is_visible="true"
       lpeversion="1"
       pattern="M 0,18.867925 C 0,8.4528302 8.4528302,0 18.867925,0 c 10.415094,0 18.867924,8.4528302 18.867924,18.867925 0,10.415094 -8.45283,18.867924 -18.867924,18.867924 C 8.4528302,37.735849 0,29.283019 0,18.867925 Z"
       copytype="single_stretched"
       prop_scale="0.26537116"
       scale_y_rel="false"
       spacing="0"
       normal_offset="0"
       tang_offset="0"
       prop_units="false"
       vertical_pattern="false"
       hide_knot="false"
       fuse_tolerance="0" />
    <inkscape:path-effect
       effect="skeletal"
       id="path-effect2505"
       is_visible="true"
       lpeversion="1"
       pattern="M 0,18.867925 C 0,8.4528302 8.4528302,0 18.867925,0 c 10.415094,0 18.867924,8.4528302 18.867924,18.867925 0,10.415094 -8.45283,18.867924 -18.867924,18.867924 C 8.4528302,37.735849 0,29.283019 0,18.867925 Z"
       copytype="single_stretched"
       prop_scale="0.16195015"
       scale_y_rel="false"
       spacing="0"
       normal_offset="0"
       tang_offset="0"
       prop_units="false"
       vertical_pattern="false"
       hide_knot="false"
       fuse_tolerance="0" />
    <inkscape:path-effect
       effect="skeletal"
       id="path-effect2501"
       is_visible="true"
       lpeversion="1"
       pattern="M 0,18.867925 C 0,8.4528302 8.4528302,0 18.867925,0 c 10.415094,0 18.867924,8.4528302 18.867924,18.867925 0,10.415094 -8.45283,18.867924 -18.867924,18.867924 C 8.4528302,37.735849 0,29.283019 0,18.867925 Z"
       copytype="single_stretched"
       prop_scale="0.16195015"
       scale_y_rel="false"
       spacing="0"
       normal_offset="0"
       tang_offset="0"
       prop_units="false"
       vertical_pattern="false"
       hide_knot="false"
       fuse_tolerance="0" />
    <inkscape:path-effect
       effect="skeletal"
       id="path-effect2434"
       is_visible="true"
       lpeversion="1"
       pattern="M 0,18.867925 C 0,8.4528302 8.4528302,0 18.867925,0 c 10.415094,0 18.867924,8.4528302 18.867924,18.867925 0,10.415094 -8.45283,18.867924 -18.867924,18.867924 C 8.4528302,37.735849 0,29.283019 0,18.867925 Z"
       copytype="single_stretched"
       prop_scale="0.16195015"
       scale_y_rel="false"
       spacing="0"
       normal_offset="0"
       tang_offset="0"
       prop_units="false"
       vertical_pattern="false"
       hide_knot="false"
       fuse_tolerance="0" />
    <inkscape:path-effect
       effect="skeletal"
       id="path-effect2430"
       is_visible="true"
       lpeversion="1"
       pattern="M 0,18.867925 C 0,8.4528302 8.4528302,0 18.867925,0 c 10.415094,0 18.867924,8.4528302 18.867924,18.867925 0,10.415094 -8.45283,18.867924 -18.867924,18.867924 C 8.4528302,37.735849 0,29.283019 0,18.867925 Z"
       copytype="single_stretched"
       prop_scale="0.16195015"
       scale_y_rel="false"
       spacing="0"
       normal_offset="0"
       tang_offset="0"
       prop_units="false"
       vertical_pattern="false"
       hide_knot="false"
       fuse_tolerance="0" />
    <inkscape:path-effect
       effect="skeletal"
       id="path-effect2426"
       is_visible="true"
       lpeversion="1"
       pattern="M 0,18.867925 C 0,8.4528302 8.4528302,0 18.867925,0 c 10.415094,0 18.867924,8.4528302 18.867924,18.867925 0,10.415094 -8.45283,18.867924 -18.867924,18.867924 C 8.4528302,37.735849 0,29.283019 0,18.867925 Z"
       copytype="single_stretched"
       prop_scale="0.16195015"
       scale_y_rel="false"
       spacing="0"
       normal_offset="0"
       tang_offset="0"
       prop_units="false"
       vertical_pattern="false"
       hide_knot="false"
       fuse_tolerance="0" />
    <inkscape:path-effect
       effect="skeletal"
       id="path-effect2422"
       is_visible="true"
       lpeversion="1"
       pattern="M 0,18.867925 C 0,8.4528302 8.4528302,0 18.867925,0 c 10.415094,0 18.867924,8.4528302 18.867924,18.867925 0,10.415094 -8.45283,18.867924 -18.867924,18.867924 C 8.4528302,37.735849 0,29.283019 0,18.867925 Z"
       copytype="single_stretched"
       prop_scale="0.16195015"
       scale_y_rel="false"
       spacing="0"
       normal_offset="0"
       tang_offset="0"
       prop_units="false"
       vertical_pattern="false"
       hide_knot="false"
       fuse_tolerance="0" />
    <inkscape:path-effect
       effect="skeletal"
       id="path-effect2308"
       is_visible="true"
       lpeversion="1"
       pattern="M 0,18.867925 C 0,8.4528302 8.4528302,0 18.867925,0 c 10.415094,0 18.867924,8.4528302 18.867924,18.867925 0,10.415094 -8.45283,18.867924 -18.867924,18.867924 C 8.4528302,37.735849 0,29.283019 0,18.867925 Z"
       copytype="single_stretched"
       prop_scale="0.16195015"
       scale_y_rel="false"
       spacing="0"
       normal_offset="0"
       tang_offset="0"
       prop_units="false"
       vertical_pattern="false"
       hide_knot="false"
       fuse_tolerance="0" />
    <inkscape:path-effect
       effect="skeletal"
       id="path-effect2252"
       is_visible="true"
       lpeversion="1"
       pattern="M 0,18.867925 C 0,8.4528302 8.4528302,0 18.867925,0 c 10.415094,0 18.867924,8.4528302 18.867924,18.867925 0,10.415094 -8.45283,18.867924 -18.867924,18.867924 C 8.4528302,37.735849 0,29.283019 0,18.867925 Z"
       copytype="single_stretched"
       prop_scale="0.18576939"
       scale_y_rel="false"
       spacing="0"
       normal_offset="0"
       tang_offset="0"
       prop_units="false"
       vertical_pattern="false"
       hide_knot="false"
       fuse_tolerance="0" />
    <inkscape:path-effect
       effect="skeletal"
       id="path-effect2248"
       is_visible="true"
       lpeversion="1"
       pattern="M 0,18.867925 C 0,8.4528302 8.4528302,0 18.867925,0 c 10.415094,0 18.867924,8.4528302 18.867924,18.867925 0,10.415094 -8.45283,18.867924 -18.867924,18.867924 C 8.4528302,37.735849 0,29.283019 0,18.867925 Z"
       copytype="single_stretched"
       prop_scale="0.18576939"
       scale_y_rel="false"
       spacing="0"
       normal_offset="0"
       tang_offset="0"
       prop_units="false"
       vertical_pattern="false"
       hide_knot="false"
       fuse_tolerance="0" />
    <inkscape:path-effect
       effect="skeletal"
       id="path-effect2244"
       is_visible="true"
       lpeversion="1"
       pattern="M 0,18.867925 C 0,8.4528302 8.4528302,0 18.867925,0 c 10.415094,0 18.867924,8.4528302 18.867924,18.867925 0,10.415094 -8.45283,18.867924 -18.867924,18.867924 C 8.4528302,37.735849 0,29.283019 0,18.867925 Z"
       copytype="single_stretched"
       prop_scale="0.18576939"
       scale_y_rel="false"
       spacing="0"
       normal_offset="0"
       tang_offset="0"
       prop_units="false"
       vertical_pattern="false"
       hide_knot="false"
       fuse_tolerance="0" />
    <inkscape:path-effect
       effect="skeletal"
       id="path-effect3583"
       is_visible="true"
       lpeversion="1"
       pattern="M 0,4.9920401 C 0,2.236434 2.236434,0 4.9920401,0 c 2.7556061,0 4.9920401,2.236434 4.9920401,4.9920401 0,2.7556061 -2.236434,4.9920401 -4.9920401,4.9920401 C 2.236434,9.9840802 0,7.7476462 0,4.9920401 Z"
       copytype="single_stretched"
       prop_scale="0.16377935"
       scale_y_rel="false"
       spacing="0"
       normal_offset="0"
       tang_offset="0"
       prop_units="false"
       vertical_pattern="false"
       hide_knot="false"
       fuse_tolerance="0" />
  </defs>
  <sodipodi:namedview
     id="namedview3577"
     pagecolor="#ffffff"
     bordercolor="#000000"
     borderopacity="0.25"
     inkscape:showpageshadow="2"
     inkscape:pageopacity="0.0"
     inkscape:pagecheckerboard="0"
     inkscape:deskcolor="#d1d1d1"
     showgrid="false"
     inkscape:zoom="1.1990659"
     inkscape:cx="254.78166"
     inkscape:cy="337.76292"
     inkscape:window-width="1366"
     inkscape:window-height="699"
     inkscape:window-x="0"
     inkscape:window-y="0"
     inkscape:window-maximized="1"
     inkscape:current-layer="logo" />
  <metadata
     id="metadata3516">
    <rdf:RDF>
      <cc:Work
         rdf:about="">
        <dc:format>image/svg+xml</dc:format>
        <dc:type
           rdf:resource="http://purl.org/dc/dcmitype/StillImage" />
      </cc:Work>
    </rdf:RDF>
  </metadata>
  <rect
     style="fill:#ffffff;fill-opacity:1;stroke-width:0"
     id="rect494"
     width="656.91217"
     height="540.18237"
     x="-72.456085"
     y="-14.091187" />
  <g
     transform="translate(-10.292,-6.4467)"
     display="none"
     fill="#684338"
     id="g3522">
    <path
       transform="scale(0.26458)"
       d="m 336.37,57.961 c -32.337,-1.75e-4 -58.551,20.933 -58.551,46.756 -0.001,25.823 26.213,46.758 58.551,46.758 32.337,1.7e-4 58.552,-20.934 58.551,-46.758 0,-4.1532 -0.10627,-12.819 -2.0606,-12.295 -2.4325,0.45751 -4.9948,0.69114 -7.5781,0.69141 -12.38,4.5e-5 -22.416,-5.251 -22.416,-11.729 2e-5,-4.6854 7.0552,-4.274 13.555,-10.773 7.1439,-7.1439 -25.173,-12.65 -40.051,-12.65 z m -20.998,11.193 c 1.1119,-0.0012 2.2216,0.07178 3.3242,0.21875 16.626,2.2224 28.324,20.452 26.129,40.717 -2.1946,20.265 -17.452,34.892 -34.078,32.67 -16.626,-2.2223 -28.325,-20.453 -26.129,-40.719 2.0272,-18.707 15.276,-32.875 30.754,-32.887 z"
       style="paint-order:markers fill stroke"
       id="path3518" />
    <path
       transform="matrix(-0.55675,0.83068,-0.99938,0.035244,-24.308,-23.317)"
       d="m 72.49,-90.929 c -10e-7,2.3455 -3.838,7.9289 -7.8579,7.9289 -2.1718,0 -2.0217,-2.308 -3.1999,-4.1764 -1.0026,-1.5899 -3.4995,-2.6742 -3.4995,-3.7525 -10e-7,-2.3455 3.2588,-4.2469 7.2787,-4.2469 4.0199,0 7.2787,1.9014 7.2787,4.2469 z"
       stroke-width="0"
       style="paint-order:markers fill stroke"
       id="path3520" />
  </g>
  <g
     id="g3538"
     transform="matrix(4.2368884,0,0,4.2368884,-152.20173,-5.5039648)"
     style="stroke-width:7.2309">
    <path
       d="m 98.607,67.778 c -0.26842,2.2305 -5.9248,7.5019 -8.463,7.1965 -2.5383,-0.30546 -6.7778,-6.8435 -6.5094,-9.074 0.26842,-2.2305 5.5303,-3.5246 8.0686,-3.2191 2.5383,0.30546 7.1723,2.8662 6.9039,5.0966 z"
       id="path3524" />
    <circle
       transform="rotate(6.8621)"
       cx="103.62"
       cy="69.821999"
       r="0.94344002"
       style="paint-order:markers fill stroke"
       id="circle3526" />
    <circle
       transform="rotate(6.8621)"
       cx="110.97"
       cy="59.455002"
       r="0.94344002"
       style="paint-order:markers fill stroke"
       id="circle3528" />
    <circle
       transform="rotate(6.8621)"
       cx="113.42"
       cy="68.699997"
       r="0.94344002"
       style="paint-order:markers fill stroke"
       id="circle3530" />
    <circle
       transform="rotate(6.8621)"
       cx="91.964996"
       cy="65.737"
       r="0.92624003"
       style="paint-order:markers fill stroke"
       id="circle3532" />
    <circle
       transform="rotate(6.8621)"
       cx="84.413002"
       cy="60.097"
       r="0.92624003"
       style="paint-order:markers fill stroke"
       id="circle3534" />
    <circle
       transform="rotate(6.8621)"
       cx="84.928001"
       cy="70.742996"
       r="0.92624003"
       style="paint-order:markers fill stroke"
       id="circle3536" />
  </g>
  <path
     d="m 103.55804,126.34377 c -0.14206,-0.79955 -17.036106,1.4918 -37.930745,17.28735 -11.723894,8.7962 -24.373548,20.64847 -36.814323,36.46351 -9.17583,11.62856 -18.671544,25.78146 -24.5951376,42.1045 -2.1956403,6.02062 -3.91119879,12.60644 -4.18074963,19.51977 -0.2452311,5.52532 0.69942553,11.45866 3.67393303,16.74079 0.348823,0.59164 0.7163307,1.16976 1.101591,1.73407 5.5397312,8.11365 14.5062582,13.04369 23.6257372,14.41432 12.866583,1.89431 25.428533,-1.75835 35.633926,-7.07687 30.468312,-15.88071 46.834568,-44.94068 54.952438,-63.12117 8.64622,-19.36554 11.04727,-31.51355 10.36598,-31.73217 -0.68121,-0.21854 -4.43391,11.50993 -13.89107,30.04886 -8.85509,17.35768 -25.537841,45.16523 -54.240642,59.24865 -9.549523,4.68472 -20.894215,7.9789 -31.806745,6.15408 C 21.971159,266.90381 14.507881,262.86978 10.282855,256.50555 9.9888153,256.06267 9.7113839,255.60966 9.4514084,255.14687 7.2009428,251.37913 6.5288452,246.61886 6.6306576,241.9443 6.7984808,236.00164 8.3495632,230.05517 10.328953,224.38197 15.72802,208.99063 24.727171,195.2182 33.430587,183.65615 45.278621,167.96653 57.181312,156.09096 68.260775,146.988 88.21652,130.72005 103.6998,127.14496 103.55787,126.34504 Z"
     id="path3540"
     style="stroke-width:30.6365" />
  <path
     style="fill:#000000;stroke:none"
     d="m 424.45041,147.38268 c 0.208,-0.15592 1.35822,0.9206 3.55601,3.04908 1.29544,1.25199 3.37524,3.3052 5.46301,5.41988 3.85828,3.9078 9.54231,9.83481 15.56809,16.53071 0,0 1e-5,1e-5 1e-5,1e-5 10.33464,11.48116 24.96802,28.69198 37.98362,48.78061 5.50916,8.50132 11.04193,18.00543 15.6831,28.32535 3.9039,8.65739 7.32494,18.24731 8.93437,28.48211 1.36927,8.59077 1.28883,17.93838 -1.58843,26.88425 -1.38909,4.25288 -3.42188,8.32926 -6.04898,12.04524 -0.53997,0.76136 -1.10251,1.50573 -1.68616,2.23286 -2.49062,3.10289 -5.33381,5.8523 -8.38141,8.24428 -3.99787,3.15451 -8.31585,5.91006 -12.97316,8.01575 -4.02524,1.81952 -8.29219,3.09097 -12.674,3.64806 -8.26529,1.00644 -16.44506,-0.76444 -23.39436,-4.28718 -7.83421,-3.99003 -14.25648,-9.77189 -19.47563,-15.76558 -6.35824,-7.26988 -11.3916,-15.1861 -15.4758,-22.76809 -4.81668,-8.92949 -8.52489,-17.77848 -11.40736,-25.93929 -3.28685,-9.29904 -5.53233,-17.76717 -7.04035,-25.34239 0,0 0,-1e-5 0,-1e-5 -1.7174,-8.59634 -2.36323,-15.17238 -2.28379,-20.94199 0.0408,-3.13985 0.31774,-5.54938 0.79865,-7.6095 0.80921,-3.5767 2.20122,-4.94788 2.43795,-4.7915 0.23034,0.15217 -0.55734,1.71388 -0.85286,5.04262 -0.16364,2.02937 -0.15253,4.21478 0.0873,7.2798 0.44667,5.64906 1.4821,11.74483 3.61579,20.16009 10e-6,10e-6 10e-6,10e-6 10e-6,10e-6 1.86448,7.32915 4.40315,15.47627 7.92905,24.45405 3.09089,7.86472 6.94502,16.36553 11.79989,24.86711 4.12836,7.21954 9.07368,14.68102 15.13738,21.3639 5.00114,5.48611 10.87196,10.68481 17.71151,14.00764 5.94726,2.90426 12.83936,4.35995 19.53482,3.44289 3.61392,-0.47094 7.2132,-1.57984 10.68387,-3.15446 4.03238,-1.829 7.85733,-4.30505 11.50824,-7.17919 2.66354,-2.10945 5.12916,-4.48925 7.24987,-7.13236 0.49702,-0.61945 0.97365,-1.25157 1.42844,-1.89616 2.21836,-3.13231 3.94595,-6.58368 5.12893,-10.17463 2.5267,-7.53433 2.57694,-15.82532 1.44622,-23.67455 -1.37684,-9.40296 -4.534,-18.47721 -8.15456,-26.86277 -4.3183,-9.97331 -9.54807,-19.31186 -14.76381,-27.75831 -12.23878,-19.81556 -26.35143,-37.61362 -35.92192,-49.41436 0,0 0,-1e-5 0,-1e-5 -5.81091,-7.16365 -10.7195,-13.01993 -14.35938,-17.48613 -2.04522,-2.50952 -3.53766,-4.38117 -4.78446,-6.04772 -1.81954,-2.43172 -2.6277,-3.8942 -2.4197,-4.05012 z"
     id="path2242"
     inkscape:path-effect="#path-effect2244"
     inkscape:original-d="m 424.45041,147.38268 c 9.4878,12.65694 128.1482,129.29932 67.3168,177.24575 -66.68933,52.56356 -111.62855,-94.40297 -99.32143,-113.03307"
     class="UnoptimicedTransforms"
     sodipodi:nodetypes="csc" />
  <g
     transform="matrix(4.2199204,0.37880798,-0.37880798,4.2199204,-141.79051,-50.805926)"
     stroke-width="7.2309"
     id="g3546" />
  <g
     transform="matrix(-4.2199204,0.37880798,0.37880798,4.2199204,649.25961,-50.805926)"
     stroke-width="7.2309"
     id="g3550" />
  <path
     style="fill:#000000;stroke:none"
     d="m 160.34113,176.80535 c -0.041,-0.10301 0.087,-0.23103 0.36276,-0.39967 0.19812,-0.11856 0.46121,-0.24277 0.80608,-0.38216 0.66677,-0.26937 1.55257,-0.5588 2.73172,-0.89178 2.22936,-0.62945 5.22654,-1.33309 9.13187,-2.10292 6.42775,-1.26755 15.84728,-2.82379 26.55826,-3.74025 4.25747,-0.36483 8.95939,-0.64717 13.82893,-0.63962 0,0 1e-5,0 1e-5,0 3.71614,-4.6e-4 7.79316,0.15535 11.93384,0.88473 1.55344,0.27118 3.18985,0.65881 4.84422,1.26473 1.27747,0.44849 2.65279,1.13167 3.97594,2.18384 1.10691,0.86266 2.05475,2.1296 2.62269,3.77136 0,0 0,2e-5 0,2e-5 0.47772,1.74002 0.40799,3.40349 -0.0626,4.81156 -2.8554,9.5248 -8.64737,18.49731 -16.68929,25.80625 -3.46079,3.18585 -7.49973,6.10549 -12.15466,8.16452 -3.81683,1.73868 -8.34906,2.755 -13.08095,2.0664 -0.21027,-0.0349 -0.42009,-0.0713 -0.62946,-0.1094 -4.33657,-0.78871 -8.40357,-2.24963 -12.14369,-3.99292 -4.70021,-2.167 -9.07702,-4.88218 -12.96146,-8.13648 -3.96721,-3.29183 -7.39977,-7.25716 -9.7223,-11.91556 -2.38866,-4.83978 -3.13891,-10.27439 -2.16365,-15.37795 0.33579,-1.69357 1.0725,-3.2468 2.1219,-4.55044 1.13232,-1.36907 2.44995,-2.39315 3.79038,-3.129 3.44491,-1.88381 7.07161,-2.63857 10.30009,-2.99456 4.44958,-0.54022 8.79287,-0.50974 12.76435,-0.28902 0,0 1e-5,0 1e-5,0 4.94531,0.26932 9.6467,0.85762 13.89828,1.54725 10.60473,1.71489 18.70086,3.97548 24.81204,6.21632 3.48195,1.27017 5.71003,2.29202 7.57734,3.51696 0.86974,0.55723 1.45266,1.05286 1.85457,1.62237 0.19103,0.25343 0.30071,0.53155 0.32776,0.78014 0.0607,0.58315 -0.33883,0.57637 -0.34447,0.57294 -0.0878,-0.0534 -0.0926,-0.26453 -0.23781,-0.39092 -0.0966,-0.11531 -0.19114,-0.15864 -0.40498,-0.30998 -0.52742,-0.34566 -0.92097,-0.47666 -1.91527,-0.86565 -2.17551,-0.81255 -3.92069,-1.28353 -7.68383,-2.19315 -6.28425,-1.50297 -14.0974,-3.04287 -24.62792,-4.16303 -4.1637,-0.44034 -8.73134,-0.79161 -13.4414,-0.84936 0,0 -1e-5,0 -1e-5,0 -3.79988,-0.0425 -7.83367,0.0701 -11.76245,0.69151 -2.89854,0.49352 -5.79474,1.11493 -7.99428,2.4994 -0.80779,0.50815 -1.51429,1.05285 -1.95104,1.66563 -0.39764,0.52415 -0.68043,1.16343 -0.77908,1.79867 -0.6544,3.63198 0.0319,7.6671 1.83741,11.21131 1.80202,3.5863 4.70211,6.75906 8.13786,9.61924 3.39732,2.79699 7.27892,5.15297 11.48389,7.07865 3.39137,1.53425 6.90422,2.81025 10.46713,3.44117 0.17211,0.0305 0.34422,0.0594 0.51631,0.0868 2.85506,0.54623 6.09479,-0.28859 9.1677,-1.54935 3.759,-1.60391 7.19831,-4.08991 10.32331,-6.86503 7.24218,-6.525 12.55705,-14.3523 15.19777,-22.59389 0.12368,-0.51313 0.22294,-0.92422 0.12343,-1.08158 0,0 0,0 0,0 0.0131,-0.18192 -0.25296,-0.47668 -0.58702,-0.82133 -0.49416,-0.47043 -1.27416,-0.84499 -2.17031,-1.23232 -1.1582,-0.47559 -2.4454,-0.81135 -3.77939,-1.09883 -3.5705,-0.76246 -7.3336,-1.02691 -10.90857,-1.1802 0,0 0,0 0,0 -4.64253,-0.19175 -9.23057,-0.12187 -13.41234,0.0189 -10.31305,0.3486 -20.16914,1.23479 -26.42621,1.78194 -3.69653,0.32356 -7.21219,0.63329 -9.26395,0.77811 -1.16284,0.0822 -2.17752,0.13516 -2.83487,0.145 -0.35469,0.005 -0.65802,-0.001 -0.86847,-0.0189 -0.293,-0.0172 -0.46755,-0.0888 -0.4961,-0.1605 z"
     id="path2250"
     inkscape:path-effect="#path-effect2252"
     inkscape:original-d="m 160.34113,176.80535 c 2.30337,-0.91714 79.11077,-13.74435 73.67875,3.81477 -5.43202,17.55912 -24.31512,35.80017 -38.30684,33.52272 -13.99172,-2.27744 -38.60034,-16.3549 -35.03158,-35.48475 3.56876,-19.12985 76.85221,-2.06728 73.95017,2.70491"
     class="UnoptimicedTransforms"
     sodipodi:nodetypes="czzzc" />
  <path
     style="fill:#000000;stroke:none"
     d="m 265.21567,185.63646 c -0.15353,-0.10409 0.15686,-1.24689 1.83733,-2.69753 0.85333,-0.74161 1.94398,-1.48419 3.38809,-2.23348 2.55708,-1.32915 5.60548,-2.43843 9.70015,-3.45954 0,0 1e-5,0 1e-5,0 6.90378,-1.73014 15.15697,-2.88659 25.56365,-3.13823 4.05055,-0.10079 8.40188,-0.0466 12.9186,0.28712 3.53581,0.25829 7.31852,0.69152 11.13295,1.54341 2.56804,0.5397 5.46603,1.35062 8.20076,3.04223 0.93617,0.55507 1.91573,1.39748 2.75031,2.61142 0.7204,1.09924 1.06645,2.44643 0.93292,3.89791 -0.50881,4.19114 -2.07571,8.00339 -3.93025,11.53248 -2.19953,4.28193 -4.92921,8.37912 -8.1187,12.23184 -3.03049,3.68105 -6.57324,7.23612 -10.76403,10.16745 -3.36599,2.42745 -7.54797,4.49452 -12.35657,4.85463 -1.78732,0.0879 -3.55343,0.002 -5.28938,-0.21886 -2.91855,-0.37213 -5.71384,-1.12358 -8.32343,-2.04179 -5.22593,-1.7929 -10.07969,-4.36109 -14.3749,-7.54143 -4.59881,-3.38129 -8.54822,-7.55675 -11.31759,-12.45558 -2.96194,-5.27809 -4.19024,-11.28049 -3.62354,-16.98827 0.16313,-1.69628 0.68858,-3.36757 1.57759,-4.88212 0.89845,-1.48148 2.06437,-2.68719 3.35187,-3.60903 3.13398,-2.19566 6.6377,-3.15 9.77594,-3.59682 4.28427,-0.66556 8.49098,-0.66361 12.32176,-0.45365 0,0 0,0 0,0 4.82077,0.25686 9.42694,0.86906 13.57229,1.57014 10.28488,1.73723 18.89508,4.16423 24.81525,6.12037 3.57428,1.18018 6.07557,2.1518 8.03294,3.07036 1.00655,0.47191 1.68192,0.84014 2.21133,1.21316 0.25829,0.18132 0.43707,0.33253 0.56486,0.48689 0.0627,0.0747 0.10814,0.14481 0.13314,0.21187 0,0 0,0 0,0 0.061,0.11757 -0.002,0.18479 -0.0347,0.18684 -0.0427,0.003 -0.0835,0.0206 -0.14863,-0.009 0,0 0,0 0,0 -0.0247,-0.005 -0.12547,-0.0221 -0.18296,-0.0373 -0.1566,-0.0383 -0.36455,-0.0855 -0.64821,-0.15934 -0.55595,-0.14099 -1.33456,-0.33512 -2.35839,-0.59088 -2.51534,-0.62493 -4.14651,-1.02792 -8.2407,-1.94117 -5.9595,-1.32729 -14.69043,-3.16243 -24.74906,-4.37293 -4.07004,-0.48882 -8.5509,-0.89753 -13.13556,-0.9725 0,0 -1e-5,0 -1e-5,0 -3.66276,-0.0544 -7.548,0.0577 -11.28139,0.76583 -2.75088,0.56218 -5.50551,1.30548 -7.43108,2.85432 -0.75813,0.59224 -1.41364,1.28048 -1.82453,2.03767 -0.43355,0.74673 -0.68191,1.66385 -0.76551,2.62358 -0.38424,4.5286 0.72018,9.37142 3.15276,13.58047 2.30039,4.01718 5.74049,7.5176 9.79676,10.49636 3.82107,2.78379 8.14438,5.0393 12.78407,6.61959 2.36911,0.78409 4.77405,1.44196 7.14265,1.7626 1.40964,0.19082 2.79697,0.26102 4.15468,0.17271 3.09797,-0.0831 6.2614,-1.77498 9.24566,-3.74383 3.62196,-2.47741 6.80171,-5.64442 9.64842,-8.99725 2.97162,-3.5209 5.52084,-7.23056 7.57632,-11.08685 1.71582,-3.29968 3.14412,-6.405 3.51967,-9.52801 0.0424,-0.004 -0.008,-0.14623 -0.0657,-0.2714 -0.11783,-0.28381 -0.54139,-0.59738 -1.07387,-0.99881 -1.71378,-1.20546 -4.05336,-1.85767 -6.44066,-2.4969 -3.43002,-0.87164 -6.96913,-1.37914 -10.35973,-1.74698 -4.31386,-0.46456 -8.5193,-0.6752 -12.45786,-0.74622 -10.22071,-0.17607 -18.10904,0.45526 -24.97091,1.59948 0,0 -1e-5,0 -1e-5,0 -4.0847,0.68643 -6.92183,1.38769 -9.52305,2.32814 -1.45104,0.52557 -2.49777,1.00467 -3.41425,1.51869 -1.70095,0.96232 -2.41122,1.75462 -2.59758,1.62827 z"
     id="path2306"
     inkscape:path-effect="#path-effect2308"
     inkscape:original-d="m 265.21567,185.63646 c 8.34016,-12.30119 75.0985,-12.34313 73.66417,-0.48048 -1.43433,11.86265 -18.56565,35.28587 -32.57981,36.07117 -14.01416,0.7853 -42.08469,-13.28166 -39.97988,-35.93883 2.10481,-22.65717 73.43052,-1.73664 73.54413,0.0599"
     class="UnoptimicedTransforms"
     sodipodi:nodetypes="czzzc" />
  <path
     style="fill:#000000;stroke:none"
     d="m 144.4608,125.80406 c 0.002,-0.0181 0.008,-0.0354 0.0179,-0.0524 0.0126,-0.0153 0.0307,-0.0306 0.0536,-0.0454 0,0 0,0 0,0 0.0453,-0.0291 0.1123,-0.0577 0.19867,-0.0842 0,0 0,0 0,0 l 0,0 c 0.17024,-0.0525 0.42501,-0.10124 0.75326,-0.14407 l 0,0 c 0.64252,-0.084 1.60571,-0.15186 2.83135,-0.20451 l 0,0 c 2.34461,-0.10078 5.82368,-0.15308 10.12166,-0.19322 l 0,0 c 7.2188,-0.0675 19.09138,-0.096 31.34895,-0.49825 l 0,0 c 9.67691,-0.32057 21.66359,-0.81376 33.24871,-2.57326 l 0,0 c 4.13332,-0.63391 8.3679,-1.40457 12.3167,-2.74439 l 0,0 c 1.45688,-0.49769 2.84597,-1.04245 4.06792,-1.73773 l 0,0 c 0.93334,-0.55517 1.74188,-1.08389 2.21398,-1.69213 l 0,0 0,0 0,0 c 0.91087,-1.09171 2.07213,-2.06688 3.4739,-2.80312 l 0,0 c 1.33476,-0.66949 2.7446,-1.04277 4.13976,-1.14515 0,0 1e-5,0 1e-5,0 3.29089,-0.19032 6.24921,0.5818 8.80467,1.52244 0.42219,0.14594 0.84175,0.29604 1.25899,0.44977 3.16184,1.16496 6.18269,2.53733 9.04322,3.80904 4.41687,1.95736 8.61916,3.80003 12.882,5.46232 12.64091,4.93073 24.7935,7.83066 36.07505,9.21237 32.04492,3.94996 53.92837,-1.88723 54.15229,-0.81887 0.22392,1.06836 -21.34888,8.93554 -54.69707,5.97123 -11.75969,-1.0546 -24.4919,-3.79608 -37.67476,-8.77808 -4.43391,-1.67607 -8.75394,-3.52896 -13.19413,-5.47559 -2.90731,-1.27061 -5.81997,-2.59233 -8.6963,-3.64933 -0.38006,-0.13967 -0.75963,-0.27481 -1.139,-0.40489 -2.38581,-0.76094 -4.50874,-1.43626 -6.33964,-1.22571 0,0 0,0 0,0 -0.69175,0.0609 -1.33935,0.21277 -1.85537,0.48636 -0.56718,0.26706 -1.11538,0.74811 -1.62748,1.32211 l 0,0 -1e-5,1e-5 0,0 c -1.21527,1.3669 -2.58183,2.33599 -3.89534,3.02767 -1.70655,0.92985 -3.44326,1.60782 -5.11921,2.14405 l 0,0 c -4.51931,1.45482 -9.09114,2.23585 -13.37575,2.79825 l 0,0 c -12.11605,1.60821 -24.19703,1.7603 -34.00296,1.6809 l 0,0 c -12.79006,-0.0989 -23.90007,-0.7734 -31.52281,-1.44291 l 0,0 c -4.34323,-0.38139 -7.72609,-0.77718 -10.09593,-1.14908 l 0,0 c -1.2279,-0.19272 -2.15654,-0.37459 -2.79711,-0.54677 l 0,0 c -0.32406,-0.0872 -0.56639,-0.16935 -0.73141,-0.2492 l 0,0 c 0,0 0,0 0,0 -0.0825,-0.0401 -0.14386,-0.0783 -0.18509,-0.11632 0,0 0,0 0,0 -0.0206,-0.019 -0.0355,-0.0373 -0.0454,-0.0558 -0.007,-0.0192 -0.01,-0.038 -0.008,-0.0562 z"
     id="path2420"
     inkscape:path-effect="#path-effect2422"
     inkscape:original-d="m 144.45584,125.8027 c 0.0825,0.0948 87.71855,5.76792 99.48078,-8.00077 12.51703,-14.65225 41.57999,31.73494 127.52682,13.72135"
     class="UnoptimicedTransforms"
     transform="translate(-3.2351288,40.299365)"
     sodipodi:nodetypes="csc" />
  <path
     style="fill:#000000;stroke:none"
     d="m 198.14729,139.8944 c -0.12835,-0.50063 2.37335,-1.64486 6.87977,-3.24073 3.65927,-1.40138 9.52593,-3.58694 15.47905,-6.33083 4.80524,-2.22622 10.62045,-5.1168 15.39385,-9.08024 1.85813,-1.55146 3.62291,-3.26688 4.8723,-5.21681 1.03377,-1.62952 1.79914,-3.44397 1.87957,-5.21025 0.0602,-0.89942 0.1136,-1.80253 0.16964,-2.73092 0.015,-0.35574 0.0342,-0.88857 0.13168,-1.58645 0.9193,-0.1617 1.88504,-0.46551 2.90325,-0.90978 0.31407,0.0592 0.61919,0.0991 0.92902,0.14224 0.24901,0.0346 0.48969,0.0825 0.72129,0.1165 0.52912,0.0778 1.02376,0.11093 1.49036,0.0956 0.19878,0.62843 0.28793,1.07343 0.33689,1.31586 0.0384,0.16387 0.0774,0.32748 0.117,0.49078 0.31982,1.31774 0.67597,2.59189 1.09247,3.81898 0.75005,2.21467 1.67501,4.31957 2.75951,6.28436 3.2653,5.93358 8.11089,10.50134 13.13441,13.44546 7.45556,4.43899 15.89567,5.81713 21.06491,6.49323 5.50379,0.71985 8.77149,0.91605 8.80546,1.47903 0.034,0.56298 -3.16379,1.45326 -8.95535,1.62824 -5.50086,0.16619 -14.51455,-0.43115 -23.45362,-4.96338 -5.99658,-3.08857 -11.80924,-8.14183 -15.83144,-15.13008 -1.30627,-2.27474 -2.41201,-4.70722 -3.29382,-7.26317 -0.49459,-1.43642 -0.90779,-2.88944 -1.26221,-4.35261 -0.0439,-0.18134 -0.0868,-0.36244 -0.12883,-0.54325 -0.11313,-0.45287 -0.14861,-0.7111 -0.17642,-0.75676 0.4443,-0.0817 0.91634,-0.11561 1.40962,-0.0979 0.21591,0.008 0.4334,0.0201 0.65324,0.0641 0.27349,0.0547 0.56815,0.14114 0.87044,0.23667 0.99234,-0.36423 1.9446,-0.58452 2.851,-0.66307 -0.0364,0.17068 -0.0375,0.52056 -0.0772,1.03741 -0.0602,0.92622 -0.1212,1.84956 -0.19181,2.78237 -0.26561,3.07863 -1.40775,5.84441 -2.97684,8.10428 -1.81033,2.6221 -4.03076,4.7141 -6.25498,6.40657 -5.67518,4.33814 -11.98427,7.08452 -17.14785,8.99026 -6.57532,2.44368 -12.50192,3.89565 -16.56959,4.66653 -4.75179,0.77756 -7.49643,0.97855 -7.6248,0.47782 z"
     id="path2424"
     inkscape:path-effect="#path-effect2426"
     inkscape:original-d="m 198.14727,139.8944 c 0,0 46.1915,-9.98679 47.53932,-28.86216 1.34782,-18.875361 -4.89209,31.58717 50.62109,28.23817"
     class="UnoptimicedTransforms"
     transform="translate(-0.571801,17.113432)" />
  <path
     style="fill:#000000;stroke:none"
     d="m 233.67267,173.04044 c -0.43394,-1.26556 4.18529,-4.03791 11.14265,-6.84726 0,0 10e-6,0 10e-6,0 2.05158,-0.4436 4.32851,-0.68157 6.72805,-0.57926 2.04334,0.0871 3.9962,0.41364 5.81385,0.94586 0,0 0,0 0,0 9.05763,2.83329 11.19649,9.1535 10.55616,9.74981 -0.50942,0.4744 -1.8948,-0.15829 -3.94733,-1.13346 -2.03776,-0.96814 -4.82504,-2.28341 -8.10359,-2.93766 0,0 0,0 0,0 -1.37017,-0.30684 -2.82005,-0.50426 -4.37316,-0.58725 -1.8155,-0.097 -3.60518,-0.0285 -5.28811,0.11999 0,0 0,0 0,0 -6.84189,1.92423 -12.09588,2.53101 -12.52853,1.26923 z"
     id="path2428"
     inkscape:path-effect="#path-effect2430"
     inkscape:original-d="m 233.67264,173.04046 c 0,0 20.10929,-11.90558 34.24073,3.2691"
     class="UnoptimicedTransforms"
     transform="translate(1.6327237,2.5903088)" />
  <path
     style="fill:#000000;stroke:none"
     d="m 231.55745,313.17101 c 1.6805,0.14481 2.13257,10.84359 1.00909,23.88119 -1.12349,13.0376 -3.39918,23.50132 -5.07968,23.3565 -1.6805,-0.14481 -2.13257,-10.84358 -1.00909,-23.88119 1.12349,-13.0376 3.39918,-23.50131 5.07968,-23.3565 z"
     id="path2503"
     inkscape:path-effect="#path-effect2505"
     inkscape:original-d="m 231.55745,313.17101 -4.07059,47.23769"
     class="UnoptimicedTransforms"
     transform="matrix(1.4158524,0,0,1.172393,-97.977881,-56.45567)" />
  <path
     style="fill:#000000;stroke:none"
     d="m 311.00393,378.6544 c -0.39735,0.74613 -4.11322,-0.33003 -10.32613,-2.84727 -1.89384,-0.73493 -4.90908,-1.93947 -7.36622,-2.8489 -0.9448,-0.34961 -1.92848,-0.70482 -2.88882,-1.00023 -0.67888,-0.197 -1.20127,-0.36819 -1.51941,-0.36097 -10.61302,-1.3139 -21.59572,-2.13498 -36.60611,-2.62289 -9.18237,-0.29487 -18.65881,-0.40091 -28.91867,-0.34513 -3.39402,0.0185 -6.74894,0.0539 -10.04882,0.10044 -27.56442,0.3921 -43.54495,1.231 -60.9402,1.75584 l 0,0 c -3.20375,0.0992 -11.18815,0.2438 -12.39599,0.26324 l 0,0 c -0.91204,0.0211 -1.65564,0.0103 -2.28943,0.0505 l 0,0 c -0.1808,0.0251 -0.26003,0.001 -0.25815,-0.0251 l 0,0 c 0.0664,0.369 0.21921,-0.12622 0.56092,-1.33781 l 0,0 c -0.57866,-0.8963 -0.78026,-1.17195 -0.7417,-0.88288 l 0,0 c -0.0237,0.0272 0.0316,0.0592 0.13619,0.10789 l 0,0 c 0.29494,0.13388 0.68491,0.26468 0.97238,0.36815 l 0,0 c 0.44585,0.16171 0.79574,0.30405 1.05905,0.45085 l 0,0 c 0.154,0.0859 0.27299,0.17087 0.35559,0.25561 l 0,0 c 0,0 0,0 0,0 0.044,0.0453 0.0777,0.0907 0.10081,0.136 0,0 0,0 0,0 0.0118,0.07 0.0209,0.10687 0.0272,0.12632 0.006,0.019 0.01,0.0212 0.0105,0.0215 0,0 0,0 0,0 0,0 0,0 0,0 1e-4,3e-5 7e-5,3e-5 7e-5,3e-5 0,0 3e-5,0 -7e-5,3e-5 0,0 0,0 0,0 0,0 0,0 0,0 -7.2e-4,2.5e-4 -0.004,0.002 -0.0107,0.0214 -0.007,0.0194 -0.016,0.0562 -0.0286,0.12595 0,0 0,0 0,0 -0.0241,0.045 -0.0593,0.0897 -0.10551,0.13407 0,0 0,0 0,0 l 0,0 c -0.0859,0.0829 -0.21001,0.16443 -0.37169,0.24375 l 0,0 c -0.26876,0.13196 -0.65316,0.26233 -1.14086,0.37018 l 0,0 c -0.32423,0.0742 -0.74835,0.14809 -1.24382,0.16402 l 0,0 c -0.13887,0.0106 -0.33969,2.7e-4 -0.61148,-0.0583 l 0,0 c -0.0844,0.24518 -0.44988,-0.0719 -1.05356,-1.10134 l 0,0 c 0.31674,-1.34122 0.64039,-1.92507 0.83147,-1.61567 l 0,0 c 0.30951,-0.1826 0.56614,-0.29827 0.74144,-0.3695 l 0,0 c 0.79419,-0.35017 1.57982,-0.59755 2.48338,-0.86639 l 0,0 c 3.32468,-0.9924 7.08014,-1.7629 12.34956,-2.68291 l 0,0 c 14.77026,-2.57761 36.0194,-4.93221 61.36002,-5.60505 3.34479,-0.0892 6.74819,-0.14659 10.19768,-0.16528 10.36275,-0.0562 20.15576,0.2428 29.45784,0.89345 14.90838,1.03753 26.99382,2.85345 37.36202,5.41992 1.13128,0.27744 1.99659,0.64548 2.63719,0.96108 1.10117,0.50601 2.12702,1.04307 3.0577,1.55297 2.66333,1.45638 5.08505,2.95961 7.01013,4.21776 5.58442,3.7655 8.55225,6.24847 8.15484,6.9947 z"
     id="path2507"
     inkscape:path-effect="#path-effect2509"
     inkscape:original-d="m 311.00397,378.65442 c 0,0 -17.44874,-9.64194 -21.48026,-10.39196 -45.0432,-8.37983 -112.59643,-3.36527 -137.44568,-0.82739 -24.84925,2.53788 -12.15106,2.58452 -12.15106,2.58452"
     class="UnoptimicedTransforms"
     sodipodi:nodetypes="cszc"
     transform="translate(-1.8308646,-1.8308646)" />
  <path
     style="fill:#000000;stroke:none"
     d="m 150.22057,374.6329 c 0.0251,0.51761 25.1069,-0.26468 58.40179,-1.77775 0,0 1e-5,0 1e-5,0 4.75015,-0.14959 9.7632,-0.30186 14.80145,-0.42862 10.29524,-0.25901 19.49898,-0.38012 28.44556,-0.31553 0,0 0,0 0,0 6.13167,0.0447 11.3241,0.15782 16.49116,0.52719 0,0 10e-6,0 10e-6,0 2.0886,0.14963 3.99707,0.32731 5.86221,0.61025 1.40446,0.21721 2.64839,0.43394 3.80243,0.86977 10.49069,3.98948 16.93852,6.30145 17.12698,6.08742 0.003,-0.005 0.003,-0.005 0.002,-0.005 -3e-5,7e-5 6e-5,3.1e-4 0.002,-0.005 0.0208,-0.28107 -6.23842,-3.04643 -16.60925,-7.39265 -1.30059,-0.53158 -2.64859,-0.82103 -4.0717,-1.07399 -1.91466,-0.34556 -3.86852,-0.57918 -5.97487,-0.77769 0,0 0,0 0,0 -5.19179,-0.49006 -10.48077,-0.69921 -16.60464,-0.8187 0,0 0,0 0,0 -8.9237,-0.17463 -18.27424,-0.11054 -28.5359,0.14759 -5.06504,0.12741 -10.05496,0.29439 -14.82483,0.47358 0,0 0,0 0,0 -33.29742,1.71442 -58.33969,3.36144 -58.3146,3.87906 z"
     id="path7323"
     inkscape:path-effect="#path-effect7325"
     inkscape:original-d="m 150.22056,374.6329 c 0,0 112.89786,-7.15043 128.06559,-1.17227 15.16773,5.97816 16.86851,6.74021 16.86851,6.74021"
     class="UnoptimicedTransforms"
     transform="translate(6.6087548,6.1271016)" />
  <path
     style="fill:#000000;stroke:none"
     d="m 279.36175,379.96235 c 2e-5,0.011 0.01,0.0214 0.0294,0.032 0,0 0,0 0,0 0.0183,0.01 0.0451,0.0197 0.0799,0.0294 0,0 0,0 0,0 0.0688,0.0192 0.16978,0.0383 0.29868,0.0578 l 0,0 0,0 c 0.25094,0.038 0.62025,0.079 1.06753,0.12722 l 0,0 c 0.85008,0.0916 2.04243,0.21317 3.34767,0.42491 0,0 0,0 0,0 0.35918,0.0586 0.73144,0.12357 1.10671,0.19776 0.97813,0.19337 1.81667,0.41832 2.59062,0.70356 1.77725,0.67416 2.59834,1.70624 2.7065,1.641 0.17499,-0.10555 -0.53782,-1.35882 -2.49117,-2.1793 -0.7916,-0.34087 -1.67615,-0.60613 -2.67939,-0.80485 -0.38756,-0.0768 -0.76924,-0.13899 -1.13751,-0.19055 0,0 0,0 0,0 -1.34717,-0.18983 -2.55332,-0.23436 -3.42411,-0.22011 l 0,0 c -0.45905,0.007 -0.82622,0.0317 -1.08401,0.0641 l 0,0 0,0 c -0.13051,0.0164 -0.2316,0.0349 -0.30119,0.0544 0,0 0,0 0,0 -0.035,0.01 -0.0618,0.0199 -0.0802,0.0301 0,0 0,0 0,0 -0.0196,0.0109 -0.0294,0.0216 -0.0294,0.0326 z"
     id="path7327"
     inkscape:path-effect="#path-effect7329"
     inkscape:original-d="m 279.36166,379.96235 c 0,0 9.2103,-0.12979 11.22708,3.21363"
     class="UnoptimicedTransforms"
     transform="translate(0.71660193,3.6256033)" />
</svg>
