<?xml version="1.0" encoding="UTF-8" standalone="no"?>
<svg
   id="logo"
   width="512"
   height="512"
   version="1.1"
   viewBox="0 0 512 512"
   sodipodi:docname="nervous.svg"
   inkscape:version="1.2.2 (b0a8486541, 2022-12-01)"
   inkscape:export-filename="../../../../static/icons/avatars/foodogsquared/nervous.webp"
   inkscape:export-xdpi="96"
   inkscape:export-ydpi="96"
   xmlns:inkscape="http://www.inkscape.org/namespaces/inkscape"
   xmlns:sodipodi="http://sodipodi.sourceforge.net/DTD/sodipodi-0.dtd"
   xmlns="http://www.w3.org/2000/svg"
   xmlns:svg="http://www.w3.org/2000/svg"
   xmlns:rdf="http://www.w3.org/1999/02/22-rdf-syntax-ns#"
   xmlns:cc="http://creativecommons.org/ns#"
   xmlns:dc="http://purl.org/dc/elements/1.1/">
  <defs
     id="defs3579">
    <inkscape:path-effect
       effect="skeletal"
       id="path-effect1733"
       is_visible="true"
       lpeversion="1"
       pattern="M 0,18.867925 C 0,8.4528302 8.4528302,0 18.867925,0 c 10.415094,0 18.867924,8.4528302 18.867924,18.867925 0,10.415094 -8.45283,18.867924 -18.867924,18.867924 C 8.4528302,37.735849 0,29.283019 0,18.867925 Z"
       copytype="single_stretched"
       prop_scale="0.11565231"
       scale_y_rel="false"
       spacing="0"
       normal_offset="0"
       tang_offset="0"
       prop_units="false"
       vertical_pattern="false"
       hide_knot="false"
       fuse_tolerance="0" />
    <inkscape:path-effect
       effect="skeletal"
       id="path-effect4138"
       is_visible="true"
       lpeversion="1"
       pattern="M 0,18.867925 C 0,8.4528302 8.4528302,0 18.867925,0 c 10.415094,0 18.867924,8.4528302 18.867924,18.867925 0,10.415094 -8.45283,18.867924 -18.867924,18.867924 C 8.4528302,37.735849 0,29.283019 0,18.867925 Z"
       copytype="single_stretched"
       prop_scale="0.11565231"
       scale_y_rel="false"
       spacing="0"
       normal_offset="0"
       tang_offset="0"
       prop_units="false"
       vertical_pattern="false"
       hide_knot="false"
       fuse_tolerance="0" />
    <inkscape:path-effect
       effect="skeletal"
       id="path-effect4134"
       is_visible="true"
       lpeversion="1"
       pattern="M 0,18.867925 C 0,8.4528302 8.4528302,0 18.867925,0 c 10.415094,0 18.867924,8.4528302 18.867924,18.867925 0,10.415094 -8.45283,18.867924 -18.867924,18.867924 C 8.4528302,37.735849 0,29.283019 0,18.867925 Z"
       copytype="single_stretched"
       prop_scale="0.11565231"
       scale_y_rel="false"
       spacing="0"
       normal_offset="0"
       tang_offset="0"
       prop_units="false"
       vertical_pattern="false"
       hide_knot="false"
       fuse_tolerance="0" />
    <inkscape:path-effect
       effect="skeletal"
       id="path-effect4130"
       is_visible="true"
       lpeversion="1"
       pattern="M 0,18.867925 C 0,8.4528302 8.4528302,0 18.867925,0 c 10.415094,0 18.867924,8.4528302 18.867924,18.867925 0,10.415094 -8.45283,18.867924 -18.867924,18.867924 C 8.4528302,37.735849 0,29.283019 0,18.867925 Z"
       copytype="single_stretched"
       prop_scale="0.11565231"
       scale_y_rel="false"
       spacing="0"
       normal_offset="0"
       tang_offset="0"
       prop_units="false"
       vertical_pattern="false"
       hide_knot="false"
       fuse_tolerance="0" />
    <inkscape:path-effect
       effect="skeletal"
       id="path-effect4122"
       is_visible="true"
       lpeversion="1"
       pattern="M 0,18.867925 C 0,8.4528302 8.4528302,0 18.867925,0 c 10.415094,0 18.867924,8.4528302 18.867924,18.867925 0,10.415094 -8.45283,18.867924 -18.867924,18.867924 C 8.4528302,37.735849 0,29.283019 0,18.867925 Z"
       copytype="single_stretched"
       prop_scale="0.11565231"
       scale_y_rel="false"
       spacing="0"
       normal_offset="0"
       tang_offset="0"
       prop_units="false"
       vertical_pattern="false"
       hide_knot="false"
       fuse_tolerance="0" />
    <inkscape:path-effect
       effect="skeletal"
       id="path-effect4118"
       is_visible="true"
       lpeversion="1"
       pattern="M 0,18.867925 C 0,8.4528302 8.4528302,0 18.867925,0 c 10.415094,0 18.867924,8.4528302 18.867924,18.867925 0,10.415094 -8.45283,18.867924 -18.867924,18.867924 C 8.4528302,37.735849 0,29.283019 0,18.867925 Z"
       copytype="single_stretched"
       prop_scale="0.11565231"
       scale_y_rel="false"
       spacing="0"
       normal_offset="0"
       tang_offset="0"
       prop_units="false"
       vertical_pattern="false"
       hide_knot="false"
       fuse_tolerance="0" />
    <inkscape:path-effect
       effect="skeletal"
       id="path-effect4114"
       is_visible="true"
       lpeversion="1"
       pattern="M 0,18.867925 C 0,8.4528302 8.4528302,0 18.867925,0 c 10.415094,0 18.867924,8.4528302 18.867924,18.867925 0,10.415094 -8.45283,18.867924 -18.867924,18.867924 C 8.4528302,37.735849 0,29.283019 0,18.867925 Z"
       copytype="single_stretched"
       prop_scale="0.11565231"
       scale_y_rel="false"
       spacing="0"
       normal_offset="0"
       tang_offset="0"
       prop_units="false"
       vertical_pattern="false"
       hide_knot="false"
       fuse_tolerance="0" />
    <inkscape:path-effect
       effect="skeletal"
       id="path-effect4089"
       is_visible="true"
       lpeversion="1"
       pattern="M 0,18.867925 C 0,8.4528302 8.4528302,0 18.867925,0 c 10.415094,0 18.867924,8.4528302 18.867924,18.867925 0,10.415094 -8.45283,18.867924 -18.867924,18.867924 C 8.4528302,37.735849 0,29.283019 0,18.867925 Z"
       copytype="single_stretched"
       prop_scale="0.089509747"
       scale_y_rel="false"
       spacing="0"
       normal_offset="0"
       tang_offset="0"
       prop_units="false"
       vertical_pattern="false"
       hide_knot="false"
       fuse_tolerance="0" />
    <inkscape:path-effect
       effect="skeletal"
       id="path-effect4085"
       is_visible="true"
       lpeversion="1"
       pattern="M 0,18.867925 C 0,8.4528302 8.4528302,0 18.867925,0 c 10.415094,0 18.867924,8.4528302 18.867924,18.867925 0,10.415094 -8.45283,18.867924 -18.867924,18.867924 C 8.4528302,37.735849 0,29.283019 0,18.867925 Z"
       copytype="single_stretched"
       prop_scale="0.10823953"
       scale_y_rel="false"
       spacing="0"
       normal_offset="0"
       tang_offset="0"
       prop_units="false"
       vertical_pattern="false"
       hide_knot="false"
       fuse_tolerance="0" />
    <inkscape:path-effect
       effect="skeletal"
       id="path-effect4081"
       is_visible="true"
       lpeversion="1"
       pattern="M 0,18.867925 C 0,8.4528302 8.4528302,0 18.867925,0 c 10.415094,0 18.867924,8.4528302 18.867924,18.867925 0,10.415094 -8.45283,18.867924 -18.867924,18.867924 C 8.4528302,37.735849 0,29.283019 0,18.867925 Z"
       copytype="single_stretched"
       prop_scale="0.11565231"
       scale_y_rel="false"
       spacing="0"
       normal_offset="0"
       tang_offset="0"
       prop_units="false"
       vertical_pattern="false"
       hide_knot="false"
       fuse_tolerance="0" />
    <inkscape:path-effect
       effect="skeletal"
       id="path-effect4077"
       is_visible="true"
       lpeversion="1"
       pattern="M 0,18.867925 C 0,8.4528302 8.4528302,0 18.867925,0 c 10.415094,0 18.867924,8.4528302 18.867924,18.867925 0,10.415094 -8.45283,18.867924 -18.867924,18.867924 C 8.4528302,37.735849 0,29.283019 0,18.867925 Z"
       copytype="single_stretched"
       prop_scale="0.41142985"
       scale_y_rel="false"
       spacing="0"
       normal_offset="0"
       tang_offset="0"
       prop_units="false"
       vertical_pattern="false"
       hide_knot="false"
       fuse_tolerance="0" />
    <inkscape:path-effect
       effect="skeletal"
       id="path-effect4073"
       is_visible="true"
       lpeversion="1"
       pattern="M 0,18.867925 C 0,8.4528302 8.4528302,0 18.867925,0 c 10.415094,0 18.867924,8.4528302 18.867924,18.867925 0,10.415094 -8.45283,18.867924 -18.867924,18.867924 C 8.4528302,37.735849 0,29.283019 0,18.867925 Z"
       copytype="single_stretched"
       prop_scale="0.41142985"
       scale_y_rel="false"
       spacing="0"
       normal_offset="0"
       tang_offset="0"
       prop_units="false"
       vertical_pattern="false"
       hide_knot="false"
       fuse_tolerance="0" />
    <inkscape:path-effect
       effect="skeletal"
       id="path-effect4065"
       is_visible="true"
       lpeversion="1"
       pattern="M 0,18.867925 C 0,8.4528302 8.4528302,0 18.867925,0 c 10.415094,0 18.867924,8.4528302 18.867924,18.867925 0,10.415094 -8.45283,18.867924 -18.867924,18.867924 C 8.4528302,37.735849 0,29.283019 0,18.867925 Z"
       copytype="single_stretched"
       prop_scale="0.41142985"
       scale_y_rel="false"
       spacing="0"
       normal_offset="0"
       tang_offset="0"
       prop_units="false"
       vertical_pattern="false"
       hide_knot="false"
       fuse_tolerance="0" />
    <inkscape:path-effect
       effect="skeletal"
       id="path-effect4061"
       is_visible="true"
       lpeversion="1"
       pattern="M 0,18.867925 C 0,8.4528302 8.4528302,0 18.867925,0 c 10.415094,0 18.867924,8.4528302 18.867924,18.867925 0,10.415094 -8.45283,18.867924 -18.867924,18.867924 C 8.4528302,37.735849 0,29.283019 0,18.867925 Z"
       copytype="single_stretched"
       prop_scale="0.32385725"
       scale_y_rel="false"
       spacing="0"
       normal_offset="0"
       tang_offset="0"
       prop_units="false"
       vertical_pattern="false"
       hide_knot="false"
       fuse_tolerance="0" />
    <inkscape:path-effect
       effect="skeletal"
       id="path-effect4052"
       is_visible="true"
       lpeversion="1"
       pattern="M 0,18.867925 C 0,8.4528302 8.4528302,0 18.867925,0 c 10.415094,0 18.867924,8.4528302 18.867924,18.867925 0,10.415094 -8.45283,18.867924 -18.867924,18.867924 C 8.4528302,37.735849 0,29.283019 0,18.867925 Z"
       copytype="single_stretched"
       prop_scale="0.16377935"
       scale_y_rel="false"
       spacing="0"
       normal_offset="0"
       tang_offset="0"
       prop_units="false"
       vertical_pattern="false"
       hide_knot="false"
       fuse_tolerance="0" />
    <inkscape:path-effect
       effect="skeletal"
       id="path-effect4048"
       is_visible="true"
       lpeversion="1"
       pattern="M 0,18.867925 C 0,8.4528302 8.4528302,0 18.867925,0 c 10.415094,0 18.867924,8.4528302 18.867924,18.867925 0,10.415094 -8.45283,18.867924 -18.867924,18.867924 C 8.4528302,37.735849 0,29.283019 0,18.867925 Z"
       copytype="single_stretched"
       prop_scale="0.16377935"
       scale_y_rel="false"
       spacing="0"
       normal_offset="0"
       tang_offset="0"
       prop_units="false"
       vertical_pattern="false"
       hide_knot="false"
       fuse_tolerance="0" />
    <inkscape:path-effect
       effect="skeletal"
       id="path-effect4044"
       is_visible="true"
       lpeversion="1"
       pattern="M 0,18.867925 C 0,8.4528302 8.4528302,0 18.867925,0 c 10.415094,0 18.867924,8.4528302 18.867924,18.867925 0,10.415094 -8.45283,18.867924 -18.867924,18.867924 C 8.4528302,37.735849 0,29.283019 0,18.867925 Z"
       copytype="single_stretched"
       prop_scale="0.16377935"
       scale_y_rel="false"
       spacing="0"
       normal_offset="0"
       tang_offset="0"
       prop_units="false"
       vertical_pattern="false"
       hide_knot="false"
       fuse_tolerance="0" />
    <inkscape:path-effect
       effect="skeletal"
       id="path-effect3816"
       is_visible="true"
       lpeversion="1"
       pattern="M 0,18.867925 C 0,8.4528302 8.4528302,0 18.867925,0 c 10.415094,0 18.867924,8.4528302 18.867924,18.867925 0,10.415094 -8.45283,18.867924 -18.867924,18.867924 C 8.4528302,37.735849 0,29.283019 0,18.867925 Z"
       copytype="single_stretched"
       prop_scale="0.16377935"
       scale_y_rel="false"
       spacing="0"
       normal_offset="0"
       tang_offset="0"
       prop_units="false"
       vertical_pattern="false"
       hide_knot="false"
       fuse_tolerance="0" />
    <inkscape:path-effect
       effect="skeletal"
       id="path-effect3812"
       is_visible="true"
       lpeversion="1"
       pattern="M 0,18.867925 C 0,8.4528302 8.4528302,0 18.867925,0 c 10.415094,0 18.867924,8.4528302 18.867924,18.867925 0,10.415094 -8.45283,18.867924 -18.867924,18.867924 C 8.4528302,37.735849 0,29.283019 0,18.867925 Z"
       copytype="single_stretched"
       prop_scale="0.16377935"
       scale_y_rel="false"
       spacing="0"
       normal_offset="0"
       tang_offset="0"
       prop_units="false"
       vertical_pattern="false"
       hide_knot="false"
       fuse_tolerance="0" />
    <inkscape:path-effect
       effect="skeletal"
       id="path-effect3703"
       is_visible="true"
       lpeversion="1"
       pattern="M 0,18.867925 C 0,8.4528302 8.4528302,0 18.867925,0 c 10.415094,0 18.867924,8.4528302 18.867924,18.867925 0,10.415094 -8.45283,18.867924 -18.867924,18.867924 C 8.4528302,37.735849 0,29.283019 0,18.867925 Z"
       copytype="single_stretched"
       prop_scale="0.16377935"
       scale_y_rel="false"
       spacing="0"
       normal_offset="0"
       tang_offset="0"
       prop_units="false"
       vertical_pattern="false"
       hide_knot="false"
       fuse_tolerance="0" />
    <inkscape:path-effect
       effect="skeletal"
       id="path-effect3583"
       is_visible="true"
       lpeversion="1"
       pattern="M 0,4.9920401 C 0,2.236434 2.236434,0 4.9920401,0 c 2.7556061,0 4.9920401,2.236434 4.9920401,4.9920401 0,2.7556061 -2.236434,4.9920401 -4.9920401,4.9920401 C 2.236434,9.9840802 0,7.7476462 0,4.9920401 Z"
       copytype="single_stretched"
       prop_scale="0.16377935"
       scale_y_rel="false"
       spacing="0"
       normal_offset="0"
       tang_offset="0"
       prop_units="false"
       vertical_pattern="false"
       hide_knot="false"
       fuse_tolerance="0" />
    <inkscape:path-effect
       effect="skeletal"
       id="path-effect3816-7"
       is_visible="true"
       lpeversion="1"
       pattern="M 0,18.867925 C 0,8.4528302 8.4528302,0 18.867925,0 c 10.415094,0 18.867924,8.4528302 18.867924,18.867925 0,10.415094 -8.45283,18.867924 -18.867924,18.867924 C 8.4528302,37.735849 0,29.283019 0,18.867925 Z"
       copytype="single_stretched"
       prop_scale="0.16377935"
       scale_y_rel="false"
       spacing="0"
       normal_offset="0"
       tang_offset="0"
       prop_units="false"
       vertical_pattern="false"
       hide_knot="false"
       fuse_tolerance="0" />
    <inkscape:path-effect
       effect="skeletal"
       id="path-effect3816-3"
       is_visible="true"
       lpeversion="1"
       pattern="M 0,18.867925 C 0,8.4528302 8.4528302,0 18.867925,0 c 10.415094,0 18.867924,8.4528302 18.867924,18.867925 0,10.415094 -8.45283,18.867924 -18.867924,18.867924 C 8.4528302,37.735849 0,29.283019 0,18.867925 Z"
       copytype="single_stretched"
       prop_scale="0.16377935"
       scale_y_rel="false"
       spacing="0"
       normal_offset="0"
       tang_offset="0"
       prop_units="false"
       vertical_pattern="false"
       hide_knot="false"
       fuse_tolerance="0" />
    <inkscape:path-effect
       effect="skeletal"
       id="path-effect3816-2"
       is_visible="true"
       lpeversion="1"
       pattern="M 0,18.867925 C 0,8.4528302 8.4528302,0 18.867925,0 c 10.415094,0 18.867924,8.4528302 18.867924,18.867925 0,10.415094 -8.45283,18.867924 -18.867924,18.867924 C 8.4528302,37.735849 0,29.283019 0,18.867925 Z"
       copytype="single_stretched"
       prop_scale="0.16377935"
       scale_y_rel="false"
       spacing="0"
       normal_offset="0"
       tang_offset="0"
       prop_units="false"
       vertical_pattern="false"
       hide_knot="false"
       fuse_tolerance="0" />
    <inkscape:path-effect
       effect="skeletal"
       id="path-effect3816-1"
       is_visible="true"
       lpeversion="1"
       pattern="M 0,18.867925 C 0,8.4528302 8.4528302,0 18.867925,0 c 10.415094,0 18.867924,8.4528302 18.867924,18.867925 0,10.415094 -8.45283,18.867924 -18.867924,18.867924 C 8.4528302,37.735849 0,29.283019 0,18.867925 Z"
       copytype="single_stretched"
       prop_scale="0.16377935"
       scale_y_rel="false"
       spacing="0"
       normal_offset="0"
       tang_offset="0"
       prop_units="false"
       vertical_pattern="false"
       hide_knot="false"
       fuse_tolerance="0" />
    <inkscape:path-effect
       effect="skeletal"
       id="path-effect3816-3-7"
       is_visible="true"
       lpeversion="1"
       pattern="M 0,18.867925 C 0,8.4528302 8.4528302,0 18.867925,0 c 10.415094,0 18.867924,8.4528302 18.867924,18.867925 0,10.415094 -8.45283,18.867924 -18.867924,18.867924 C 8.4528302,37.735849 0,29.283019 0,18.867925 Z"
       copytype="single_stretched"
       prop_scale="0.16377935"
       scale_y_rel="false"
       spacing="0"
       normal_offset="0"
       tang_offset="0"
       prop_units="false"
       vertical_pattern="false"
       hide_knot="false"
       fuse_tolerance="0" />
    <inkscape:path-effect
       effect="skeletal"
       id="path-effect3816-3-9"
       is_visible="true"
       lpeversion="1"
       pattern="M 0,18.867925 C 0,8.4528302 8.4528302,0 18.867925,0 c 10.415094,0 18.867924,8.4528302 18.867924,18.867925 0,10.415094 -8.45283,18.867924 -18.867924,18.867924 C 8.4528302,37.735849 0,29.283019 0,18.867925 Z"
       copytype="single_stretched"
       prop_scale="0.16377935"
       scale_y_rel="false"
       spacing="0"
       normal_offset="0"
       tang_offset="0"
       prop_units="false"
       vertical_pattern="false"
       hide_knot="false"
       fuse_tolerance="0" />
  </defs>
  <sodipodi:namedview
     id="namedview3577"
     pagecolor="#ffffff"
     bordercolor="#000000"
     borderopacity="0.25"
     inkscape:showpageshadow="2"
     inkscape:pageopacity="0.0"
     inkscape:pagecheckerboard="0"
     inkscape:deskcolor="#d1d1d1"
     showgrid="false"
     inkscape:zoom="0.70511583"
     inkscape:cx="192.87611"
     inkscape:cy="97.856263"
     inkscape:window-width="1366"
     inkscape:window-height="699"
     inkscape:window-x="0"
     inkscape:window-y="0"
     inkscape:window-maximized="1"
     inkscape:current-layer="logo" />
  <metadata
     id="metadata3516">
    <rdf:RDF>
      <cc:Work
         rdf:about="">
        <dc:format>image/svg+xml</dc:format>
        <dc:type
           rdf:resource="http://purl.org/dc/dcmitype/StillImage" />
      </cc:Work>
    </rdf:RDF>
  </metadata>
  <rect
     style="fill:#ffffff;fill-opacity:1;stroke-width:0;stroke-dasharray:none"
     id="rect4359"
     width="708.01862"
     height="632.11945"
     x="-115.69079"
     y="-64.717834" />
  <g
     transform="translate(-10.292,-6.4467)"
     display="none"
     fill="#684338"
     id="g3522">
    <path
       transform="scale(0.26458)"
       d="m 336.37,57.961 c -32.337,-1.75e-4 -58.551,20.933 -58.551,46.756 -0.001,25.823 26.213,46.758 58.551,46.758 32.337,1.7e-4 58.552,-20.934 58.551,-46.758 0,-4.1532 -0.10627,-12.819 -2.0606,-12.295 -2.4325,0.45751 -4.9948,0.69114 -7.5781,0.69141 -12.38,4.5e-5 -22.416,-5.251 -22.416,-11.729 2e-5,-4.6854 7.0552,-4.274 13.555,-10.773 7.1439,-7.1439 -25.173,-12.65 -40.051,-12.65 z m -20.998,11.193 c 1.1119,-0.0012 2.2216,0.07178 3.3242,0.21875 16.626,2.2224 28.324,20.452 26.129,40.717 -2.1946,20.265 -17.452,34.892 -34.078,32.67 -16.626,-2.2223 -28.325,-20.453 -26.129,-40.719 2.0272,-18.707 15.276,-32.875 30.754,-32.887 z"
       style="paint-order:markers fill stroke"
       id="path3518" />
    <path
       transform="matrix(-0.55675,0.83068,-0.99938,0.035244,-24.308,-23.317)"
       d="m 72.49,-90.929 c -10e-7,2.3455 -3.838,7.9289 -7.8579,7.9289 -2.1718,0 -2.0217,-2.308 -3.1999,-4.1764 -1.0026,-1.5899 -3.4995,-2.6742 -3.4995,-3.7525 -10e-7,-2.3455 3.2588,-4.2469 7.2787,-4.2469 4.0199,0 7.2787,1.9014 7.2787,4.2469 z"
       stroke-width="0"
       style="paint-order:markers fill stroke"
       id="path3520" />
  </g>
  <g
     transform="matrix(30.635491,0,0,30.635491,-1063.3624,-915.22487)"
     id="g3574">
    <g
       transform="translate(-3.8513e-6,1.6565)"
       id="g3572">
      <g
         transform="translate(0,-1.6565)"
         id="g3570">
        <g
           transform="matrix(0.1383,0,0,0.1383,29.742,29.695)"
           stroke-width="7.2309"
           id="g3558">
          <g
             id="g3544">
            <g
               id="g3538">
              <path
                 d="m 98.607,67.778 c -0.26842,2.2305 -5.9248,7.5019 -8.463,7.1965 -2.5383,-0.30546 -6.7778,-6.8435 -6.5094,-9.074 0.26842,-2.2305 5.5303,-3.5246 8.0686,-3.2191 2.5383,0.30546 7.1723,2.8662 6.9039,5.0966 z"
                 id="path3524" />
              <circle
                 transform="rotate(6.8621)"
                 cx="103.62"
                 cy="69.821999"
                 r="0.94344002"
                 style="paint-order:markers fill stroke"
                 id="circle3526" />
              <circle
                 transform="rotate(6.8621)"
                 cx="110.97"
                 cy="59.455002"
                 r="0.94344002"
                 style="paint-order:markers fill stroke"
                 id="circle3528" />
              <circle
                 transform="rotate(6.8621)"
                 cx="113.42"
                 cy="68.699997"
                 r="0.94344002"
                 style="paint-order:markers fill stroke"
                 id="circle3530" />
              <circle
                 transform="rotate(6.8621)"
                 cx="91.964996"
                 cy="65.737"
                 r="0.92624003"
                 style="paint-order:markers fill stroke"
                 id="circle3532" />
              <circle
                 transform="rotate(6.8621)"
                 cx="84.413002"
                 cy="60.097"
                 r="0.92624003"
                 style="paint-order:markers fill stroke"
                 id="circle3534" />
              <circle
                 transform="rotate(6.8621)"
                 cx="84.928001"
                 cy="70.742996"
                 r="0.92624003"
                 style="paint-order:markers fill stroke"
                 id="circle3536" />
            </g>
            <path
               d="m 60.365,31.119 c -0.03353,-0.18871 -4.0209,0.3521 -8.9525,4.0802 -2.7671,2.0761 -5.7527,4.8735 -8.689,8.6062 -2.1657,2.7446 -4.4069,6.085 -5.805,9.9376 -0.51822,1.421 -0.92313,2.9754 -0.98675,4.6071 -0.05788,1.3041 0.16508,2.7045 0.86713,3.9512 0.08233,0.13964 0.16907,0.27609 0.26,0.40928 1.3075,1.915 3.4238,3.0786 5.5762,3.4021 3.0368,0.4471 6.0017,-0.41501 8.4104,-1.6703 7.1912,-3.7482 11.054,-10.607 12.97,-14.898 2.0407,-4.5707 2.6074,-7.4379 2.4466,-7.4895 -0.16078,-0.05158 -1.0465,2.7166 -3.2786,7.0922 -2.09,4.0968 -6.0275,10.66 -12.802,13.984 -2.2539,1.1057 -4.9315,1.8832 -7.5071,1.4525 -1.7657,-0.28928 -3.5272,-1.2414 -4.5244,-2.7435 -0.0694,-0.10453 -0.13488,-0.21145 -0.19624,-0.32068 -0.53116,-0.88927 -0.68979,-2.0128 -0.66576,-3.1161 0.03961,-1.4026 0.4057,-2.8061 0.87288,-4.1451 1.2743,-3.6327 3.3983,-6.8833 5.4525,-9.6122 2.7964,-3.7031 5.6057,-6.506 8.2207,-8.6545 4.71,-3.8396 8.3644,-4.6834 8.3309,-4.8722 z"
               id="path3540" />
            <path
               d="m 136.01,36.031 c -0.1321,0.135 2.7179,3.0095 6.8918,8.2491 v 2e-6 c 2.2607,2.839 5.1336,6.6628 7.6263,11.028 1.8862,3.3156 3.8371,7.283 4.4858,11.524 0.25913,1.6917 0.31013,3.4598 -0.0478,5.1516 -0.2937,1.4062 -0.88404,2.7753 -1.7454,3.9669 -0.10994,0.15209 -0.22394,0.3008 -0.34187,0.44588 -1.0536,1.304 -2.2777,2.4142 -3.6887,3.0693 -1.2045,0.56858 -2.553,0.7928 -3.8364,0.66436 -3.0933,-0.26683 -5.8103,-2.4151 -7.8492,-4.5662 -3.0914,-3.3095 -5.0532,-7.2698 -6.3213,-10.627 v -2e-6 c -3.0997,-8.2309 -2.631,-14.007 -2.8523,-14.012 -0.22133,-0.0054 -1.1266,5.8309 1.7909,14.393 v 2e-6 c 1.1868,3.4942 3.1251,7.6387 6.338,11.204 2.0905,2.3523 5.0662,4.6976 8.7372,5.1282 1.5608,0.16473 3.1835,-0.09477 4.6517,-0.7782 1.6846,-0.79494 3.0992,-2.0472 4.2478,-3.4936 0.13627,-0.16806 0.26788,-0.34007 0.3947,-0.51578 0.9937,-1.3769 1.6675,-2.9458 1.9992,-4.5636 0.39163,-1.9322 0.33334,-3.8834 0.0322,-5.7074 -0.75126,-4.5437 -2.8142,-8.634 -4.813,-11.973 -2.6392,-4.4256 -5.6396,-8.1944 -8.0426,-10.973 v -2e-6 c -4.4172,-5.1101 -7.5252,-7.7487 -7.6573,-7.6137 z"
               id="path3542" />
          </g>
          <g
             stroke-width="7.2309"
             id="g3548">
            <g
               transform="rotate(5.1295,120.58,22.083)"
               stroke-width="7.2309"
               id="g3546" />
          </g>
          <g
             transform="matrix(-1,0,0,1,191.62,0)"
             stroke-width="7.2309"
             id="g3552">
            <g
               transform="rotate(5.1295,120.58,22.083)"
               stroke-width="7.2309"
               id="g3550" />
          </g>
          <path
             transform="translate(-1.2292e-6)"
             d="m 90.268,74.395 c -0.38912,-0.10426 -1.6812,4.4532 -3.8938,10.517 -0.22858,0.68081 -0.65824,1.3339 -1.2459,1.8045 -0.56552,0.46451 -1.3005,0.77805 -2.1103,0.98441 -0.0642,0.01625 -0.12872,0.03172 -0.19354,0.04641 -1.8576,0.42106 -3.8327,0.17383 -5.5421,-0.2673 -2.1609,-0.59441 -3.7475,-1.4013 -4.867,-2.5369 -0.5963,-0.60658 -0.96176,-1.1977 -1.1294,-1.7844 v -10e-7 c -0.39642,-1.2776 0.07999,-2.2227 -0.07706,-2.3046 -0.15705,-0.08186 -1.055,0.67576 -0.87358,2.4827 v 10e-7 c 0.0916,0.79364 0.43976,1.6645 1.102,2.4748 1.191,1.4652 3.0067,2.6288 5.3642,3.3365 1.8866,0.59575 4.1337,0.90666 6.4233,0.41135 0.07946,-0.01719 0.15872,-0.03531 0.23774,-0.05435 1.0242,-0.24561 2.0025,-0.69598 2.8279,-1.3756 0.86525,-0.72464 1.4552,-1.6768 1.747,-2.6753 2.0184,-6.3067 2.6196,-10.954 2.2304,-11.059 z"
             id="path3554" />
          <path
             transform="translate(24.308,23.317)"
             d="m 79.149,64.172 c 0.06919,0.0104 0.37961,0.87512 -0.66821,2.0412 -0.50377,0.57002 -1.2053,1.0975 -2.14,1.5456 h -10e-7 c -1.5904,0.77145 -3.646,1.3002 -6.0737,1.2786 -1.7761,0.01516 -3.9538,-0.29857 -5.7661,-1.6346 -0.06697,-0.05042 -0.13288,-0.10272 -0.1976,-0.15686 -0.67264,-0.56264 -1.1913,-1.3016 -1.4715,-2.149 -0.33858,-1.1285 -0.2397,-2.2485 0.05435,-3.1903 1.7855,-6.1962 2.6638,-10.894 3.0744,-10.828 0.41062,0.06553 0.23608,4.8567 -1.3642,11.296 -0.1739,0.73192 -0.24731,1.5157 -0.01241,2.1531 0.14999,0.47692 0.48548,0.92577 0.91864,1.2951 0.04168,0.03554 0.0841,0.07021 0.12716,0.10395 1.2444,1.0015 3.0817,1.2667 4.6845,1.3737 2.1944,0.10453 4.0279,-0.20376 5.5313,-0.72573 l 10e-7,-10e-7 c 0.88065,-0.31054 1.5036,-0.62579 2.018,-1.0153 0.91068,-0.69941 1.1242,-1.4119 1.2853,-1.3877 z"
             id="path3556" />
        </g>
        <g
           transform="translate(-0.33446,0.20222)"
           id="g3568">
          <g
             id="g3566">
            <path
               d="m 41.326,34.367 c -6.9e-4,0.0268 0.60493,-0.0933 1.0791,0.41098 0.25426,0.24757 0.24127,0.68998 0.05241,1.1659 -0.15498,0.33363 -0.51554,0.62931 -0.92086,0.6265 -0.04466,-3.09e-4 -0.08923,-0.0044 -0.13342,-0.01234 -0.42904,-0.06604 -0.7919,-0.34009 -0.96111,-0.67231 -0.10998,-0.43527 0.17227,-0.84437 0.43165,-1.0843 0.47501,-0.43425 0.88643,-0.52216 0.8817,-0.54664 -0.0044,-0.0226 -0.42993,-4.59e-4 -0.96647,0.44979 -0.29534,0.24564 -0.61565,0.69369 -0.50843,1.2383 1e-6,0 0,0 0,0 0.19231,0.39309 0.60492,0.71718 1.0929,0.79923 0.05461,0.008 0.10931,0.0116 0.16378,0.01104 0.49498,-0.0052 0.90599,-0.34486 1.0816,-0.73965 0.21628,-0.51203 0.18496,-1.0306 -0.11825,-1.3324 -0.58705,-0.54172 -1.1739,-0.34089 -1.1746,-0.31409 z"
               id="path3560" />
            <path
               d="m 44.399,34.58 c 0.0063,0.02801 0.75292,-0.32884 1.3849,0.22956 0.3232,0.25785 0.32248,0.77845 0.13632,1.3332 -0.1358,0.30181 -0.43386,0.55455 -0.78425,0.61965 -0.10939,0.02033 -0.2203,0.0213 -0.32836,8.29e-4 -0.42468,-0.07941 -0.80052,-0.33299 -0.89863,-0.67574 -0.14524,-0.45309 0.1369,-0.90975 0.39422,-1.1431 0.51829,-0.45908 0.9846,-0.48484 0.98419,-0.50972 -3.6e-4,-0.02182 -0.46772,-0.08505 -1.0677,0.41214 -0.29756,0.2416 -0.62278,0.73339 -0.47524,1.2889 0.12757,0.4226 0.54789,0.73174 1.0312,0.81074 0.13159,0.02133 0.26474,0.01865 0.3948,-0.0061 0.41677,-0.07933 0.75767,-0.37287 0.91639,-0.73113 0.21749,-0.59114 0.16834,-1.1914 -0.21228,-1.5103 -0.77541,-0.5949 -1.4819,-0.1469 -1.4756,-0.1189 z"
               id="path3562" />
            <path
               d="m 42.432,34.724 c 0.01626,0.04291 0.50038,-0.13997 1.0483,-0.17549 0.54795,-0.03552 0.87631,0.26576 0.90954,0.23413 0.03323,-0.03164 -0.32059,-0.42096 -0.91803,-0.3967 -0.59744,0.02425 -1.0561,0.29516 -1.0398,0.33807 z"
               id="path3564" />
          </g>
        </g>
      </g>
    </g>
  </g>
  <g
     id="g4147"
     transform="translate(-3.9962567e-5)">
    <path
       style="fill:#000000;fill-opacity:1;stroke:none;stroke-width:0.5"
       d="m 349.83659,211.9588 c 0.69498,0.52835 -3.88471,6.31177 -6.49088,16.58308 0,0 0,0 0,0 -0.90657,3.5866 -1.48803,7.9409 -0.71239,12.2237 0.53428,3.00627 1.71571,6.08181 3.68765,8.67101 1.60591,2.11602 3.73365,3.97042 6.21027,5.14972 1.79252,0.84502 3.77366,1.38545 5.7162,1.40781 0.38598,0.004 0.76826,-0.0116 1.1453,-0.0492 2.20947,-0.19284 4.34979,-1.14084 5.89646,-2.56493 2.09336,-1.81452 3.35621,-4.69176 4.11717,-7.53517 1.25777,-4.70982 0.96899,-9.88171 0.46653,-14.23188 -3.41059,-13.09821 -5.3288,-22.19593 -4.53546,-22.75026 0,0 10e-6,0 10e-6,0 0,0 0,0 0,0 0.009,-0.006 0.009,-0.006 0.009,-0.006 -8e-5,5e-5 -2.3e-4,4e-5 0.009,-0.005 0,0 0,0 0,0 0,0 0,0 0,0 0.83713,-0.43337 4.31688,7.86114 9.2726,21.63811 0.98094,4.68255 1.64181,10.55451 0.43403,16.64655 -0.72748,3.67553 -2.43272,7.59867 -5.6213,10.70252 -2.54597,2.38643 -5.88264,3.92536 -9.49085,4.2593 -0.59417,0.0504 -1.18852,0.0711 -1.78128,0.063 -2.98659,-0.0406 -5.83807,-0.80914 -8.33624,-2.06631 -3.4464,-1.72261 -6.25733,-4.26883 -8.30332,-7.17108 -2.51101,-3.57105 -3.85814,-7.57066 -4.30337,-11.38139 -0.61904,-5.4295 0.42568,-10.4145 1.87628,-14.333 0,0 0,-1e-5 0,-1e-5 4.11052,-11.12093 10.03962,-15.77899 10.7346,-15.25064 z"
       id="path3814"
       inkscape:path-effect="#path-effect3816"
       inkscape:original-d="m 349.83659,211.9588 c -34.52837,45.41753 30.64436,69.23645 22.41388,19.0926 -3.54413,-18.8701 -6.90415,-22.19431 -6.90415,-22.19431"
       class="UnoptimicedTransforms"
       sodipodi:nodetypes="ccc"
       transform="matrix(0.50984025,0,0,0.50984025,149.12868,178.97753)" />
    <path
       style="fill:#000000;fill-opacity:1;stroke:none;stroke-width:0.5"
       d="m 349.83659,211.9588 c 0.69498,0.52835 -3.88471,6.31177 -6.49088,16.58308 0,0 0,0 0,0 -0.90657,3.5866 -1.48803,7.9409 -0.71239,12.2237 0.53428,3.00627 1.71571,6.08181 3.68765,8.67101 1.60591,2.11602 3.73365,3.97042 6.21027,5.14972 1.79252,0.84502 3.77366,1.38545 5.7162,1.40781 0.38598,0.004 0.76826,-0.0116 1.1453,-0.0492 2.20947,-0.19284 4.34979,-1.14084 5.89646,-2.56493 2.09336,-1.81452 3.35621,-4.69176 4.11717,-7.53517 1.25777,-4.70982 0.96899,-9.88171 0.46653,-14.23188 -3.41059,-13.09821 -5.3288,-22.19593 -4.53546,-22.75026 0,0 10e-6,0 10e-6,0 0,0 0,0 0,0 0.009,-0.006 0.009,-0.006 0.009,-0.006 -8e-5,5e-5 -2.3e-4,4e-5 0.009,-0.005 0,0 0,0 0,0 0,0 0,0 0,0 0.83713,-0.43337 4.31688,7.86114 9.2726,21.63811 0.98094,4.68255 1.64181,10.55451 0.43403,16.64655 -0.72748,3.67553 -2.43272,7.59867 -5.6213,10.70252 -2.54597,2.38643 -5.88264,3.92536 -9.49085,4.2593 -0.59417,0.0504 -1.18852,0.0711 -1.78128,0.063 -2.98659,-0.0406 -5.83807,-0.80914 -8.33624,-2.06631 -3.4464,-1.72261 -6.25733,-4.26883 -8.30332,-7.17108 -2.51101,-3.57105 -3.85814,-7.57066 -4.30337,-11.38139 -0.61904,-5.4295 0.42568,-10.4145 1.87628,-14.333 0,0 0,-1e-5 0,-1e-5 4.11052,-11.12093 10.03962,-15.77899 10.7346,-15.25064 z"
       id="path3814-2"
       inkscape:path-effect="#path-effect3816-1"
       inkscape:original-d="m 349.83659,211.9588 c -34.52837,45.41753 30.64436,69.23645 22.41388,19.0926 -3.54413,-18.8701 -6.90415,-22.19431 -6.90415,-22.19431"
       class="UnoptimicedTransforms"
       sodipodi:nodetypes="ccc"
       transform="matrix(0.50984025,0,0,0.50984025,268.00179,145.14355)" />
    <path
       style="fill:#000000;fill-opacity:1;stroke:none;stroke-width:0.5"
       d="m 349.83659,211.9588 c 0.90979,0.5039 -5.72691,11.25933 -9.1873,28.85066 -0.99275,5.24879 -1.78479,11.61264 0.007,17.08657 0.5568,1.74594 1.35209,3.42614 2.4643,4.78649 0.9274,1.15107 2.0969,2.14215 3.41387,2.82823 2.4474,1.35084 5.65081,1.59525 8.79296,1.00776 0.0805,-0.015 0.16086,-0.0306 0.24106,-0.0467 3.69399,-0.76765 7.11196,-2.77531 9.86507,-5.28984 3.41218,-3.12707 5.77598,-7.18508 7.11386,-11.28446 1.92411,-5.82941 1.77062,-12.00766 0.92792,-17.14684 0,0 0,0 0,0 -2.43879,-14.83235 -8.91479,-23.36757 -8.12878,-23.89356 0.78601,-0.526 8.81685,6.87111 12.75097,22.94031 0,0 0,0 0,0 1.37703,5.62118 1.90437,12.60943 -0.10038,19.751 -1.42464,5.02027 -4.1813,10.02805 -8.40522,14.06561 -3.38471,3.24436 -7.74521,5.80757 -12.72747,6.90068 -0.11027,0.0247 -0.22087,0.0486 -0.33179,0.0716 -4.32747,0.89621 -8.91498,0.39502 -12.88294,-1.69136 -2.09233,-1.14057 -3.87353,-2.69643 -5.26367,-4.50509 -1.62321,-2.13309 -2.70025,-4.49674 -3.3458,-6.84408 -1.93235,-7.20824 -0.80317,-14.34256 0.69749,-19.87219 4.90466,-18.57938 13.1893,-28.21863 14.09909,-27.71473 z"
       id="path3814-5"
       inkscape:path-effect="#path-effect3816-7"
       inkscape:original-d="m 349.83659,211.9588 c -49.40887,89.20795 61.25131,65.25109 15.50973,-3.10171"
       class="UnoptimicedTransforms"
       sodipodi:nodetypes="cc"
       transform="matrix(0.50984025,0,0,0.50984025,161.54225,120.96823)" />
    <path
       style="fill:#000000;fill-opacity:1;stroke:none;stroke-width:0.5"
       d="m 349.83659,211.9588 c 0.55904,0.30522 -0.71872,3.56173 -2.39559,9.12309 -1.58059,5.24205 -3.81228,13.80005 -2.23266,22.40771 0.55343,3.02954 1.52246,6.17046 3.323,8.63761 1.2713,1.66421 2.81705,3.17664 4.48025,3.53506 0.54105,0.17878 1.15587,0.21464 1.78444,0.12928 0.85448,-0.11605 1.71637,-0.45347 2.42973,-0.93607 2.0864,-1.29882 3.48541,-3.98175 4.64071,-6.6643 3.94314,-9.61018 3.54672,-20.81207 3.28227,-27.53728 -0.28572,-7.26607 -0.5071,-11.67519 0.19758,-11.79683 0.70467,-0.12165 2.26575,3.99757 3.62347,11.36779 1.27313,6.91103 2.55682,18.53983 -1.51907,30.08458 -1.12802,3.33774 -3.15362,6.98617 -6.70847,9.60761 -1.52269,1.07089 -3.30549,1.76356 -5.19531,1.98477 -1.38955,0.16264 -2.81501,0.0677 -4.21181,-0.30057 -3.52531,-1.10671 -6.13378,-3.4633 -7.78653,-6.0299 -2.40188,-3.61315 -3.5379,-7.60718 -3.9626,-11.25834 -1.19448,-10.36204 2.049,-19.2911 4.62592,-24.51259 2.70665,-5.48437 5.06563,-8.14684 5.62467,-7.84162 z"
       id="path3814-56"
       inkscape:path-effect="#path-effect3816-3"
       inkscape:original-d="m 349.83659,211.9588 c -27.84367,50.9981 28.90514,74.49703 15.50973,-3.10171"
       class="UnoptimicedTransforms"
       sodipodi:nodetypes="cc"
       transform="matrix(0.50984025,0,0,0.50984025,-41.607934,81.246114)" />
    <path
       style="fill:#000000;fill-opacity:1;stroke:none;stroke-width:0.5"
       d="m 349.83659,211.9588 c 0.55904,0.30522 -0.71872,3.56173 -2.39559,9.12309 -1.58059,5.24205 -3.81228,13.80005 -2.23266,22.40771 0.55343,3.02954 1.52246,6.17046 3.323,8.63761 1.2713,1.66421 2.81705,3.17664 4.48025,3.53506 0.54105,0.17878 1.15587,0.21464 1.78444,0.12928 0.85448,-0.11605 1.71637,-0.45347 2.42973,-0.93607 2.0864,-1.29882 3.48541,-3.98175 4.64071,-6.6643 3.94314,-9.61018 3.54672,-20.81207 3.28227,-27.53728 -0.28572,-7.26607 -0.5071,-11.67519 0.19758,-11.79683 0.70467,-0.12165 2.26575,3.99757 3.62347,11.36779 1.27313,6.91103 2.55682,18.53983 -1.51907,30.08458 -1.12802,3.33774 -3.15362,6.98617 -6.70847,9.60761 -1.52269,1.07089 -3.30549,1.76356 -5.19531,1.98477 -1.38955,0.16264 -2.81501,0.0677 -4.21181,-0.30057 -3.52531,-1.10671 -6.13378,-3.4633 -7.78653,-6.0299 -2.40188,-3.61315 -3.5379,-7.60718 -3.9626,-11.25834 -1.19448,-10.36204 2.049,-19.2911 4.62592,-24.51259 2.70665,-5.48437 5.06563,-8.14684 5.62467,-7.84162 z"
       id="path3814-56-3"
       inkscape:path-effect="#path-effect3816-3-9"
       inkscape:original-d="m 349.83659,211.9588 c -27.84367,50.9981 28.90514,74.49703 15.50973,-3.10171"
       class="UnoptimicedTransforms"
       sodipodi:nodetypes="cc"
       transform="matrix(0.2847205,0,0,0.2847205,-28.174594,130.33058)" />
    <path
       style="fill:#000000;fill-opacity:1;stroke:none;stroke-width:0.5"
       d="m 349.83659,211.9588 c 0.57156,0.31206 -0.73239,3.64902 -2.4749,9.32038 -1.6602,5.40342 -3.95593,13.99576 -2.94597,23.00492 0.36125,3.21001 1.07821,6.56438 2.62213,9.40841 1.08247,1.83103 2.27078,3.57152 3.72496,4.09718 0.21035,0.0894 0.42316,0.16345 0.62898,0.21454 0.27364,0.0679 0.53288,0.0948 0.7575,0.0652 0.4144,-0.006 0.91525,-0.22761 1.39513,-0.53127 1.69867,-0.95758 2.73383,-3.43981 3.72035,-5.9101 1.67652,-4.70875 2.12322,-10.01475 2.3622,-14.53255 0.71056,-14.32714 -0.74917,-24.12481 0.31713,-24.30888 1.0663,-0.18406 4.44887,9.22198 4.85636,24.36209 0.14445,4.75918 -0.0702,10.56644 -1.86429,16.35497 -0.83544,3.0398 -2.52055,6.55984 -5.89842,9.10313 -1.21719,0.866 -2.70988,1.45397 -4.38219,1.61911 -0.9138,0.064 -1.8059,-0.006 -2.65416,-0.19743 -0.63823,-0.14372 -1.24776,-0.35486 -1.81971,-0.62512 -3.26409,-1.6447 -5.35535,-4.32225 -6.55819,-6.91065 -1.94843,-3.9092 -2.73432,-8.01916 -2.93308,-11.74621 -0.56351,-10.51375 2.72339,-19.4235 5.39561,-24.7842 2.7778,-5.57252 5.179,-8.31554 5.75056,-8.00348 z"
       id="path3814-56-0"
       inkscape:path-effect="#path-effect3816-3-7"
       inkscape:original-d="m 349.83659,211.9588 c -27.84367,50.9981 23.50292,78.42654 10.10751,0.8278"
       class="UnoptimicedTransforms"
       sodipodi:nodetypes="cc"
       transform="matrix(0.50984025,0,0,0.50984025,235.10116,72.282851)" />
    <path
       style="fill:#000000;fill-opacity:1;stroke:none;stroke-width:0.5"
       d="m 349.83659,211.9588 c 0.84851,0.46327 -2.74946,6.96162 -3.96405,17.27564 10e-6,0 0,0 0,0 -0.38294,3.38426 -0.46411,7.41839 0.81028,10.9556 0.81735,2.2746 2.18143,4.51757 4.11678,5.89477 1.54625,1.14381 3.54832,1.85763 5.52627,1.84179 0.36926,0.003 0.74254,-0.0201 1.11687,-0.0679 1.64078,-0.20985 3.24582,-0.88821 4.56838,-1.84969 2.09377,-1.47605 3.5951,-3.8674 4.56835,-6.30705 1.52243,-3.83669 1.69584,-8.21064 1.52872,-11.92131 -0.54819,-11.19282 -3.6874,-18.52838 -2.76188,-18.92354 0.92552,-0.39517 5.81252,6.09898 7.66674,18.42246 0.63316,4.1135 0.74729,9.2189 -0.9394,14.38215 -1.09556,3.36217 -3.15222,6.73409 -6.39183,9.25082 -2.11568,1.61237 -4.68037,2.7094 -7.45342,3.06618 -0.63198,0.0813 -1.26942,0.1234 -1.90896,0.12535 -3.42882,-0.0214 -6.66216,-1.21857 -9.20415,-3.20091 -3.07915,-2.45748 -4.97794,-5.74994 -5.8918,-9.00288 -1.37988,-4.93981 -0.9557,-9.72256 -0.0718,-13.50015 0,0 0,0 0,0 2.6257,-11.41502 7.83643,-16.90456 8.68494,-16.44129 z"
       id="path3814-9"
       inkscape:path-effect="#path-effect3816-2"
       inkscape:original-d="m 349.83659,211.9588 c -27.84367,50.9981 39.96994,54.1865 15.50973,-3.10171"
       class="UnoptimicedTransforms"
       sodipodi:nodetypes="cc"
       transform="matrix(0.50984025,0,0,0.50984025,-65.90142,161.39762)" />
  </g>
  <path
     style="fill:#000000;stroke:none;stroke-width:0"
     d="m 347.34579,28.672166 c -0.0358,0.601206 -17.95549,0.414905 -46.50286,-3.701765 0,0 -1e-5,-10e-7 -1e-5,-10e-7 -5.77152,-0.832126 -11.18836,-1.69997 -17.69264,-2.727902 -4.2149,-0.665547 -8.83696,-1.413923 -13.33371,-1.910135 -2.82141,-0.295311 -5.67113,-0.64257 -8.25953,-0.265086 -0.74871,0.134505 -1.37371,0.235449 -1.71661,0.49278 -0.14541,0.114648 -0.28546,0.237924 -0.23567,0.264557 -0.10869,0.164296 0.0518,0.596842 0.20483,1.204848 0.30794,0.914296 0.86103,1.833738 1.49213,2.826231 2.13818,3.309318 4.83899,6.292185 7.74248,9.476501 1.61504,1.759329 3.19828,3.670944 4.57692,5.796805 0,0 10e-6,1.1e-5 10e-6,1.1e-5 0.9736,1.484419 1.86608,3.162876 2.43787,5.060483 0.42651,1.370667 0.60161,2.939127 0.31856,4.582515 -0.28175,1.425933 -0.94271,2.726729 -1.89124,3.779328 0,0 -2e-5,1.2e-5 -2e-5,1.2e-5 -1.02296,1.111781 -2.21379,1.922944 -3.4212,2.49968 0,0 -2e-5,6e-6 -2e-5,6e-6 -1.42849,0.696813 -2.8987,1.172418 -4.34752,1.516337 0,0 -2e-5,3e-6 -2e-5,3e-6 -3.52356,0.841768 -7.08677,1.108483 -10.60926,1.17075 -4.18846,0.08187 -8.38528,-0.106402 -12.60618,-0.47655 -3.40498,-0.298597 -6.77565,-0.711159 -10.08423,-1.17657 -2.72794,-0.382063 -5.42955,-0.810714 -8.10447,-1.28721 l 0,0 c -0.7818,-0.139254 -1.56254,-0.282846 -2.34276,-0.433018 l 0,0 -2e-5,-3e-6 0,0 c -0.20932,-0.04029 -0.41958,-0.08125 -0.63071,-0.123213 1e-5,10e-7 1e-5,10e-7 1e-5,10e-7 0.0321,-0.0044 0.0635,-0.0091 0.0944,-0.01389 10e-6,0 10e-6,0 10e-6,-1e-6 0.002,5.02e-4 -0.0409,-0.0087 -0.0385,-0.0082 0.005,0.0011 -0.0187,-0.004 -0.0134,-0.0029 0.009,-4.6e-4 -4.99098,0.242852 -4.98165,0.242395 l 0,0 c -3.27155,0.337916 -6.37333,0.86569 -9.02821,2.149308 l 0,0 c -1.23372,0.608575 -2.3287,1.290143 -3.01187,2.174552 0,0 0,6e-6 0,6e-6 -0.6553,0.782287 -1.02029,1.859504 -1.00878,2.888405 l 0,0 c -0.0445,1.591827 0.73223,3.310129 1.65296,5.013192 l 0,0 c 1.59864,2.82774 3.85085,5.363464 6.17513,7.758263 l 0,0 c 1.41582,1.555052 2.75111,3.253907 3.80569,5.196609 0.74609,1.337983 1.31297,2.910547 1.42499,4.663072 l 0,0 c 0,0 0,1.5e-5 0,1.5e-5 0.0668,1.44486 -0.29806,2.877378 -1.0536,4.117389 l 0,0 c -0.81787,1.275418 -1.87998,2.22615 -2.97143,2.913563 l 0,0 c -2.87297,1.829858 -6.0439,2.690958 -8.89429,3.305361 l 0,0 c -3.68438,0.826489 -7.41361,1.335977 -10.83024,1.785455 l 0,0 c -3.70707,0.490476 -6.91249,0.856852 -10.2473,1.461318 l 0,0 c -2.63516,0.514041 -4.9283,0.87075 -6.72824,2.013319 -0.52452,0.37338 -0.96392,0.67939 -1.03255,0.99679 l 0,0 c -0.16724,0.21374 -0.0408,0.69568 0.13136,1.1875 l 0,0 c 0.3766,0.90901 1.17674,1.74939 2.00487,2.58688 l 0,0 c 1.41393,1.39143 3.04743,2.61271 4.59296,3.70987 l 0,0 c 3.46336,2.20379 6.01482,5.02826 6.96362,8.38291 l 0,0 c 0.76506,2.95477 -0.007,5.74406 -1.00167,7.66941 l 0,0 c -1.2525,2.43706 -2.98085,4.20151 -4.08552,5.19445 l 0,0 c -0.71056,0.64013 -1.31385,1.09218 -1.74194,1.37315 l 0,0 c -0.23341,0.1532 -0.419,0.25833 -0.55438,0.31974 l 0,0 c 0,0 0,0 0,0 -0.0702,0.0319 -0.12626,0.0518 -0.16823,0.0602 0,0 0,0 0,0 -0.033,-0.0113 -0.0538,-0.0144 -0.0664,-0.0145 -0.0124,-1.2e-4 -0.017,0.003 -0.0177,0.003 0,0 0,0 0,0 0,0 0,0 0,0 0,0 0,0 0,0 0,0 0,0 0,0 -5e-5,3e-5 -4e-5,2e-5 -4e-5,2e-5 0,0 -10e-6,1e-5 3e-5,-3e-5 0,0 0,0 0,0 0,0 0,0 0,0 0,0 0,0 0,0 0,0 0,0 0,0 6e-4,-5.1e-4 0.005,-0.004 0.008,-0.0162 0.003,-0.0123 0.006,-0.0332 0.003,-0.0682 0,0 0,0 0,0 0.018,-0.0381 0.0497,-0.0875 0.0944,-0.14772 0,0 0,0 0,0 l 0,0 c 0.0865,-0.11629 0.22436,-0.27705 0.40511,-0.48045 l 0,0 c 0.32226,-0.36269 0.84187,-0.92687 1.42643,-1.62193 l 0,0 c 0.9128,-1.0877 2.40621,-2.96351 3.35106,-5.23025 l 0,0 c 0.73116,-1.77015 1.24956,-4.23058 0.47697,-6.48872 l 0,0 c -0.84215,-2.71529 -3.19076,-4.88499 -6.42494,-6.8935 l 0,0 c -1.64661,-1.06419 -3.43731,-2.30534 -5.09276,-3.80806 l 0,0 c -0.95902,-0.84767 -1.98565,-1.91594 -2.70629,-3.33732 l 0,0 c -0.48792,-0.91011 -0.6827,-2.11067 -0.29085,-3.38959 l 0,0 c 0.48661,-1.164857 1.30042,-1.984519 2.14853,-2.479843 l 0,0 c 2.41917,-1.527435 5.08624,-2.117231 7.70132,-2.625082 l 0,0 c 3.43955,-0.713916 6.71602,-1.171754 10.36785,-1.734858 l 0,0 c 3.39351,-0.525588 7.02216,-1.092622 10.4855,-1.941595 l 0,0 c 2.73234,-0.694242 5.50725,-1.447554 7.63693,-2.925648 l 0,0 c 0.7603,-0.537086 1.42867,-1.109105 1.7859,-1.757518 0.33495,-0.545346 0.49314,-1.245789 0.45071,-1.919571 0,0 0,-7e-6 0,-7e-6 -0.026,-0.924322 -0.45594,-1.929192 -1.00936,-2.986447 l 0,0 c -0.81659,-1.506207 -1.96508,-2.903993 -3.25295,-4.312083 l 0,0 c -2.45516,-2.436197 -4.92381,-5.194223 -6.83918,-8.460824 -1.18332,-1.945964 -2.16552,-4.320586 -2.26084,-7.022202 -0.0243,-2.001697 0.6343,-3.980188 1.90883,-5.586207 0,0 1e-5,-1.2e-5 1e-5,-1.2e-5 1.27316,-1.536715 2.8558,-2.619507 4.46808,-3.362243 l 0,0 c 3.38644,-1.584859 7.00216,-2.269575 10.54231,-2.602501 l 0,0 c 0.009,-3.85e-4 5.59993,-0.232848 5.60914,-0.233234 0.001,2.79e-4 0.0137,0.0026 0.0152,0.0029 0.002,3.75e-4 0.0415,0.0079 0.0435,0.0083 0,1e-6 1e-5,1e-6 1e-5,1e-6 0.13752,0.01648 0.27569,0.03299 0.41451,0.04957 0,1e-6 0,1e-6 0,1e-6 0.20046,0.03909 0.40234,0.07765 0.60559,0.116034 l 0,0 1e-5,2e-6 0,0 c 0.75747,0.143037 1.51922,0.280483 2.2859,0.4146 l 0,0 c 2.62309,0.458825 5.27348,0.87273 7.95115,1.243118 3.2601,0.448939 6.55912,0.849903 9.86631,1.141811 4.1004,0.36192 8.14074,0.549788 12.14037,0.475021 3.37557,-0.06969 6.62603,-0.285191 9.68521,-1.021665 0,0 1e-5,-3e-6 1e-5,-3e-6 1.24738,-0.302508 2.42057,-0.664437 3.46026,-1.178097 0,0 10e-6,-4e-6 10e-6,-4e-6 0.86296,-0.438641 1.6228,-0.915796 2.13136,-1.504555 0,0 10e-6,-6e-6 10e-6,-6e-6 0.44781,-0.497845 0.77474,-1.109704 0.88447,-1.718013 0.17599,-0.741995 0.0411,-1.649777 -0.2043,-2.591156 -0.36836,-1.337491 -1.08366,-2.65732 -1.90526,-3.972769 0,0 0,-10e-6 0,-10e-6 -1.17607,-1.85858 -2.60436,-3.600631 -4.10815,-5.279262 -2.89967,-3.212643 -5.71394,-6.415309 -8.05489,-10.095398 -0.70478,-1.092067 -1.38479,-2.309899 -1.86904,-3.707054 -0.36087,-0.891374 -0.54176,-2.074756 -0.27622,-3.435821 0.35617,-1.222533 1.10524,-2.149015 2.05472,-2.690364 1.15051,-0.637418 2.27683,-0.897519 3.23654,-0.983263 3.25477,-0.375747 6.39504,0.01815 9.20037,0.39199 4.62496,0.58867 9.27044,1.42729 13.4731,2.180025 6.76232,1.210094 11.59976,2.107989 17.59172,3.140398 0,0 1e-5,1e-6 1e-5,1e-6 28.2891,4.873414 46.05664,6.148218 46.0208,6.749424 z"
     id="path1731"
     inkscape:path-effect="#path-effect1733"
     inkscape:original-d="m 347.34579,28.672166 c -70.281,-4.189567 -109.25903,-25.3749828 -79.83935,7.055045 29.41968,32.430027 -44.96396,17.349325 -44.96396,17.349325 0,0 -36.25453,-0.956125 -11.81539,23.746673 25.59822,28.054641 -62.08197,11.185339 -29.01115,33.577381 15.87457,9.98426 -0.006,21.9677 -0.006,21.9677"
     class="UnoptimicedTransforms"
     transform="translate(89.740197,-13.135178)"
     sodipodi:nodetypes="cscccc" />
</svg>
