<?xml version="1.0" encoding="UTF-8" standalone="no"?>
<svg
   id="logo"
   width="32"
   height="32"
   version="1.1"
   viewBox="0 0 32 32"
   sodipodi:docname="favicon.svg"
   inkscape:export-filename="favicon.png"
   inkscape:export-xdpi="96"
   inkscape:export-ydpi="96"
   inkscape:version="1.2.2 (b0a8486541, 2022-12-01)"
   xmlns:inkscape="http://www.inkscape.org/namespaces/inkscape"
   xmlns:sodipodi="http://sodipodi.sourceforge.net/DTD/sodipodi-0.dtd"
   xmlns="http://www.w3.org/2000/svg"
   xmlns:svg="http://www.w3.org/2000/svg"
   xmlns:rdf="http://www.w3.org/1999/02/22-rdf-syntax-ns#"
   xmlns:cc="http://creativecommons.org/ns#"
   xmlns:dc="http://purl.org/dc/elements/1.1/">
  <defs
     id="defs317" />
  <sodipodi:namedview
     id="namedview315"
     pagecolor="#ffffff"
     bordercolor="#000000"
     borderopacity="0.25"
     inkscape:showpageshadow="2"
     inkscape:pageopacity="0.0"
     inkscape:pagecheckerboard="0"
     inkscape:deskcolor="#d1d1d1"
     showgrid="false"
     inkscape:zoom="12.2028"
     inkscape:cx="10.161602"
     inkscape:cy="15.816042"
     inkscape:window-width="1366"
     inkscape:window-height="699"
     inkscape:window-x="0"
     inkscape:window-y="0"
     inkscape:window-maximized="1"
     inkscape:current-layer="g310" />
  <metadata
     id="metadata254">
    <rdf:RDF>
      <cc:Work
         rdf:about="">
        <dc:format>image/svg+xml</dc:format>
        <dc:type
           rdf:resource="http://purl.org/dc/dcmitype/StillImage" />
      </cc:Work>
    </rdf:RDF>
  </metadata>
  <g
     transform="translate(-10.292,-6.4467)"
     display="none"
     fill="#684338"
     id="g260">
    <path
       transform="scale(0.26458)"
       d="m 336.37,57.961 c -32.337,-1.75e-4 -58.551,20.933 -58.551,46.756 -0.001,25.823 26.213,46.758 58.551,46.758 32.337,1.7e-4 58.552,-20.934 58.551,-46.758 0,-4.1532 -0.10627,-12.819 -2.0606,-12.295 -2.4325,0.45751 -4.9948,0.69114 -7.5781,0.69141 -12.38,4.5e-5 -22.416,-5.251 -22.416,-11.729 2e-5,-4.6854 7.0552,-4.274 13.555,-10.773 7.1439,-7.1439 -25.173,-12.65 -40.051,-12.65 z m -20.998,11.193 c 1.1119,-0.0012 2.2216,0.07178 3.3242,0.21875 16.626,2.2224 28.324,20.452 26.129,40.717 -2.1946,20.265 -17.452,34.892 -34.078,32.67 -16.626,-2.2223 -28.325,-20.453 -26.129,-40.719 2.0272,-18.707 15.276,-32.875 30.754,-32.887 z"
       style="paint-order:markers fill stroke"
       id="path256" />
    <path
       transform="matrix(-0.55675,0.83068,-0.99938,0.035244,-24.308,-23.317)"
       d="m 72.49,-90.929 c -10e-7,2.3455 -3.838,7.9289 -7.8579,7.9289 -2.1718,0 -2.0217,-2.308 -3.1999,-4.1764 -1.0026,-1.5899 -3.4995,-2.6742 -3.4995,-3.7525 -10e-7,-2.3455 3.2588,-4.2469 7.2787,-4.2469 4.0199,0 7.2787,1.9014 7.2787,4.2469 z"
       stroke-width="0"
       style="paint-order:markers fill stroke"
       id="path258" />
  </g>
  <g
     transform="translate(-34.6,-29.764)"
     id="g312">
    <g
       transform="translate(-3.8513e-6,1.6565)"
       id="g310">
      <rect
         style="fill:#ffffff;stroke-width:0.5"
         id="rect1584"
         width="45.153149"
         height="34.407093"
         x="28.02343"
         y="26.903954" />
      <g
         id="g2722"
         transform="matrix(4.0292914,0,0,4.0292914,-122.26924,-99.343102)">
        <path
           d="m 43.379348,37.412197 c -0.03712,0.308479 -0.8194,1.037513 -1.170433,0.995276 -0.351047,-0.04225 -0.93737,-0.946456 -0.90025,-1.254934 0.03712,-0.308478 0.764841,-0.487452 1.115888,-0.445201 0.351046,0.04225 0.991929,0.396395 0.954809,0.704859 z"
           id="path262"
           style="stroke-width:1.00003" />
        <g
           stroke-width="7.2309"
           id="g286"
           transform="matrix(0.1383,0,0,0.1383,29.742,28.0385)">
          <g
             transform="rotate(5.1295,120.58,22.083)"
             stroke-width="7.2309"
             id="g284" />
        </g>
        <g
           transform="matrix(-0.1383,0,0,0.1383,56.243046,28.0385)"
           stroke-width="7.2309"
           id="g290">
          <g
             transform="rotate(5.1295,120.58,22.083)"
             stroke-width="7.2309"
             id="g288" />
        </g>
        <g
           transform="translate(-0.33446,-1.45428)"
           id="g306">
          <g
             id="g304">
            <path
               d="m 41.326,34.367 c -6.9e-4,0.0268 0.60493,-0.0933 1.0791,0.41098 0.25426,0.24757 0.24127,0.68998 0.05241,1.1659 -0.15498,0.33363 -0.51554,0.62931 -0.92086,0.6265 -0.04466,-3.09e-4 -0.08923,-0.0044 -0.13342,-0.01234 -0.42904,-0.06604 -0.7919,-0.34009 -0.96111,-0.67231 -0.10998,-0.43527 0.17227,-0.84437 0.43165,-1.0843 0.47501,-0.43425 0.88643,-0.52216 0.8817,-0.54664 -0.0044,-0.0226 -0.42993,-4.59e-4 -0.96647,0.44979 -0.29534,0.24564 -0.61565,0.69369 -0.50843,1.2383 1e-6,0 0,0 0,0 0.19231,0.39309 0.60492,0.71718 1.0929,0.79923 0.05461,0.008 0.10931,0.0116 0.16378,0.01104 0.49498,-0.0052 0.90599,-0.34486 1.0816,-0.73965 0.21628,-0.51203 0.18496,-1.0306 -0.11825,-1.3324 -0.58705,-0.54172 -1.1739,-0.34089 -1.1746,-0.31409 z"
               id="path298" />
            <path
               d="m 44.399,34.58 c 0.0063,0.02801 0.75292,-0.32884 1.3849,0.22956 0.3232,0.25785 0.32248,0.77845 0.13632,1.3332 -0.1358,0.30181 -0.43386,0.55455 -0.78425,0.61965 -0.10939,0.02033 -0.2203,0.0213 -0.32836,8.29e-4 -0.42468,-0.07941 -0.80052,-0.33299 -0.89863,-0.67574 -0.14524,-0.45309 0.1369,-0.90975 0.39422,-1.1431 0.51829,-0.45908 0.9846,-0.48484 0.98419,-0.50972 -3.6e-4,-0.02182 -0.46772,-0.08505 -1.0677,0.41214 -0.29756,0.2416 -0.62278,0.73339 -0.47524,1.2889 0.12757,0.4226 0.54789,0.73174 1.0312,0.81074 0.13159,0.02133 0.26474,0.01865 0.3948,-0.0061 0.41677,-0.07933 0.75767,-0.37287 0.91639,-0.73113 0.21749,-0.59114 0.16834,-1.1914 -0.21228,-1.5103 -0.77541,-0.5949 -1.4819,-0.1469 -1.4756,-0.1189 z"
               id="path300" />
            <path
               d="m 42.432,34.724 c 0.01626,0.04291 0.50038,-0.13997 1.0483,-0.17549 0.54795,-0.03552 0.87631,0.26576 0.90954,0.23413 0.03323,-0.03164 -0.32059,-0.42096 -0.91803,-0.3967 -0.59744,0.02425 -1.0561,0.29516 -1.0398,0.33807 z"
               id="path302" />
          </g>
        </g>
      </g>
    </g>
  </g>
</svg>
