<?xml version="1.0" encoding="utf-8"?>
<!-- Generator: Circuit Diagram, cdlibrary.dll 1.0.0.0 -->
<!DOCTYPE svg PUBLIC "-//W3C//DTD SVG 1.1//EN" "http://www.w3.org/Graphics/SVG/1.1/DTD/svg11.dtd">
<svg version="1.1" width="280" height="280" xmlns="http://www.w3.org/2000/svg">
	<line x1="160" y1="40" x2="160" y2="134" style="stroke:rgb(0,0,0);stroke-linecap:square;stroke-width:2" />
	<line x1="160" y1="146" x2="160" y2="240" style="stroke:rgb(0,0,0);stroke-linecap:square;stroke-width:2" />
	<rect x="146" y="134" width="28" height="4" style="fill-opacity:0;stroke:rgb(0,0,0);stroke-width:2" />
	<rect x="146" y="142" width="28" height="4" style="fill-opacity:0;stroke:rgb(0,0,0);stroke-width:2" />
	<path d="M 160,134 M 168,128 L 174,128 M 171,125 L 171,132" style="fill-opacity:0;fill:rgb(0,0,0);stroke:rgb(0,0,0);stroke-width:2" />
	<text x="140" y="140" style="font-family:Arial;font-size:11px;text-anchor:end" dy=".3em">1 mF</text>
	<line x1="260" y1="40" x2="260" y2="56" style="stroke:rgb(0,0,0);stroke-linecap:square;stroke-width:2" />
	<path d="M 260,56 L 260,66 L 265,70 L 255,78 L 265,86 L 255,94 L 265,102 L 255,110 L 260,114 L 260,124" style="fill-opacity:0;fill:rgb(0,0,0);stroke:rgb(0,0,0);stroke-width:2" />
	<line x1="260" y1="124" x2="260" y2="140" style="stroke:rgb(0,0,0);stroke-linecap:square;stroke-width:2" />
	<line x1="60" y1="40" x2="60" y2="137" style="stroke:rgb(0,0,0);stroke-linecap:square;stroke-width:2" />
	<line x1="50" y1="137" x2="70" y2="137" style="stroke:rgb(0,0,0);stroke-linecap:square;stroke-width:2" />
	<line x1="55" y1="143" x2="65" y2="143" style="stroke:rgb(0,0,0);stroke-linecap:square;stroke-width:3" />
	<line x1="60" y1="143" x2="60" y2="240" style="stroke:rgb(0,0,0);stroke-linecap:square;stroke-width:2" />
	<text x="46" y="140" style="font-family:Arial;font-size:12px;text-anchor:end" dy=".3em">+9V</text>
	<line x1="260" y1="140" x2="260" y2="240" style="stroke:rgb(0,0,0);stroke-linecap:square;stroke-width:2" />
	<path d="M 260,197 M 252,197 L 268,197 M 260,197 L 268,182 L 252,182 L 260,197" style="fill-opacity:0;fill:rgb(0,0,0);stroke:rgb(0,0,0);stroke-width:2" />
	<path d="M 260,195 M 271,193 L 279,201 M 280,202 L 278,198 L 276,200 L 280,202 L 278,198" style="fill-opacity:0;fill:rgb(0,0,0);stroke:rgb(0,0,0);stroke-width:2" />
	<path d="M 260,195 M 264,199 L 272,207 M 273,208 L 271,204 L 269,206 L 273,208 L 271,204" style="fill-opacity:0;fill:rgb(0,0,0);stroke:rgb(0,0,0);stroke-width:2" />
	<line x1="60" y1="40" x2="260" y2="40" style="stroke:rgb(0,0,0);stroke-linecap:square;stroke-width:2" />
	<line x1="60" y1="240" x2="260" y2="240" style="stroke:rgb(0,0,0);stroke-linecap:square;stroke-width:2" />
	<ellipse cx="160" cy="40" rx="2" ry="2" style="fill-opacity:1;fill:rgb(0,0,0);stroke:rgb(0,0,0);stroke-width:2" />
	<ellipse cx="160" cy="240" rx="2" ry="2" style="fill-opacity:1;fill:rgb(0,0,0);stroke:rgb(0,0,0);stroke-width:2" />
</svg>