<?xml version="1.0" encoding="utf-8"?>
<!-- Generator: Circuit Diagram, cdlibrary.dll 1.0.0.0 -->
<!DOCTYPE svg PUBLIC "-//W3C//DTD SVG 1.1//EN" "http://www.w3.org/Graphics/SVG/1.1/DTD/svg11.dtd">
<svg version="1.1" width="300" height="240" xmlns="http://www.w3.org/2000/svg">
	<line x1="260" y1="20" x2="260" y2="50" style="stroke:rgb(0,0,0);stroke-linecap:square;stroke-width:2" />
	<rect x="252" y="50" width="16" height="40" style="fill-opacity:0;stroke:rgb(0,0,0);stroke-width:2" />
	<line x1="260" y1="90" x2="260" y2="120" style="stroke:rgb(0,0,0);stroke-linecap:square;stroke-width:2" />
	<text x="246" y="70" style="font-family:Arial;font-size:11px;text-anchor:end" dy=".3em">R1</text>
	<line x1="60" y1="20" x2="60" y2="117" style="stroke:rgb(0,0,0);stroke-linecap:square;stroke-width:2" />
	<line x1="50" y1="117" x2="70" y2="117" style="stroke:rgb(0,0,0);stroke-linecap:square;stroke-width:2" />
	<line x1="55" y1="123" x2="65" y2="123" style="stroke:rgb(0,0,0);stroke-linecap:square;stroke-width:3" />
	<line x1="60" y1="123" x2="60" y2="220" style="stroke:rgb(0,0,0);stroke-linecap:square;stroke-width:2" />
	<text x="46" y="120" style="font-family:Arial;font-size:12px;text-anchor:end" dy=".3em">+5V</text>
	<line x1="260" y1="120" x2="260" y2="220" style="stroke:rgb(0,0,0);stroke-linecap:square;stroke-width:2" />
	<path d="M 260,177 M 252,177 L 268,177 M 260,177 L 268,162 L 252,162 L 260,177" style="fill-opacity:0;fill:rgb(0,0,0);stroke:rgb(0,0,0);stroke-width:2" />
	<path d="M 260,175 M 271,173 L 279,181 M 280,182 L 278,178 L 276,180 L 280,182 L 278,178" style="fill-opacity:0;fill:rgb(0,0,0);stroke:rgb(0,0,0);stroke-width:2" />
	<path d="M 260,175 M 264,179 L 272,187 M 273,188 L 271,184 L 269,186 L 273,188 L 271,184" style="fill-opacity:0;fill:rgb(0,0,0);stroke:rgb(0,0,0);stroke-width:2" />
	<line x1="60" y1="20" x2="260" y2="20" style="stroke:rgb(0,0,0);stroke-linecap:square;stroke-width:2" />
	<line x1="60" y1="220" x2="260" y2="220" style="stroke:rgb(0,0,0);stroke-linecap:square;stroke-width:2" />
</svg>