<?xml version="1.0" encoding="utf-8"?>
<!-- Generator: Circuit Diagram, cdlibrary.dll 1.0.0.0 -->
<!DOCTYPE svg PUBLIC "-//W3C//DTD SVG 1.1//EN" "http://www.w3.org/Graphics/SVG/1.1/DTD/svg11.dtd">
<svg version="1.1" width="300" height="240" xmlns="http://www.w3.org/2000/svg">
	<line x1="260" y1="20" x2="260" y2="50" style="stroke:rgb(0,0,0);stroke-linecap:square;stroke-width:2" />
	<rect x="252" y="50" width="16" height="40" style="fill-opacity:0;stroke:rgb(0,0,0);stroke-width:2" />
	<line x1="260" y1="90" x2="260" y2="120" style="stroke:rgb(0,0,0);stroke-linecap:square;stroke-width:2" />
	<text x="246" y="70" style="font-family:Arial;font-size:11px;text-anchor:end" dy=".3em">R1</text>
	<line x1="60" y1="20" x2="60" y2="117" style="stroke:rgb(0,0,0);stroke-linecap:square;stroke-width:2" />
	<line x1="50" y1="117" x2="70" y2="117" style="stroke:rgb(0,0,0);stroke-linecap:square;stroke-width:2" />
	<line x1="55" y1="123" x2="65" y2="123" style="stroke:rgb(0,0,0);stroke-linecap:square;stroke-width:3" />
	<line x1="60" y1="123" x2="60" y2="220" style="stroke:rgb(0,0,0);stroke-linecap:square;stroke-width:2" />
	<text x="46" y="120" style="font-family:Arial;font-size:12px;text-anchor:end" dy=".3em">+5V</text>
	<line x1="260" y1="150" x2="260" y2="220" style="stroke:rgb(0,0,0);stroke-linecap:square;stroke-width:2" />
	<path d="M 260,192 M 252,192 L 268,192 M 260,192 L 268,177 L 252,177 L 260,192" style="fill-opacity:0;fill:rgb(0,0,0);stroke:rgb(0,0,0);stroke-width:2" />
	<path d="M 260,190 M 271,188 L 279,196 M 280,197 L 278,193 L 276,195 L 280,197 L 278,193" style="fill-opacity:0;fill:rgb(0,0,0);stroke:rgb(0,0,0);stroke-width:2" />
	<path d="M 260,190 M 264,194 L 272,202 M 273,203 L 271,199 L 269,201 L 273,203 L 271,199" style="fill-opacity:0;fill:rgb(0,0,0);stroke:rgb(0,0,0);stroke-width:2" />
	<line x1="60" y1="20" x2="260" y2="20" style="stroke:rgb(0,0,0);stroke-linecap:square;stroke-width:2" />
	<line x1="60" y1="220" x2="260" y2="220" style="stroke:rgb(0,0,0);stroke-linecap:square;stroke-width:2" />
</svg>