<?xml version="1.0" encoding="utf-8"?>
<!-- Generator: Circuit Diagram, cdlibrary.dll 1.0.0.0 -->
<!DOCTYPE svg PUBLIC "-//W3C//DTD SVG 1.1//EN" "http://www.w3.org/Graphics/SVG/1.1/DTD/svg11.dtd">
<svg version="1.1" width="200" height="140" xmlns="http://www.w3.org/2000/svg">
	<line x1="60" y1="20" x2="60" y2="57" style="stroke:rgb(0,0,0);stroke-linecap:square;stroke-width:2" />
	<line x1="60" y1="83" x2="60" y2="120" style="stroke:rgb(0,0,0);stroke-linecap:square;stroke-width:2" />
	<line x1="20" y1="70" x2="46" y2="70" style="stroke:rgb(0,0,0);stroke-linecap:square;stroke-width:2" />
	<line x1="45.5" y1="62" x2="45.5" y2="78" style="stroke:rgb(0,0,0);stroke-linecap:square;stroke-width:3" />
	<line x1="60" y1="57" x2="45.5" y2="66" style="stroke:rgb(0,0,0);stroke-linecap:square;stroke-width:2" />
	<line x1="45.5" y1="74" x2="60" y2="83" style="stroke:rgb(0,0,0);stroke-linecap:square;stroke-width:2" />
	<ellipse cx="50" cy="70" rx="16" ry="16" style="fill-opacity:0;fill:rgb(0,0,0);stroke:rgb(0,0,0);stroke-width:2" />
	<path d="M 52,77 L 56,75 L 57,82 L 51,78 L 53,77" style="fill-opacity:1;fill:rgb(0,0,0);stroke:rgb(0,0,0);stroke-width:2" />
	<line x1="160" y1="20" x2="160" y2="57" style="stroke:rgb(0,0,0);stroke-linecap:square;stroke-width:2" />
	<line x1="160" y1="83" x2="160" y2="120" style="stroke:rgb(0,0,0);stroke-linecap:square;stroke-width:2" />
	<line x1="120" y1="70" x2="146" y2="70" style="stroke:rgb(0,0,0);stroke-linecap:square;stroke-width:2" />
	<line x1="145.5" y1="62" x2="145.5" y2="78" style="stroke:rgb(0,0,0);stroke-linecap:square;stroke-width:3" />
	<line x1="160" y1="57" x2="145.5" y2="66" style="stroke:rgb(0,0,0);stroke-linecap:square;stroke-width:2" />
	<line x1="145.5" y1="74" x2="160" y2="83" style="stroke:rgb(0,0,0);stroke-linecap:square;stroke-width:2" />
	<ellipse cx="150" cy="70" rx="16" ry="16" style="fill-opacity:0;fill:rgb(0,0,0);stroke:rgb(0,0,0);stroke-width:2" />
	<path d="M 153,60 L 155,64 L 148,65 L 152,59 L 153,61" style="fill-opacity:1;fill:rgb(0,0,0);stroke:rgb(0,0,0);stroke-width:2" />
</svg>