 <svg version="1.0" xmlns="http://www.w3.org/2000/svg" width="700.000000pt" height="637.000000pt" viewBox="0 0 700.000000 637.000000" preserveAspectRatio="xMidYMid meet">
<metadata>
Created by potrace 1.12, written by Peter Selinger 2001-2015
</metadata>
<g transform="translate(0.000000,637.000000) scale(0.100000,-0.100000)" fill="#000000" stroke="none">
<path d="M1922 5084 c-68 -18 -102 -36 -183 -96 -60 -44 -71 -58 -128 -167
-71 -135 -113 -184 -215 -248 -92 -58 -161 -125 -194 -188 -20 -39 -26 -69
-30 -136 l-4 -87 43 -72 c24 -39 53 -87 65 -106 11 -19 45 -50 75 -69 148 -93
141 -90 216 -93 82 -5 125 7 204 54 75 45 130 100 156 155 21 45 48 75 72 81
11 2 14 -27 15 -162 2 -156 4 -170 34 -260 78 -236 266 -433 480 -504 165 -55
316 -55 474 0 111 38 115 39 123 15 11 -36 63 -71 106 -71 85 0 139 -48 139
-125 0 -42 18 -65 67 -86 82 -35 162 -20 288 57 l70 42 5 52 c5 43 12 58 38
81 39 35 73 37 162 7 98 -32 297 -32 400 0 264 83 453 280 532 557 18 66 22
105 23 222 0 97 4 143 11 143 15 0 38 -28 63 -77 26 -52 140 -136 215 -158 99
-30 157 -17 271 57 60 39 78 59 128 136 l57 89 0 79 c0 44 -5 95 -10 114 -13
47 -101 144 -170 188 -123 78 -157 117 -229 262 -17 36 -37 72 -44 80 -19 24
-99 85 -133 103 -39 20 -170 57 -202 57 -40 0 -155 -51 -190 -83 -30 -29 -96
-176 -116 -259 -8 -34 -14 -35 -78 -2 -79 40 -123 53 -231 69 -86 13 -110 13
-195 1 -175 -26 -324 -106 -446 -237 -35 -38 -67 -69 -71 -69 -4 0 -20 11 -37
25 -36 31 -92 33 -128 5 -14 -11 -28 -20 -33 -20 -4 0 -38 32 -74 71 -147 155
-291 226 -503 245 -91 9 -234 -17 -335 -61 -43 -19 -81 -32 -85 -30 -4 2 -10
28 -14 57 -8 67 -63 213 -100 267 -42 60 -151 111 -237 110 -35 0 -88 -7 -117
-15z m235 -43 c47 -23 87 -49 94 -63 26 -46 89 -200 95 -234 16 -85 -31 -114
-80 -49 -30 39 -66 46 -103 20 -32 -22 -78 -127 -107 -243 -34 -133 -58 -205
-113 -331 -61 -140 -71 -156 -139 -207 -75 -56 -149 -84 -223 -84 -67 0 -110
15 -163 58 -21 16 -50 35 -66 41 -16 7 -36 26 -46 44 -9 18 -37 61 -61 97 -45
64 -45 66 -45 150 0 76 3 91 30 136 39 69 74 102 189 179 53 35 106 75 118 87
25 28 92 144 125 218 19 41 41 67 84 101 74 57 92 67 179 95 103 33 137 31
232 -15z m2860 -81 c78 -21 176 -81 209 -126 11 -16 40 -67 64 -114 59 -117
79 -139 202 -226 59 -42 119 -94 134 -115 59 -85 70 -184 31 -260 -42 -79
-100 -169 -109 -169 -5 0 -39 -19 -76 -42 -65 -42 -69 -43 -152 -43 -81 0 -88
2 -135 35 -27 19 -58 40 -69 45 -54 29 -152 245 -212 467 -37 139 -71 218
-106 242 -32 23 -43 20 -88 -21 -38 -34 -42 -35 -57 -20 -25 25 -17 82 26 182
38 89 80 145 110 145 9 1 32 9 51 20 45 25 88 25 177 0z m-2777 -418 c0 -13
-39 -46 -46 -39 -12 12 8 47 27 47 10 0 19 -4 19 -8z m1758 -74 c20 -20 14
-44 -23 -88 -19 -23 -35 -46 -35 -50 0 -14 -62 -41 -81 -35 -9 3 -20 13 -23
21 -8 21 26 83 66 120 46 44 75 53 96 32z m-1478 -28 c15 -28 -42 -134 -81
-150 -59 -25 -84 12 -50 76 22 41 83 94 108 94 7 0 17 -9 23 -20z m117 -96
c10 -26 -11 -49 -43 -49 -34 0 -43 24 -19 49 21 21 54 21 62 0z m883 -44 c-17
-34 -34 -59 -39 -56 -4 3 -13 23 -21 45 -17 52 -3 71 51 71 l39 0 -30 -60z
m549 -14 c18 -22 -4 -58 -32 -54 -37 5 -36 68 1 68 11 0 25 -6 31 -14z m-554
-698 c13 -29 35 -71 49 -93 13 -22 22 -43 20 -47 -3 -5 1 -8 8 -9 7 -1 -7 -5
-31 -10 -48 -9 -65 -4 -41 12 15 10 -66 5 -132 -7 -21 -4 -28 -2 -28 10 0 8 6
19 14 23 8 4 33 45 56 91 23 45 46 82 52 82 5 0 20 -24 33 -52z m105 -187 c0
-5 -9 -11 -20 -14 -30 -8 -24 -24 11 -32 35 -8 37 -38 2 -43 -12 -2 -27 -10
-34 -18 -9 -12 -6 -16 20 -25 17 -6 31 -15 31 -19 0 -12 -56 8 -70 25 -15 18
-5 34 28 46 21 8 23 12 12 19 -8 6 -28 10 -43 10 -16 0 -30 7 -34 15 -7 20 -1
26 39 35 46 11 58 11 58 1z m-270 -40 c0 -20 -13 -41 -25 -41 -18 0 -28 17
-21 35 6 16 46 21 46 6z m90 -20 c0 -14 -18 -23 -30 -16 -6 4 -8 11 -5 16 8
12 35 12 35 0z"></path>
<path d="M3052 2848 c-20 -26 -24 -59 -8 -82 35 -55 104 -27 86 34 -16 56 -53
78 -78 48z"></path>
<path d="M3513 2852 c-8 -5 -12 -61 -14 -187 -3 -303 -11 -377 -52 -470 -20
-44 -56 -103 -81 -131 -46 -53 -131 -104 -172 -104 -27 0 -41 -34 -24 -55 18
-22 30 -19 115 22 l76 36 51 -24 c74 -35 195 -34 256 0 37 22 46 23 75 13 17
-6 56 -14 85 -18 l52 -7 0 35 c0 32 -3 36 -42 47 -65 19 -164 78 -188 111 -24
34 -53 113 -71 196 -8 37 -13 147 -13 299 -1 232 -2 240 -21 243 -11 1 -25 -1
-32 -6z m65 -731 c13 -29 38 -69 55 -88 30 -34 31 -36 12 -50 -25 -19 -144
-12 -198 10 l-37 16 45 72 c25 40 45 78 45 84 0 6 8 21 17 35 l17 24 10 -25
c5 -13 21 -48 34 -78z"></path>
<path d="M3760 2803 c-15 -6 -30 -23 -30 -35 0 -12 31 -38 46 -38 23 0 40 46
24 65 -13 16 -17 17 -40 8z"></path>
<path d="M3970 2690 c-21 -21 -23 -29 -14 -54 8 -21 37 -20 57 2 23 25 21 49
-3 62 -15 8 -24 6 -40 -10z"></path>
<path d="M2818 2659 c-21 -12 -24 -59 -6 -77 7 -7 21 -12 33 -12 43 0 61 53
29 84 -18 18 -32 20 -56 5z"></path>
<path d="M3745 2564 c-21 -22 -15 -48 12 -52 24 -4 60 39 48 58 -9 15 -41 12
-60 -6z"></path>
<path d="M3004 2529 c-20 -22 -13 -43 19 -63 12 -8 22 -5 42 14 30 28 32 46 6
60 -29 15 -46 12 -67 -11z"></path>
</g>
</svg>