<?xml version="1.0" encoding="UTF-8"?>
<svg version="1.1" viewBox="0 0 919.03 218.34" xmlns="http://www.w3.org/2000/svg">
 <g transform="translate(5.0002 6.1078)" font-size="37.333px">
  <text x="-1.7504619" y="117.07249" stroke-width="0" xml:space="preserve"><tspan x="-1.7504619" y="117.07249"><tspan fill="var(--base05)">swh</tspan><tspan fill="var(--base0F)">:</tspan><tspan fill="var(--base0A)">1</tspan><tspan fill="var(--base0F)">:</tspan><tspan fill="var(--base09)">rev</tspan><tspan fill="var(--base0F)">:</tspan><tspan fill="var(--base0B)">c4f3a3707104999d5b6fe4c4e5c3833980a92513</tspan></tspan></text>
  <g transform="translate(140.37 -73.863)" fill="var(--base0B)">
   <path class="UnoptimicedTransforms" transform="translate(40.573,-4.3625)" d="m366.8 203.49c0.68831 0.11851 0.50863 4.0327 0.64628 10.351 0.1326 6.086 0.67133 15.288 4.5676 23.765 1.0278 2.2912 2.3211 4.537 3.8789 6.6904 3.1363 4.3354 6.9792 7.7989 10.937 10.379h1e-5c6.0542 3.9566 12.442 6.1096 16.909 7.4197 2.4787 0.72403 4.4984 1.2224 5.9156 1.6257 0.72999 0.2077 1.3061 0.39294 1.6922 0.56247 0.19731 0.0866 0.34858 0.17101 0.4501 0.25329 0.0507 0.0415 0.0895 0.0829 0.11555 0.12398 0.0128 0.0616 0.0227 0.0932 0.0295 0.10942 7e-3 0.0156 0.0102 0.0168 0.0107 0.0169h1e-5c3e-5 0 0 0 0 0s3e-5 0 0 0h-1e-5c-4.8e-4 7e-5 -4e-3 1e-3 -0.0111 0.0166-7e-3 0.016-0.0179 0.0473-0.0323 0.10848v1e-5c-0.0281 0.0403-0.0699 0.0798-0.12523 0.11869-0.10906 0.0773-0.26966 0.15077-0.4808 0.2194-0.41664 0.13541-1.023 0.24873-1.8111 0.32465-1.5191 0.14638-3.6999 0.1526-6.4096-0.14413-4.9136-0.53319-11.962-2.1167-19.039-6.2093-4.6603-2.7034-9.1681-6.5561-12.79-11.571-1.7963-2.4871-3.2641-5.1095-4.4023-7.7983v-1e-5c-4.1273-9.9763-3.942-19.846-3.0958-26.221 0.8715-6.5655 2.3571-10.259 3.0454-10.141z"/>
   <text x="459.50897" y="270.69006" stroke-width="0" xml:space="preserve"><tspan x="459.50897" y="270.69006">object identifier</tspan></text>
   <path class="UnoptimicedTransforms" transform="translate(-12.77,19.743)" d="m461.14 230.01c1.5758-0.7359 4.5503 3.8007 7.3638 10.855-0.22246 0.28921-0.45011 0.5816-0.68242 0.87604-4.9296 6.248-9.4729 10.128-10.835 8.913-1.3914-1.2411 1.6339-5.7283 5.9285-9.8802 0.22035-0.21302 0.44144-0.4237 0.66262-0.63184-2.636-4.7018-4.0467-9.3804-2.4374-10.132z"/>
  </g>
  <g transform="translate(-28.311 -73.863)" fill="var(--base0A)">
   <path class="UnoptimicedTransforms" d="m115.63 194.84c0.20917-0.0609 0.64911 0.42288 1.266 1.3792 0.42884 0.65636 1.0138 1.627 1.6572 2.7337 1.2552 2.1584 2.8869 5.0753 4.8777 8.5584 3.6713 6.4204 8.6208 14.941 14.746 23.697 0.99393 1.4137 2.0198 2.8468 3.0734 4.2732 5.3388 7.2274 10.32 12.796 15.887 17.244h1e-5c3.6779 2.9308 6.9454 4.8468 10.184 6.0331 6.2822 2.3166 10.771 1.2663 10.944 1.9037 0.17263 0.63741-4.3424 3.17-11.919 1.4181-3.8017-0.88281-7.8172-2.7093-11.98-5.6591-6.2529-4.4172-11.922-10.3-17.422-17.762-1.093-1.4827-2.1365-2.9687-3.1323-4.4377-6.2319-9.1479-10.787-18.075-13.815-24.983-1.6514-3.7647-2.8266-6.8858-3.5954-9.3386-0.40185-1.2821-0.67326-2.3196-0.82982-3.1507-0.21778-1.168-0.201-1.8332 0.0585-1.9088z"/>
   <text x="184.00632" y="270.69006" stroke-width="0" xml:space="preserve"><tspan x="184.00632" y="270.69006">scheme version</tspan></text>
   <path class="UnoptimicedTransforms" d="m171.33 251.09c1.2325-0.91972 5.0462 2.949 9.1973 9.074-0.0865 0.22193-0.17472 0.44561-0.26456 0.67073-2.833 7.0998-5.912 12.008-7.3566 11.348-1.4688-0.67014 0.0695-5.754 2.8417-11.004 0.0947-0.17937 0.18996-0.35775 0.28559-0.53505h-1e-5c-3.5716-4.2658-5.9559-8.6199-4.7034-9.5545z"/>
  </g>
  <g transform="translate(-28.311 -73.863)" fill="var(--base05)">
   <path class="UnoptimicedTransforms" d="m36.825 161.53c-0.75323 0.18123-2.5018-4.1274-4.0789-11.284h-1e-6c-1.1861-5.3728-2.3055-12.517-2.4493-20.371 1e-6 0 0 0 0 0-0.01885-0.84843-0.02708-1.7104-0.02141-2.5824 0.04508-6.9262 0.97568-12.958 3.0964-18.285h1e-6c1.3022-3.2896 3.0469-5.8724 5.0322-7.7587 4.3733-4.1214 7.9458-3.3196 8.0046-3.102 0.16062 0.59497-2.9163 1.6628-5.6085 5.2783-1.3676 1.8088-2.4517 4.0514-3.3722 7.023h-1e-6c-1.514 4.9139-2.0397 10.229-2.1078 16.887-0.0085 0.83043-0.01004 1.6581-0.0076 2.4762 0.05249 7.4308 0.69735 14.546 1.1725 19.855 0.6429 7.1272 1.0464 11.694 0.33987 11.864z"/>
   <text x="56.50531" y="101.82629" stroke-width="0" xml:space="preserve"><tspan x="56.50531" y="101.82629">prefix</tspan></text>
   <path class="UnoptimicedTransforms" transform="translate(5.7253,-3.2291)" d="m32.075 93.683c0.80362-0.99123 5.3284 1.7022 10.815 6.32h1e-6c0.03079 0.453 0.05894 0.91466 0.08401 1.3831 0.41152 7.6885-0.23057 13.623-1.5883 13.659-1.3682 0.0362-2.293-5.5067-2.2663-11.959 0.0017-0.41411 0.0068-0.82504 0.01481-1.2317l-1e-6 -1e-5c-4.544-3.5233-7.8674-7.1748-7.0594-8.1714z"/>
  </g>
  <g transform="translate(-28.311 -73.863)" fill="var(--base09)">
   <path class="UnoptimicedTransforms" d="m152.43 165.36c-0.0234-0.0101-0.0448-0.0242-0.0646-0.0425-0.0191-0.0177-0.0365-0.0393-0.0521-0.0648-0.0312-0.0508-0.0554-0.11687-0.0727-0.19789-0.0343-0.16203-0.0403-0.38294-0.0181-0.66091 0.0444-0.55421 0.20118-1.3263 0.47551-2.3021 0.5442-1.9357 1.5328-4.6133 3.0256-7.8973 2.8964-6.3737 7.6261-14.908 14.555-23.907 3.4424-4.4772 7.4226-9.0443 11.968-13.413 4.6167-4.4363 9.3748-8.2426 14.203-11.446 9.8659-6.5479 19.218-9.8136 26.263-11.232 6.9253-1.3943 11.136-1.0428 11.237-0.28679 0.1008 0.75598-3.8498 1.8066-10.113 4.2001-6.4361 2.4595-14.666 6.2254-23.664 12.708v1e-5c-4.4074 3.176-8.7801 6.8269-13.144 11.028-4.2884 4.128-8.1636 8.3977-11.634 12.543-6.9869 8.3583-12.239 16.117-16.041 21.819-1.9112 2.867-3.5192 5.3144-4.632 6.8567-0.5792 0.80278-1.0632 1.4168-1.4418 1.806-0.19116 0.19651-0.35784 0.33797-0.49868 0.42074-0.0708 0.0417-0.13531 0.0686-0.19341 0.0804-0.0291 6e-3 -0.0567 8e-3 -0.0826 6e-3 -0.0268-2e-3 -0.0517-8e-3 -0.0751-0.0177z"/>
   <text x="239.05254" y="101.45296" stroke-width="0" xml:space="preserve"><tspan x="239.05254" y="101.45296">object type</tspan></text>
   <path class="UnoptimicedTransforms" d="m226.67 82.279c1.0719-0.70804 5.0827 4.2614 9.5233 11.5v1e-6c-0.1043 0.21584-0.20991 0.43306-0.31675 0.65143-3.8511 7.871-7.5677 13.513-8.733 12.892-1.1792-0.62925 1.278-6.4891 4.9858-12.816 0.1084-0.18497 0.21692-0.369 0.32545-0.55198v-1e-6c-4.0636-5.6627-6.8692-10.959-5.7848-11.675z"/>
  </g>
 </g>
</svg>
