<?xml version="1.0" encoding="UTF-8"?>
<!-- Created with Inkscape (http://www.inkscape.org/) -->
<svg width="973.56" height="296.44" font-size="37.333px" version="1.1" viewBox="0 0 973.56 296.44" xmlns="http://www.w3.org/2000/svg">
 <text x="4.5522251" y="111.58363" xml:space="preserve"><tspan x="4.5522251" y="111.58363"><tspan fill="var(--base05)">swh:1:rev:c4f3a3707104999d5b6fe4c4e5c3833980a92513</tspan><tspan fill="var(--base07)">;</tspan></tspan><tspan x="4.5522251" y="158.24988" fill="var(--base0B)">origin=https://github.com/nix-community/home-manager<tspan fill="var(--base07)">;</tspan></tspan><tspan x="4.5522251" y="204.91612" fill="var(--base0B)">visit=swh:1:snp:c452aec4a5c8fd93484cc4215c20da568f3fbbc8</tspan></text>
 <g transform="translate(-310.19 86.855)" fill="var(--base05)">
  <path class="UnoptimicedTransforms" d="m762.79-13.433c-0.35699-0.53054 4.5623-4.5796 12.909-10.641 8.0719-5.8612 20.417-14.332 33.879-21.876 13.25-7.4243 24.839-12.434 34.903-15.745 6.7819-2.2527 11.146-3.0368 14.957-2.9137 1.3593 0.04064 2.301 0.23202 2.9633 0.49919 0.28618 0.11518 0.48692 0.23531 0.61181 0.34856v1e-6c0.0625 0.05514 0.10351 0.10522 0.12468 0.14999v1e-6c-5e-3 0.05038-4e-3 0.07827-1e-3 0.09365 2e-3 0.0147 6e-3 0.01789 7e-3 0.01836 7e-5 5e-5 4e-5 3.1e-5 4e-5 3e-5s3e-5 1.7e-5 -5e-5 -1.3e-5c-7.6e-4 -2.74e-4 -5e-3 -0.0013-0.0181 0.0064-0.0133 8e-3 -0.0356 0.02549-0.0715 0.06297v1e-6c-0.0408 0.01727-0.0976 0.03304-0.16226 0.04565-0.12261 0.01998-0.37263 0.04258-0.62119 0.06127-0.78873 0.05945-1.3229 0.10859-2.7169 0.3559-3.9404 0.70873-7.0172 1.6873-13.882 4.4911-9.8661 4.0648-20.541 9.1084-33.826 16.567-12.515 7.0255-26.544 15.843-34.325 20.571-8.793 5.3436-14.373 8.4351-14.73 7.9046z"/>
  <path class="UnoptimicedTransforms" d="m855.62-76.438c1.1722-0.71538 5.3348 4.6591 9.6926 12.273 0.1682 0.29389 0.33373 0.58582 0.49642 0.87525v1e-6c-2.9337 7.8611-5.9321 13.383-7.1582 12.892-1.2354-0.4952 0.29172-6.2096 3.0385-12.547v-1e-6c-0.16489-0.24735-0.32979-0.49691-0.49445-0.74844-4.0597-6.2017-6.7573-12.023-5.5748-12.744z"/>
  <text x="871.37671" y="-54.825691" xml:space="preserve"><tspan x="871.37671" y="-54.825691">core identifier</tspan></text>
 </g>
 <g transform="translate(4.5481 68.906)" fill="var(--base0B)">
  <path class="UnoptimicedTransforms" d="m599.69 151.01c0.47293-0.35412 4.0022 3.691 10.043 10.003 5.9778 6.2462 14.728 14.9 25.824 22.505 1.8362 1.2586 3.7395 2.4909 5.7066 3.6806 8.1333 4.9189 15.995 8.2886 23.497 10.435 8.45 2.4177 15.321 3.0458 20.576 3.1539 2.6118 0.0539 4.3942-0.0183 5.8684-0.056 0.68255-0.0174 1.2333-0.0241 1.5965-1e-3 0.18583 0.0116 0.33158 0.0314 0.43347 0.0609 0.0611 0.0504 0.10367 0.077 0.1327 0.0935 0.0169 0.0169 0.0284 0.0248 0.0357 0.0284l0.0107 3e-3s1e-5 0 1e-3 6e-3c-0.0137 9e-3 -0.0196 0.0221-0.0258 0.0452-0.0171 0.0286-0.0425 0.0739-0.072 0.14722-0.0782 0.0763-0.20128 0.16177-0.36954 0.25511-0.33691 0.18688-0.84314 0.39853-1.5254 0.61944-1.3683 0.44299-3.352 0.89757-5.9699 1.1996-5.374 0.61943-12.795 0.53842-21.728-1.6042-7.9699-1.9121-16.378-5.2842-24.862-10.416-2.0548-1.2429-4.0321-2.5395-5.9285-3.8722v-1e-5c-11.487-8.073-20.042-17.342-25.527-24.257-5.5256-6.9664-8.1906-11.674-7.7177-12.028z"/>
  <path class="UnoptimicedTransforms" d="m685.62 183.68c1.1736-0.4735 5.0376 7.0927 9.1893 17.701-0.36711 0.75265-0.74526 1.5187-1.133 2.2941-5.5727 11.144-10.798 19.453-12.004 18.825-1.2111-0.63058 2.4509-9.364 7.8101-19.229 0.38451-0.70776 0.76882-1.4061 1.151-2.0926-3.8356-9.1977-6.1904-17.024-5.0134-17.499z"/>
  <text x="701.56409" y="211.01204" xml:space="preserve"><tspan x="701.56409" y="211.01204">qualifiers</tspan></text>
 </g>
</svg>
