<svg xmlns="http://www.w3.org/2000/svg" viewBox="0 0 32 40" enable-background="new 0 0 32 32" x="0px" y="0px"><g><path d="M29.496 32h-26.992c-1.38 0-2.504-1.123-2.504-2.504v-24.991c0-1.381 1.124-2.505 2.505-2.505h26.99c1.381 0 2.505 1.124 2.505 2.505v24.991c0 1.381-1.123 2.504-2.504 2.504zm-26.991-28c-.278 0-.505.227-.505.505v24.991c0 .278.226.504.504.504h26.992c.278 0 .504-.226.504-.504v-24.991c0-.278-.227-.505-.505-.505h-26.99zM31 10h-30c-.552 0-1-.448-1-1s.448-1 1-1h30c.553 0 1 .448 1 1s-.447 1-1 1zM6 6c-.552 0-1-.448-1-1v-4c0-.552.448-1 1-1s1 .448 1 1v4c0 .552-.448 1-1 1zM26 6c-.553 0-1-.448-1-1v-4c0-.552.447-1 1-1s1 .448 1 1v4c0 .552-.447 1-1 1z"/><circle cx="6" cy="18" r="1"/><circle cx="6" cy="22" r="1"/><circle cx="6" cy="26" r="1"/><circle cx="22" cy="14" r="1"/><circle cx="22" cy="18" r="1"/><circle cx="22" cy="22" r="1"/><circle cx="22" cy="26" r="1"/><circle cx="26" cy="14" r="1"/><circle cx="26" cy="18" r="1"/><circle cx="26" cy="22" r="1"/><circle cx="14" cy="14" r="1"/><circle cx="14" cy="18" r="1"/><circle cx="14" cy="22" r="1"/><circle cx="14" cy="26" r="1"/><circle cx="10" cy="14" r="1"/><circle cx="10" cy="18" r="1"/><circle cx="10" cy="22" r="1"/><circle cx="10" cy="26" r="1"/><circle cx="18" cy="14" r="1"/><circle cx="18" cy="18" r="1"/><circle cx="18" cy="22" r="1"/><circle cx="18" cy="26" r="1"/></g><text x="0" y="47" fill="#000000" font-size="5px" font-weight="bold" font-family="'Helvetica Neue', Helvetica, Arial-Unicode, Arial, Sans-serif">Created by ✦ Shmidt Sergey ✦</text><text x="0" y="52" fill="#000000" font-size="5px" font-weight="bold" font-family="'Helvetica Neue', Helvetica, Arial-Unicode, Arial, Sans-serif">from the Noun Project</text></svg>