<svg xmlns="http://www.w3.org/2000/svg" xmlns:xlink="http://www.w3.org/1999/xlink" version="1.1" x="0px" y="0px" viewBox="0 0 24 30" style="enable-background:new 0 0 24 24;" xml:space="preserve"><g><path d="M13.745,24h-4.49C8.563,24,8,23.438,8,22.745L8,1.252C8,0.562,8.562,0,9.252,0h4.496C14.438,0,15,0.562,15,1.252v21.493   C15,23.438,14.438,24,13.745,24z M9.252,1C9.113,1,9,1.113,9,1.252l0,21.493C9,22.886,9.115,23,9.255,23h4.49   C13.886,23,14,22.886,14,22.745V1.252C14,1.113,13.887,1,13.748,1H9.252z"/><path d="M5.745,24H1.255C0.563,24,0,23.438,0,22.745L0,1.252C0,0.562,0.562,0,1.252,0h4.497C6.439,0,7,0.562,7,1.252l0,21.493   C7,23.438,6.437,24,5.745,24z M1.252,1C1.113,1,1,1.113,1,1.252l0,21.493C1,22.886,1.115,23,1.255,23h4.489   C5.885,23,6,22.886,6,22.745L6,1.252C6,1.113,5.888,1,5.749,1H1.252z"/><path d="M21.745,24h-4.49C16.562,24,16,23.438,16,22.745V1.252C16,0.562,16.562,0,17.252,0h4.496C22.438,0,23,0.562,23,1.252   v21.493C23,23.438,22.438,24,21.745,24z M17.252,1C17.113,1,17,1.113,17,1.252v21.493C17,22.886,17.114,23,17.255,23h4.49   C21.886,23,22,22.886,22,22.745V1.252C22,1.113,21.887,1,21.748,1H17.252z"/><rect x="0.855" y="17" width="5.133" height="1"/><rect x="0.875" y="5" width="5.25" height="1"/><rect x="8.875" y="17" width="5.25" height="1"/><rect x="8.875" y="5" width="5.25" height="1"/><rect x="17.011" y="17" width="5.134" height="1"/><rect x="16.875" y="5" width="5.25" height="1"/></g><text x="0" y="39" fill="#000000" font-size="5px" font-weight="bold" font-family="'Helvetica Neue', Helvetica, Arial-Unicode, Arial, Sans-serif">Created by ✦ Shmidt Sergey ✦</text><text x="0" y="44" fill="#000000" font-size="5px" font-weight="bold" font-family="'Helvetica Neue', Helvetica, Arial-Unicode, Arial, Sans-serif">from the Noun Project</text></svg>