<svg stroke="#b3411d" fill="#b3411d" xmlns="http://www.w3.org/2000/svg" xmlns:xlink="http://www.w3.org/1999/xlink" version="1.1" x="0px" y="0px" viewBox="0 0 24 30" style="enable-background:new 0 0 24 24;" xml:space="preserve">
    <g><path d="M15.505,24H2.495C1.119,24,0,22.881,0,21.505V8.495C0,7.119,1.119,6,2.495,6H11v1H2.495C1.671,7,1,7.671,1,8.495v13.01   C1,22.329,1.671,23,2.495,23h13.01C16.329,23,17,22.329,17,21.505V13h1v8.505C18,22.881,16.881,24,15.505,24z"/><rect x="23" width="1" height="8"/><rect x="16" width="8" height="1"/><rect x="4.571" y="7.841" transform="matrix(0.7071 -0.7071 0.7071 0.7071 -1.3114 13.5157)" width="22.177" height="1"/></g>
</svg>