<svg xmlns="http://www.w3.org/2000/svg" xmlns:xlink="http://www.w3.org/1999/xlink" version="1.1" x="0px" y="0px" viewBox="0 0 100 125" enable-background="new 0 0 100 100" xml:space="preserve"><path d="M94.4,54.6L42.6,2.4C41.1,0.8,39,0,36.9,0H8C3.6,0,0,3.6,0,8v28.7c0,2.1,0.8,4.1,2.3,5.6l52,52c1.6,1.6,3.6,2.3,5.7,2.3  c2,0,4.1-0.8,5.6-2.3l28.7-28.5C97.5,62.8,97.5,57.7,94.4,54.6z M91.5,63L62.8,91.5c-0.8,0.8-1.8,1.2-2.8,1.2  c-1.1,0-2.1-0.4-2.8-1.2l-52-52C4.4,38.8,4,37.8,4,36.7V8c0-2.2,1.8-4,4-4h28.9C38,4,39,4.4,39.8,5.2l51.8,52.2  C93.1,59,93.1,61.5,91.5,63z"/><path d="M20,12c-4.4,0-8,3.6-8,8c0,4.4,3.6,8,8,8s8-3.6,8-8C28,15.6,24.4,12,20,12z M20,24c-2.2,0-4-1.8-4-4c0-2.2,1.8-4,4-4  s4,1.8,4,4C24,22.2,22.2,24,20,24z"/></svg>