<svg xmlns="http://www.w3.org/2000/svg" viewBox="0 0 48 60" x="0px" y="0px"><g><path d="M46 24c0 12.131-9.869 22-22 22-7.192 0-13.963-3.411-18.107-9h10.107v-2h-13.000000000000002v13h2v-8.881c4.559 5.542 11.58 8.881 19 8.881 13.233 0 24-10.767 24-24h-2zM24 2c7.213 0 13.985 3.411 18.112 9h-10.112v2h13v-2h-.005l-.057-11.005-2 .011.046 8.846c-4.545-5.525-11.556-8.852-18.984-8.852-13.233 0-24 10.767-24 24h2c0-12.131 9.869-22 22-22z"/></g><text x="0" y="63" fill="#000000" font-size="5px" font-weight="bold" font-family="'Helvetica Neue', Helvetica, Arial-Unicode, Arial, Sans-serif">Created by Shmidt Sergey</text><text x="0" y="68" fill="#000000" font-size="5px" font-weight="bold" font-family="'Helvetica Neue', Helvetica, Arial-Unicode, Arial, Sans-serif">from the Noun Project</text></svg>