<?xml version="1.0" encoding="UTF-8" standalone="no"?>
<!-- Created with Inkscape (http://www.inkscape.org/) -->

<svg
   width="512"
   height="512"
   viewBox="0 0 512 512.00002"
   version="1.1"
   id="svg5"
   inkscape:version="1.2.2 (b0a8486541, 2022-12-01)"
   sodipodi:docname="curious.svg"
   inkscape:export-filename="../../../../static/icons/avatars/ezran/curious.webp"
   inkscape:export-xdpi="96"
   inkscape:export-ydpi="96"
   xmlns:inkscape="http://www.inkscape.org/namespaces/inkscape"
   xmlns:sodipodi="http://sodipodi.sourceforge.net/DTD/sodipodi-0.dtd"
   xmlns="http://www.w3.org/2000/svg"
   xmlns:svg="http://www.w3.org/2000/svg">
  <sodipodi:namedview
     id="namedview7"
     pagecolor="#ffffff"
     bordercolor="#000000"
     borderopacity="0.25"
     inkscape:showpageshadow="2"
     inkscape:pageopacity="0.0"
     inkscape:pagecheckerboard="0"
     inkscape:deskcolor="#d1d1d1"
     inkscape:document-units="px"
     showgrid="false"
     inkscape:zoom="1.4696291"
     inkscape:cx="298.3746"
     inkscape:cy="157.86296"
     inkscape:window-width="1366"
     inkscape:window-height="699"
     inkscape:window-x="0"
     inkscape:window-y="0"
     inkscape:window-maximized="1"
     inkscape:current-layer="layer1" />
  <defs
     id="defs2">
    <inkscape:path-effect
       effect="skeletal"
       id="path-effect3328"
       is_visible="true"
       lpeversion="1"
       pattern="M 0,18.867925 C 0,8.4528302 8.4528302,0 18.867925,0 c 10.415094,0 18.867924,8.4528302 18.867924,18.867925 0,10.415094 -8.45283,18.867924 -18.867924,18.867924 C 8.4528302,37.735849 0,29.283019 0,18.867925 Z"
       copytype="single_stretched"
       prop_scale="0.11890329"
       scale_y_rel="false"
       spacing="0"
       normal_offset="0"
       tang_offset="0"
       prop_units="false"
       vertical_pattern="false"
       hide_knot="false"
       fuse_tolerance="0" />
    <inkscape:path-effect
       effect="skeletal"
       id="path-effect3324"
       is_visible="true"
       lpeversion="1"
       pattern="M 0,18.867925 C 0,8.4528302 8.4528302,0 18.867925,0 c 10.415094,0 18.867924,8.4528302 18.867924,18.867925 0,10.415094 -8.45283,18.867924 -18.867924,18.867924 C 8.4528302,37.735849 0,29.283019 0,18.867925 Z"
       copytype="single_stretched"
       prop_scale="0.11890329"
       scale_y_rel="false"
       spacing="0"
       normal_offset="0"
       tang_offset="0"
       prop_units="false"
       vertical_pattern="false"
       hide_knot="false"
       fuse_tolerance="0" />
    <inkscape:path-effect
       effect="skeletal"
       id="path-effect3316"
       is_visible="true"
       lpeversion="1"
       pattern="M 0,18.867925 C 0,8.4528302 8.4528302,0 18.867925,0 c 10.415094,0 18.867924,8.4528302 18.867924,18.867925 0,10.415094 -8.45283,18.867924 -18.867924,18.867924 C 8.4528302,37.735849 0,29.283019 0,18.867925 Z"
       copytype="single_stretched"
       prop_scale="0.11890329"
       scale_y_rel="false"
       spacing="0"
       normal_offset="0"
       tang_offset="0"
       prop_units="false"
       vertical_pattern="false"
       hide_knot="false"
       fuse_tolerance="0" />
    <inkscape:path-effect
       effect="skeletal"
       id="path-effect3312"
       is_visible="true"
       lpeversion="1"
       pattern="M 0,18.867925 C 0,8.4528302 8.4528302,0 18.867925,0 c 10.415094,0 18.867924,8.4528302 18.867924,18.867925 0,10.415094 -8.45283,18.867924 -18.867924,18.867924 C 8.4528302,37.735849 0,29.283019 0,18.867925 Z"
       copytype="single_stretched"
       prop_scale="0.11890329"
       scale_y_rel="false"
       spacing="0"
       normal_offset="0"
       tang_offset="0"
       prop_units="false"
       vertical_pattern="false"
       hide_knot="false"
       fuse_tolerance="0" />
    <inkscape:path-effect
       effect="skeletal"
       id="path-effect3304"
       is_visible="true"
       lpeversion="1"
       pattern="M 0,18.867925 C 0,8.4528302 8.4528302,0 18.867925,0 c 10.415094,0 18.867924,8.4528302 18.867924,18.867925 0,10.415094 -8.45283,18.867924 -18.867924,18.867924 C 8.4528302,37.735849 0,29.283019 0,18.867925 Z"
       copytype="single_stretched"
       prop_scale="0.11890329"
       scale_y_rel="false"
       spacing="0"
       normal_offset="0"
       tang_offset="0"
       prop_units="false"
       vertical_pattern="false"
       hide_knot="false"
       fuse_tolerance="0" />
    <inkscape:path-effect
       effect="skeletal"
       id="path-effect3300"
       is_visible="true"
       lpeversion="1"
       pattern="M 0,18.867925 C 0,8.4528302 8.4528302,0 18.867925,0 c 10.415094,0 18.867924,8.4528302 18.867924,18.867925 0,10.415094 -8.45283,18.867924 -18.867924,18.867924 C 8.4528302,37.735849 0,29.283019 0,18.867925 Z"
       copytype="single_stretched"
       prop_scale="0.11890329"
       scale_y_rel="false"
       spacing="0"
       normal_offset="0"
       tang_offset="0"
       prop_units="false"
       vertical_pattern="false"
       hide_knot="false"
       fuse_tolerance="0" />
    <inkscape:path-effect
       effect="skeletal"
       id="path-effect3292"
       is_visible="true"
       lpeversion="1"
       pattern="M 0,18.867925 C 0,8.4528302 8.4528302,0 18.867925,0 c 10.415094,0 18.867924,8.4528302 18.867924,18.867925 0,10.415094 -8.45283,18.867924 -18.867924,18.867924 C 8.4528302,37.735849 0,29.283019 0,18.867925 Z"
       copytype="single_stretched"
       prop_scale="0.11890329"
       scale_y_rel="false"
       spacing="0"
       normal_offset="0"
       tang_offset="0"
       prop_units="false"
       vertical_pattern="false"
       hide_knot="false"
       fuse_tolerance="0" />
    <inkscape:path-effect
       effect="skeletal"
       id="path-effect3288"
       is_visible="true"
       lpeversion="1"
       pattern="M 0,18.867925 C 0,8.4528302 8.4528302,0 18.867925,0 c 10.415094,0 18.867924,8.4528302 18.867924,18.867925 0,10.415094 -8.45283,18.867924 -18.867924,18.867924 C 8.4528302,37.735849 0,29.283019 0,18.867925 Z"
       copytype="single_stretched"
       prop_scale="0.11890329"
       scale_y_rel="false"
       spacing="0"
       normal_offset="0"
       tang_offset="0"
       prop_units="false"
       vertical_pattern="false"
       hide_knot="false"
       fuse_tolerance="0" />
    <inkscape:path-effect
       effect="skeletal"
       id="path-effect3280"
       is_visible="true"
       lpeversion="1"
       pattern="M 0,18.867925 C 0,8.4528302 8.4528302,0 18.867925,0 c 10.415094,0 18.867924,8.4528302 18.867924,18.867925 0,10.415094 -8.45283,18.867924 -18.867924,18.867924 C 8.4528302,37.735849 0,29.283019 0,18.867925 Z"
       copytype="single_stretched"
       prop_scale="0.11890329"
       scale_y_rel="false"
       spacing="0"
       normal_offset="0"
       tang_offset="0"
       prop_units="false"
       vertical_pattern="false"
       hide_knot="false"
       fuse_tolerance="0" />
    <inkscape:path-effect
       effect="skeletal"
       id="path-effect3276"
       is_visible="true"
       lpeversion="1"
       pattern="M 0,18.867925 C 0,8.4528302 8.4528302,0 18.867925,0 c 10.415094,0 18.867924,8.4528302 18.867924,18.867925 0,10.415094 -8.45283,18.867924 -18.867924,18.867924 C 8.4528302,37.735849 0,29.283019 0,18.867925 Z"
       copytype="single_stretched"
       prop_scale="0.11890329"
       scale_y_rel="false"
       spacing="0"
       normal_offset="0"
       tang_offset="0"
       prop_units="false"
       vertical_pattern="false"
       hide_knot="false"
       fuse_tolerance="0" />
    <inkscape:path-effect
       effect="skeletal"
       id="path-effect3237"
       is_visible="true"
       lpeversion="1"
       pattern="M 0,18.867925 C 0,8.4528302 8.4528302,0 18.867925,0 c 10.415094,0 18.867924,8.4528302 18.867924,18.867925 0,10.415094 -8.45283,18.867924 -18.867924,18.867924 C 8.4528302,37.735849 0,29.283019 0,18.867925 Z"
       copytype="single_stretched"
       prop_scale="0.11890329"
       scale_y_rel="false"
       spacing="0"
       normal_offset="0"
       tang_offset="0"
       prop_units="false"
       vertical_pattern="false"
       hide_knot="false"
       fuse_tolerance="0" />
    <inkscape:path-effect
       effect="skeletal"
       id="path-effect3131"
       is_visible="true"
       lpeversion="1"
       pattern="M 0,18.867925 C 0,8.4528302 8.4528302,0 18.867925,0 c 10.415094,0 18.867924,8.4528302 18.867924,18.867925 0,10.415094 -8.45283,18.867924 -18.867924,18.867924 C 8.4528302,37.735849 0,29.283019 0,18.867925 Z"
       copytype="single_stretched"
       prop_scale="0.39622556"
       scale_y_rel="false"
       spacing="0"
       normal_offset="0"
       tang_offset="0"
       prop_units="false"
       vertical_pattern="false"
       hide_knot="false"
       fuse_tolerance="0" />
    <inkscape:path-effect
       effect="skeletal"
       id="path-effect3123"
       is_visible="true"
       lpeversion="1"
       pattern="M 0,18.867925 C 0,8.4528302 8.4528302,0 18.867925,0 c 10.415094,0 18.867924,8.4528302 18.867924,18.867925 0,10.415094 -8.45283,18.867924 -18.867924,18.867924 C 8.4528302,37.735849 0,29.283019 0,18.867925 Z"
       copytype="single_stretched"
       prop_scale="0.99841052"
       scale_y_rel="false"
       spacing="0"
       normal_offset="0"
       tang_offset="0"
       prop_units="false"
       vertical_pattern="false"
       hide_knot="false"
       fuse_tolerance="0" />
    <inkscape:path-effect
       effect="skeletal"
       id="path-effect2644"
       is_visible="true"
       lpeversion="1"
       pattern="M 0,18.867925 C 0,8.4528302 8.4528302,0 18.867925,0 c 10.415094,0 18.867924,8.4528302 18.867924,18.867925 0,10.415094 -8.45283,18.867924 -18.867924,18.867924 C 8.4528302,37.735849 0,29.283019 0,18.867925 Z"
       copytype="single_stretched"
       prop_scale="0.34965791"
       scale_y_rel="false"
       spacing="0"
       normal_offset="0"
       tang_offset="0"
       prop_units="false"
       vertical_pattern="false"
       hide_knot="false"
       fuse_tolerance="0" />
    <inkscape:path-effect
       effect="skeletal"
       id="path-effect2640"
       is_visible="true"
       lpeversion="1"
       pattern="M 0,18.867925 C 0,8.4528302 8.4528302,0 18.867925,0 c 10.415094,0 18.867924,8.4528302 18.867924,18.867925 0,10.415094 -8.45283,18.867924 -18.867924,18.867924 C 8.4528302,37.735849 0,29.283019 0,18.867925 Z"
       copytype="single_stretched"
       prop_scale="0.34965791"
       scale_y_rel="false"
       spacing="0"
       normal_offset="0"
       tang_offset="0"
       prop_units="false"
       vertical_pattern="false"
       hide_knot="false"
       fuse_tolerance="0" />
    <inkscape:path-effect
       effect="skeletal"
       id="path-effect2636"
       is_visible="true"
       lpeversion="1"
       pattern="M 0,18.867925 C 0,8.4528302 8.4528302,0 18.867925,0 c 10.415094,0 18.867924,8.4528302 18.867924,18.867925 0,10.415094 -8.45283,18.867924 -18.867924,18.867924 C 8.4528302,37.735849 0,29.283019 0,18.867925 Z"
       copytype="single_stretched"
       prop_scale="0.34965791"
       scale_y_rel="false"
       spacing="0"
       normal_offset="0"
       tang_offset="0"
       prop_units="false"
       vertical_pattern="false"
       hide_knot="false"
       fuse_tolerance="0" />
    <inkscape:path-effect
       effect="skeletal"
       id="path-effect2632"
       is_visible="true"
       lpeversion="1"
       pattern="M 0,18.867925 C 0,8.4528302 8.4528302,0 18.867925,0 c 10.415094,0 18.867924,8.4528302 18.867924,18.867925 0,10.415094 -8.45283,18.867924 -18.867924,18.867924 C 8.4528302,37.735849 0,29.283019 0,18.867925 Z"
       copytype="single_stretched"
       prop_scale="0.34965791"
       scale_y_rel="false"
       spacing="0"
       normal_offset="0"
       tang_offset="0"
       prop_units="false"
       vertical_pattern="false"
       hide_knot="false"
       fuse_tolerance="0" />
    <inkscape:path-effect
       effect="skeletal"
       id="path-effect2628"
       is_visible="true"
       lpeversion="1"
       pattern="M 0,18.867925 C 0,8.4528302 8.4528302,0 18.867925,0 c 10.415094,0 18.867924,8.4528302 18.867924,18.867925 0,10.415094 -8.45283,18.867924 -18.867924,18.867924 C 8.4528302,37.735849 0,29.283019 0,18.867925 Z"
       copytype="single_stretched"
       prop_scale="0.34965791"
       scale_y_rel="false"
       spacing="0"
       normal_offset="0"
       tang_offset="0"
       prop_units="false"
       vertical_pattern="false"
       hide_knot="false"
       fuse_tolerance="0" />
    <inkscape:path-effect
       effect="skeletal"
       id="path-effect2624"
       is_visible="true"
       lpeversion="1"
       pattern="M 0,18.867925 C 0,8.4528302 8.4528302,0 18.867925,0 c 10.415094,0 18.867924,8.4528302 18.867924,18.867925 0,10.415094 -8.45283,18.867924 -18.867924,18.867924 C 8.4528302,37.735849 0,29.283019 0,18.867925 Z"
       copytype="single_stretched"
       prop_scale="0.34965791"
       scale_y_rel="false"
       spacing="0"
       normal_offset="0"
       tang_offset="0"
       prop_units="false"
       vertical_pattern="false"
       hide_knot="false"
       fuse_tolerance="0" />
    <inkscape:path-effect
       effect="skeletal"
       id="path-effect2615"
       is_visible="true"
       lpeversion="1"
       pattern="M 0,18.867925 C 0,8.4528302 8.4528302,0 18.867925,0 c 10.415094,0 18.867924,8.4528302 18.867924,18.867925 0,10.415094 -8.45283,18.867924 -18.867924,18.867924 C 8.4528302,37.735849 0,29.283019 0,18.867925 Z"
       copytype="single_stretched"
       prop_scale="0.63609496"
       scale_y_rel="false"
       spacing="0"
       normal_offset="0"
       tang_offset="0"
       prop_units="false"
       vertical_pattern="false"
       hide_knot="false"
       fuse_tolerance="0" />
    <inkscape:path-effect
       effect="skeletal"
       id="path-effect2611"
       is_visible="true"
       lpeversion="1"
       pattern="M 0,18.867925 C 0,8.4528302 8.4528302,0 18.867925,0 c 10.415094,0 18.867924,8.4528302 18.867924,18.867925 0,10.415094 -8.45283,18.867924 -18.867924,18.867924 C 8.4528302,37.735849 0,29.283019 0,18.867925 Z"
       copytype="single_stretched"
       prop_scale="-0.2289063"
       scale_y_rel="false"
       spacing="0"
       normal_offset="0"
       tang_offset="0"
       prop_units="false"
       vertical_pattern="false"
       hide_knot="false"
       fuse_tolerance="0" />
    <inkscape:path-effect
       effect="skeletal"
       id="path-effect2599"
       is_visible="true"
       lpeversion="1"
       pattern="M 0,18.867925 C 0,8.4528302 8.4528302,0 18.867925,0 c 10.415094,0 18.867924,8.4528302 18.867924,18.867925 0,10.415094 -8.45283,18.867924 -18.867924,18.867924 C 8.4528302,37.735849 0,29.283019 0,18.867925 Z"
       copytype="single_stretched"
       prop_scale="0.63609496"
       scale_y_rel="false"
       spacing="0"
       normal_offset="0"
       tang_offset="0"
       prop_units="false"
       vertical_pattern="false"
       hide_knot="false"
       fuse_tolerance="0" />
    <inkscape:path-effect
       effect="skeletal"
       id="path-effect2595"
       is_visible="true"
       lpeversion="1"
       pattern="M 0,18.867925 C 0,8.4528302 8.4528302,0 18.867925,0 c 10.415094,0 18.867924,8.4528302 18.867924,18.867925 0,10.415094 -8.45283,18.867924 -18.867924,18.867924 C 8.4528302,37.735849 0,29.283019 0,18.867925 Z"
       copytype="single_stretched"
       prop_scale="0.63609496"
       scale_y_rel="false"
       spacing="0"
       normal_offset="0"
       tang_offset="0"
       prop_units="false"
       vertical_pattern="false"
       hide_knot="false"
       fuse_tolerance="0" />
    <inkscape:path-effect
       effect="skeletal"
       id="path-effect2591"
       is_visible="true"
       lpeversion="1"
       pattern="M 0,18.867925 C 0,8.4528302 8.4528302,0 18.867925,0 c 10.415094,0 18.867924,8.4528302 18.867924,18.867925 0,10.415094 -8.45283,18.867924 -18.867924,18.867924 C 8.4528302,37.735849 0,29.283019 0,18.867925 Z"
       copytype="single_stretched"
       prop_scale="0.63609496"
       scale_y_rel="false"
       spacing="0"
       normal_offset="0"
       tang_offset="0"
       prop_units="false"
       vertical_pattern="false"
       hide_knot="false"
       fuse_tolerance="0" />
    <inkscape:path-effect
       effect="skeletal"
       id="path-effect1942"
       is_visible="true"
       lpeversion="1"
       pattern="M 0,18.867925 C 0,8.4528302 8.4528302,0 18.867925,0 c 10.415094,0 18.867924,8.4528302 18.867924,18.867925 0,10.415094 -8.45283,18.867924 -18.867924,18.867924 C 8.4528302,37.735849 0,29.283019 0,18.867925 Z"
       copytype="single_stretched"
       prop_scale="0.34965791"
       scale_y_rel="false"
       spacing="0"
       normal_offset="0"
       tang_offset="0"
       prop_units="false"
       vertical_pattern="false"
       hide_knot="false"
       fuse_tolerance="0" />
  </defs>
  <g
     inkscape:label="Layer 1"
     inkscape:groupmode="layer"
     id="layer1">
    <rect
       style="fill:#ffffff;fill-opacity:1;stroke-width:0.408162"
       id="rect2758"
       width="976.20673"
       height="773.77045"
       x="-205.96277"
       y="-118.80267" />
    <g
       id="g2661"
       transform="matrix(0.41412421,0.07302127,-0.07302127,0.41412421,29.439396,197.75415)">
      <path
         style="fill:#000000;fill-opacity:1;stroke:none;stroke-width:0.5"
         d="m 116.45285,95.856812 c 1.95264,-0.234134 7.27187,35.181318 17.73091,90.713568 0,1e-5 0,1e-5 0,2e-5 3.70468,19.66502 8.40873,43.43309 14.4257,67.34447 3.73161,14.80665 8.11011,30.64993 13.96368,45.91042 3.61367,9.31452 7.58591,18.67898 13.26144,26.44818 1.8368,2.50142 3.73123,4.77703 5.84013,6.49028 0,0 2e-5,10e-6 2e-5,10e-6 1.59618,1.26546 3.16068,2.29288 4.6551,2.69968 1.19828,0.37261 2.52279,0.47045 3.71886,0.24726 1.17945,-0.16663 2.46446,-0.73067 3.80156,-1.49722 0.17221,-0.0987 0.34514,-0.20073 0.51865,-0.30555 1.83068,-1.1316 3.57081,-2.7321 5.29755,-4.54176 2.0756,-2.20099 3.96682,-4.70774 5.77302,-7.36086 4.59625,-6.75722 8.32537,-14.26785 11.7255,-21.85024 4.26778,-9.55579 7.90301,-19.35333 11.16667,-28.96312 3.84061,-11.31667 7.1966,-22.58015 10.19286,-33.42763 0,0 0,-2e-5 0,-2e-5 7.04829,-25.5213 12.34957,-49.52153 16.44408,-70.25668 2.31361,-11.71936 4.19426,-22.21431 5.78648,-31.93798 0,0 0,-1e-5 0,-1e-5 1.70809,-10.43732 2.89655,-18.71661 3.84906,-26.57697 0,0 10e-6,-1e-5 10e-6,-1e-5 0.48052,-3.96587 0.83841,-7.31799 1.12367,-10.522524 0.29373,-3.314322 0.46321,-5.811349 0.55328,-8.27638 0,0 0,-5e-6 0,-5e-6 0.0883,-2.651602 0.096,-4.061266 -0.0273,-5.735889 -0.064,-0.83493 -0.11385,-1.304957 -0.20976,-1.847659 -0.15505,-0.774293 -0.2849,-1.294581 -0.17753,-1.419301 0.13379,-0.155419 0.73885,-0.04737 1.39449,0.859826 0.36279,0.485873 0.70044,1.112869 1.01751,1.931927 0.61662,1.579232 1.0572,3.445526 1.42138,6.023089 0,0 10e-6,6e-6 10e-6,6e-6 0.35583,2.484849 0.58261,5.242262 0.70816,8.579693 0.12337,3.261217 0.13731,6.802557 0.0415,10.827417 0,0 0,10e-6 0,10e-6 -0.18799,7.90581 -0.75892,16.69654 -1.79956,27.19174 0,0 0,1e-5 0,1e-5 -0.97934,9.88312 -2.32578,20.66942 -4.12944,32.56784 -3.20298,21.13762 -7.77604,45.55385 -14.37365,71.66367 0,0 -1e-5,2e-5 -1e-5,2e-5 -2.80346,11.09621 -6.02182,22.65007 -9.80095,34.33567 -3.20269,9.91066 -6.86799,20.12136 -11.27843,30.23476 -3.46973,7.98814 -7.51911,16.18995 -12.71687,23.95657 -2.05223,3.06863 -4.36885,6.12467 -7.05528,9.01288 -2.20384,2.39098 -4.79518,4.70165 -7.85981,6.67462 -0.2961,0.19299 -0.59851,0.38116 -0.90713,0.56407 -2.39584,1.41998 -5.15032,2.51392 -8.20235,3.08895 -3.35211,0.57399 -6.74558,0.33482 -9.9264,-0.66073 -3.61172,-1.18854 -6.66863,-3.04195 -9.14896,-5.1753 0,0 -2e-5,-1e-5 -2e-5,-1e-5 -3.2498,-2.75459 -5.88066,-5.84903 -8.06598,-8.95486 -6.67424,-9.44784 -11.07206,-19.81904 -14.63003,-29.56551 -5.95776,-16.13223 -10.2035,-32.49272 -13.65509,-47.62253 -5.62022,-24.5927 -9.57003,-48.47641 -12.46632,-68.53328 0,0 0,-1e-5 0,-1e-5 -8.13164,-56.29009 -9.93301,-92.100484 -7.98037,-92.334618 z"
         id="path1940"
         inkscape:path-effect="#path-effect1942"
         inkscape:original-d="M 116.45285,95.856812 C 183.03839,651.16878 284.49842,97.230829 265.86648,81.190899"
         class="UnoptimicedTransforms"
         transform="matrix(0.99106195,-0.36071704,-0.36071704,-0.99106195,92.62265,175.35107)"
         sodipodi:nodetypes="cc" />
      <g
         id="g2620">
        <path
           style="fill:#000000;fill-opacity:1;stroke:none;stroke-width:0.5"
           d="m 219.08364,67.937127 c -0.066,-5.06241 57.87354,-8.646781 141.9631,-7.142099 -0.66964,27.124778 -1.54148,57.477552 -2.59406,88.972212 -8.9e-4,-2e-5 -2.41372,-0.062 -2.41462,-0.0621 -62.52964,-1.61579 -122.6704,-3.81263 -161.51631,-5.54931 7.62478,-42.88341 15.67554,-66.938033 18.93494,-66.176188 3.2594,0.761844 0.0577,24.848488 -10.45686,59.570888 36.48152,-0.41488 88.78812,-0.66521 141.59993,-0.26111 -10e-4,0 2.07102,0.0162 2.07002,0.0162 1.04655,-22.96896 2.19759,-45.071978 3.37156,-65.782322 -75.73631,3.587078 -130.89174,1.476239 -130.9577,-3.586171 z"
           id="path2597"
           inkscape:path-effect="#path-effect2599"
           inkscape:original-d="m 219.08364,67.937127 136.4604,-1.777964 -2.98281,77.377267 -153.80044,-2.68322 14.69589,-62.873514"
           class="UnoptimicedTransforms" />
        <path
           style="fill:#000000;fill-opacity:1;stroke:none;stroke-width:0.5"
           d="m 359.5298,101.21372 c 0.0754,2.38289 20.38527,3.6764 45.33461,2.88729 24.94934,-0.7891 45.13691,-3.36347 45.06155,-5.746364 -0.0754,-2.382889 -20.38528,-3.676395 -45.33461,-2.887291 -24.94934,0.789104 -45.13692,3.363476 -45.06155,5.746365 z"
           id="path2609"
           inkscape:path-effect="#path-effect2611"
           inkscape:original-d="m 359.5298,101.21372 90.39614,-2.859073"
           class="UnoptimicedTransforms" />
        <path
           style="fill:#000000;fill-opacity:1;stroke:none;stroke-width:0.5"
           d="m 450.91262,66.465259 c -0.12433,-5.116777 58.56912,-9.382942 143.37027,-8.840133 -0.27496,26.57934 -0.71083,56.050544 -1.30561,86.730744 -2.1e-4,0.0103 -0.20304,10.21263 -0.20325,10.22296 -59.99162,-2.6726 -114.21689,-5.66221 -151.95124,-8.24581 0,0 0,-1e-5 0,-1e-5 2.61787,-42.84555 7.57729,-67.283191 10.89089,-66.94335 3.31361,0.339841 3.31986,24.19811 -2.05635,59.29869 0,0 0,0 0,10e-6 35.41022,0.4884 81.50643,1.70786 131.63084,3.65937 -1.5e-4,0.007 0.17122,-7.71969 0.17107,-7.71285 0.52726,-23.08653 1.16785,-45.188798 1.88251,-66.031046 -76.40528,4.459911 -132.3048,2.978203 -132.42913,-2.138575 z"
           id="path2613"
           inkscape:path-effect="#path-effect2615"
           inkscape:original-d="m 450.91262,66.465259 137.8997,-3.350779 -1.78122,85.3488 -141.79104,-5.95259 6.47362,-63.120997"
           class="UnoptimicedTransforms" />
      </g>
      <path
         style="fill:#000000;fill-opacity:1;stroke:none;stroke-width:0.5"
         d="m 690.53281,82.97687 c 0.022,-0.0086 0.0455,-0.01316 0.0705,-0.01382 0.0257,0.002 0.0534,0.0092 0.0831,0.02154 0.0592,0.02461 0.1263,0.06969 0.20109,0.135071 0,0 0,1e-6 0,1e-6 l 0,0 c 0.14903,0.130296 0.32861,0.341066 0.53806,0.630977 l 0,0 c 0.41571,0.575402 0.94774,1.460707 1.59076,2.646674 l 0,0 c 1.2649,2.33295 2.94866,5.808573 5.00977,10.364975 l 0,0 c 3.93968,8.709262 9.24931,21.343302 15.49702,37.276532 l 0,0 c 0,0 10e-6,1e-5 10e-6,1e-5 5.73615,14.62849 12.39286,32.37263 19.32736,52.21151 l 0,0 c 6.14534,17.58035 12.75851,37.49319 19.03524,58.59826 l 0,0 10e-6,2e-5 0,0 c 5.21491,17.52806 10.4781,36.67933 14.68441,56.4945 l 0,0 c 1.71062,8.05663 3.27094,16.37993 4.45588,24.87777 l 0,0 c 0.96641,6.89547 1.70697,14.05953 1.83886,21.39079 l 0,0 c 0.12804,5.4547 -0.12341,11.31934 -1.49255,17.31045 l 0,0 c 0,0 0,3e-5 0,3e-5 -0.51997,2.28933 -1.31033,4.69552 -2.49996,7.11207 -0.92437,1.91498 -2.24464,3.83042 -4.01768,5.59221 -0.11136,0.11066 -0.22448,0.22068 -0.33938,0.33004 -1.85501,1.71496 -4.08121,2.99289 -6.55015,3.74187 0,0 -4e-5,10e-6 -4e-5,10e-6 h 0 c -2.70692,0.75684 -5.31199,0.90228 -7.66608,0.5982 -2.93968,-0.3612 -5.58851,-1.13958 -7.92147,-2.1088 l 0,0 -3e-5,-1e-5 0,0 c -3.06072,-1.24615 -5.85335,-2.75696 -8.41343,-4.35639 l 0,0 C 686.00802,346.11352 647.41496,318.76322 613.81414,289.38067 l 0,0 c -25.69598,-22.42741 -42.98593,-41.19981 -55.84753,-60.72729 l 0,0 c -10.00959,-15.06619 -14.08395,-26.18793 -15.25237,-35.72567 l 0,0 c -0.47326,-3.85845 -0.2555,-6.68655 0.19439,-8.66901 l 0,0 c 0.2139,-0.94182 0.47148,-1.62078 0.71904,-2.06738 l 0,0 c 0.12252,-0.22101 0.23878,-0.37846 0.34445,-0.47609 l 0,0 c 0,0 0,0 0,0 0.0533,-0.0503 0.10237,-0.0841 0.14775,-0.10207 0,0 0,0 0,0 0,0 0,0 0,0 0.0582,0.004 0.0891,0.002 0.10544,-4.8e-4 0.0161,-0.003 0.0181,-0.006 0.0183,-0.006 0,0 0,0 0,0 0,0 0,0 0,0 0,0 0,0 0,0 0,0 0,0 0,0 0,0 0,0 0,0 0,0 0,0 0,0 10e-6,-1e-5 10e-6,-1e-5 10e-6,-1e-5 0,0 0,0 0,1e-5 0,0 0,0 0,0 0,0 0,0 0,0 0,0 0,0 0,0 0,0 0,0 0,0 0,0 0,0 0,0 0,0 0,0 0,0 -9e-5,3.8e-4 -6.8e-4,0.004 0.0107,0.016 0.0116,0.0118 0.0355,0.0317 0.0847,0.0637 0,0 0,0 0,0 0,0 0,0 0,0 0.027,0.0384 0.0514,0.0898 0.0727,0.1521 0,0 0,0 0,0 l 0,0 c 0.0409,0.12593 0.0737,0.30945 0.10037,0.53847 l 0,0 c 0.0542,0.46494 0.0968,1.13041 0.17916,2.00927 l 0,0 c 0.18532,1.98523 0.4995,4.27338 1.50152,7.85575 l 0,0 c 2.53199,9.06262 6.95032,17.96744 17.65984,32.25997 l 0,0 c 13.78807,18.23661 30.84286,35.03458 56.9865,56.60246 l 0,0 c 34.15961,28.12367 72.01699,53.98443 120.03525,83.5382 2.16081,1.31611 4.28999,2.482 6.41607,3.32023 0,0 2e-5,1e-5 2e-5,1e-5 l 0,0 c 1.63737,0.6263 3.1405,1.1108 4.47631,1.22843 1.01361,0.0731 1.87443,0.0801 2.42847,-0.13539 0,0 1e-5,0 1e-5,0 0.46718,-0.12655 0.96549,-0.4231 1.36988,-0.79399 0.0305,-0.0249 0.061,-0.0511 0.0913,-0.0784 0.48295,-0.43565 0.94078,-1.1771 1.42565,-2.06881 0.61372,-1.17506 1.05754,-2.61941 1.45671,-4.22254 0,0 0,-2e-5 0,-2e-5 l 0,0 c 1.0621,-4.30505 1.21404,-9.10205 1.18301,-14.07962 l 0,0 c -0.0802,-6.57844 -0.74441,-13.23096 -1.61198,-19.83669 l 0,0 c -1.07097,-8.10948 -2.51015,-16.15878 -4.09257,-24.03838 l 0,0 c -3.89005,-19.36536 -8.79361,-38.35347 -13.59029,-55.80925 0,-1e-5 -10e-6,-1e-5 -10e-6,-2e-5 -5.76022,-20.95441 -11.81812,-41.0443 -17.28473,-58.6763 l 0,0 c -6.12585,-19.75749 -12.06165,-38.1498 -16.80777,-52.84466 0,-1e-5 0,-1e-5 0,-2e-5 l 0,0 C 701.08562,120.3556 696.8862,107.37874 694.11135,98.23484 l 0,0 c -1.44624,-4.765746 -2.50704,-8.49372 -3.12277,-11.059744 l 0,0 c -0.31404,-1.308775 -0.51418,-2.322334 -0.59353,-3.025756 l 0,0 c -0.04,-0.354823 -0.0494,-0.631337 -0.0273,-0.827756 l 0,0 c 0,0 0,0 0,-10e-7 0.0111,-0.09863 0.0301,-0.177113 0.0571,-0.235234 0.0135,-0.02912 0.0291,-0.05313 0.0467,-0.07201 0.0189,-0.01641 0.0393,-0.02891 0.0613,-0.03747 z"
         id="path2626"
         inkscape:path-effect="#path-effect2628"
         inkscape:original-d="m 690.53122,82.972798 c 0,0 132.69618,340.257752 46.88802,287.264002 C 524.24662,238.58479 544.24358,181.60632 544.24358,181.60632"
         class="UnoptimicedTransforms"
         sodipodi:nodetypes="csc"
         transform="matrix(0.93969262,-0.34202014,-0.34202014,-0.93969262,119.15843,377.5574)" />
      <g
         id="g2649">
        <path
           style="fill:#000000;fill-opacity:1;stroke:none;stroke-width:0.5"
           d="m 361.15655,202.66801 c -0.007,-0.0409 -0.007,-0.0831 -3.5e-4,-0.12636 0.0117,-0.0434 0.0326,-0.0884 0.0627,-0.13488 0,0 0,0 0,0 0.0599,-0.0925 0.1561,-0.191 0.28798,-0.29525 0,0 0,0 0,0 l 0,0 c 0.26132,-0.20649 0.66233,-0.43521 1.19899,-0.68471 l 0,-1e-5 c 1.0506,-0.48844 2.61621,-1.05421 4.66818,-1.68396 l 0,0 c 3.88356,-1.19186 9.52122,-2.61662 16.64958,-4.13377 l 0,0 10e-6,0 c 11.6142,-2.47333 29.12373,-5.63989 48.4552,-7.49457 l 0,0 c 7.359,-0.70856 15.49907,-1.28182 23.89094,-1.2295 l 0,0 c 3.29566,0.0196 6.73972,0.14797 10.26571,0.50264 l 0,0 c 2.74818,0.26549 5.70176,0.71205 8.75629,1.55398 l 0,0 c 2.16774,0.52404 4.71697,1.54539 7.32931,3.42623 l 0,0 c 1.04007,0.76091 2.06321,1.8267 2.98962,3.21566 l 0,0 2e-5,3e-5 0,0 c 0.85186,1.33107 1.41041,2.84799 1.63596,4.49737 0,0 0,3e-5 0,3e-5 v 0 c 0.18669,1.76237 0.0468,3.34959 -0.35649,4.70522 -0.47486,1.63869 -1.10721,3.02112 -1.80737,4.14497 -1.95686,3.16149 -4.27181,5.61445 -6.50924,7.5883 -7.66139,7.00195 -16.26286,13.17429 -25.62322,18.56554 -3.49843,2.01497 -7.03533,3.88195 -10.58276,5.61238 -13.51125,6.61002 -27.22121,11.32262 -40.55305,14.46091 -13.26808,3.14323 -25.88279,4.67917 -37.96929,4.43262 0,0 -10e-6,0 -10e-6,0 -5.52213,-0.10982 -10.83332,-0.63595 -15.95268,-1.7211 -4.56565,-0.94633 -8.93075,-2.4148 -12.92663,-4.63103 -3.16862,-1.72233 -6.07817,-4.03412 -8.34715,-7.01092 -1.87768,-2.51289 -2.96963,-5.43784 -3.25446,-8.38382 -0.23104,-3.01664 0.31748,-5.74788 1.18781,-8.03066 1.01464,-2.6971 2.39164,-4.97916 3.75898,-6.84985 3.4446,-4.71598 7.3839,-8.01981 9.95281,-9.88983 3.54131,-2.34297 5.59148,-3.33782 5.99739,-2.86269 0,0 0,0 0,0 0,0 0,0 0,0 0,0 0,0 0,0 0.004,0.005 0.004,0.004 0.003,0.004 -3.1e-4,-3.7e-4 -6e-4,-7.5e-4 0.003,0.004 0,0 0,0 0,0 0,0 0,1e-5 0,1e-5 0,0 0,0 0,0 0.38722,0.49093 -0.89276,2.41828 -3.55769,5.51853 -1.79647,2.3017 -4.92502,6.2476 -7.12383,10.52716 -0.8992,1.75041 -1.75513,3.70252 -2.20493,5.68493 -0.36064,1.65108 -0.53036,3.3919 -0.18249,4.88852 0.27401,1.40651 1.0363,2.83374 2.12686,4.04493 1.38067,1.60237 3.44349,2.83678 5.94378,4.05256 3.02715,1.4235 6.5089,2.26092 10.46068,2.86965 4.41334,0.65528 9.0646,0.82668 14.08412,0.68747 0,-1e-5 10e-6,0 10e-6,0 11.0254,-0.31121 22.52957,-2.20363 34.97624,-5.46877 12.43404,-3.28253 25.19111,-7.89932 37.76049,-14.13538 3.29729,-1.64096 6.57703,-3.38694 9.8108,-5.24772 8.65392,-4.97963 16.53787,-10.52776 23.51143,-16.74988 1.84206,-1.71238 3.38421,-3.15063 4.22344,-4.60908 l 0,0 c 0.26456,-0.4701 0.45178,-0.77191 0.47202,-0.91666 -0.004,-0.0792 0.031,-0.002 0.0344,0.2905 0,0 0,1e-5 0,1e-5 0.0573,0.29839 0.13564,0.51106 0.26547,0.69623 l 0,0 0,10e-6 0,0 c 0.13674,0.1362 0.10644,0.13831 -0.0152,-0.005 l 0,0 c -0.44072,-0.49501 -1.58873,-0.86273 -3.07477,-1.40862 l 0,0 c -2.0154,-0.64265 -4.28293,-1.0304 -6.65975,-1.3604 l 0,0 c -3.00383,-0.40404 -6.083,-0.61994 -9.14546,-0.75812 l 0,0 c -7.78975,-0.34881 -15.6465,-0.1499 -22.84956,0.14243 h 0 c -17.85514,0.73017 -37.53127,2.51563 -48.22764,3.35125 l 0,0 -1e-5,0 c -7.22744,0.565 -12.96683,0.95859 -17.02369,1.07049 l 0,0 c -2.13357,0.0589 -3.79563,0.0395 -4.94258,-0.0705 l 0,0 c -0.58678,-0.0563 -1.04034,-0.13648 -1.35506,-0.24188 l 0,0 c 0,0 0,0 0,0 -0.15908,-0.0532 -0.28286,-0.113 -0.37061,-0.17939 0,0 0,-1e-5 0,-1e-5 -0.0441,-0.0334 -0.0791,-0.0684 -0.10498,-0.10518 -0.0214,-0.0383 -0.0357,-0.0778 -0.043,-0.11879 z"
           id="path2634"
           inkscape:path-effect="#path-effect2636"
           inkscape:original-d="m 361.14916,202.66933 c 0,0 153.45288,-27.35957 113.17439,9.0359 -40.2785,36.39548 -111.14193,50.83962 -137.10571,37.38197 -25.96378,-13.45765 7.14686,-38.87221 7.14686,-38.87221"
           class="UnoptimicedTransforms"
           transform="translate(-27.709395,14.461638)" />
        <path
           style="fill:#000000;fill-opacity:1;stroke:none;stroke-width:0.5"
           d="m 297.69846,264.65428 c -0.0386,1.14257 -19.10364,-0.63364 -48.17393,10.86416 -12.95092,5.11557 -27.10598,12.89524 -41.9022,24.56329 -12.17163,9.60303 -24.10931,21.32112 -35.8643,35.53547 -10.34084,12.51083 -20.15757,26.52945 -29.43453,42.20574 -8.11561,13.71875 -15.6868,28.50193 -22.48785,44.32834 -5.69224,13.25326 -10.86413,27.22851 -15.0106,41.76893 -3.17126,11.16235 -5.87014,22.69045 -7.024375,34.30873 -0.422049,4.28513 -0.654516,8.51674 -0.42546,12.61442 0.207745,3.09917 0.515152,5.94917 1.388997,8.28954 2.909818,8.19026 7.776708,15.83405 14.447578,21.18812 4.9764,4.08907 11.04675,7.05342 17.55246,8.97672 0.4677,0.13827 0.93715,0.27101 1.40807,0.39827 5.50811,1.47261 11.23737,2.18605 16.96492,2.26353 0,0 3e-5,0 3e-5,0 l 0,0 c 1.77988,0.0212 3.53174,-0.0175 5.25026,-0.13765 l 0,0 3e-5,0 0,0 c 0.47561,-0.0333 0.93255,-0.0705 1.3704,-0.11609 1e-5,0 1e-5,0 1e-5,0 0.11518,-0.012 0.22058,-0.0234 0.31612,-0.0348 -1e-5,10e-6 -2e-5,10e-6 -2e-5,10e-6 -0.77607,0.52008 -1.55707,1.04072 -2.34301,1.56183 l 0,0 c 0.009,-7.8e-4 0.0171,-0.002 0.0257,-0.002 5.5701,-10.04664 11.05586,-19.93693 16.49925,-29.7205 l 0,0 c 15.47696,-24.75779 30.98599,-47.83979 46.8665,-69.55289 9.70362,-13.26669 19.35413,-25.73924 29.22455,-37.56787 l 0,0 2e-5,-2e-5 0,0 c 10.11803,-12.12948 20.14192,-23.20994 30.63333,-33.37819 l 0,0 c 9.81874,-9.53598 19.62074,-17.88119 30.31857,-24.69612 l 0,0 c 4.71507,-3.00495 9.55768,-5.62165 14.62434,-7.67017 4.55212,-1.85222 9.28955,-3.16644 14.15875,-3.65902 l 0,0 c 7.15574,-0.70042 13.66429,-2.15528 19.40608,-4.74785 4.92114,-2.21289 9.15329,-5.18108 12.43774,-8.70251 3.24141,-3.44428 5.62924,-7.46507 7.28692,-11.46028 l 0,0 c 1.81928,-4.38011 2.83191,-8.91948 3.39512,-13.08118 l 0,0 c 1.32212,-9.76908 0.32722,-19.06603 -0.42328,-24.68835 l 0,0 c -0.47014,-3.50345 -0.97601,-6.37069 -1.27098,-8.24062 l 0,0 c -0.16175,-1.02526 -0.27331,-1.82518 -0.31205,-2.3732 l 0,0 c -0.0201,-0.28396 -0.021,-0.50521 -6.7e-4,-0.66118 l 0,0 c 0.0104,-0.0789 0.0264,-0.14169 0.048,-0.18786 l 0,0 0,0 0,0 c 0.0448,-0.0356 0.0661,-0.0579 0.0761,-0.0714 0.01,-0.0132 0.009,-0.018 0.009,-0.0185 0,0 0,0 0,0 0,0 0,0 0,0 0,0 0,0 0,0 0,0 0,0 0,0 0,0 0,0 0,0 0,0 0,0 0,0 0,-2e-5 10e-6,10e-6 10e-6,10e-6 0,0 -10e-6,-3e-5 -10e-6,-10e-6 0,0 0,0 0,0 0,0 0,0 0,0 0,0 0,0 0,0 0,0 0,0 0,0 0,0 0,0 0,0 0,0 0,0 0,0 2.2e-4,5e-4 0.003,0.005 0.0185,0.009 0.0163,0.004 0.0469,0.008 0.10399,0.007 l 0,0 0,0 0,0 c 0.046,0.0228 0.0978,0.0628 0.15532,0.12015 l 0,0 c 0.11336,0.11258 0.24763,0.29099 0.40167,0.53619 l 0,0 c 0.29967,0.47702 0.66919,1.19896 1.09309,2.1744 l 0,0 c 0.78649,1.80975 1.77638,4.52782 2.74108,8.08509 l 0,0 c 1.55002,5.69926 3.47489,15.0878 2.80809,25.83822 l 0,0 c -0.28346,4.56048 -1.0893,9.64968 -2.87129,14.80711 l 0,0 c -1.63535,4.72585 -4.18449,9.58639 -7.89131,13.9696 -3.79138,4.44964 -8.67267,8.26747 -14.39521,11.11272 -6.61569,3.27995 -13.97842,5.29237 -21.82442,6.29645 l 0,0 c -3.80775,0.49341 -7.6538,1.74276 -11.5691,3.45129 l 0,0 c -4.35401,1.91309 -8.59543,4.39721 -12.87573,7.28729 l 0,0 c -9.75599,6.58946 -18.75649,14.71857 -28.10405,24.17632 l 0,0 c -9.93187,10.07118 -19.45287,21.04254 -29.19595,33.13121 0,1e-5 -1e-5,1e-5 -2e-5,2e-5 l 0,0 c -9.49129,11.78053 -18.79657,24.18528 -28.2234,37.41083 -15.41869,21.63072 -30.52406,44.54116 -45.73306,69.14136 l 0,0 c -0.5468,0.85174 -20.58108,31.98762 -21.12788,32.83935 -0.0195,0.003 -0.0293,0.004 -0.039,0.006 l 0,0 c -0.85749,0.53026 -1.71008,1.0597 -2.55777,1.5884 0,0 0,0 -1e-5,1e-5 -0.1825,0.022 -0.3555,0.0413 -0.5189,0.0585 0,0 0,0 0,0 -0.62171,0.0653 -1.22695,0.11669 -1.81516,0.15836 l 0,0 -3e-5,0 0,0 c -2.12787,0.15089 -4.23981,0.20369 -6.32977,0.17969 l 0,0 c 0,0 -4e-5,0 -4e-5,0 -6.73022,-0.068 -13.53943,-0.92216 -20.20575,-2.69096 -0.57675,-0.15167 -1.15243,-0.31104 -1.72676,-0.47817 -7.98847,-2.32463 -15.59812,-6.11525 -22.16377,-11.43507 -8.776129,-7.23811 -14.967915,-16.8478 -18.483512,-27.09174 -1.391212,-4.15801 -1.917374,-8.21735 -2.055717,-11.93678 -0.233878,-5.02284 0.04162,-9.9172 0.551972,-14.61477 1.371917,-12.7183 4.307607,-24.96244 7.730405,-36.51044 4.465532,-15.11991 9.980142,-29.53713 16.033202,-43.11817 7.22916,-16.22824 15.28242,-31.3481 23.9119,-45.3309 9.85725,-15.9777 20.34718,-30.25374 31.38821,-42.93008 12.54014,-14.40464 25.39535,-26.23153 38.44832,-35.78104 15.86877,-11.61546 31.16241,-19.08509 44.96727,-23.63824 31.10749,-10.2467 50.35797,-6.06925 50.31937,-4.92668 z"
           id="path2638"
           inkscape:path-effect="#path-effect2640"
           inkscape:original-d="M 297.69846,264.65428 C 159.03954,259.97016 77.398101,477.72032 92.58387,521.28714 c 15.18577,43.56682 64.42142,36.90059 64.42142,36.90059 0,0 113.74381,-199.36072 179.57237,-206.84058 65.80591,-7.47729 40.15606,-78.59449 40.15606,-78.59449"
           class="UnoptimicedTransforms"
           sodipodi:nodetypes="cscsc" />
        <path
           style="fill:#000000;fill-opacity:1;stroke:none;stroke-width:0.5"
           d="m 448.00793,249.88422 c 0.29956,-0.76375 9.08353,1.83809 24.93981,7.28042 0,0 10e-6,0 10e-6,0 13.77786,5.79354 33.59781,16.05416 53.9344,33.23194 9.54463,8.07299 19.29651,17.79887 28.40063,29.33131 8.98792,11.38788 17.3327,24.54994 24.24926,39.41063 7.13127,15.3318 12.65947,32.27532 16.14594,50.53035 0,10e-6 0,2e-5 0,3e-5 3.78499,19.83623 5.13743,40.76935 4.14137,62.51305 -0.98981,22.33673 -3.60406,46.16476 -10.48445,69.46199 -3.92059,13.38598 -9.52821,27.05651 -18.30547,39.17374 -0.90255,1.2547 -1.85034,2.49528 -2.84534,3.71318 -4.26484,5.22031 -9.34247,9.95735 -15.36589,13.62487 -1.93323,1.16922 -4.04799,2.23036 -6.35369,3.0873 -0.60675,0.22513 -1.27082,0.44357 -1.99413,0.6433 -0.18708,0.0516 -0.40085,0.10622 -0.64156,0.1622 -0.0302,0.007 -0.0736,0.0167 -0.13024,0.0282 0,0 -10e-6,0 -10e-6,0 -0.008,0.002 -0.0152,0.003 -0.0228,0.005 -0.0139,0.003 -0.0188,0.004 -0.0236,0.005 -0.0149,0.004 -0.0296,0.007 -0.0441,0.0109 -0.057,0.014 -0.11195,0.0271 -0.16476,0.0394 -0.29944,0.0694 -0.58994,0.13375 -0.87116,0.19407 0,0 -4e-5,10e-6 -4e-5,10e-6 -1.0533,0.22592 -2.0942,0.42529 -3.1201,0.60533 0,0 -3e-5,0 -3e-5,0 -3.57465,0.62806 -7.15879,1.06701 -10.73181,1.334 -4.91552,0.37127 -9.8687,0.41055 -14.81498,0.0414 -5.58669,-0.40826 -11.19839,-1.3875 -16.66467,-3.13594 -5.74659,-1.82813 -11.26606,-4.63241 -16.11816,-8.50756 -5.35686,-4.33845 -9.52629,-9.84963 -12.30104,-15.91803 -3.52116,-7.82751 -4.91547,-16.09357 -5.07387,-23.93411 -0.26698,-11.41477 1.5762,-22.43905 4.13806,-32.63268 0,0 0,-3e-5 0,-3e-5 8.32309,-33.71996 12.86809,-63.02349 10.59001,-91.49403 -0.86738,-10.94694 -2.76511,-21.07415 -5.94987,-30.36327 -2.89198,-8.44961 -6.77199,-16.00164 -11.41353,-22.49576 -4.65863,-6.53623 -10.1018,-12.02935 -15.62618,-16.51754 -6.18297,-5.02703 -12.74241,-9.0128 -18.67735,-12.1594 -10.92849,-5.80138 -24.31725,-10.85477 -29.89189,-13.07513 -7.05336,-2.80933 -10.75499,-4.4931 -10.59156,-5.013 0.16344,-0.51989 4.16253,0.14392 11.56401,2.00011 6.44693,1.6168 19.19188,5.08743 31.57519,10.65288 6.39996,2.88025 13.54047,6.69581 20.49438,11.78826 6.21508,4.55508 12.41841,10.2836 17.87502,17.31119 5.41421,6.99006 10.01721,15.16124 13.48406,24.33621 3.79504,10.05666 6.20606,20.96447 7.41106,32.59423 3.0883,29.99822 -0.91581,60.90186 -9.0305,95.28637 0,10e-6 -10e-6,2e-5 -10e-6,3e-5 -2.22061,9.62109 -3.81489,19.59655 -3.41784,29.3891 0.29591,6.66853 1.38992,13.29683 4.11619,18.97001 2.03721,4.33008 5.04468,8.26416 8.78506,11.21178 3.39798,2.73242 7.54639,4.75578 12.01406,6.19127 4.294,1.3701 8.90149,2.12606 13.66377,2.47525 4.21778,0.30155 8.5178,0.24478 12.85978,-0.0917 3.1619,-0.24791 6.31531,-0.64244 9.43935,-1.20006 0,0 3e-5,0 3e-5,0 0.89701,-0.16032 1.77659,-0.33035 2.6359,-0.51725 0,0 3e-5,0 3e-5,0 0.22963,-0.0499 0.44952,-0.099 0.65931,-0.14828 0.079,-0.0184 0.15584,-0.0363 0.23043,-0.0541 0.0191,-0.005 0.038,-0.009 0.0568,-0.0136 0.007,-0.002 0.0137,-0.003 0.0204,-0.005 0.0185,-0.004 0.0278,-0.006 0.0371,-0.008 10e-6,0 10e-6,0 10e-6,0 0.01,-0.002 0.0322,-0.008 0.068,-0.0157 0.0168,-0.003 0.059,-0.0151 0.12694,-0.0333 0.26232,-0.0701 0.56895,-0.17516 0.92218,-0.3033 1.34106,-0.48504 2.71124,-1.19388 4.12313,-2.03077 4.42704,-2.59975 8.34584,-6.36065 11.90732,-10.70122 0.8308,-1.01254 1.63973,-2.05364 2.42846,-3.1146 7.60111,-10.30755 12.58927,-22.64577 16.39774,-35.14317 6.5734,-21.75743 9.18761,-44.58574 10.41299,-66.3454 1.14443,-20.86452 0.13113,-40.8449 -3.17609,-59.7418 0,0 -10e-6,-3e-5 -10e-6,-3e-5 -3.03859,-17.38066 -7.9526,-33.53275 -14.37825,-48.19129 -6.2246,-14.20992 -13.80863,-26.91219 -22.02919,-38.00739 -8.32642,-11.24074 -17.32776,-20.87946 -26.17958,-29.01249 -18.74955,-17.25355 -37.38011,-28.3314 -50.32134,-35.1509 0,0 -10e-6,0 -10e-6,0 -15.1852,-6.73266 -23.39261,-10.79554 -23.09311,-11.55915 z"
           id="path2642"
           inkscape:path-effect="#path-effect2644"
           inkscape:original-d="m 448.00793,249.88422 c 0,0 154.5222,42.27558 145.4945,221.98039 -5.78467,115.14922 -51.28827,123.79815 -51.28827,123.79815 0,0 -91.82038,22.89037 -68.42225,-74.05344 37.58774,-155.7346 -33.28283,-175.51076 -87.46676,-192.54371"
           class="UnoptimicedTransforms"
           sodipodi:nodetypes="cscsc" />
      </g>
    </g>
    <g
       id="g3135"
       transform="matrix(1.2382464,0,0,1.2382464,-12.429627,176.53637)">
      <path
         style="fill:#000000;stroke:none;stroke-width:0"
         d="m 232.98113,-7.9647577 c -3.14192,0.4374178 -7.38298,-8.3739433 -12.27602,-24.5240363 -1.67655,-7.028959 -3.16806,-15.863166 -3.6929,-25.926533 0,0 0,-1.2e-5 0,-1.2e-5 -0.45164,-8.370991 -0.17766,-18.248161 1.98236,-28.832821 1.70692,-8.765355 5.25782,-18.63011 12.10059,-28.0434 3.17557,-4.25467 7.11444,-8.22179 11.83305,-11.62907 4.84676,-3.44768 10.22923,-6.11809 15.95887,-7.87745 6.35625,-1.92536 12.80565,-2.86549 19.12051,-2.93525 7.44344,-0.0973 14.69199,0.71159 21.64397,2.17942 18.43414,3.91631 35.52699,11.2087 51.86024,20.14088 4.50071,2.38653 9.07851,4.94172 13.66053,7.70599 10.96709,6.61631 21.45889,14.131862 31.05914,23.09397 4.81013,4.483396 9.42704,9.64732 13.5235,15.620543 3.28676,4.721652 6.07724,10.286809 8.00814,16.616361 1.63002,5.433737 2.20905,11.292535 1.64298,17.30263 -0.64203,5.73331 -2.2939,10.97565 -4.69971,15.580377 -2.55693,4.848773 -5.59087,8.904976 -8.80776,12.2310927 -3.56061,3.7143127 -7.26884,6.79065521 -10.92699,9.3471573 -8.34238,5.8215489 -16.83703,9.932841 -24.64716,12.992172 -8.6075,3.402046 -16.95578,5.912972 -24.63522,7.807499 -7.64501,0.01027 -14.8278,0.189838 -21.72181,0.523763 -5.96438,21.50779 -13.13766,35.879876 -17.28165,34.839555 -4.15329,-1.042656 -3.56688,-17.501549 3.57184,-48.227698 8.24606,-3.897894 16.83741,-7.9730347 27.56362,-13.0869008 6.37924,-2.7515231 13.13114,-5.8926934 19.65729,-9.5169842 6.17093,-3.432156 12.34774,-7.221093 17.38736,-11.628371 2.18112,-1.907768 4.14049,-3.820165 5.64403,-5.765548 1.31781,-1.741914 2.37427,-3.354914 2.87938,-4.785303 0.45217,-1.25628 0.73084,-2.450289 0.66375,-3.36628 0.0352,-0.947023 -0.27943,-2.211383 -0.75703,-3.600845 -0.57726,-1.790367 -1.89704,-3.855405 -3.59516,-6.270491 -2.21703,-3.065542 -5.21469,-6.075223 -8.72286,-9.276248 -7.21508,-6.571828 -15.71922,-12.362426 -25.26613,-18.090221 -3.98073,-2.388294 -8.08071,-4.728989 -12.19534,-7.039452 -14.87919,-8.084743 -28.3303,-14.613757 -41.91471,-18.039938 -4.9744,-1.26684 -9.58926,-2.14292 -13.90909,-2.34639 -3.61226,-0.15935 -6.89089,-0.034 -9.74212,0.59989 -2.51305,0.53183 -4.86108,1.35921 -6.86272,2.482067 -1.98718,1.068329 -3.88483,2.580391 -5.59689,4.318236 -3.94154,3.815499 -6.83771,9.716466 -9.1819,15.668302 -2.75526,7.278248 -4.37235,15.241958 -5.52616,22.391107 0,0 -1e-5,1e-5 -1e-5,1e-5 -1.34433,8.251083 -2.07221,16.413678 -2.62258,22.916969 -0.35967,16.393754 -2.03988,26.01419 -5.17923,26.4512513 z"
         id="path3121"
         inkscape:path-effect="#path-effect3123"
         inkscape:original-d="m 232.98113,-7.964753 c 0,0 -37.39599,-171.050427 109.53304,-90.944894 146.92903,80.105532 -25.40164,115.624101 -25.40164,115.624101 l -10.42674,41.533621"
         class="UnoptimicedTransforms"
         sodipodi:nodetypes="cscc" />
      <path
         style="fill:#000000;stroke:none;stroke-width:0"
         d="m 309.97577,70.615728 c 0.0376,-0.02393 0.0772,-0.04366 0.11965,-0.05976 0.041,-0.01552 0.0841,-0.02736 0.1295,-0.03553 0,0 0,-10e-7 0,-10e-7 0.0903,-0.01626 0.18911,-0.01799 0.29657,-0.0054 0,0 0,0 0,0 l 0,0 c 0.21262,0.02504 0.45793,0.10641 0.73509,0.242791 0,0 0,0 0,0 l 0,0 c 0.54036,0.265905 1.19816,0.740792 1.96114,1.418076 l 0,0 c 1.42972,1.269129 3.23847,3.261435 5.28441,5.923886 l 0,10e-7 c 3.23082,4.191731 7.74322,10.909395 11.31454,19.181784 l 0,0 c 1.33088,3.046872 2.63496,6.665922 3.3738,10.785932 l 0,0 c 0.66737,2.86804 0.76163,6.71216 -0.80326,11.13278 l 0,0 c -0.75897,1.89024 -2.01506,3.67147 -3.78334,5.19344 l 0,0 c -1.94247,1.53879 -4.0037,2.51697 -6.01541,2.94555 l 0,0 c -5.55005,1.08716 -10.52969,0.36284 -14.49071,-0.94159 l 0,0 c -2.4849,-0.61021 -5.283,-1.77279 -8.09632,-3.79097 l 0,0 c -2.19825,-1.58749 -4.07261,-3.93319 -5.30695,-6.97978 l 0,0 c -1.00521,-2.95622 -1.20628,-5.79396 -0.7494,-8.29038 0.42476,-2.48447 1.15617,-4.68285 2.04834,-6.58299 0.13392,-0.28524 0.27115,-0.56308 0.41111,-0.833503 2.79279,-5.501612 6.41875,-9.934439 9.87192,-13.582753 4.59838,-4.953957 9.45149,-9.275766 14.04472,-13.036032 11.50361,-9.42738 22.8133,-16.62069 30.93274,-21.139044 9.84296,-5.241707 16.08396,-7.650268 17.02922,-6.267745 0,0 0,4e-6 0,4e-6 0,0 10e-6,4e-6 10e-6,4e-6 0.007,0.0098 0.0107,0.01611 0.004,0.0063 -0.007,-0.0098 -0.002,-0.0035 0.004,0.0063 0,0 0,4e-6 0,4e-6 0,0 1e-5,4e-6 1e-5,4e-6 0.91212,1.403918 -3.60602,6.38019 -11.90681,13.586067 -6.97633,6.29133 -16.57597,14.354267 -26.94395,24.175961 -4.07734,3.865391 -8.35763,8.068497 -12.22412,12.516863 -2.93995,3.453023 -5.75812,6.860654 -7.40539,10.352374 -0.0761,0.16713 -0.15002,0.33049 -0.22126,0.48983 -0.47486,1.06208 -0.82236,1.93243 -0.89584,2.62301 -0.0252,0.57523 -0.10368,0.91762 -0.0497,0.83663 l 0,0 c -0.13632,-0.0707 0.0704,0.10075 0.34505,0.41228 l 0,0 c 0.53781,0.55394 1.71753,0.99047 3.18413,1.53351 l 0,0 c 3.43632,0.85457 5.86566,1.74061 7.42262,1.26674 l 0,0 c 0.33636,-0.0866 0.51434,-0.052 0.40268,0.0123 l 0,0 c -0.0735,0.15602 -0.039,0.14002 0.0575,0.0801 l 0,0 c 0.54896,-0.41611 0.45679,-2.05198 0.49231,-4.09971 l 10e-6,0 c -0.14667,-2.7552 -0.85242,-5.73262 -1.603,-8.56322 l 0,0 c -1.91398,-7.09234 -5.13152,-15.254257 -6.69219,-19.589839 l 0,0 c -1.1037,-3.060688 -1.92757,-5.52603 -2.3635,-7.360236 l 0,0 c -0.23103,-0.971984 -0.35105,-1.76231 -0.34665,-2.355807 l 0,0 c 0,0 0,0 0,-10e-7 0.002,-0.304704 0.0377,-0.558627 0.10741,-0.759258 l 0,0 c 0,0 0,0 0,-10e-7 0.0352,-0.101691 0.0794,-0.189919 0.13268,-0.26426 0,0 0,0 0,0 0.0268,-0.03742 0.0559,-0.07136 0.0873,-0.101772 0.0326,-0.03151 0.0672,-0.05895 0.10489,-0.08288 z"
         id="path3129"
         inkscape:path-effect="#path-effect3131"
         inkscape:original-d="m 309.97576,70.615718 c 0,0 38.35225,59.947722 0.15994,48.799932 -38.19232,-11.14779 58.15166,-73.514865 58.15166,-73.514865"
         class="UnoptimicedTransforms"
         sodipodi:nodetypes="csc"
         transform="translate(-3.0322746,2.4390034)" />
    </g>
    <path
       style="fill:#000000;stroke:none;stroke-width:0"
       d="m 118.07191,380.39803 c -0.0163,0.009 -0.17623,0.0328 -0.15905,-0.16856 0.001,-0.0802 0.0287,-0.17522 0.0713,-0.25086 0.0854,-0.17394 0.23455,-0.3402 0.4319,-0.51153 0.43546,-0.38717 1.01826,-0.73767 1.87455,-1.16058 1.76544,-0.87517 4.014,-1.70646 7.19294,-2.66025 5.92098,-1.77896 13.75579,-3.54601 22.98985,-4.67269 0.9933,-0.1214 2.0002,-0.23441 3.01847,-0.33694 3.38526,-0.34089 6.63867,-0.54009 9.78845,-0.58964 4.28836,-0.0703 8.10743,0.13918 11.68009,0.71212 3.70711,0.57406 6.62161,1.49661 9.022,2.91256 0,0 0,0 0,0 1.29252,0.76001 2.25414,1.62762 2.92687,2.50106 1.45594,1.89399 1.14063,3.22079 0.95478,3.27776 -0.30842,0.0945 -0.82944,-0.94733 -2.25006,-2.0089 -0.7141,-0.5385 -1.57569,-1.00605 -2.76494,-1.46474 0,0 0,0 0,0 -2.28993,-0.88339 -4.73506,-1.28101 -8.32167,-1.57107 -3.40388,-0.25396 -6.93145,-0.2323 -11.10875,-0.0315 -3.04428,0.1486 -6.16884,0.3939 -9.47715,0.72708 -0.99198,0.0999 -1.97565,0.20519 -2.94801,0.31395 -9.2842,1.04048 -16.56725,2.23338 -22.79653,3.28111 -3.11573,0.52652 -5.60172,0.96001 -7.35756,1.26838 -0.88286,0.16003 -1.53167,0.26063 -2.0017,0.34159 -0.2294,0.0482 -0.37531,0.0499 -0.4923,0.0677 -0.0443,0.0107 -0.0948,-0.008 -0.11681,-0.0112 -0.0549,-0.0467 -0.11408,0.0122 -0.15667,0.0351 z"
       id="path3235"
       inkscape:path-effect="#path-effect3237"
       inkscape:original-d="m 118.07191,380.39803 c -1.06214,-1.97319 64.8955,-16.92054 69.79214,-0.94758"
       class="UnoptimicedTransforms"
       sodipodi:nodetypes="cc" />
    <g
       id="g3308"
       transform="translate(67.986131,20.532123)">
      <path
         style="fill:#000000;stroke:none;stroke-width:0"
         d="m 307.31924,91.340633 c -0.15559,-0.421188 2.81078,-1.962852 8.05837,-4.275364 4.33997,-1.78447 10.94335,-4.187232 18.4582,-5.858525 3.04956,-0.679022 6.43073,-1.27284 9.97377,-1.504085 2.77556,-0.193795 5.8516,-0.160726 8.95585,0.592947 2.40723,0.543649 4.94684,1.796428 6.82293,4.088059 0.87357,1.202054 1.45688,2.519583 1.79266,3.874233 0.37971,1.531876 0.43604,3.083076 0.26078,4.527348 -0.46448,5.35343 -2.64946,10.406424 -6.51941,13.846524 -3.50727,2.96939 -7.74214,4.29826 -11.49952,4.74036 l 0,0 c -3.79511,0.46713 -7.38248,0.21466 -10.43506,-0.28123 l 0,0 c -1.16861,-0.1881 -2.27803,-0.41511 -3.33279,-0.67796 l 0,0 c -0.31629,-0.0788 -0.62878,-0.16115 -0.93911,-0.24921 l 0,0 0,-1e-5 0,0 c 0.21212,-0.26381 0.41921,-0.52539 0.62151,-0.78507 l 0,0 0,0 c -0.0196,-0.007 -0.0392,-0.0138 -0.0588,-0.0208 -0.007,-0.002 -0.0139,-0.005 -0.0208,-0.007 0.679,7.18624 0.4469,11.80831 -0.0861,11.82766 -0.53295,0.0194 -1.10453,-4.70962 -0.9922,-13.13329 0.008,0.001 0.0155,0.003 0.0231,0.004 0.0217,0.004 0.0435,0.007 0.0653,0.0106 l 0,0 0,0 c 0.36069,-0.21995 0.72775,-0.44339 1.10012,-0.66935 l 0,0 1e-5,-10e-6 0,0 c 0.28279,0.0514 0.57187,0.0989 0.87063,0.14482 l 0,0 c 0.99614,0.15307 2.03938,0.27561 3.1409,0.36637 l 0,0 c 2.8763,0.23272 6.17574,0.2635 9.48243,-0.31973 l 0,0 c 3.22804,-0.59097 6.73204,-1.79085 9.24152,-4.13884 2.85928,-2.50749 4.41599,-6.599697 4.88126,-11.078726 0.0616,-1.060354 0.0343,-2.135081 -0.16505,-3.090719 -0.17652,-0.846148 -0.48552,-1.587706 -0.9759,-2.151102 -0.86657,-1.257957 -2.59406,-2.021061 -4.37272,-2.547807 -2.41249,-0.657096 -5.07181,-0.714357 -7.64459,-0.634161 -3.25036,0.116809 -6.47143,0.56548 -9.435,1.078786 -7.14177,1.238467 -14.0637,3.156552 -18.39844,4.342039 -5.4632,1.644355 -8.71837,2.400888 -8.87394,1.979773 z"
         id="path3298"
         inkscape:path-effect="#path-effect3300"
         inkscape:original-d="m 307.31923,91.340638 c 0,0 54.32372,-22.346257 52.09411,1.233897 -2.22961,23.580155 -30.49464,16.123045 -30.49464,16.123045 l 0.45309,12.48045"
         class="UnoptimicedTransforms" />
      <path
         style="fill:#000000;stroke:none;stroke-width:0"
         d="m 326.95419,128.28056 c 0.0592,-0.45893 0.94158,-0.77834 2.41715,-0.9482 1.14863,-0.10504 2.82579,-0.0923 4.70498,0.2864 0.66379,0.12803 1.43938,0.33856 2.26845,0.72099 0.54174,0.14741 1.28389,0.68229 1.99973,1.80025 0.46614,1.46086 0.27274,2.70083 -0.46938,3.45498 -0.82728,0.92499 -1.69703,1.4867 -2.4332,1.809 -0.0697,0.0305 -0.13784,0.0587 -0.20412,0.0847 -0.89537,0.4661 -2.00547,0.81922 -3.2931,0.8842 l 0,0 c -0.97557,0.058 -2.00584,-0.25999 -2.93415,-0.93205 l 0,0 c -1.6724,-1.64305 -1.9331,-3.40666 -1.78083,-4.56192 l 0,0 c 0.0551,-1.73072 0.50259,-3.13515 0.90907,-4.02817 l 0,0 c 0.25132,-0.55969 0.51454,-0.98485 0.7621,-1.26373 l 0,0 c 0.13169,-0.14836 0.2587,-0.25594 0.37932,-0.32106 l 0,0 c 0.062,-0.034 0.12167,-0.0564 0.17944,-0.0672 l 0,0 c 0,0 0,0 0,0 0.0816,0.008 0.12532,0.01 0.14878,0.009 0,0 0,0 0,0 0.0225,-6.2e-4 0.0261,-0.003 0.0266,-0.004 0,0 0,0 0,0 0,0 0,0 0,0 0,0 0,0 0,0 0,0 0,0 0,0 0,0 0,0 0,0 0,0 0,0 0,0 0,0 0,0 0,0 6e-5,-1e-4 5e-5,-6e-5 5e-5,-6e-5 0,0 1e-5,-4e-5 2e-5,7e-5 0,0 0,0 0,0 0,0 0,0 0,0 0,0 0,0 0,0 0,0 0,0 0,0 0,0 0,0 0,0 0,0 0,0 0,0 0,0 0,0 0,0 1.1e-4,8.2e-4 0.002,0.005 0.0214,0.0162 0,0 0,0 0,0 0.0203,0.0118 0.0596,0.0313 0.13521,0.063 0,0 0,0 0,0 l 0,0 c 0.0459,0.0357 0.0893,0.0815 0.1297,0.13648 l 0,0 c 0.0785,0.10841 0.14737,0.25454 0.20724,0.43431 l 0,0 c 0.11315,0.33963 0.19667,0.79847 0.26993,1.35668 l 0,0 c 0.10459,0.78673 0.22178,2.308 0.47219,3.38994 l 0,0 c 0.31249,0.83682 0.4369,1.6569 0.68268,1.45181 l 0,0 c -0.0645,-0.0242 0.0348,-0.0754 0.19916,-0.0671 l 0,0 c 0.36748,-0.007 0.85652,-0.2468 1.54202,-0.5403 0.057,-0.0333 0.11277,-0.0648 0.16708,-0.0949 0.5728,-0.31709 0.94837,-0.44801 1.00747,-0.58929 -0.22781,0.13712 -0.16438,0.51431 -0.0365,1.27965 0.28182,0.24945 0.20783,0.3061 -0.0626,0.009 -0.37046,-0.2553 -0.88055,-0.47785 -1.40522,-0.70391 -1.28365,-0.54349 -2.65774,-0.9946 -3.94138,-1.53809 -1.35732,-0.53513 -2.12849,-1.06854 -2.06931,-1.52716 z"
         id="path3302"
         inkscape:path-effect="#path-effect3304"
         inkscape:original-d="m 326.95414,128.28055 c 0,0 15.04853,1.4685 7.31205,5.18631 -7.73648,3.71781 -4.63114,-8.26299 -4.63114,-8.26299"
         class="UnoptimicedTransforms" />
    </g>
    <g
       id="g3320"
       transform="translate(4.1404508,3.5172342)">
      <path
         style="fill:#000000;stroke:none;stroke-width:0"
         d="m 310.44785,93.906911 c -0.39492,-0.02594 -0.60667,-2.473428 -0.64774,-6.769726 0.12583,-3.343282 0.62991,-8.578265 2.56616,-13.961366 0.78127,-2.174898 1.88471,-4.525379 3.51783,-6.709731 1.41248,-1.897475 3.33926,-3.669864 5.79665,-4.836479 2.56431,-1.167195 5.45314,-1.538117 8.29509,-1.155749 3.69709,0.500978 7.13788,1.93634 10.33003,3.797139 0.40224,0.227346 0.8061,0.462135 1.20975,0.70524 2.62197,1.579118 5.09344,3.425471 7.15183,5.782216 1.62008,1.802603 2.84311,4.110014 3.14005,6.745463 l 0,0 c 0.16807,2.324522 -0.49473,4.472455 -1.57724,6.186686 l 0,0 c -1.2338,1.962501 -2.81993,3.483703 -4.37896,4.681211 l 0,0 c -3.69922,2.86776 -7.78087,4.700312 -11.07907,5.953748 l 0,0 c -1.50275,0.575436 -2.92834,1.054842 -4.26265,1.452645 l 0,0 c -0.43064,0.128413 -0.85087,0.248093 -1.2655,0.359167 l 0,0 c 0.0347,-0.187437 0.0654,-0.36997 0.0921,-0.54804 l 0,0 -1e-5,10e-7 c -0.0283,0.0062 -0.0566,0.01242 -0.0849,0.01851 -0.007,0.0016 -0.0146,0.0031 -0.022,0.0047 0.35341,5.185217 0.17024,8.551697 -0.31604,8.579257 -0.46571,0.0264 -1.05316,-3.37132 -1.34319,-9.689943 0.0154,-0.0055 0.0228,-0.0086 0.0302,-0.01163 0.0287,-0.01183 0.0573,-0.02377 0.0861,-0.0358 l 0,-10e-7 0,0 c 0.24395,-0.247706 0.49249,-0.501273 0.7471,-0.761752 l 0,0 c 0.37682,-0.151366 0.75986,-0.310087 1.15793,-0.478451 l 0,0 c 1.23222,-0.521238 2.54575,-1.110467 3.93156,-1.782127 l 0,0 c 3.04111,-1.482508 6.77373,-3.44868 9.84459,-6.104076 l 0,0 c 1.28265,-1.121143 2.51273,-2.364266 3.29104,-3.770494 l 0,0 c 0.62956,-1.152212 1.03283,-2.467324 0.85858,-3.632647 l 0,0 c -0.0999,-1.409101 -1.01146,-2.850784 -2.18806,-4.255822 -1.62036,-1.862501 -3.74549,-3.382536 -6.1444,-4.844183 -0.36911,-0.224894 -0.74176,-0.446676 -1.11577,-0.665926 -2.92853,-1.660563 -5.79017,-2.944703 -8.68679,-3.345699 -2.13832,-0.298899 -4.2399,-0.123999 -5.98319,0.643051 -1.71818,0.708468 -3.21469,2.009084 -4.4221,3.442541 -1.41157,1.686751 -2.47414,3.6784 -3.32038,5.588101 -2.06008,4.654218 -3.07847,9.711047 -3.68456,12.845044 -0.59918,4.203765 -1.12937,6.600844 -1.52416,6.574916 z"
         id="path3310"
         inkscape:path-effect="#path-effect3312"
         inkscape:original-d="m 310.44785,93.90693 c 0,0 -0.0878,-44.277036 28.7396,-27.691952 28.82735,16.585085 -10.79167,28.84347 -10.79167,28.84347 l 0.51755,9.133352"
         class="UnoptimicedTransforms" />
      <path
         style="fill:#000000;stroke:none;stroke-width:0"
         d="m 327.00435,110.2216 c 0.13054,-0.68364 2.41442,-0.87572 5.99,-0.60626 1.11788,0.16855 2.74863,0.7183 4.15191,2.40345 0.54506,0.80963 0.80228,1.79611 0.66883,2.84506 -0.22831,1.21527 -0.7315,2.17831 -1.32146,2.8369 -0.62631,0.85142 -1.40678,1.70612 -2.35643,2.46043 -1.30418,1.03592 -2.81383,1.7914 -4.47999,2.1496 -0.78019,0.14839 -1.59943,0.16235 -2.41871,0.0307 l 0,0 0,0 0,0 c -0.23503,-0.0385 -0.4842,-0.0965 -0.74429,-0.17693 l 0,0 -1e-5,-1e-5 0,0 c -0.28974,-0.44691 -0.58744,-0.89653 -0.89243,-1.34911 l 0,0 0,-1e-5 c -0.0158,-0.008 -0.0322,-0.0159 -0.0476,-0.0245 0,0 0,0 0,0 1.43783,-6.1818 2.98859,-9.79405 3.97169,-9.49838 1.00112,0.30109 0.33366,3.93371 -1.33979,8.16312 2.1e-4,9e-5 2.1e-4,9e-5 2.1e-4,9e-5 0.0145,0.004 0.03,0.007 0.0448,0.009 l 0,0 0,0 c -0.22304,-0.42458 -0.43746,-0.84912 -0.64329,-1.27298 l 0,0 -10e-6,-1e-5 0,0 c 0.0449,0.003 0.10837,0.004 0.19231,0.008 l 0,0 0,0 0,0 c 0.28613,0.0129 0.61802,-0.0426 0.98657,-0.13516 0.84036,-0.16748 1.65348,-0.66566 2.51002,-1.39824 0.61563,-0.52653 1.23698,-1.16086 1.82227,-1.77457 0.29645,-0.41217 0.53443,-0.62989 0.51942,-0.71544 0.0281,0.063 0.0551,0.0379 0.0872,0.0467 0.06,-0.38063 -0.79208,-0.77825 -1.5989,-1.27702 -3.19846,-1.02167 -5.23241,-2.04289 -5.1023,-2.72428 z"
         id="path3314"
         inkscape:path-effect="#path-effect3316"
         inkscape:original-d="m 327.00428,110.2216 c 0,0 12.16526,0.78976 7.792,6.07457 -4.37326,5.2848 -7.92631,3.82705 -7.92631,3.82705 l 2.65583,-8.83069"
         class="UnoptimicedTransforms" />
    </g>
    <g
       id="g3332"
       transform="translate(-0.04970312,20.147761)">
      <path
         style="fill:#000000;stroke:none;stroke-width:0"
         d="m 356.32257,134.34046 c -0.40642,0.0201 -0.85529,-1.33355 -1.30347,-3.73425 -0.27732,-1.84816 -0.51621,-4.73738 -0.0688,-7.91451 0.16454,-1.20069 0.47025,-2.56542 1.08868,-3.95055 0.4573,-1.09404 1.27684,-2.26066 2.61383,-3.16743 1.41751,-0.82328 3.01574,-1.06114 4.48886,-0.73264 2.00492,0.44408 3.68689,1.4009 5.08829,2.48928 0.75079,0.53843 1.50123,1.13555 2.22512,1.79674 1.90208,1.73734 3.47033,3.7806 4.47277,6.15531 0.974,2.40138 1.07711,4.94264 0.48499,7.19786 -0.52781,1.88048 -1.4464,3.46281 -2.47341,4.7137 -0.2085,0.18252 -1.81614,1.58926 -2.02464,1.77178 -1.70477,0.1364 -3.20428,0.21897 -4.49381,0.24855 -0.99326,0.13389 -1.53556,0.16829 -2.04666,0.46738 -0.25338,0.1303 -0.4403,0.26238 -0.56309,0.42485 0,0 0,0 0,0 -0.36178,0.4059 -0.34642,1.01074 -0.56706,1.08551 -0.22064,0.0748 -0.80698,-0.23831 -0.72231,-1.44292 0,-1e-5 0,-1e-5 0,-1e-5 0.0519,-0.45883 0.25269,-0.98471 0.65853,-1.42969 0.69546,-0.74637 1.68544,-1.30163 2.85931,-1.63525 1.04682,-0.17052 2.21487,-0.31643 3.49388,-0.43561 0.21413,-0.42016 0.4216,-0.84332 0.62475,-1.2729 0.62517,-1.01188 1.15012,-2.18389 1.34906,-3.40901 0.27186,-1.4373 0.0817,-3.08251 -0.59561,-4.5859 -0.68921,-1.62551 -1.92038,-3.08704 -3.49561,-4.51167 -0.59818,-0.54099 -1.23044,-1.06274 -1.86647,-1.56412 -1.23556,-0.88878 -2.28348,-1.61844 -3.31831,-1.82744 -0.58067,-0.11275 -1.13771,-0.13327 -1.4255,0.0707 -0.42568,0.15601 -0.82881,0.72632 -1.23089,1.35625 -0.49641,0.85146 -0.83048,1.88904 -1.10894,2.89383 -0.69208,2.53408 -0.99829,5.4492 -1.21312,7.13761 -0.21066,2.39443 -0.52413,3.78448 -0.93035,3.80459 z"
         id="path3322"
         inkscape:path-effect="#path-effect3324"
         inkscape:original-d="m 356.32257,134.34049 c 0,0 -2.49953,-25.0204 10.56724,-15.22283 13.06676,9.79756 3.33438,18.48952 3.33438,18.48952 0,0 -8.2929,-0.28945 -6.98005,3.58483"
         class="UnoptimicedTransforms" />
      <path
         style="fill:#000000;stroke:none;stroke-width:0"
         d="m 363.96653,144.40307 c 0.82952,0.21227 1.02706,2.45125 0.63085,5.5132 -0.0325,0.95497 -0.15002,1.93984 0.012,2.52019 0.16047,0.17088 0.0117,0.0734 -0.33925,-0.47852 -0.39867,-0.18555 -0.70605,-0.32234 -0.93485,-0.39493 -0.27697,-0.0879 -0.43647,-0.0808 -0.51223,0.0397 -0.17265,0.0381 -0.30448,0.21925 -0.50343,0.55015 l 0,0 c -0.0362,0.28269 -0.0699,0.30392 -0.0213,0.16046 l 0,0 c 0.0277,-0.50266 -0.31178,-1.29483 -0.5874,-2.07507 l 0,0 c -0.41252,-1.08426 -0.76436,-1.91999 -0.99399,-2.7209 l 0,0 c -0.12265,-0.42794 -0.19282,-0.79701 -0.19678,-1.09483 l 0,0 c 0,0 0,0 0,0 -0.001,-0.15449 0.0158,-0.29098 0.0519,-0.4063 l 0,0 c 0,0 0,0 0,0 0.0981,-0.12761 0.14453,-0.20085 0.16598,-0.24245 0.0208,-0.0404 0.0175,-0.0505 0.0167,-0.0518 0,0 0,0 0,0 0,0 0,0 0,0 0,0 0,0 0,0 0,0 0,0 0,0 0,0 0,0 0,0 0,0 0,0 0,0 0,0 0,0 0,0 0,0 0,0 0,0 0,0 0,0 0,0 0,0 0,0 0,0 0,0 0,0 0,0 0,0 0,0 0,0 0,0 0,0 0,0 0,0 0,0 0,0 -7e-5,-1.3e-4 -4e-5,-9e-5 -4e-5,-9e-5 0,0 -3e-5,-4e-5 8e-5,5e-5 0,0 0,0 0,0 0,0 0,0 0,0 0,0 0,0 0,0 0,0 0,0 0,0 0,0 0,0 0,0 0,0 0,0 0,0 0,0 0,0 0,0 0,0 0,0 0,0 0,0 0,0 0,0 0,0 0,0 0,0 0,0 0,0 0,0 0,0 0,0 0,0 0,0 0,0 0,0 0,0 0,0 0,0 0.001,9.6e-4 0.0106,0.006 0.0539,-0.008 0.0446,-0.0144 0.12429,-0.0481 0.26603,-0.12374 0,0 0,0 0,0 l 0,0 c 0.12171,-0.0138 0.26167,-9.8e-4 0.41888,0.0378 0,0 0,0 0,0 l 0,0 c 0.29826,0.0718 0.65555,0.23695 1.05466,0.49231 l 0,0 c 0.68744,0.43825 1.54661,1.17951 2.37702,2.22667 l 0,0 c 0.59519,0.69796 1.29705,1.75858 1.65218,3.28963 l 0,0 c 0.15793,0.54767 0.13975,1.31756 -0.18415,2.26902 l 0,0 c -0.46474,0.94885 -1.15696,1.60205 -1.97915,1.88672 -0.37943,0.23573 -0.8833,0.30963 -1.4844,0.19204 -0.49712,-0.0972 -1.0549,-0.32437 -1.65424,-0.68994 -0.84782,-0.99804 -1.1447,-1.80069 -1.0701,-2.27124 -0.13268,-1.66913 0.20377,-3.01686 0.52735,-3.96155 1.15386,-2.98846 2.40251,-4.87119 3.23373,-4.65849 z"
         id="path3326"
         inkscape:path-effect="#path-effect3328"
         inkscape:original-d="m 363.96655,144.403 c 0,0 -3.34896,10.43423 -0.34792,9.29448 3.00104,-1.13974 -2.86393,-7.97563 -2.86393,-7.97563"
         class="UnoptimicedTransforms" />
    </g>
  </g>
</svg>
