<?xml version="1.0" encoding="UTF-8" standalone="no"?>
<!-- Created with Inkscape (http://www.inkscape.org/) -->

<svg
   width="512"
   height="512"
   viewBox="0 0 512 512.00002"
   version="1.1"
   id="svg5"
   inkscape:version="1.2.2 (b0a8486541, 2022-12-01)"
   sodipodi:docname="ezran.svg"
   inkscape:export-filename="../../static/icons/avatars/ezran/default.webp"
   inkscape:export-xdpi="96"
   inkscape:export-ydpi="96"
   xmlns:inkscape="http://www.inkscape.org/namespaces/inkscape"
   xmlns:sodipodi="http://sodipodi.sourceforge.net/DTD/sodipodi-0.dtd"
   xmlns="http://www.w3.org/2000/svg"
   xmlns:svg="http://www.w3.org/2000/svg">
  <sodipodi:namedview
     id="namedview7"
     pagecolor="#ffffff"
     bordercolor="#000000"
     borderopacity="0.25"
     inkscape:showpageshadow="2"
     inkscape:pageopacity="0.0"
     inkscape:pagecheckerboard="0"
     inkscape:deskcolor="#d1d1d1"
     inkscape:document-units="px"
     showgrid="false"
     inkscape:zoom="1.0490556"
     inkscape:cx="150.13504"
     inkscape:cy="346.02553"
     inkscape:window-width="1366"
     inkscape:window-height="699"
     inkscape:window-x="0"
     inkscape:window-y="0"
     inkscape:window-maximized="1"
     inkscape:current-layer="layer1" />
  <defs
     id="defs2">
    <inkscape:path-effect
       effect="skeletal"
       id="path-effect2644"
       is_visible="true"
       lpeversion="1"
       pattern="M 0,18.867925 C 0,8.4528302 8.4528302,0 18.867925,0 c 10.415094,0 18.867924,8.4528302 18.867924,18.867925 0,10.415094 -8.45283,18.867924 -18.867924,18.867924 C 8.4528302,37.735849 0,29.283019 0,18.867925 Z"
       copytype="single_stretched"
       prop_scale="0.34965791"
       scale_y_rel="false"
       spacing="0"
       normal_offset="0"
       tang_offset="0"
       prop_units="false"
       vertical_pattern="false"
       hide_knot="false"
       fuse_tolerance="0" />
    <inkscape:path-effect
       effect="skeletal"
       id="path-effect2640"
       is_visible="true"
       lpeversion="1"
       pattern="M 0,18.867925 C 0,8.4528302 8.4528302,0 18.867925,0 c 10.415094,0 18.867924,8.4528302 18.867924,18.867925 0,10.415094 -8.45283,18.867924 -18.867924,18.867924 C 8.4528302,37.735849 0,29.283019 0,18.867925 Z"
       copytype="single_stretched"
       prop_scale="0.34965791"
       scale_y_rel="false"
       spacing="0"
       normal_offset="0"
       tang_offset="0"
       prop_units="false"
       vertical_pattern="false"
       hide_knot="false"
       fuse_tolerance="0" />
    <inkscape:path-effect
       effect="skeletal"
       id="path-effect2636"
       is_visible="true"
       lpeversion="1"
       pattern="M 0,18.867925 C 0,8.4528302 8.4528302,0 18.867925,0 c 10.415094,0 18.867924,8.4528302 18.867924,18.867925 0,10.415094 -8.45283,18.867924 -18.867924,18.867924 C 8.4528302,37.735849 0,29.283019 0,18.867925 Z"
       copytype="single_stretched"
       prop_scale="0.34965791"
       scale_y_rel="false"
       spacing="0"
       normal_offset="0"
       tang_offset="0"
       prop_units="false"
       vertical_pattern="false"
       hide_knot="false"
       fuse_tolerance="0" />
    <inkscape:path-effect
       effect="skeletal"
       id="path-effect2632"
       is_visible="true"
       lpeversion="1"
       pattern="M 0,18.867925 C 0,8.4528302 8.4528302,0 18.867925,0 c 10.415094,0 18.867924,8.4528302 18.867924,18.867925 0,10.415094 -8.45283,18.867924 -18.867924,18.867924 C 8.4528302,37.735849 0,29.283019 0,18.867925 Z"
       copytype="single_stretched"
       prop_scale="0.34965791"
       scale_y_rel="false"
       spacing="0"
       normal_offset="0"
       tang_offset="0"
       prop_units="false"
       vertical_pattern="false"
       hide_knot="false"
       fuse_tolerance="0" />
    <inkscape:path-effect
       effect="skeletal"
       id="path-effect2628"
       is_visible="true"
       lpeversion="1"
       pattern="M 0,18.867925 C 0,8.4528302 8.4528302,0 18.867925,0 c 10.415094,0 18.867924,8.4528302 18.867924,18.867925 0,10.415094 -8.45283,18.867924 -18.867924,18.867924 C 8.4528302,37.735849 0,29.283019 0,18.867925 Z"
       copytype="single_stretched"
       prop_scale="0.34965791"
       scale_y_rel="false"
       spacing="0"
       normal_offset="0"
       tang_offset="0"
       prop_units="false"
       vertical_pattern="false"
       hide_knot="false"
       fuse_tolerance="0" />
    <inkscape:path-effect
       effect="skeletal"
       id="path-effect2624"
       is_visible="true"
       lpeversion="1"
       pattern="M 0,18.867925 C 0,8.4528302 8.4528302,0 18.867925,0 c 10.415094,0 18.867924,8.4528302 18.867924,18.867925 0,10.415094 -8.45283,18.867924 -18.867924,18.867924 C 8.4528302,37.735849 0,29.283019 0,18.867925 Z"
       copytype="single_stretched"
       prop_scale="0.34965791"
       scale_y_rel="false"
       spacing="0"
       normal_offset="0"
       tang_offset="0"
       prop_units="false"
       vertical_pattern="false"
       hide_knot="false"
       fuse_tolerance="0" />
    <inkscape:path-effect
       effect="skeletal"
       id="path-effect2615"
       is_visible="true"
       lpeversion="1"
       pattern="M 0,18.867925 C 0,8.4528302 8.4528302,0 18.867925,0 c 10.415094,0 18.867924,8.4528302 18.867924,18.867925 0,10.415094 -8.45283,18.867924 -18.867924,18.867924 C 8.4528302,37.735849 0,29.283019 0,18.867925 Z"
       copytype="single_stretched"
       prop_scale="0.63609496"
       scale_y_rel="false"
       spacing="0"
       normal_offset="0"
       tang_offset="0"
       prop_units="false"
       vertical_pattern="false"
       hide_knot="false"
       fuse_tolerance="0" />
    <inkscape:path-effect
       effect="skeletal"
       id="path-effect2611"
       is_visible="true"
       lpeversion="1"
       pattern="M 0,18.867925 C 0,8.4528302 8.4528302,0 18.867925,0 c 10.415094,0 18.867924,8.4528302 18.867924,18.867925 0,10.415094 -8.45283,18.867924 -18.867924,18.867924 C 8.4528302,37.735849 0,29.283019 0,18.867925 Z"
       copytype="single_stretched"
       prop_scale="-0.2289063"
       scale_y_rel="false"
       spacing="0"
       normal_offset="0"
       tang_offset="0"
       prop_units="false"
       vertical_pattern="false"
       hide_knot="false"
       fuse_tolerance="0" />
    <inkscape:path-effect
       effect="skeletal"
       id="path-effect2599"
       is_visible="true"
       lpeversion="1"
       pattern="M 0,18.867925 C 0,8.4528302 8.4528302,0 18.867925,0 c 10.415094,0 18.867924,8.4528302 18.867924,18.867925 0,10.415094 -8.45283,18.867924 -18.867924,18.867924 C 8.4528302,37.735849 0,29.283019 0,18.867925 Z"
       copytype="single_stretched"
       prop_scale="0.63609496"
       scale_y_rel="false"
       spacing="0"
       normal_offset="0"
       tang_offset="0"
       prop_units="false"
       vertical_pattern="false"
       hide_knot="false"
       fuse_tolerance="0" />
    <inkscape:path-effect
       effect="skeletal"
       id="path-effect2595"
       is_visible="true"
       lpeversion="1"
       pattern="M 0,18.867925 C 0,8.4528302 8.4528302,0 18.867925,0 c 10.415094,0 18.867924,8.4528302 18.867924,18.867925 0,10.415094 -8.45283,18.867924 -18.867924,18.867924 C 8.4528302,37.735849 0,29.283019 0,18.867925 Z"
       copytype="single_stretched"
       prop_scale="0.63609496"
       scale_y_rel="false"
       spacing="0"
       normal_offset="0"
       tang_offset="0"
       prop_units="false"
       vertical_pattern="false"
       hide_knot="false"
       fuse_tolerance="0" />
    <inkscape:path-effect
       effect="skeletal"
       id="path-effect2591"
       is_visible="true"
       lpeversion="1"
       pattern="M 0,18.867925 C 0,8.4528302 8.4528302,0 18.867925,0 c 10.415094,0 18.867924,8.4528302 18.867924,18.867925 0,10.415094 -8.45283,18.867924 -18.867924,18.867924 C 8.4528302,37.735849 0,29.283019 0,18.867925 Z"
       copytype="single_stretched"
       prop_scale="0.63609496"
       scale_y_rel="false"
       spacing="0"
       normal_offset="0"
       tang_offset="0"
       prop_units="false"
       vertical_pattern="false"
       hide_knot="false"
       fuse_tolerance="0" />
    <inkscape:path-effect
       effect="skeletal"
       id="path-effect1942"
       is_visible="true"
       lpeversion="1"
       pattern="M 0,18.867925 C 0,8.4528302 8.4528302,0 18.867925,0 c 10.415094,0 18.867924,8.4528302 18.867924,18.867925 0,10.415094 -8.45283,18.867924 -18.867924,18.867924 C 8.4528302,37.735849 0,29.283019 0,18.867925 Z"
       copytype="single_stretched"
       prop_scale="0.34965791"
       scale_y_rel="false"
       spacing="0"
       normal_offset="0"
       tang_offset="0"
       prop_units="false"
       vertical_pattern="false"
       hide_knot="false"
       fuse_tolerance="0" />
  </defs>
  <g
     inkscape:label="Layer 1"
     inkscape:groupmode="layer"
     id="layer1">
    <rect
       style="fill:#ffffff;fill-opacity:1;stroke-width:0.408162"
       id="rect2758"
       width="976.20673"
       height="773.77045"
       x="-205.96277"
       y="-118.80267" />
    <g
       id="g2661"
       transform="matrix(0.63469609,0,0,0.63469609,-3.0993817,45.868526)">
      <path
         style="fill:#000000;fill-opacity:1;stroke:none;stroke-width:0.5"
         d="m 116.45285,95.856812 c 1.83842,0.689041 -5.95584,25.126808 -17.336805,63.908798 0,0 -3e-6,1e-5 -3e-6,1e-5 -3.970309,13.53256 -8.71331,30.07023 -12.665245,46.92511 -2.403888,10.2804 -4.767412,21.36899 -5.974768,32.46841 -0.665979,6.61261 -1.216888,13.18991 -0.07603,19.03745 0.365143,1.78625 0.753369,3.34631 1.395865,4.4685 0.472402,0.77606 0.872624,1.38863 1.229869,1.54941 0.224906,0.20579 0.720012,0.34075 1.272043,0.42285 0,0 5e-6,0 5e-6,0 0.74363,0.12935 1.789425,-0.0543 3.055282,-0.32536 1.064183,-0.25349 2.170644,-0.65546 3.326856,-1.1525 0.532893,-0.22908 1.075027,-0.47779 1.626259,-0.74024 2.108472,-1.01969 4.19609,-2.26838 6.286064,-3.62924 l 0,0 c 5.295387,-3.45104 10.309207,-7.5541 15.158967,-11.77565 6.04306,-5.27339 11.80622,-10.83619 17.284,-16.34393 l 0,0 c 6.3953,-6.43254 12.51794,-12.93967 18.2744,-19.21729 0,0 1e-5,-1e-5 1e-5,-1e-5 l 0,0 c 13.23512,-14.43373 25.62892,-28.86421 35.59147,-40.55572 l 0,0 c 11.87439,-13.93602 20.8282,-24.63743 27.95638,-32.80672 l 0,0 c 3.6601,-4.1947 6.60177,-7.44468 8.7257,-9.57897 l 0,0 c 1.08997,-1.09528 1.97064,-1.90311 2.62862,-2.40219 l 0,0 c 0.33276,-0.25241 0.60928,-0.42637 0.82784,-0.51939 l 0,0 c 0,0 0,0 0,0 0.17701,0.002 0.28919,-0.0121 0.36185,-0.0236 0,0 0,0 0,0 0.0531,0.006 0.0836,0.004 0.10087,6.3e-4 0,0 0,0 0,0 0.009,-0.002 0.014,-0.004 0.0171,-0.006 0.004,-0.003 0.004,-0.003 0.004,-0.003 0,0 0,0 0.001,9.1e-4 -0.004,0.008 -0.004,0.0135 -0.003,0.0223 0,0 0,0 0,0 0.002,0.0176 0.01,0.0472 0.0322,0.0956 0,0 0,0 0,0 0.0118,0.0726 0.0338,0.18381 0.0904,0.35146 0,0 0,1e-5 0,1e-5 l 0,0 c -0.0205,0.23721 -0.10059,0.55447 -0.23899,0.94974 l 0,0 c -0.27402,0.78264 -0.77578,1.86803 -1.49802,3.2407 l 0,0 c -1.41158,2.68282 -3.65283,6.44068 -6.67733,11.15385 l 0,0 c -5.63723,8.78474 -14.10509,21.06128 -24.87188,35.47553 l 0,0 c -9.36736,12.54174 -20.96127,27.372 -34.07209,42.5837 l 0,0 -1e-5,1e-5 0,0 c -5.6531,6.55908 -11.72549,13.34346 -18.1728,20.08704 l 0,0 c -5.51067,5.76604 -11.41256,11.63024 -17.73462,17.27048 -5.03079,4.49916 -10.49751,9.00963 -16.55194,13.01411 l 0,0 c -2.40028,1.58871 -4.97131,3.11941 -7.741792,4.4768 -0.714041,0.35401 -1.453715,0.69664 -2.219308,1.02209 -1.660852,0.70602 -3.433905,1.32706 -5.323814,1.80952 -2.250497,0.60497 -4.840651,0.88676 -7.674463,0.62545 0,0 -2.6e-5,0 -2.6e-5,0 -2.575154,-0.25937 -5.13238,-1.1889 -7.456283,-2.79171 -2.431017,-1.81786 -4.168699,-3.98784 -5.262211,-6.22237 -1.425913,-2.8545 -2.218568,-5.66989 -2.625045,-8.25234 -1.323076,-8.10379 -0.703497,-15.89044 0.235226,-22.81877 1.526054,-11.96472 4.246241,-23.46127 7.039868,-33.88615 4.619698,-17.28395 10.073417,-33.5495 14.931906,-47.06253 10e-7,0 3e-6,0 4e-6,-1e-5 13.790668,-38.36642 24.883568,-61.535679 26.721988,-60.846638 z"
         id="path1940"
         inkscape:path-effect="#path-effect1942"
         inkscape:original-d="M 116.45285,95.856812 C -24.661992,472.3629 225.52373,125.55808 225.52373,125.55808"
         class="UnoptimicedTransforms"
         transform="matrix(1.0546661,0,0,1.0546661,-65.530288,-30.458708)"
         sodipodi:nodetypes="cc" />
      <g
         id="g2620">
        <path
           style="fill:#000000;fill-opacity:1;stroke:none;stroke-width:0.5"
           d="m 219.08364,67.937127 c -0.066,-5.06241 57.87354,-8.646781 141.9631,-7.142099 -0.66964,27.124778 -1.54148,57.477552 -2.59406,88.972212 -8.9e-4,-2e-5 -2.41372,-0.062 -2.41462,-0.0621 -62.52964,-1.61579 -122.6704,-3.81263 -161.51631,-5.54931 7.62478,-42.88341 15.67554,-66.938033 18.93494,-66.176188 3.2594,0.761844 0.0577,24.848488 -10.45686,59.570888 36.48152,-0.41488 88.78812,-0.66521 141.59993,-0.26111 -10e-4,0 2.07102,0.0162 2.07002,0.0162 1.04655,-22.96896 2.19759,-45.071978 3.37156,-65.782322 -75.73631,3.587078 -130.89174,1.476239 -130.9577,-3.586171 z"
           id="path2597"
           inkscape:path-effect="#path-effect2599"
           inkscape:original-d="m 219.08364,67.937127 136.4604,-1.777964 -2.98281,77.377267 -153.80044,-2.68322 14.69589,-62.873514"
           class="UnoptimicedTransforms" />
        <path
           style="fill:#000000;fill-opacity:1;stroke:none;stroke-width:0.5"
           d="m 359.5298,101.21372 c 0.0754,2.38289 20.38527,3.6764 45.33461,2.88729 24.94934,-0.7891 45.13691,-3.36347 45.06155,-5.746364 -0.0754,-2.382889 -20.38528,-3.676395 -45.33461,-2.887291 -24.94934,0.789104 -45.13692,3.363476 -45.06155,5.746365 z"
           id="path2609"
           inkscape:path-effect="#path-effect2611"
           inkscape:original-d="m 359.5298,101.21372 90.39614,-2.859073"
           class="UnoptimicedTransforms" />
        <path
           style="fill:#000000;fill-opacity:1;stroke:none;stroke-width:0.5"
           d="m 450.91262,66.465259 c -0.12433,-5.116777 58.56912,-9.382942 143.37027,-8.840133 -0.27496,26.57934 -0.71083,56.050544 -1.30561,86.730744 -2.1e-4,0.0103 -0.20304,10.21263 -0.20325,10.22296 -59.99162,-2.6726 -114.21689,-5.66221 -151.95124,-8.24581 0,0 0,-1e-5 0,-1e-5 2.61787,-42.84555 7.57729,-67.283191 10.89089,-66.94335 3.31361,0.339841 3.31986,24.19811 -2.05635,59.29869 0,0 0,0 0,10e-6 35.41022,0.4884 81.50643,1.70786 131.63084,3.65937 -1.5e-4,0.007 0.17122,-7.71969 0.17107,-7.71285 0.52726,-23.08653 1.16785,-45.188798 1.88251,-66.031046 -76.40528,4.459911 -132.3048,2.978203 -132.42913,-2.138575 z"
           id="path2613"
           inkscape:path-effect="#path-effect2615"
           inkscape:original-d="m 450.91262,66.465259 137.8997,-3.350779 -1.78122,85.3488 -141.79104,-5.95259 6.47362,-63.120997"
           class="UnoptimicedTransforms" />
      </g>
      <path
         style="fill:#000000;fill-opacity:1;stroke:none;stroke-width:0.5"
         d="m 690.53122,82.9728 c 1.3429,-0.501877 9.91831,18.65265 23.38733,51.60033 5.83798,14.77706 12.61439,32.70119 19.67134,52.73243 6.24424,17.72393 12.96286,37.7939 19.33388,59.05535 0,0 0,2e-5 0,2e-5 5.28106,17.617 10.61029,36.86069 14.85293,56.76822 1.71913,8.06451 3.28461,16.397 4.46282,24.90568 0.95696,6.87171 1.68312,14.01769 1.77643,21.33411 0.103,5.39997 -0.19085,11.23304 -1.66256,17.18827 0,0 -10e-6,3e-5 -10e-6,3e-5 -0.55635,2.26645 -1.40474,4.65125 -2.67674,7.03614 -0.41619,0.79371 -0.9049,1.58179 -1.46922,2.35265 -0.87619,1.1969 -1.93248,2.34938 -3.17838,3.4155 -2.00043,1.64703 -4.32384,2.7941 -6.81893,3.38087 0,0 -4e-5,1e-5 -4e-5,1e-5 -2.78712,0.60074 -5.4196,0.5992 -7.76164,0.18474 -2.97199,-0.50078 -5.64636,-1.3962 -8.01172,-2.45982 0,0 -2e-5,-1e-5 -2e-5,-1e-5 -3.10992,-1.37466 -5.95565,-3.00165 -8.577,-4.71012 -46.41135,-30.00799 -82.72538,-58.29481 -112.21572,-91.0295 -11.04721,-12.2631 -20.03983,-24.20759 -27.19141,-36.38567 -6.13346,-10.42971 -10.44511,-20.39353 -13.10379,-30.07824 -2.36915,-8.61896 -3.18863,-16.49354 -2.8784,-23.51018 0.33795,-6.76528 1.71054,-12.38194 3.39739,-16.78025 5.04058,-8.34832 7.92346,-12.47576 8.50142,-12.08708 0.004,0.002 0.003,0.002 0.002,0.002 -5.8e-4,-4e-4 -0.001,-8.1e-4 0.002,0.002 0.56392,0.41339 -1.20844,5.30042 -4.77759,13.61248 -0.98562,4.18846 -1.61417,9.26765 -1.313,15.26854 0.27163,6.41419 1.57233,13.46263 4.24217,21.29511 3.00902,8.81898 7.51687,17.80383 13.75633,27.45145 7.294,11.26239 16.27422,22.27037 27.3169,33.8363 29.68331,31.09387 65.15628,57.64014 111.37996,87.36284 2.25176,1.43371 4.48428,2.71972 6.7302,3.68543 0,0 2e-5,10e-6 2e-5,10e-6 1.72878,0.72541 3.33647,1.30231 4.80311,1.50507 1.11328,0.13321 2.05802,0.19193 2.6923,-0.008 0,0 10e-6,0 10e-6,0 0.50597,-0.11555 1.02417,-0.3694 1.40582,-0.6964 0.29626,-0.21188 0.589,-0.5548 0.88899,-0.98711 0.19318,-0.27839 0.38913,-0.59348 0.59047,-0.93348 0.61573,-1.08074 1.06789,-2.45176 1.48423,-3.99099 0,0 0,-2e-5 0,-2e-5 1.11602,-4.16956 1.28874,-8.87886 1.28738,-13.78885 -0.0468,-6.53021 -0.69975,-13.14464 -1.55907,-19.71981 -1.06612,-8.10731 -2.51246,-16.15717 -4.1055,-24.04041 -3.93071,-19.44561 -8.90473,-38.51921 -13.7717,-56.0622 0,-1e-5 0,-2e-5 0,-2e-5 -5.858,-21.10692 -12.02422,-41.35307 -17.59054,-59.1289 -6.24006,-19.9284 -12.2902,-38.48931 -17.13187,-53.3292 -11.42603,-33.6649 -17.51425,-53.746885 -16.17142,-54.24874 z"
         id="path2626"
         inkscape:path-effect="#path-effect2628"
         inkscape:original-d="m 690.53122,82.972798 c 0,0 135.41096,344.343542 46.88802,287.264002 C 526.84903,234.46123 590.37161,165.88797 590.37161,165.88797"
         class="UnoptimicedTransforms"
         sodipodi:nodetypes="csc"
         transform="translate(37.533987,-19.418593)" />
      <g
         id="g2649">
        <path
           style="fill:#000000;fill-opacity:1;stroke:none;stroke-width:0.5"
           d="m 361.15655,202.66801 c -0.007,-0.0409 -0.007,-0.0831 -3.5e-4,-0.12636 0.0117,-0.0434 0.0326,-0.0884 0.0627,-0.13488 0,0 0,0 0,0 0.0599,-0.0925 0.1561,-0.191 0.28798,-0.29525 0,0 0,0 0,0 l 0,0 c 0.26132,-0.20649 0.66233,-0.43521 1.19899,-0.68471 l 0,-1e-5 c 1.0506,-0.48844 2.61621,-1.05421 4.66818,-1.68396 l 0,0 c 3.88356,-1.19186 9.52122,-2.61662 16.64958,-4.13377 l 0,0 10e-6,0 c 11.6142,-2.47333 29.12373,-5.63989 48.4552,-7.49457 l 0,0 c 7.359,-0.70856 15.49907,-1.28182 23.89094,-1.2295 l 0,0 c 3.29566,0.0196 6.73972,0.14797 10.26571,0.50264 l 0,0 c 2.74818,0.26549 5.70176,0.71205 8.75629,1.55398 l 0,0 c 2.16774,0.52404 4.71697,1.54539 7.32931,3.42623 l 0,0 c 1.04007,0.76091 2.06321,1.8267 2.98962,3.21566 l 0,0 2e-5,3e-5 0,0 c 0.85186,1.33107 1.41041,2.84799 1.63596,4.49737 0,0 0,3e-5 0,3e-5 v 0 c 0.18669,1.76237 0.0468,3.34959 -0.35649,4.70522 -0.47486,1.63869 -1.10721,3.02112 -1.80737,4.14497 -1.95686,3.16149 -4.27181,5.61445 -6.50924,7.5883 -7.66139,7.00195 -16.26286,13.17429 -25.62322,18.56554 -3.49843,2.01497 -7.03533,3.88195 -10.58276,5.61238 -13.51125,6.61002 -27.22121,11.32262 -40.55305,14.46091 -13.26808,3.14323 -25.88279,4.67917 -37.96929,4.43262 0,0 -10e-6,0 -10e-6,0 -5.52213,-0.10982 -10.83332,-0.63595 -15.95268,-1.7211 -4.56565,-0.94633 -8.93075,-2.4148 -12.92663,-4.63103 -3.16862,-1.72233 -6.07817,-4.03412 -8.34715,-7.01092 -1.87768,-2.51289 -2.96963,-5.43784 -3.25446,-8.38382 -0.23104,-3.01664 0.31748,-5.74788 1.18781,-8.03066 1.01464,-2.6971 2.39164,-4.97916 3.75898,-6.84985 3.4446,-4.71598 7.3839,-8.01981 9.95281,-9.88983 3.54131,-2.34297 5.59148,-3.33782 5.99739,-2.86269 0,0 0,0 0,0 0,0 0,0 0,0 0,0 0,0 0,0 0.004,0.005 0.004,0.004 0.003,0.004 -3.1e-4,-3.7e-4 -6e-4,-7.5e-4 0.003,0.004 0,0 0,0 0,0 0,0 0,1e-5 0,1e-5 0,0 0,0 0,0 0.38722,0.49093 -0.89276,2.41828 -3.55769,5.51853 -1.79647,2.3017 -4.92502,6.2476 -7.12383,10.52716 -0.8992,1.75041 -1.75513,3.70252 -2.20493,5.68493 -0.36064,1.65108 -0.53036,3.3919 -0.18249,4.88852 0.27401,1.40651 1.0363,2.83374 2.12686,4.04493 1.38067,1.60237 3.44349,2.83678 5.94378,4.05256 3.02715,1.4235 6.5089,2.26092 10.46068,2.86965 4.41334,0.65528 9.0646,0.82668 14.08412,0.68747 0,-1e-5 10e-6,0 10e-6,0 11.0254,-0.31121 22.52957,-2.20363 34.97624,-5.46877 12.43404,-3.28253 25.19111,-7.89932 37.76049,-14.13538 3.29729,-1.64096 6.57703,-3.38694 9.8108,-5.24772 8.65392,-4.97963 16.53787,-10.52776 23.51143,-16.74988 1.84206,-1.71238 3.38421,-3.15063 4.22344,-4.60908 l 0,0 c 0.26456,-0.4701 0.45178,-0.77191 0.47202,-0.91666 -0.004,-0.0792 0.031,-0.002 0.0344,0.2905 0,0 0,1e-5 0,1e-5 0.0573,0.29839 0.13564,0.51106 0.26547,0.69623 l 0,0 0,10e-6 0,0 c 0.13674,0.1362 0.10644,0.13831 -0.0152,-0.005 l 0,0 c -0.44072,-0.49501 -1.58873,-0.86273 -3.07477,-1.40862 l 0,0 c -2.0154,-0.64265 -4.28293,-1.0304 -6.65975,-1.3604 l 0,0 c -3.00383,-0.40404 -6.083,-0.61994 -9.14546,-0.75812 l 0,0 c -7.78975,-0.34881 -15.6465,-0.1499 -22.84956,0.14243 h 0 c -17.85514,0.73017 -37.53127,2.51563 -48.22764,3.35125 l 0,0 -1e-5,0 c -7.22744,0.565 -12.96683,0.95859 -17.02369,1.07049 l 0,0 c -2.13357,0.0589 -3.79563,0.0395 -4.94258,-0.0705 l 0,0 c -0.58678,-0.0563 -1.04034,-0.13648 -1.35506,-0.24188 l 0,0 c 0,0 0,0 0,0 -0.15908,-0.0532 -0.28286,-0.113 -0.37061,-0.17939 0,0 0,-1e-5 0,-1e-5 -0.0441,-0.0334 -0.0791,-0.0684 -0.10498,-0.10518 -0.0214,-0.0383 -0.0357,-0.0778 -0.043,-0.11879 z"
           id="path2634"
           inkscape:path-effect="#path-effect2636"
           inkscape:original-d="m 361.14916,202.66933 c 0,0 153.45288,-27.35957 113.17439,9.0359 -40.2785,36.39548 -111.14193,50.83962 -137.10571,37.38197 -25.96378,-13.45765 7.14686,-38.87221 7.14686,-38.87221"
           class="UnoptimicedTransforms"
           transform="translate(-27.709395,14.461638)" />
        <path
           style="fill:#000000;fill-opacity:1;stroke:none;stroke-width:0.5"
           d="m 297.69846,264.65428 c -0.0386,1.14257 -19.10364,-0.63364 -48.17393,10.86416 -12.95092,5.11557 -27.10598,12.89524 -41.9022,24.56329 -12.17163,9.60303 -24.10931,21.32112 -35.8643,35.53547 -10.34084,12.51083 -20.15757,26.52945 -29.43453,42.20574 -8.11561,13.71875 -15.6868,28.50193 -22.48785,44.32834 -5.69224,13.25326 -10.86413,27.22851 -15.0106,41.76893 -3.17126,11.16235 -5.87014,22.69045 -7.024375,34.30873 -0.422049,4.28513 -0.654516,8.51674 -0.42546,12.61442 0.207745,3.09917 0.515152,5.94917 1.388997,8.28954 2.909818,8.19026 7.776708,15.83405 14.447578,21.18812 4.9764,4.08907 11.04675,7.05342 17.55246,8.97672 0.4677,0.13827 0.93715,0.27101 1.40807,0.39827 5.50811,1.47261 11.23737,2.18605 16.96492,2.26353 0,0 3e-5,0 3e-5,0 l 0,0 c 1.77988,0.0212 3.53174,-0.0175 5.25026,-0.13765 l 0,0 3e-5,0 0,0 c 0.47561,-0.0333 0.93255,-0.0705 1.3704,-0.11609 1e-5,0 1e-5,0 1e-5,0 0.11518,-0.012 0.22058,-0.0234 0.31612,-0.0348 -1e-5,10e-6 -2e-5,10e-6 -2e-5,10e-6 -0.77607,0.52008 -1.55707,1.04072 -2.34301,1.56183 l 0,0 c 0.009,-7.8e-4 0.0171,-0.002 0.0257,-0.002 5.5701,-10.04664 11.05586,-19.93693 16.49925,-29.7205 l 0,0 c 15.47696,-24.75779 30.98599,-47.83979 46.8665,-69.55289 9.70362,-13.26669 19.35413,-25.73924 29.22455,-37.56787 l 0,0 2e-5,-2e-5 0,0 c 10.11803,-12.12948 20.14192,-23.20994 30.63333,-33.37819 l 0,0 c 9.81874,-9.53598 19.62074,-17.88119 30.31857,-24.69612 l 0,0 c 4.71507,-3.00495 9.55768,-5.62165 14.62434,-7.67017 4.55212,-1.85222 9.28955,-3.16644 14.15875,-3.65902 l 0,0 c 7.15574,-0.70042 13.66429,-2.15528 19.40608,-4.74785 4.92114,-2.21289 9.15329,-5.18108 12.43774,-8.70251 3.24141,-3.44428 5.62924,-7.46507 7.28692,-11.46028 l 0,0 c 1.81928,-4.38011 2.83191,-8.91948 3.39512,-13.08118 l 0,0 c 1.32212,-9.76908 0.32722,-19.06603 -0.42328,-24.68835 l 0,0 c -0.47014,-3.50345 -0.97601,-6.37069 -1.27098,-8.24062 l 0,0 c -0.16175,-1.02526 -0.27331,-1.82518 -0.31205,-2.3732 l 0,0 c -0.0201,-0.28396 -0.021,-0.50521 -6.7e-4,-0.66118 l 0,0 c 0.0104,-0.0789 0.0264,-0.14169 0.048,-0.18786 l 0,0 0,0 0,0 c 0.0448,-0.0356 0.0661,-0.0579 0.0761,-0.0714 0.01,-0.0132 0.009,-0.018 0.009,-0.0185 0,0 0,0 0,0 0,0 0,0 0,0 0,0 0,0 0,0 0,0 0,0 0,0 0,0 0,0 0,0 0,0 0,0 0,0 0,-2e-5 10e-6,10e-6 10e-6,10e-6 0,0 -10e-6,-3e-5 -10e-6,-10e-6 0,0 0,0 0,0 0,0 0,0 0,0 0,0 0,0 0,0 0,0 0,0 0,0 0,0 0,0 0,0 0,0 0,0 0,0 2.2e-4,5e-4 0.003,0.005 0.0185,0.009 0.0163,0.004 0.0469,0.008 0.10399,0.007 l 0,0 0,0 0,0 c 0.046,0.0228 0.0978,0.0628 0.15532,0.12015 l 0,0 c 0.11336,0.11258 0.24763,0.29099 0.40167,0.53619 l 0,0 c 0.29967,0.47702 0.66919,1.19896 1.09309,2.1744 l 0,0 c 0.78649,1.80975 1.77638,4.52782 2.74108,8.08509 l 0,0 c 1.55002,5.69926 3.47489,15.0878 2.80809,25.83822 l 0,0 c -0.28346,4.56048 -1.0893,9.64968 -2.87129,14.80711 l 0,0 c -1.63535,4.72585 -4.18449,9.58639 -7.89131,13.9696 -3.79138,4.44964 -8.67267,8.26747 -14.39521,11.11272 -6.61569,3.27995 -13.97842,5.29237 -21.82442,6.29645 l 0,0 c -3.80775,0.49341 -7.6538,1.74276 -11.5691,3.45129 l 0,0 c -4.35401,1.91309 -8.59543,4.39721 -12.87573,7.28729 l 0,0 c -9.75599,6.58946 -18.75649,14.71857 -28.10405,24.17632 l 0,0 c -9.93187,10.07118 -19.45287,21.04254 -29.19595,33.13121 0,1e-5 -1e-5,1e-5 -2e-5,2e-5 l 0,0 c -9.49129,11.78053 -18.79657,24.18528 -28.2234,37.41083 -15.41869,21.63072 -30.52406,44.54116 -45.73306,69.14136 l 0,0 c -0.5468,0.85174 -20.58108,31.98762 -21.12788,32.83935 -0.0195,0.003 -0.0293,0.004 -0.039,0.006 l 0,0 c -0.85749,0.53026 -1.71008,1.0597 -2.55777,1.5884 0,0 0,0 -1e-5,1e-5 -0.1825,0.022 -0.3555,0.0413 -0.5189,0.0585 0,0 0,0 0,0 -0.62171,0.0653 -1.22695,0.11669 -1.81516,0.15836 l 0,0 -3e-5,0 0,0 c -2.12787,0.15089 -4.23981,0.20369 -6.32977,0.17969 l 0,0 c 0,0 -4e-5,0 -4e-5,0 -6.73022,-0.068 -13.53943,-0.92216 -20.20575,-2.69096 -0.57675,-0.15167 -1.15243,-0.31104 -1.72676,-0.47817 -7.98847,-2.32463 -15.59812,-6.11525 -22.16377,-11.43507 -8.776129,-7.23811 -14.967915,-16.8478 -18.483512,-27.09174 -1.391212,-4.15801 -1.917374,-8.21735 -2.055717,-11.93678 -0.233878,-5.02284 0.04162,-9.9172 0.551972,-14.61477 1.371917,-12.7183 4.307607,-24.96244 7.730405,-36.51044 4.465532,-15.11991 9.980142,-29.53713 16.033202,-43.11817 7.22916,-16.22824 15.28242,-31.3481 23.9119,-45.3309 9.85725,-15.9777 20.34718,-30.25374 31.38821,-42.93008 12.54014,-14.40464 25.39535,-26.23153 38.44832,-35.78104 15.86877,-11.61546 31.16241,-19.08509 44.96727,-23.63824 31.10749,-10.2467 50.35797,-6.06925 50.31937,-4.92668 z"
           id="path2638"
           inkscape:path-effect="#path-effect2640"
           inkscape:original-d="M 297.69846,264.65428 C 159.03954,259.97016 77.398101,477.72032 92.58387,521.28714 c 15.18577,43.56682 64.42142,36.90059 64.42142,36.90059 0,0 113.74381,-199.36072 179.57237,-206.84058 65.80591,-7.47729 40.15606,-78.59449 40.15606,-78.59449"
           class="UnoptimicedTransforms"
           sodipodi:nodetypes="cscsc" />
        <path
           style="fill:#000000;fill-opacity:1;stroke:none;stroke-width:0.5"
           d="m 448.00793,249.88422 c 0.29956,-0.76375 9.08353,1.83809 24.93981,7.28042 0,0 10e-6,0 10e-6,0 13.77786,5.79354 33.59781,16.05416 53.9344,33.23194 9.54463,8.07299 19.29651,17.79887 28.40063,29.33131 8.98792,11.38788 17.3327,24.54994 24.24926,39.41063 7.13127,15.3318 12.65947,32.27532 16.14594,50.53035 0,10e-6 0,2e-5 0,3e-5 3.78499,19.83623 5.13743,40.76935 4.14137,62.51305 -0.98981,22.33673 -3.60406,46.16476 -10.48445,69.46199 -3.92059,13.38598 -9.52821,27.05651 -18.30547,39.17374 -0.90255,1.2547 -1.85034,2.49528 -2.84534,3.71318 -4.26484,5.22031 -9.34247,9.95735 -15.36589,13.62487 -1.93323,1.16922 -4.04799,2.23036 -6.35369,3.0873 -0.60675,0.22513 -1.27082,0.44357 -1.99413,0.6433 -0.18708,0.0516 -0.40085,0.10622 -0.64156,0.1622 -0.0302,0.007 -0.0736,0.0167 -0.13024,0.0282 0,0 -10e-6,0 -10e-6,0 -0.008,0.002 -0.0152,0.003 -0.0228,0.005 -0.0139,0.003 -0.0188,0.004 -0.0236,0.005 -0.0149,0.004 -0.0296,0.007 -0.0441,0.0109 -0.057,0.014 -0.11195,0.0271 -0.16476,0.0394 -0.29944,0.0694 -0.58994,0.13375 -0.87116,0.19407 0,0 -4e-5,10e-6 -4e-5,10e-6 -1.0533,0.22592 -2.0942,0.42529 -3.1201,0.60533 0,0 -3e-5,0 -3e-5,0 -3.57465,0.62806 -7.15879,1.06701 -10.73181,1.334 -4.91552,0.37127 -9.8687,0.41055 -14.81498,0.0414 -5.58669,-0.40826 -11.19839,-1.3875 -16.66467,-3.13594 -5.74659,-1.82813 -11.26606,-4.63241 -16.11816,-8.50756 -5.35686,-4.33845 -9.52629,-9.84963 -12.30104,-15.91803 -3.52116,-7.82751 -4.91547,-16.09357 -5.07387,-23.93411 -0.26698,-11.41477 1.5762,-22.43905 4.13806,-32.63268 0,0 0,-3e-5 0,-3e-5 8.32309,-33.71996 12.86809,-63.02349 10.59001,-91.49403 -0.86738,-10.94694 -2.76511,-21.07415 -5.94987,-30.36327 -2.89198,-8.44961 -6.77199,-16.00164 -11.41353,-22.49576 -4.65863,-6.53623 -10.1018,-12.02935 -15.62618,-16.51754 -6.18297,-5.02703 -12.74241,-9.0128 -18.67735,-12.1594 -10.92849,-5.80138 -24.31725,-10.85477 -29.89189,-13.07513 -7.05336,-2.80933 -10.75499,-4.4931 -10.59156,-5.013 0.16344,-0.51989 4.16253,0.14392 11.56401,2.00011 6.44693,1.6168 19.19188,5.08743 31.57519,10.65288 6.39996,2.88025 13.54047,6.69581 20.49438,11.78826 6.21508,4.55508 12.41841,10.2836 17.87502,17.31119 5.41421,6.99006 10.01721,15.16124 13.48406,24.33621 3.79504,10.05666 6.20606,20.96447 7.41106,32.59423 3.0883,29.99822 -0.91581,60.90186 -9.0305,95.28637 0,10e-6 -10e-6,2e-5 -10e-6,3e-5 -2.22061,9.62109 -3.81489,19.59655 -3.41784,29.3891 0.29591,6.66853 1.38992,13.29683 4.11619,18.97001 2.03721,4.33008 5.04468,8.26416 8.78506,11.21178 3.39798,2.73242 7.54639,4.75578 12.01406,6.19127 4.294,1.3701 8.90149,2.12606 13.66377,2.47525 4.21778,0.30155 8.5178,0.24478 12.85978,-0.0917 3.1619,-0.24791 6.31531,-0.64244 9.43935,-1.20006 0,0 3e-5,0 3e-5,0 0.89701,-0.16032 1.77659,-0.33035 2.6359,-0.51725 0,0 3e-5,0 3e-5,0 0.22963,-0.0499 0.44952,-0.099 0.65931,-0.14828 0.079,-0.0184 0.15584,-0.0363 0.23043,-0.0541 0.0191,-0.005 0.038,-0.009 0.0568,-0.0136 0.007,-0.002 0.0137,-0.003 0.0204,-0.005 0.0185,-0.004 0.0278,-0.006 0.0371,-0.008 10e-6,0 10e-6,0 10e-6,0 0.01,-0.002 0.0322,-0.008 0.068,-0.0157 0.0168,-0.003 0.059,-0.0151 0.12694,-0.0333 0.26232,-0.0701 0.56895,-0.17516 0.92218,-0.3033 1.34106,-0.48504 2.71124,-1.19388 4.12313,-2.03077 4.42704,-2.59975 8.34584,-6.36065 11.90732,-10.70122 0.8308,-1.01254 1.63973,-2.05364 2.42846,-3.1146 7.60111,-10.30755 12.58927,-22.64577 16.39774,-35.14317 6.5734,-21.75743 9.18761,-44.58574 10.41299,-66.3454 1.14443,-20.86452 0.13113,-40.8449 -3.17609,-59.7418 0,0 -10e-6,-3e-5 -10e-6,-3e-5 -3.03859,-17.38066 -7.9526,-33.53275 -14.37825,-48.19129 -6.2246,-14.20992 -13.80863,-26.91219 -22.02919,-38.00739 -8.32642,-11.24074 -17.32776,-20.87946 -26.17958,-29.01249 -18.74955,-17.25355 -37.38011,-28.3314 -50.32134,-35.1509 0,0 -10e-6,0 -10e-6,0 -15.1852,-6.73266 -23.39261,-10.79554 -23.09311,-11.55915 z"
           id="path2642"
           inkscape:path-effect="#path-effect2644"
           inkscape:original-d="m 448.00793,249.88422 c 0,0 154.5222,42.27558 145.4945,221.98039 -5.78467,115.14922 -51.28827,123.79815 -51.28827,123.79815 0,0 -91.82038,22.89037 -68.42225,-74.05344 37.58774,-155.7346 -33.28283,-175.51076 -87.46676,-192.54371"
           class="UnoptimicedTransforms"
           sodipodi:nodetypes="cscsc" />
      </g>
    </g>
  </g>
</svg>
