<?xml version="1.0" encoding="UTF-8" standalone="no"?>
<!-- Created with Inkscape (http://www.inkscape.org/) -->

<svg
   width="512"
   height="512"
   viewBox="0 0 512 512.00002"
   version="1.1"
   id="svg5"
   inkscape:version="1.2.2 (b0a8486541, 2022-12-01)"
   sodipodi:docname="disappointed.svg"
   inkscape:export-filename="../../../../static/icons/avatars/ezran/disappointed.webp"
   inkscape:export-xdpi="96"
   inkscape:export-ydpi="96"
   xmlns:inkscape="http://www.inkscape.org/namespaces/inkscape"
   xmlns:sodipodi="http://sodipodi.sourceforge.net/DTD/sodipodi-0.dtd"
   xmlns="http://www.w3.org/2000/svg"
   xmlns:svg="http://www.w3.org/2000/svg">
  <sodipodi:namedview
     id="namedview7"
     pagecolor="#ffffff"
     bordercolor="#000000"
     borderopacity="0.25"
     inkscape:showpageshadow="2"
     inkscape:pageopacity="0.0"
     inkscape:pagecheckerboard="0"
     inkscape:deskcolor="#d1d1d1"
     inkscape:document-units="px"
     showgrid="false"
     inkscape:zoom="1.0892066"
     inkscape:cx="162.50361"
     inkscape:cy="122.10723"
     inkscape:window-width="1366"
     inkscape:window-height="699"
     inkscape:window-x="0"
     inkscape:window-y="0"
     inkscape:window-maximized="1"
     inkscape:current-layer="layer1" />
  <defs
     id="defs2">
    <inkscape:path-effect
       effect="skeletal"
       id="path-effect1278"
       is_visible="true"
       lpeversion="1"
       pattern="M 0,18.867925 C 0,8.4528302 8.4528302,0 18.867925,0 c 10.415094,0 18.867924,8.4528302 18.867924,18.867925 0,10.415094 -8.45283,18.867924 -18.867924,18.867924 C 8.4528302,37.735849 0,29.283019 0,18.867925 Z"
       copytype="single_stretched"
       prop_scale="-0.053077222"
       scale_y_rel="false"
       spacing="0"
       normal_offset="0"
       tang_offset="0"
       prop_units="false"
       vertical_pattern="false"
       hide_knot="false"
       fuse_tolerance="0" />
    <inkscape:path-effect
       effect="skeletal"
       id="path-effect1274"
       is_visible="true"
       lpeversion="1"
       pattern="M 0,18.867925 C 0,8.4528302 8.4528302,0 18.867925,0 c 10.415094,0 18.867924,8.4528302 18.867924,18.867925 0,10.415094 -8.45283,18.867924 -18.867924,18.867924 C 8.4528302,37.735849 0,29.283019 0,18.867925 Z"
       copytype="single_stretched"
       prop_scale="-0.053077222"
       scale_y_rel="false"
       spacing="0"
       normal_offset="0"
       tang_offset="0"
       prop_units="false"
       vertical_pattern="false"
       hide_knot="false"
       fuse_tolerance="0" />
    <inkscape:path-effect
       effect="skeletal"
       id="path-effect1270"
       is_visible="true"
       lpeversion="1"
       pattern="M 0,18.867925 C 0,8.4528302 8.4528302,0 18.867925,0 c 10.415094,0 18.867924,8.4528302 18.867924,18.867925 0,10.415094 -8.45283,18.867924 -18.867924,18.867924 C 8.4528302,37.735849 0,29.283019 0,18.867925 Z"
       copytype="single_stretched"
       prop_scale="-0.053077222"
       scale_y_rel="false"
       spacing="0"
       normal_offset="0"
       tang_offset="0"
       prop_units="false"
       vertical_pattern="false"
       hide_knot="false"
       fuse_tolerance="0" />
    <inkscape:path-effect
       effect="skeletal"
       id="path-effect1266"
       is_visible="true"
       lpeversion="1"
       pattern="M 0,18.867925 C 0,8.4528302 8.4528302,0 18.867925,0 c 10.415094,0 18.867924,8.4528302 18.867924,18.867925 0,10.415094 -8.45283,18.867924 -18.867924,18.867924 C 8.4528302,37.735849 0,29.283019 0,18.867925 Z"
       copytype="single_stretched"
       prop_scale="-0.053077222"
       scale_y_rel="false"
       spacing="0"
       normal_offset="0"
       tang_offset="0"
       prop_units="false"
       vertical_pattern="false"
       hide_knot="false"
       fuse_tolerance="0" />
    <inkscape:path-effect
       effect="skeletal"
       id="path-effect1152"
       is_visible="true"
       lpeversion="1"
       pattern="M 0,18.867925 C 0,8.4528302 8.4528302,0 18.867925,0 c 10.415094,0 18.867924,8.4528302 18.867924,18.867925 0,10.415094 -8.45283,18.867924 -18.867924,18.867924 C 8.4528302,37.735849 0,29.283019 0,18.867925 Z"
       copytype="single_stretched"
       prop_scale="0.032276144"
       scale_y_rel="false"
       spacing="0"
       normal_offset="0"
       tang_offset="0"
       prop_units="false"
       vertical_pattern="false"
       hide_knot="false"
       fuse_tolerance="0" />
    <inkscape:path-effect
       effect="skeletal"
       id="path-effect1148"
       is_visible="true"
       lpeversion="1"
       pattern="M 0,18.867925 C 0,8.4528302 8.4528302,0 18.867925,0 c 10.415094,0 18.867924,8.4528302 18.867924,18.867925 0,10.415094 -8.45283,18.867924 -18.867924,18.867924 C 8.4528302,37.735849 0,29.283019 0,18.867925 Z"
       copytype="single_stretched"
       prop_scale="0.12368894"
       scale_y_rel="false"
       spacing="0"
       normal_offset="0"
       tang_offset="0"
       prop_units="false"
       vertical_pattern="false"
       hide_knot="false"
       fuse_tolerance="0" />
    <inkscape:path-effect
       effect="skeletal"
       id="path-effect1144"
       is_visible="true"
       lpeversion="1"
       pattern="M 0,18.867925 C 0,8.4528302 8.4528302,0 18.867925,0 c 10.415094,0 18.867924,8.4528302 18.867924,18.867925 0,10.415094 -8.45283,18.867924 -18.867924,18.867924 C 8.4528302,37.735849 0,29.283019 0,18.867925 Z"
       copytype="single_stretched"
       prop_scale="0.030472735"
       scale_y_rel="false"
       spacing="0"
       normal_offset="0"
       tang_offset="0"
       prop_units="false"
       vertical_pattern="false"
       hide_knot="false"
       fuse_tolerance="0" />
    <inkscape:path-effect
       effect="skeletal"
       id="path-effect1140"
       is_visible="true"
       lpeversion="1"
       pattern="M 0,18.867925 C 0,8.4528302 8.4528302,0 18.867925,0 c 10.415094,0 18.867924,8.4528302 18.867924,18.867925 0,10.415094 -8.45283,18.867924 -18.867924,18.867924 C 8.4528302,37.735849 0,29.283019 0,18.867925 Z"
       copytype="single_stretched"
       prop_scale="0.14047326"
       scale_y_rel="false"
       spacing="0"
       normal_offset="0"
       tang_offset="0"
       prop_units="false"
       vertical_pattern="false"
       hide_knot="false"
       fuse_tolerance="0" />
    <inkscape:path-effect
       effect="skeletal"
       id="path-effect1136"
       is_visible="true"
       lpeversion="1"
       pattern="M 0,18.867925 C 0,8.4528302 8.4528302,0 18.867925,0 c 10.415094,0 18.867924,8.4528302 18.867924,18.867925 0,10.415094 -8.45283,18.867924 -18.867924,18.867924 C 8.4528302,37.735849 0,29.283019 0,18.867925 Z"
       copytype="single_stretched"
       prop_scale="0.14047326"
       scale_y_rel="false"
       spacing="0"
       normal_offset="0"
       tang_offset="0"
       prop_units="false"
       vertical_pattern="false"
       hide_knot="false"
       fuse_tolerance="0" />
    <inkscape:path-effect
       effect="skeletal"
       id="path-effect1132"
       is_visible="true"
       lpeversion="1"
       pattern="M 0,18.867925 C 0,8.4528302 8.4528302,0 18.867925,0 c 10.415094,0 18.867924,8.4528302 18.867924,18.867925 0,10.415094 -8.45283,18.867924 -18.867924,18.867924 C 8.4528302,37.735849 0,29.283019 0,18.867925 Z"
       copytype="single_stretched"
       prop_scale="0.14047326"
       scale_y_rel="false"
       spacing="0"
       normal_offset="0"
       tang_offset="0"
       prop_units="false"
       vertical_pattern="false"
       hide_knot="false"
       fuse_tolerance="0" />
    <inkscape:path-effect
       effect="skeletal"
       id="path-effect1128"
       is_visible="true"
       lpeversion="1"
       pattern="M 0,18.867925 C 0,8.4528302 8.4528302,0 18.867925,0 c 10.415094,0 18.867924,8.4528302 18.867924,18.867925 0,10.415094 -8.45283,18.867924 -18.867924,18.867924 C 8.4528302,37.735849 0,29.283019 0,18.867925 Z"
       copytype="single_stretched"
       prop_scale="0.14047326"
       scale_y_rel="false"
       spacing="0"
       normal_offset="0"
       tang_offset="0"
       prop_units="false"
       vertical_pattern="false"
       hide_knot="false"
       fuse_tolerance="0" />
    <inkscape:path-effect
       effect="skeletal"
       id="path-effect1072"
       is_visible="true"
       lpeversion="1"
       pattern="M 0,18.867925 C 0,8.4528302 8.4528302,0 18.867925,0 c 10.415094,0 18.867924,8.4528302 18.867924,18.867925 0,10.415094 -8.45283,18.867924 -18.867924,18.867924 C 8.4528302,37.735849 0,29.283019 0,18.867925 Z"
       copytype="single_stretched"
       prop_scale="0.14047326"
       scale_y_rel="false"
       spacing="0"
       normal_offset="0"
       tang_offset="0"
       prop_units="false"
       vertical_pattern="false"
       hide_knot="false"
       fuse_tolerance="0" />
    <inkscape:path-effect
       effect="skeletal"
       id="path-effect1068"
       is_visible="true"
       lpeversion="1"
       pattern="M 0,18.867925 C 0,8.4528302 8.4528302,0 18.867925,0 c 10.415094,0 18.867924,8.4528302 18.867924,18.867925 0,10.415094 -8.45283,18.867924 -18.867924,18.867924 C 8.4528302,37.735849 0,29.283019 0,18.867925 Z"
       copytype="single_stretched"
       prop_scale="0.14047326"
       scale_y_rel="false"
       spacing="0"
       normal_offset="0"
       tang_offset="0"
       prop_units="false"
       vertical_pattern="false"
       hide_knot="false"
       fuse_tolerance="0" />
    <inkscape:path-effect
       effect="skeletal"
       id="path-effect1064"
       is_visible="true"
       lpeversion="1"
       pattern="M 0,18.867925 C 0,8.4528302 8.4528302,0 18.867925,0 c 10.415094,0 18.867924,8.4528302 18.867924,18.867925 0,10.415094 -8.45283,18.867924 -18.867924,18.867924 C 8.4528302,37.735849 0,29.283019 0,18.867925 Z"
       copytype="single_stretched"
       prop_scale="0.14047326"
       scale_y_rel="false"
       spacing="0"
       normal_offset="0"
       tang_offset="0"
       prop_units="false"
       vertical_pattern="false"
       hide_knot="false"
       fuse_tolerance="0" />
    <inkscape:path-effect
       effect="skeletal"
       id="path-effect1060"
       is_visible="true"
       lpeversion="1"
       pattern="M 0,18.867925 C 0,8.4528302 8.4528302,0 18.867925,0 c 10.415094,0 18.867924,8.4528302 18.867924,18.867925 0,10.415094 -8.45283,18.867924 -18.867924,18.867924 C 8.4528302,37.735849 0,29.283019 0,18.867925 Z"
       copytype="single_stretched"
       prop_scale="0.14047326"
       scale_y_rel="false"
       spacing="0"
       normal_offset="0"
       tang_offset="0"
       prop_units="false"
       vertical_pattern="false"
       hide_knot="false"
       fuse_tolerance="0" />
    <inkscape:path-effect
       effect="skeletal"
       id="path-effect1056"
       is_visible="true"
       lpeversion="1"
       pattern="M 0,18.867925 C 0,8.4528302 8.4528302,0 18.867925,0 c 10.415094,0 18.867924,8.4528302 18.867924,18.867925 0,10.415094 -8.45283,18.867924 -18.867924,18.867924 C 8.4528302,37.735849 0,29.283019 0,18.867925 Z"
       copytype="single_stretched"
       prop_scale="0.14047326"
       scale_y_rel="false"
       spacing="0"
       normal_offset="0"
       tang_offset="0"
       prop_units="false"
       vertical_pattern="false"
       hide_knot="false"
       fuse_tolerance="0" />
    <inkscape:path-effect
       effect="skeletal"
       id="path-effect2644"
       is_visible="true"
       lpeversion="1"
       pattern="M 0,18.867925 C 0,8.4528302 8.4528302,0 18.867925,0 c 10.415094,0 18.867924,8.4528302 18.867924,18.867925 0,10.415094 -8.45283,18.867924 -18.867924,18.867924 C 8.4528302,37.735849 0,29.283019 0,18.867925 Z"
       copytype="single_stretched"
       prop_scale="0.34965791"
       scale_y_rel="false"
       spacing="0"
       normal_offset="0"
       tang_offset="0"
       prop_units="false"
       vertical_pattern="false"
       hide_knot="false"
       fuse_tolerance="0" />
    <inkscape:path-effect
       effect="skeletal"
       id="path-effect2640"
       is_visible="true"
       lpeversion="1"
       pattern="M 0,18.867925 C 0,8.4528302 8.4528302,0 18.867925,0 c 10.415094,0 18.867924,8.4528302 18.867924,18.867925 0,10.415094 -8.45283,18.867924 -18.867924,18.867924 C 8.4528302,37.735849 0,29.283019 0,18.867925 Z"
       copytype="single_stretched"
       prop_scale="0.34965791"
       scale_y_rel="false"
       spacing="0"
       normal_offset="0"
       tang_offset="0"
       prop_units="false"
       vertical_pattern="false"
       hide_knot="false"
       fuse_tolerance="0" />
    <inkscape:path-effect
       effect="skeletal"
       id="path-effect2636"
       is_visible="true"
       lpeversion="1"
       pattern="M 0,18.867925 C 0,8.4528302 8.4528302,0 18.867925,0 c 10.415094,0 18.867924,8.4528302 18.867924,18.867925 0,10.415094 -8.45283,18.867924 -18.867924,18.867924 C 8.4528302,37.735849 0,29.283019 0,18.867925 Z"
       copytype="single_stretched"
       prop_scale="0.34965791"
       scale_y_rel="false"
       spacing="0"
       normal_offset="0"
       tang_offset="0"
       prop_units="false"
       vertical_pattern="false"
       hide_knot="false"
       fuse_tolerance="0" />
    <inkscape:path-effect
       effect="skeletal"
       id="path-effect2632"
       is_visible="true"
       lpeversion="1"
       pattern="M 0,18.867925 C 0,8.4528302 8.4528302,0 18.867925,0 c 10.415094,0 18.867924,8.4528302 18.867924,18.867925 0,10.415094 -8.45283,18.867924 -18.867924,18.867924 C 8.4528302,37.735849 0,29.283019 0,18.867925 Z"
       copytype="single_stretched"
       prop_scale="0.34965791"
       scale_y_rel="false"
       spacing="0"
       normal_offset="0"
       tang_offset="0"
       prop_units="false"
       vertical_pattern="false"
       hide_knot="false"
       fuse_tolerance="0" />
    <inkscape:path-effect
       effect="skeletal"
       id="path-effect2628"
       is_visible="true"
       lpeversion="1"
       pattern="M 0,18.867925 C 0,8.4528302 8.4528302,0 18.867925,0 c 10.415094,0 18.867924,8.4528302 18.867924,18.867925 0,10.415094 -8.45283,18.867924 -18.867924,18.867924 C 8.4528302,37.735849 0,29.283019 0,18.867925 Z"
       copytype="single_stretched"
       prop_scale="0.34965791"
       scale_y_rel="false"
       spacing="0"
       normal_offset="0"
       tang_offset="0"
       prop_units="false"
       vertical_pattern="false"
       hide_knot="false"
       fuse_tolerance="0" />
    <inkscape:path-effect
       effect="skeletal"
       id="path-effect2624"
       is_visible="true"
       lpeversion="1"
       pattern="M 0,18.867925 C 0,8.4528302 8.4528302,0 18.867925,0 c 10.415094,0 18.867924,8.4528302 18.867924,18.867925 0,10.415094 -8.45283,18.867924 -18.867924,18.867924 C 8.4528302,37.735849 0,29.283019 0,18.867925 Z"
       copytype="single_stretched"
       prop_scale="0.34965791"
       scale_y_rel="false"
       spacing="0"
       normal_offset="0"
       tang_offset="0"
       prop_units="false"
       vertical_pattern="false"
       hide_knot="false"
       fuse_tolerance="0" />
    <inkscape:path-effect
       effect="skeletal"
       id="path-effect2615"
       is_visible="true"
       lpeversion="1"
       pattern="M 0,18.867925 C 0,8.4528302 8.4528302,0 18.867925,0 c 10.415094,0 18.867924,8.4528302 18.867924,18.867925 0,10.415094 -8.45283,18.867924 -18.867924,18.867924 C 8.4528302,37.735849 0,29.283019 0,18.867925 Z"
       copytype="single_stretched"
       prop_scale="0.63609496"
       scale_y_rel="false"
       spacing="0"
       normal_offset="0"
       tang_offset="0"
       prop_units="false"
       vertical_pattern="false"
       hide_knot="false"
       fuse_tolerance="0" />
    <inkscape:path-effect
       effect="skeletal"
       id="path-effect2611"
       is_visible="true"
       lpeversion="1"
       pattern="M 0,18.867925 C 0,8.4528302 8.4528302,0 18.867925,0 c 10.415094,0 18.867924,8.4528302 18.867924,18.867925 0,10.415094 -8.45283,18.867924 -18.867924,18.867924 C 8.4528302,37.735849 0,29.283019 0,18.867925 Z"
       copytype="single_stretched"
       prop_scale="-0.2289063"
       scale_y_rel="false"
       spacing="0"
       normal_offset="0"
       tang_offset="0"
       prop_units="false"
       vertical_pattern="false"
       hide_knot="false"
       fuse_tolerance="0" />
    <inkscape:path-effect
       effect="skeletal"
       id="path-effect2599"
       is_visible="true"
       lpeversion="1"
       pattern="M 0,18.867925 C 0,8.4528302 8.4528302,0 18.867925,0 c 10.415094,0 18.867924,8.4528302 18.867924,18.867925 0,10.415094 -8.45283,18.867924 -18.867924,18.867924 C 8.4528302,37.735849 0,29.283019 0,18.867925 Z"
       copytype="single_stretched"
       prop_scale="0.63609496"
       scale_y_rel="false"
       spacing="0"
       normal_offset="0"
       tang_offset="0"
       prop_units="false"
       vertical_pattern="false"
       hide_knot="false"
       fuse_tolerance="0" />
    <inkscape:path-effect
       effect="skeletal"
       id="path-effect2595"
       is_visible="true"
       lpeversion="1"
       pattern="M 0,18.867925 C 0,8.4528302 8.4528302,0 18.867925,0 c 10.415094,0 18.867924,8.4528302 18.867924,18.867925 0,10.415094 -8.45283,18.867924 -18.867924,18.867924 C 8.4528302,37.735849 0,29.283019 0,18.867925 Z"
       copytype="single_stretched"
       prop_scale="0.63609496"
       scale_y_rel="false"
       spacing="0"
       normal_offset="0"
       tang_offset="0"
       prop_units="false"
       vertical_pattern="false"
       hide_knot="false"
       fuse_tolerance="0" />
    <inkscape:path-effect
       effect="skeletal"
       id="path-effect2591"
       is_visible="true"
       lpeversion="1"
       pattern="M 0,18.867925 C 0,8.4528302 8.4528302,0 18.867925,0 c 10.415094,0 18.867924,8.4528302 18.867924,18.867925 0,10.415094 -8.45283,18.867924 -18.867924,18.867924 C 8.4528302,37.735849 0,29.283019 0,18.867925 Z"
       copytype="single_stretched"
       prop_scale="0.63609496"
       scale_y_rel="false"
       spacing="0"
       normal_offset="0"
       tang_offset="0"
       prop_units="false"
       vertical_pattern="false"
       hide_knot="false"
       fuse_tolerance="0" />
    <inkscape:path-effect
       effect="skeletal"
       id="path-effect1942"
       is_visible="true"
       lpeversion="1"
       pattern="M 0,18.867925 C 0,8.4528302 8.4528302,0 18.867925,0 c 10.415094,0 18.867924,8.4528302 18.867924,18.867925 0,10.415094 -8.45283,18.867924 -18.867924,18.867924 C 8.4528302,37.735849 0,29.283019 0,18.867925 Z"
       copytype="single_stretched"
       prop_scale="0.34965791"
       scale_y_rel="false"
       spacing="0"
       normal_offset="0"
       tang_offset="0"
       prop_units="false"
       vertical_pattern="false"
       hide_knot="false"
       fuse_tolerance="0" />
  </defs>
  <g
     inkscape:label="Layer 1"
     inkscape:groupmode="layer"
     id="layer1">
    <rect
       style="fill:#ffffff;fill-opacity:1;stroke-width:0.408162"
       id="rect2758"
       width="976.20673"
       height="773.77045"
       x="-205.96277"
       y="-654.8728"
       transform="scale(1,-1)" />
    <path
       style="fill:#000000;fill-opacity:1;stroke:none;stroke-width:0.5"
       d="m 116.45285,95.856812 c 1.83842,0.689041 -5.95584,25.126808 -17.336805,63.908798 0,0 -3e-6,1e-5 -3e-6,1e-5 -3.970309,13.53256 -8.71331,30.07023 -12.665245,46.92511 -2.403888,10.2804 -4.767412,21.36899 -5.974768,32.46841 -0.665979,6.61261 -1.216888,13.18991 -0.07603,19.03745 0.365143,1.78625 0.753369,3.34631 1.395865,4.4685 0.472402,0.77606 0.872624,1.38863 1.229869,1.54941 0.224906,0.20579 0.720012,0.34075 1.272043,0.42285 0,0 5e-6,0 5e-6,0 0.74363,0.12935 1.789425,-0.0543 3.055282,-0.32536 1.064183,-0.25349 2.170644,-0.65546 3.326856,-1.1525 0.532893,-0.22908 1.075027,-0.47779 1.626259,-0.74024 2.108472,-1.01969 4.19609,-2.26838 6.286064,-3.62924 l 0,0 c 5.295387,-3.45104 10.309207,-7.5541 15.158967,-11.77565 6.04306,-5.27339 11.80622,-10.83619 17.284,-16.34393 l 0,0 c 6.3953,-6.43254 12.51794,-12.93967 18.2744,-19.21729 0,0 1e-5,-1e-5 1e-5,-1e-5 l 0,0 c 13.23512,-14.43373 25.62892,-28.86421 35.59147,-40.55572 l 0,0 c 11.87439,-13.93602 20.8282,-24.63743 27.95638,-32.80672 l 0,0 c 3.6601,-4.1947 6.60177,-7.44468 8.7257,-9.57897 l 0,0 c 1.08997,-1.09528 1.97064,-1.90311 2.62862,-2.40219 l 0,0 c 0.33276,-0.25241 0.60928,-0.42637 0.82784,-0.51939 l 0,0 c 0,0 0,0 0,0 0.17701,0.002 0.28919,-0.0121 0.36185,-0.0236 0,0 0,0 0,0 0.0531,0.006 0.0836,0.004 0.10087,6.3e-4 0,0 0,0 0,0 0.009,-0.002 0.014,-0.004 0.0171,-0.006 0.004,-0.003 0.004,-0.003 0.004,-0.003 0,0 0,0 0.001,9.1e-4 -0.004,0.008 -0.004,0.0135 -0.003,0.0223 0,0 0,0 0,0 0.002,0.0176 0.01,0.0472 0.0322,0.0956 0,0 0,0 0,0 0.0118,0.0726 0.0338,0.18381 0.0904,0.35146 0,0 0,1e-5 0,1e-5 l 0,0 c -0.0205,0.23721 -0.10059,0.55447 -0.23899,0.94974 l 0,0 c -0.27402,0.78264 -0.77578,1.86803 -1.49802,3.2407 l 0,0 c -1.41158,2.68282 -3.65283,6.44068 -6.67733,11.15385 l 0,0 c -5.63723,8.78474 -14.10509,21.06128 -24.87188,35.47553 l 0,0 c -9.36736,12.54174 -20.96127,27.372 -34.07209,42.5837 l 0,0 -1e-5,1e-5 0,0 c -5.6531,6.55908 -11.72549,13.34346 -18.1728,20.08704 l 0,0 c -5.51067,5.76604 -11.41256,11.63024 -17.73462,17.27048 -5.03079,4.49916 -10.49751,9.00963 -16.55194,13.01411 l 0,0 c -2.40028,1.58871 -4.97131,3.11941 -7.741792,4.4768 -0.714041,0.35401 -1.453715,0.69664 -2.219308,1.02209 -1.660852,0.70602 -3.433905,1.32706 -5.323814,1.80952 -2.250497,0.60497 -4.840651,0.88676 -7.674463,0.62545 0,0 -2.6e-5,0 -2.6e-5,0 -2.575154,-0.25937 -5.13238,-1.1889 -7.456283,-2.79171 -2.431017,-1.81786 -4.168699,-3.98784 -5.262211,-6.22237 -1.425913,-2.8545 -2.218568,-5.66989 -2.625045,-8.25234 -1.323076,-8.10379 -0.703497,-15.89044 0.235226,-22.81877 1.526054,-11.96472 4.246241,-23.46127 7.039868,-33.88615 4.619698,-17.28395 10.073417,-33.5495 14.931906,-47.06253 10e-7,0 3e-6,0 4e-6,-1e-5 13.790668,-38.36642 24.883568,-61.535679 26.721988,-60.846638 z"
       id="path1940"
       inkscape:path-effect="#path-effect1942"
       inkscape:original-d="M 116.45285,95.856812 C -24.661992,472.3629 225.52373,125.55808 225.52373,125.55808"
       class="UnoptimicedTransforms"
       transform="matrix(0.66939245,0,0,0.66939245,-40.243376,58.263257)"
       sodipodi:nodetypes="cc" />
    <path
       style="fill:#000000;fill-opacity:1;stroke:none;stroke-width:0.5"
       d="m 212.15717,93.621632 c 0.53464,-1.611236 6.38189,-1.144693 16.49508,-0.47579 11.76249,0.77799 22.94683,1.21554 42.72886,0.685021 0,-10e-7 1e-5,0 1e-5,0 24.8263,0.571076 53.29665,0.1623 87.79207,-2.821032 -0.18917,18.489509 -0.42358,38.463939 -0.7215,58.747059 -0.002,-4e-5 -5.00205,-0.1196 -5.00396,-0.11965 -63.75525,-1.54609 -123.29979,-3.80092 -158.55209,-5.63649 4.02328,-31.82836 9.47748,-48.765021 12.37008,-48.219193 2.8926,0.545829 1.94929,17.512643 -4.63978,41.924113 34.12307,-0.618 86.06578,-0.94229 139.75619,-0.43217 -0.002,-2e-5 4.29109,0.0425 4.28864,0.0425 0.89494,-11.98416 1.84994,-23.95454 2.76368,-35.3051 -29.89413,7.30072 -55.72598,9.97925 -78.57781,9.10505 0,0 -1e-5,0 -1e-5,0 -19.36214,-1.65519 -33.61977,-4.79912 -44.20455,-8.64381 -10.08351,-3.66261 -15.02955,-7.239241 -14.49491,-8.850478 z"
       id="path2597"
       inkscape:path-effect="#path-effect2599"
       inkscape:original-d="m 212.15717,93.621632 c 29.66133,9.842128 80.18769,12.799668 142.14665,2.888718 l -1.74259,47.02608 -153.80044,-2.68322 8.50493,-45.071644"
       class="UnoptimicedTransforms"
       transform="matrix(0.63469609,0,0,0.63469609,1.3484415,77.59528)"
       sodipodi:nodetypes="ccccc" />
    <path
       style="fill:#000000;fill-opacity:1;stroke:none;stroke-width:0.5"
       d="m 359.5298,101.21372 c 0.0754,2.38289 20.38527,3.6764 45.33461,2.88729 24.94934,-0.7891 45.13691,-3.36347 45.06155,-5.746364 -0.0754,-2.382889 -20.38528,-3.676395 -45.33461,-2.887291 -24.94934,0.789104 -45.13692,3.363476 -45.06155,5.746365 z"
       id="path2609"
       inkscape:path-effect="#path-effect2611"
       inkscape:original-d="m 359.5298,101.21372 90.39614,-2.859073"
       class="UnoptimicedTransforms"
       transform="matrix(0.63469609,0,0,0.63469609,-1.4911429,89.731123)" />
    <path
       style="fill:#000000;fill-opacity:1;stroke:none;stroke-width:0.5"
       d="m 447.70174,98.368625 c 0.74541,-2.729868 16.04292,-0.476254 42.02574,1.420741 26.65161,1.945824 62.14601,2.787594 104.14095,-3.630637 0,-3e-6 2e-5,-2e-6 2e-5,-2e-6 -0.28491,17.205013 -0.61616,35.679763 -1.00652,54.365763 2.5e-4,-0.0121 -0.0891,4.22052 -0.0889,4.20838 -62.62853,-2.59728 -117.4794,-5.72059 -151.44786,-8.51101 -0.89172,-29.28352 1.35902,-44.82436 4.38519,-44.78971 3.04515,0.0349 4.90566,15.25955 3.44451,37.36737 33.22312,0.03 79.94383,1.17155 132.13422,3.39417 0.001,-0.0119 0.21816,-2.49541 0.2192,-2.50731 0.97141,-11.0609 2.0001,-22.11466 2.98336,-32.61589 0,0 -10e-6,0 -10e-6,0 -40.0669,9.94891 -73.92079,9.64049 -99.09243,5.36572 -24.50376,-4.16135 -38.44292,-11.33772 -37.69751,-14.067585 z"
       id="path2613"
       inkscape:path-effect="#path-effect2615"
       inkscape:original-d="m 447.70174,98.368625 c 47.15944,12.877285 94.31889,12.652025 141.47833,3.245985 l -2.14897,46.84867 -141.79104,-5.95259 0.47034,-41.07853"
       class="UnoptimicedTransforms"
       transform="matrix(0.63469609,0,0,0.63469609,1.3484415,77.59528)"
       sodipodi:nodetypes="ccccc" />
    <path
       style="fill:#000000;fill-opacity:1;stroke:none;stroke-width:0.5"
       d="m 690.53122,82.9728 c 1.3429,-0.501877 9.91831,18.65265 23.38733,51.60033 5.83798,14.77706 12.61439,32.70119 19.67134,52.73243 6.24424,17.72393 12.96286,37.7939 19.33388,59.05535 0,0 0,2e-5 0,2e-5 5.28106,17.617 10.61029,36.86069 14.85293,56.76822 1.71913,8.06451 3.28461,16.397 4.46282,24.90568 0.95696,6.87171 1.68312,14.01769 1.77643,21.33411 0.103,5.39997 -0.19085,11.23304 -1.66256,17.18827 0,0 -10e-6,3e-5 -10e-6,3e-5 -0.55635,2.26645 -1.40474,4.65125 -2.67674,7.03614 -0.41619,0.79371 -0.9049,1.58179 -1.46922,2.35265 -0.87619,1.1969 -1.93248,2.34938 -3.17838,3.4155 -2.00043,1.64703 -4.32384,2.7941 -6.81893,3.38087 0,0 -4e-5,1e-5 -4e-5,1e-5 -2.78712,0.60074 -5.4196,0.5992 -7.76164,0.18474 -2.97199,-0.50078 -5.64636,-1.3962 -8.01172,-2.45982 0,0 -2e-5,-1e-5 -2e-5,-1e-5 -3.10992,-1.37466 -5.95565,-3.00165 -8.577,-4.71012 -46.41135,-30.00799 -82.72538,-58.29481 -112.21572,-91.0295 -11.04721,-12.2631 -20.03983,-24.20759 -27.19141,-36.38567 -6.13346,-10.42971 -10.44511,-20.39353 -13.10379,-30.07824 -2.36915,-8.61896 -3.18863,-16.49354 -2.8784,-23.51018 0.33795,-6.76528 1.71054,-12.38194 3.39739,-16.78025 5.04058,-8.34832 7.92346,-12.47576 8.50142,-12.08708 0.004,0.002 0.003,0.002 0.002,0.002 -5.8e-4,-4e-4 -0.001,-8.1e-4 0.002,0.002 0.56392,0.41339 -1.20844,5.30042 -4.77759,13.61248 -0.98562,4.18846 -1.61417,9.26765 -1.313,15.26854 0.27163,6.41419 1.57233,13.46263 4.24217,21.29511 3.00902,8.81898 7.51687,17.80383 13.75633,27.45145 7.294,11.26239 16.27422,22.27037 27.3169,33.8363 29.68331,31.09387 65.15628,57.64014 111.37996,87.36284 2.25176,1.43371 4.48428,2.71972 6.7302,3.68543 0,0 2e-5,10e-6 2e-5,10e-6 1.72878,0.72541 3.33647,1.30231 4.80311,1.50507 1.11328,0.13321 2.05802,0.19193 2.6923,-0.008 0,0 10e-6,0 10e-6,0 0.50597,-0.11555 1.02417,-0.3694 1.40582,-0.6964 0.29626,-0.21188 0.589,-0.5548 0.88899,-0.98711 0.19318,-0.27839 0.38913,-0.59348 0.59047,-0.93348 0.61573,-1.08074 1.06789,-2.45176 1.48423,-3.99099 0,0 0,-2e-5 0,-2e-5 1.11602,-4.16956 1.28874,-8.87886 1.28738,-13.78885 -0.0468,-6.53021 -0.69975,-13.14464 -1.55907,-19.71981 -1.06612,-8.10731 -2.51246,-16.15717 -4.1055,-24.04041 -3.93071,-19.44561 -8.90473,-38.51921 -13.7717,-56.0622 0,-1e-5 0,-2e-5 0,-2e-5 -5.858,-21.10692 -12.02422,-41.35307 -17.59054,-59.1289 -6.24006,-19.9284 -12.2902,-38.48931 -17.13187,-53.3292 -11.42603,-33.6649 -17.51425,-53.746885 -16.17142,-54.24874 z"
       id="path2626"
       inkscape:path-effect="#path-effect2628"
       inkscape:original-d="m 690.53122,82.972798 c 0,0 135.41096,344.343542 46.88802,287.264002 C 526.84903,234.46123 590.37161,165.88797 590.37161,165.88797"
       class="UnoptimicedTransforms"
       sodipodi:nodetypes="csc"
       transform="matrix(0.63469609,0,0,0.63469609,25.171116,65.270375)" />
    <path
       style="fill:#000000;fill-opacity:1;stroke:none;stroke-width:0.5"
       d="m 361.14917,202.66933 c -0.26124,-0.83164 3.79557,-2.97811 11.42995,-6.17438 0,0 0,-10e-6 0,-10e-6 6.81222,-2.54921 17.17791,-5.67082 29.87162,-7.51405 10.76547,-1.57282 24.30815,-2.34803 38.60031,0.24638 6.39273,1.16685 13.0596,3.09097 19.60206,6.0849 6.29222,2.88466 12.42632,6.80344 17.93756,11.83365 3.25946,2.94493 6.53592,6.38924 9.33516,10.52688 1.99339,2.86394 3.70795,6.41093 4.53321,10.61401 0.62337,3.43218 0.30749,7.08502 -1.07418,10.57745 0,0 -1e-5,2e-5 -1e-5,2e-5 -1.4844,3.43725 -3.65037,6.21679 -6.1044,8.30279 -2.86247,2.48489 -5.94997,4.35925 -9.02116,5.80826 -3.65948,1.75496 -7.39976,3.10178 -11.13301,4.19452 -0.29961,0.0879 -0.59953,0.17455 -0.89976,0.25996 -8.84233,2.51565 -17.72825,3.89649 -26.19832,4.78667 -10.49891,1.11812 -20.77906,1.51342 -30.56158,1.49369 -10.49966,-0.0184 -20.51137,-0.51564 -30.00859,-1.40064 0,0 -1e-5,0 -1e-5,0 -9.02884,-0.83726 -17.35,-1.9798 -25.33401,-3.66907 -3.32837,-0.70258 -6.54563,-1.49944 -9.70178,-2.49931 -2.40952,-0.74625 -4.86911,-1.66127 -7.29413,-2.98288 -3.16698,-1.70472 -6.07514,-3.99497 -8.34271,-6.95078 -1.87577,-2.49398 -2.96814,-5.40084 -3.2546,-8.32874 -0.2338,-3.00174 0.31171,-5.72215 1.17653,-7.99604 1.00993,-2.69153 2.38296,-4.9716 3.74543,-6.84178 3.43647,-4.72054 7.3726,-8.03984 9.93233,-9.91944 3.53702,-2.36198 5.57868,-3.37206 5.97599,-2.91078 0,0 0,0 0,0 0.005,0.006 0.004,0.005 0.004,0.004 -7.3e-4,-8.9e-4 -0.001,-0.002 0.004,0.004 0,0 0,0 0,0 0.37641,0.47911 -0.91329,2.39771 -3.59396,5.4993 -1.80588,2.2999 -4.95102,6.24934 -7.16911,10.5456 -0.9053,1.75394 -1.76871,3.71292 -2.2253,5.70622 -0.36586,1.65789 -0.54016,3.4093 -0.19191,4.91952 0.27464,1.41773 1.04151,2.85519 2.14097,4.07238 1.39214,1.6093 3.46678,2.84368 5.97859,4.05381 1.62482,0.75692 3.52484,1.26463 5.73946,1.82317 2.8131,0.68441 5.74795,1.20476 8.91491,1.68183 7.61308,1.14289 15.52368,1.81342 24.33229,2.27083 0,0 2e-5,0 2e-5,0 9.21305,0.47338 18.88916,0.63195 29.04088,0.39665 9.45418,-0.22167 19.30646,-0.77423 29.23823,-1.94693 8.05677,-0.96292 16.23421,-2.25484 24.02651,-4.49558 0.26487,-0.0762 0.5291,-0.15337 0.79269,-0.23163 3.268,-0.97287 6.35028,-2.05526 9.17192,-3.40964 2.36841,-1.16065 4.4679,-2.35429 6.07582,-3.78993 1.28368,-1.192 2.3167,-2.33097 2.70553,-3.42637 0,0 0,-1e-5 0,-1e-5 0.44691,-0.93215 0.54268,-2.20107 0.36959,-3.41955 -0.19345,-1.74426 -1.21622,-3.7069 -2.46829,-5.7878 -1.8658,-2.97011 -4.43661,-5.73357 -7.19071,-8.41663 -4.36801,-4.21567 -9.36045,-7.62316 -14.54044,-10.23977 -5.40169,-2.73362 -11.11632,-4.63978 -16.71356,-5.96071 -12.51882,-2.96733 -25.19433,-3.06582 -35.47744,-2.49449 -11.97367,0.67336 -22.47468,2.45806 -29.35764,3.65708 0,0 0,0 0,0 -8.00337,1.71616 -12.557,2.27402 -12.81818,1.44258 z"
       id="path2634"
       inkscape:path-effect="#path-effect2636"
       inkscape:original-d="m 361.14916,202.66933 c 0,0 73.53887,-28.05874 113.17439,9.0359 57.72734,54.02665 -110.75281,50.90962 -137.10571,37.38197 -26.01669,-13.35507 7.14686,-38.87221 7.14686,-38.87221"
       class="UnoptimicedTransforms"
       transform="matrix(0.63469609,0,0,0.63469609,-20.964541,86.578758)"
       sodipodi:nodetypes="cssc" />
    <path
       style="fill:#000000;fill-opacity:1;stroke:none;stroke-width:0.5"
       d="m 448.00793,249.88422 c 0.18641,-0.91349 12.15518,0.62356 33.64474,4.18906 18.04694,4.01356 45.11269,11.78977 73.5961,26.91112 12.74804,6.7748 26.20574,15.30594 39.09096,26.03414 12.07345,10.05149 23.81107,22.25193 33.7687,36.7211 9.84281,14.31967 17.84062,30.84156 22.97646,48.99187 5.54287,19.6531 7.68658,40.71345 6.66007,62.34988 -1.0235,22.47321 -3.68388,46.25452 -10.56389,69.46587 -2.06713,7.03225 -4.59341,14.11786 -7.78378,21.00061 -2.94151,6.34587 -6.41443,12.44791 -10.55926,18.15943 -4.80566,6.66827 -10.79682,12.80666 -18.21995,17.31808 -1.93351,1.16726 -4.04738,2.22585 -6.35077,3.08001 -0.6063,0.22446 -1.2696,0.44215 -1.99177,0.64107 -0.1868,0.0514 -0.40014,0.10579 -0.64029,0.16151 0,0 0,0 0,0 -0.0302,0.007 -0.0736,0.0166 -0.13008,0.0281 l 0,0 c -0.008,0.002 -0.0153,0.003 -0.0228,0.005 -0.009,0.002 -0.009,0.002 -0.009,0.002 -0.005,0.001 -0.01,0.002 -0.0145,0.004 -0.0149,0.004 -0.0296,0.007 -0.0442,0.0109 -0.0571,0.0139 -0.11208,0.027 -0.16498,0.0393 -0.29924,0.0691 -0.58959,0.13318 -0.8707,0.19324 -1.0531,0.22497 -2.09375,0.42337 -3.11933,0.60246 -3.57526,0.62502 -7.15842,1.0606 -10.72868,1.32434 0,0 -4e-5,0 -4e-5,0 -4.91669,0.36713 -9.86695,0.40181 -14.80682,0.029 -5.58665,-0.41303 -11.19173,-1.39667 -16.64643,-3.14636 -5.74239,-1.83207 -11.24984,-4.63742 -16.08538,-8.50583 -5.34696,-4.33691 -9.50085,-9.84166 -12.26197,-15.89253 -3.51193,-7.8213 -4.89227,-16.07665 -5.04445,-23.89424 -0.25795,-11.41786 1.60077,-22.4356 4.16277,-32.59292 0,0 1e-5,-3e-5 1e-5,-3e-5 4.42789,-17.74478 7.81967,-34.40027 9.87156,-50.77779 1.68362,-13.49876 2.41568,-26.06012 1.68706,-38.18558 -0.61093,-10.0027 -2.13749,-19.18794 -5.0309,-27.57874 -2.5212,-7.32769 -6.00583,-13.82062 -10.28919,-19.24682 -4.262,-5.43032 -9.3652,-9.8546 -14.49724,-13.35464 -5.88274,-4.01486 -12.19883,-7.07553 -17.80746,-9.46528 -8.99604,-3.83237 -26.17605,-9.54258 -29.59067,-10.77907 -6.88677,-2.49381 -10.41426,-4.15217 -10.25464,-4.65994 0.15677,-0.49869 3.98096,0.17446 11.10283,1.71046 5.53161,1.19303 19.2194,4.17208 30.86277,8.24598 5.99564,2.09766 12.83479,4.9505 19.50724,9.00307 5.83306,3.54598 11.73318,8.20927 16.87517,14.19291 5.12916,5.99831 9.3856,13.18459 12.47961,21.30399 3.51537,9.23951 5.55327,19.24881 6.473,29.89948 1.12522,12.88901 0.7161,26.15773 -0.73529,40.144 -1.75296,16.97988 -4.90796,34.19926 -9.13834,52.32733 0,1e-5 0,2e-5 0,3e-5 -2.20799,9.60567 -3.80027,19.60501 -3.39312,29.42886 0.30144,6.66978 1.40353,13.31628 4.1456,19.00987 2.04643,4.33811 5.06595,8.28179 8.82413,11.23728 3.40874,2.73453 7.56661,4.7588 12.04684,6.19301 4.29955,1.36693 8.91197,2.11984 13.68202,2.46483 4.21918,0.29751 8.52145,0.23692 12.86786,-0.10415 0,0 3e-5,0 3e-5,0 3.16186,-0.25096 6.31642,-0.64861 9.44248,-1.20972 0.89715,-0.16124 1.77708,-0.33224 2.63686,-0.52015 0.2297,-0.0502 0.44973,-0.0995 0.65971,-0.1491 0.0789,-0.0184 0.15568,-0.0364 0.23021,-0.0543 0.0191,-0.005 0.038,-0.009 0.0567,-0.0137 0.007,-0.002 0.0136,-0.003 0.0204,-0.005 10e-6,0 2e-5,-1e-5 3e-5,-1e-5 0.0185,-0.004 0.0278,-0.006 0.0371,-0.008 l 0,0 c 0.01,-0.002 0.0324,-0.008 0.0681,-0.0158 0,0 0,0 0,0 0.0174,-0.004 0.06,-0.0156 0.12823,-0.034 0.2634,-0.0709 0.5708,-0.17668 0.92454,-0.30551 1.34265,-0.48757 2.71361,-1.19872 4.12605,-2.03807 5.45777,-3.2134 10.13679,-8.18713 14.32707,-13.83579 3.58306,-4.86926 6.60775,-10.22109 9.21969,-15.91372 2.83225,-6.17278 5.14642,-12.67517 7.14048,-19.24319 6.52662,-21.68533 9.12859,-44.45453 10.33354,-66.34148 1.08618,-20.41845 -0.68456,-40.14363 -5.62559,-58.43796 -4.54284,-16.8825 -11.73239,-32.36567 -20.64609,-45.85655 -9.01207,-13.65741 -19.82626,-25.38968 -31.02815,-35.21892 -11.96506,-10.49772 -24.641,-19.06258 -36.7178,-26.02897 -26.8309,-15.49454 -53.04664,-24.46797 -70.40705,-29.70949 -21.03184,-5.11124 -32.64245,-8.38606 -32.45607,-9.29942 z"
       id="path2642"
       inkscape:path-effect="#path-effect2644"
       inkscape:original-d="m 448.00793,249.88422 c 0,0 212.33659,25.16943 203.30889,204.87424 -5.78467,115.14922 -51.28827,123.79815 -51.28827,123.79815 0,0 -91.82038,22.89037 -68.42225,-74.05344 37.58774,-155.7346 -27.48527,-158.40461 -81.6692,-175.43756"
       class="UnoptimicedTransforms"
       sodipodi:nodetypes="cscsc"
       transform="matrix(0.63469609,0,0,0.63469609,1.3484415,77.59528)" />
    <path
       style="fill:#000000;stroke:none"
       d="m 119.16609,100.76922 c 0.004,-0.0156 0.015,-0.0292 0.0339,-0.0411 0.0182,-0.0114 0.0434,-0.0211 0.0755,-0.0292 0,0 0,0 0,0 0.064,-0.016 0.15564,-0.0254 0.27437,-0.0285 0,0 0,0 0,0 l 0,0 c 0.235,-0.006 0.57808,0.0126 1.02337,0.0538 l 0,0 c 0.86977,0.0805 2.15737,0.24992 3.80205,0.48508 l 0,0 c 3.16797,0.45294 7.71556,1.15887 13.47255,1.95191 l 0,0 c 9.75337,1.3428 24.8316,3.24779 41.17923,3.58518 l 0,0 c 11.7645,0.24451 24.61559,-0.40304 38.52789,-2.31862 l 0,0 c 4.41414,-0.61044 8.94766,-1.32697 13.36317,-2.39203 l 0,0 c 1.37034,-0.33358 2.6897,-0.67269 3.89592,-1.12215 l 0,0 c 0.39072,-0.14914 0.71769,-0.2756 0.95872,-0.41201 l 0,0 c 0.19385,-0.16808 0.18488,-0.0943 -0.0923,0.13984 l 0,0 1e-5,-1e-5 0,0 c 1.28698,-1.446295 2.7154,-2.24225 3.90364,-2.682263 0,0 1e-5,-4e-6 1e-5,-4e-6 1.79465,-0.781264 3.61393,-1.317261 5.39646,-1.736815 l 0,0 c 4.4491,-1.060718 9.03308,-1.577905 13.65678,-1.665992 1.60699,-0.04135 3.25331,-0.03265 4.91772,0.066 2.82599,0.167502 5.66579,0.59216 8.45402,1.448335 1.71006,0.502786 3.50806,1.3104 5.14654,2.635884 1.43784,1.157213 2.49683,2.871244 2.84419,4.938184 -0.32518,-0.72409 -0.33117,-0.97405 -0.2869,-0.73281 0.21846,0.19889 0.64832,0.37764 1.20249,0.63023 1.8066,0.76871 3.86816,1.24293 6.00382,1.71979 7.0232,1.53736 14.28286,2.35287 21.15089,3.02405 9.52809,0.9261 18.65068,1.43179 27.20252,1.65938 0,0 10e-6,0 10e-6,0 9.84221,0.26001 18.39638,0.16518 26.54533,-0.4059 14.14734,-0.99224 24.76813,-3.7828 32.10274,-6.17815 4.01303,-1.30832 4.88566,-1.78942 7.54767,-2.43671 0.81566,-0.21618 1.42207,-0.31346 2.02858,-0.19606 0.26511,0.0433 0.48458,0.17787 0.62487,0.33741 0.31395,0.40516 0.15727,0.63547 0.0811,0.64832 -0.0762,0.0129 -0.16687,-0.23234 -0.38748,-0.30682 -0.0905,-0.045 -0.19909,-0.0434 -0.36962,-0.0339 -0.51673,0.0373 -0.80358,0.21873 -1.63705,0.56041 -1.66503,0.73233 -3.99153,1.9432 -7.18143,3.30442 -7.19046,3.0702 -18.02737,6.55147 -32.47765,8.07321 -8.26462,0.87174 -17.01859,1.21921 -26.94771,1.17095 0,0 -1e-5,0 -1e-5,0 -8.65635,-0.0405 -17.90556,-0.39443 -27.58429,-1.21162 -6.94363,-0.58239 -14.39843,-1.35428 -21.79263,-2.91183 -2.20339,-0.45458 -4.56571,-1.00815 -6.92137,-1.96531 -0.70778,-0.27068 -1.53715,-0.67672 -2.40503,-1.31598 -0.61672,-0.26883 -1.27872,-1.16578 -1.71735,-2.71932 -0.003,-0.49145 -0.45384,-1.08774 -1.01321,-1.60047 -0.79765,-0.71144 -1.99007,-1.18217 -3.3381,-1.63524 -2.2444,-0.71685 -4.65719,-1.05623 -7.17879,-1.195027 -1.48469,-0.08172 -2.99638,-0.09335 -4.5113,-0.07426 -4.30624,0.08476 -8.51733,0.541121 -12.54653,1.488701 l 0,0 c -1.61873,0.38612 -3.14193,0.81359 -4.51503,1.41495 l 0,0 c 0,0 -10e-6,1e-5 -10e-6,1e-5 -0.98373,0.50798 -1.75668,0.79302 -1.95132,1.17111 l 0,0 0,1e-5 0,0 c -0.64983,0.69166 -1.17813,1.05785 -1.5033,1.16773 l 0,0 c -0.58971,0.30675 -1.14021,0.52918 -1.63118,0.70114 -1.53545,0.54896 -3.05002,0.93429 -4.48821,1.26366 l 0,0 c -4.69403,1.08524 -9.39737,1.78323 -13.89494,2.34442 l 0,0 c -14.20283,1.78077 -27.34728,2.19038 -39.3282,1.62651 l 0,0 c -16.75098,-0.79126 -31.6425,-3.30526 -41.47062,-5.30805 l 0,0 c -5.73579,-1.16833 -10.22793,-2.27277 -13.32487,-3.14276 l 0,0 c -1.6164,-0.45408 -2.84189,-0.84179 -3.6733,-1.14972 l 0,0 c -0.42176,-0.15621 -0.73779,-0.29043 -0.94701,-0.40117 l 0,0 c 0,0 0,0 0,0 -0.10527,-0.0557 -0.18308,-0.10532 -0.23319,-0.14858 0,0 0,-10e-6 0,-10e-6 -0.0251,-0.0217 -0.0433,-0.0418 -0.0544,-0.0603 -0.0115,-0.0192 -0.0154,-0.0364 -0.0117,-0.052 z"
       id="path1054"
       inkscape:path-effect="#path-effect1056"
       inkscape:original-d="m 119.16606,100.76921 c 0,0 29.25638,7.08037 59.78807,8.11989 27.59209,0.93944 56.63281,-3.9982 58.7496,-6.60421 4.45908,-5.489642 38.27169,-8.629101 39.68683,1.71677 0.72931,5.33187 52.28184,10.26509 84.59327,7.42392 30.38518,-2.67179 41.64898,-13.092922 42.21908,-9.71127"
       class="UnoptimicedTransforms"
       transform="translate(-2.1185052,28.760429)"
       sodipodi:nodetypes="cssssc" />
    <path
       style="fill:#000000;stroke:none"
       d="m 193.52015,91.513675 c 0.0487,-0.01194 0.30199,0.07008 0.47728,0.124065 0,0 0,1e-6 0,1e-6 0.1725,0.04886 0.2773,0.05753 0.55018,0.101389 0.57739,0.08547 0.96636,0.08575 1.90375,0.100624 1.93577,0.0129 3.4852,-0.09229 6.57262,-0.390244 0,0 0,0 0,0 5.24304,-0.518671 11.54438,-1.405453 19.47458,-3.284056 5.87135,-1.41082 12.81256,-3.283625 18.75743,-6.662031 2.12227,-1.228589 4.1553,-2.582751 5.51987,-4.312926 0.0568,-0.07311 0.11269,-0.147 0.16757,-0.221592 0.94898,-1.28968 1.56582,-2.743324 1.454,-4.037332 -0.0441,-0.81272 -0.0545,-1.756909 0.0857,-2.819369 0.0333,-0.322005 0.13189,-0.75218 0.32375,-1.275316 0.0805,-0.362893 0.42354,-0.864249 1.05119,-1.460077 0.67526,-0.501939 1.41193,-0.725223 2.17658,-0.66775 0.766,0.115085 1.28146,0.298574 1.54651,0.507903 0,0 0,6e-6 0,6e-6 0.85401,0.55348 1.39924,1.095922 1.7163,1.502213 1.31822,1.489164 2.38309,3.04526 3.33977,4.396859 1.50619,2.111192 2.86786,4.026479 4.3126,5.913818 4.00711,5.190707 7.46919,8.920371 11.50722,11.681243 0,0 0,1e-6 0,1e-6 2.51907,1.726908 4.85469,2.793502 7.0431,3.389631 4.96877,1.376708 8.29685,0.44633 8.44008,0.935901 0.14323,0.489572 -2.98138,2.533836 -8.96741,1.795901 -2.59319,-0.327976 -5.48538,-1.238553 -8.4898,-2.945544 0,-10e-7 0,-2e-6 0,-2e-6 -4.72673,-2.689683 -8.96613,-6.608749 -13.29549,-11.850364 -1.5899,-1.910326 -3.07884,-3.85619 -4.6374,-5.9205 -1.05232,-1.385313 -2.04848,-2.790818 -3.09614,-3.908391 -0.35058,-0.32917 -0.49793,-0.536184 -0.5089,-0.489184 0,0 0,2e-6 0,2e-6 0.002,0.05506 0.23008,0.107415 0.69084,0.199137 0.52249,0.03894 1.01008,-0.113126 1.49553,-0.462713 0.38809,-0.403542 0.57966,-0.623014 0.54726,-0.699342 0.0206,-0.08748 0.0314,-0.06034 -5.6e-4,0.08301 -0.0753,0.478283 -0.0403,1.097245 -0.0141,1.857618 0.071,2.79822 -0.88402,5.419119 -2.49437,7.49063 -0.0932,0.119887 -0.18842,0.237699 -0.28556,0.353372 -2.07457,2.48749 -4.62332,4.240753 -7.08382,5.552641 -6.83409,3.705213 -14.22211,5.476191 -20.35283,6.587173 -8.1988,1.513336 -14.99048,1.89397 -20.33323,1.706178 0,0 -1e-5,0 -1e-5,0 -2.98053,-0.09985 -5.09265,-0.35756 -6.90301,-0.848391 -0.88524,-0.234291 -1.53876,-0.498915 -2.05629,-0.841593 -0.26048,-0.168145 -0.4584,-0.35588 -0.58905,-0.544857 0,0 0,-10e-7 0,-10e-7 -0.28141,-0.378332 -0.12029,-0.619444 -0.0457,-0.637741 z"
       id="path1058"
       inkscape:path-effect="#path-effect1060"
       inkscape:original-d="m 193.52015,91.513675 c 1.07136,4.369537 58.29935,-1.045374 57.51056,-18.699757 -0.72294,-16.18043 14.52094,29.357722 38.90945,22.222727"
       class="UnoptimicedTransforms"
       transform="translate(6.9516022,34.854133)"
       sodipodi:nodetypes="csc" />
    <path
       style="fill:#000000;stroke:none"
       d="m 154.82271,90.677522 c 0.11624,-0.0065 0.22642,0.276087 0.59434,0.541846 0,0 0,0 0,0 0.221,0.161747 0.46372,0.27121 0.86848,0.421206 0.87545,0.315483 1.68766,0.436855 3.19462,0.599379 3.1984,0.320207 6.15394,0.285605 11.36858,-0.02624 0,0 0,0 0,0 4.6837,-0.289094 9.83109,-0.817539 15.97835,-1.724493 5.56437,-0.822032 11.66795,-1.9271 18.15694,-3.44581 0,-10e-7 0,-2e-6 0,-2e-6 5.70916,-1.337283 11.79572,-3.005178 17.88835,-5.186756 5.08172,-1.824614 10.30488,-4.011252 15.12341,-6.900787 3.74828,-2.278321 7.38451,-4.919399 9.82638,-8.336553 0.043,-0.05965 0.0857,-0.119493 0.12807,-0.179537 0.96287,-1.365586 1.7257,-2.812146 2.1648,-4.301033 0.46603,-1.538381 0.61161,-3.17703 0.44831,-4.761629 -0.17499,-0.958249 -0.23457,-2.333875 0.23396,-3.997658 0.12219,-0.559171 0.56139,-1.224107 1.34827,-1.912853 0,0 3e-5,-1.9e-5 3e-5,-1.9e-5 0.85243,-0.552166 1.67448,-0.771998 2.40188,-0.68486 0,0 3e-5,3e-6 3e-5,3e-6 0.82443,0.09385 1.43849,0.290245 1.84031,0.518678 0,0 1e-5,5e-6 1e-5,5e-6 0.59415,0.292923 1.08859,0.608963 1.49722,0.911867 0,0 1e-5,6e-6 1e-5,6e-6 1.18116,0.862197 2.18507,1.795496 3.08062,2.679073 2.78649,2.726107 5.34984,5.656601 7.72228,8.33069 3.42866,3.85969 6.42421,7.261404 9.63902,10.736438 8.40172,9.045579 14.73134,15.172019 22.2647,19.962301 4.19091,2.650529 7.69324,4.189143 11.1312,4.867554 6.70204,1.342982 10.64836,-1.138854 10.86783,-0.758375 0.21947,0.38048 -3.46096,3.950747 -11.22196,3.169537 -3.84693,-0.39325 -7.96155,-1.775233 -12.52781,-4.336672 -8.13058,-4.534767 -15.28015,-10.796559 -23.91537,-19.670139 -3.33279,-3.411991 -6.49873,-6.845741 -9.95916,-10.605611 -2.44038,-2.648685 -4.97843,-5.472393 -7.59944,-7.971181 -0.86482,-0.817322 -1.68494,-1.580259 -2.51986,-2.16207 0,0 -10e-6,-3e-6 -10e-6,-3e-6 -0.29034,-0.197721 -0.5226,-0.354377 -0.70797,-0.432793 0,0 -1e-5,-2e-6 -1e-5,-2e-6 -0.16228,-0.03951 -0.13721,-0.06591 0.0622,-0.01409 0,0 10e-6,2e-6 10e-6,2e-6 0.26114,0.05626 0.59711,-0.0622 1.07377,-0.334737 0,0 2e-5,-9e-6 2e-5,-9e-6 0.36389,-0.373976 0.54032,-0.550313 0.49292,-0.608837 -0.15003,0.160871 0.002,0.781449 0.033,1.755961 0.24723,2.270349 0.0485,4.602287 -0.61575,6.83792 -0.64467,2.129796 -1.65628,4.096315 -2.91234,5.853799 -0.0552,0.07728 -0.1109,0.154108 -0.16699,0.230475 -3.15097,4.256371 -7.31816,7.346735 -11.43323,9.729949 -5.27972,3.096895 -10.83186,5.355918 -16.14126,7.149689 -6.37789,2.160882 -12.67888,3.734948 -18.56306,4.929558 0,0 -1e-5,10e-7 -1e-5,10e-7 -6.68536,1.35853 -12.95892,2.250665 -18.66289,2.818205 -6.2621,0.62409 -11.62517,0.846396 -16.39165,0.76909 0,0 0,-10e-7 0,-10e-7 -5.14375,-0.07587 -8.61837,-0.426275 -11.73324,-1.221226 -1.48244,-0.368517 -2.52793,-0.7821 -3.375,-1.355745 -0.41796,-0.277264 -0.71615,-0.583366 -0.90752,-0.891287 0,0 0,-10e-7 0,-10e-7 -0.40905,-0.646382 -0.12271,-0.989594 -0.0754,-0.992227 z"
       id="path1062"
       inkscape:path-effect="#path-effect1064"
       inkscape:original-d="m 154.82271,90.677522 c 0.48802,8.770342 101.8015,-1.25847 98.35948,-33.579304 -2.26981,-21.313735 41.65121,56.942802 69.40849,40.931763"
       class="UnoptimicedTransforms"
       sodipodi:nodetypes="csc"
       transform="translate(4.4478232,31.726754)" />
    <path
       style="fill:#000000;stroke:none"
       d="m 113.31217,88.451274 c -0.005,-0.02254 -0.004,-0.04627 0.003,-0.07117 0.007,-0.02436 0.0193,-0.04984 0.0373,-0.07643 0.0359,-0.05308 0.0939,-0.110543 0.17339,-0.172259 0,0 0,-1e-6 0,-1e-6 l 0,0 c 0.15858,-0.12307 0.40284,-0.263008 0.72865,-0.418692 l 0,0 c 0.64753,-0.309417 1.61671,-0.680816 2.87546,-1.105347 l 0,0 c 2.47906,-0.8361 6.07697,-1.876954 10.5493,-3.054172 l 0,0 c 8.50449,-2.238579 20.18397,-4.974783 33.28648,-7.70339 1.661,-0.345914 3.34594,-0.692193 5.04987,-1.037276 11.67516,-2.364459 22.1413,-4.24631 31.09555,-5.613658 0,0 0,-1e-6 0,-1e-6 5.65339,-0.863332 10.25734,-1.455038 14.10555,-1.804478 2.0794,-0.188854 3.77438,-0.290756 5.17727,-0.311227 2.30555,-0.03342 3.57734,0.168984 3.60477,0.510631 0.0252,0.313365 -1.1684,0.743091 -3.33978,1.344202 -1.24815,0.346629 -3.0426,0.808834 -4.9692,1.283407 -3.34162,0.823256 -8.60007,2.053875 -13.77922,3.218347 0,0 0,1e-6 0,1e-6 -8.36876,1.881827 -19.62646,4.296721 -30.84276,6.568214 -1.70264,0.344814 -3.38636,0.682708 -5.04985,1.013218 -13.12529,2.607846 -24.89126,4.752913 -33.5881,6.11601 l 0,0 c -4.56466,0.71544 -8.27854,1.214908 -10.88116,1.452447 l 0,1e-6 c -1.32219,0.120675 -2.35878,0.173888 -3.07571,0.153752 l 0,0 c -0.36082,-0.01013 -0.6408,-0.03885 -0.83563,-0.08687 l 0,0 c 0,0 -1e-5,0 -1e-5,0 -0.0977,-0.02409 -0.17402,-0.05303 -0.22838,-0.08693 -0.0272,-0.01698 -0.049,-0.0352 -0.0651,-0.05468 -0.0165,-0.0199 -0.0272,-0.04111 -0.032,-0.06365 z"
       id="path1070"
       inkscape:path-effect="#path-effect1072"
       inkscape:original-d="m 113.31216,88.451276 c 0,0 92.88267,-19.749098 106.68689,-20.857466"
       class="UnoptimicedTransforms"
       transform="translate(8.8449371,35.563971)" />
    <path
       style="fill:#000000;stroke:none"
       d="m 283.5292,73.462863 c 0.006,-0.02298 0.0172,-0.0445 0.0338,-0.06458 0.0162,-0.01961 0.0375,-0.03784 0.0638,-0.05471 0.0525,-0.03368 0.12505,-0.06193 0.21705,-0.08486 0,0 0,0 0,0 l 0,0 c 0.1834,-0.04571 0.44427,-0.07029 0.77852,-0.0746 l 0,0 c 0.66385,-0.0085 1.61788,0.06288 2.8299,0.207348 l 0,0 c 2.38282,0.284027 5.76886,0.851249 9.91288,1.647378 l 0,0 c 7.86746,1.511464 18.42739,3.842066 30.14724,6.621932 0.88638,0.210226 1.77861,0.42304 2.67689,0.638382 9.99547,2.396173 21.55669,5.308947 28.55418,7.124952 3.37704,0.875922 9.58426,2.524397 11.29367,2.987647 1.23682,0.334653 3.0755,0.846436 3.74427,1.039452 1.3969,0.382714 2.19469,0.707058 2.21699,0.908592 0.037,0.334381 -0.80762,0.630393 -2.39263,0.719755 -1.07808,0.06401 -2.3586,0.03706 -4.00375,-0.07844 -3.18246,-0.222959 -6.91014,-0.713502 -11.72171,-1.515904 -8.24312,-1.374215 -17.86336,-3.378677 -28.92685,-6.031161 -0.89966,-0.215697 -1.79304,-0.431858 -2.67893,-0.648011 -11.7053,-2.855774 -22.1854,-5.763896 -29.8193,-8.14265 l 0,0 c -4.03502,-1.257321 -7.28148,-2.369336 -9.51459,-3.25877 l 0,0 c -1.13505,-0.452082 -2.00691,-0.846144 -2.58599,-1.172229 l 0,0 c -0.29147,-0.164129 -0.50861,-0.310949 -0.6476,-0.439201 l 0,0 c 0,0 0,0 0,0 -0.0697,-0.06432 -0.11974,-0.123964 -0.14963,-0.178765 -0.015,-0.02745 -0.0249,-0.05368 -0.0297,-0.07868 -0.005,-0.0256 -0.004,-0.0499 0.001,-0.07288 z"
       id="path1126"
       inkscape:path-effect="#path-effect1128"
       inkscape:original-d="m 283.52919,73.462861 c 0,0 84.7813,21.747692 92.46924,20.896939"
       class="UnoptimicedTransforms"
       transform="translate(4.0541293,34.178251)" />
    <path
       style="fill:#000000;stroke:none"
       d="m 237.68037,59.997843 c 0.005,0.02419 0.004,0.04959 -0.004,0.07617 -0.007,0.02603 -0.0205,0.0532 -0.0395,0.08147 0,0 0,0 0,0 -0.0379,0.05644 -0.0991,0.117304 -0.18298,0.182428 0,0 0,10e-7 0,10e-7 l 0,0 c -0.16714,0.129821 -0.42425,0.276526 -0.7667,0.438847 l 0,0 c -0.68004,0.322336 -1.69582,0.705881 -3.01161,1.140592 l 0,0 c -2.58501,0.854033 -6.32151,1.903583 -10.93863,3.070559 l 0,0 c -8.63275,2.181951 -20.38409,4.787322 -33.34633,7.235052 -2e-5,4e-6 -0.19651,0.03708 -0.19653,0.03708 -13.43545,2.533482 -24.48621,4.256568 -33.80046,5.219648 -4.88193,0.505623 -8.29856,0.718761 -11.23514,0.627355 -1.40653,-0.04187 -2.37255,-0.139701 -3.19289,-0.369748 -0.36685,-0.09826 -0.6561,-0.216055 -0.87348,-0.381919 -0.10091,-0.06915 -0.18986,-0.168864 -0.23882,-0.26622 -0.13352,-0.233831 0.0661,-0.295646 0.087,-0.294057 0.0654,0.005 0.14863,0.05174 0.20551,-0.01397 0.0234,-0.008 0.0954,-0.04763 0.15845,-0.05297 0.17162,-0.02736 0.38174,-0.09192 0.72146,-0.147923 0.69193,-0.135132 1.64926,-0.348898 2.94706,-0.615831 2.58779,-0.543496 6.25868,-1.326178 10.83392,-2.273743 6.6819,-1.387019 22.41357,-4.562968 33.40421,-6.639482 -5e-5,9e-6 0.19616,-0.03705 0.19611,-0.03705 12.96827,-2.448837 24.7377,-4.49928 33.57338,-5.809087 l 0,0 c 4.70352,-0.697249 8.55626,-1.182433 11.26505,-1.40446 l 0,0 c 1.37979,-0.113095 2.46465,-0.158108 3.21584,-0.128538 l 0,0 c 0.37844,0.0149 0.67242,0.04873 0.87703,0.102296 l 0,0 c 0,0 0,0 0,0 0.10267,0.02687 0.18286,0.05873 0.23996,0.09565 0,0 0,0 0,0 0.0286,0.0185 0.0514,0.03827 0.0683,0.05933 0.0173,0.02149 0.0285,0.04433 0.0335,0.06852 z"
       id="path1130"
       inkscape:path-effect="#path-effect1132"
       inkscape:original-d="m 237.68038,59.997841 c 0,0 -97.99437,20.148815 -97.73979,16.79727"
       class="UnoptimicedTransforms"
       transform="translate(7.1629205,32.350843)" />
    <path
       style="fill:#000000;stroke:none"
       d="m 276.85008,64.058536 c 0.005,-0.0237 0.0142,-0.04635 0.0288,-0.06796 0.0178,-0.02051 0.042,-0.03969 0.0727,-0.05755 0,0 0,0 0,0 0.0612,-0.03568 0.14788,-0.0661 0.2594,-0.09137 0,0 0,0 0,0 l 0,0 c 0.22237,-0.05037 0.54339,-0.08018 0.95797,-0.09012 l 0,0 c 0.82352,-0.01973 2.01514,0.03898 3.53539,0.171156 l 0,0 c 2.98897,0.259869 7.23976,0.802758 12.45205,1.592689 l 0,0 c 9.82575,1.48909 23.11213,3.859994 37.66784,6.880912 -0.008,-0.0017 1.5962,0.332579 1.58781,0.330837 14.41254,3.0153 26.37941,5.866936 36.45812,8.717068 5.55666,1.570825 9.56679,2.854299 12.94281,4.195732 1.68357,0.668221 2.88358,1.222553 3.86275,1.804231 0.49275,0.29196 0.85705,0.550418 1.13586,0.810267 0.44291,0.395339 0.53846,0.722349 0.4103,0.824738 -0.0538,0.04301 -0.4088,0.04961 -0.82122,-0.06066 -0.31693,-0.06512 -0.72363,-0.14625 -1.2437,-0.255765 -0.9983,-0.207671 -2.33877,-0.475264 -4.02911,-0.815029 -3.28439,-0.656892 -7.76503,-1.534002 -13.19241,-2.608318 -7.29484,-1.442469 -25.13148,-5.022012 -36.60902,-7.423684 0.009,0.002 -1.59507,-0.334561 -1.58567,-0.332595 -14.56014,-3.061189 -27.63849,-5.966998 -37.32192,-8.344642 l 0,0 c -5.112,-1.255188 -9.25704,-2.357391 -12.11961,-3.238077 l 0,0 c -1.4572,-0.448318 -2.5844,-0.839894 -3.34015,-1.165468 l 0,0 c -0.38064,-0.163978 -0.66732,-0.31132 -0.8548,-0.440831 l 0,0 c 0,0 0,0 0,0 -0.094,-0.06497 -0.16316,-0.125466 -0.20667,-0.181338 0,0 0,0 0,0 -0.0218,-0.02798 -0.0372,-0.0548 -0.046,-0.08044 -0.006,-0.02549 -0.006,-0.05009 -0.001,-0.07379 z"
       id="path1134"
       inkscape:path-effect="#path-effect1136"
       inkscape:original-d="m 276.84476,64.057511 c 0,0 108.00823,20.805035 111.37708,25.021654"
       class="UnoptimicedTransforms"
       transform="translate(2.186272,32.942801)" />
    <path
       style="fill:#000000;stroke:none"
       d="m 267.9769,321.59572 c -0.23972,0.12795 -1.40739,-2.1116 -4.92657,-4.48489 -1.72134,-1.16078 -3.85436,-2.21822 -6.65701,-3.11571 -4.92005,-1.57576 -10.6148,-2.28427 -18.05006,-2.06857 -6.51104,0.20186 -13.62566,1.18349 -21.34487,3.20963 -6.73772,1.77336 -13.856,4.33218 -20.74745,8.02487 0,0 0,0 0,0 -5.79874,3.11826 -11.59269,7.07155 -16.21997,12.22193 -2.0234,2.24748 -3.83553,4.72742 -5.23946,7.42435 -1.3317,2.55502 -2.31549,5.32361 -2.80509,8.18649 -0.12332,0.71182 -0.21626,1.43143 -0.27935,2.15651 -0.19953,2.29323 -0.0975,4.60769 0.26456,6.86288 0.55395,3.47786 1.744,6.85169 3.27391,10.0118 4.43611,9.20498 11.80755,16.80917 18.82183,23.07183 8.7476,7.82673 20.01798,11.23289 29.25832,12.48203 0,0 1e-5,0 1e-5,0 22.50028,3.01951 36.91542,-2.56095 37.09471,-1.91893 0.17929,0.64202 -13.86165,7.5322 -37.47909,5.28421 0,-10e-6 -1e-5,0 -1e-5,0 -9.7645,-0.92124 -21.81618,-4.23624 -31.67234,-12.63975 -7.36176,-6.2794 -15.17113,-14.21419 -20.16454,-24.24995 -1.72178,-3.47501 -3.0661,-7.27313 -3.73115,-11.29369 -0.43008,-2.61771 -0.54954,-5.31632 -0.31433,-8.01521 0.0744,-0.85326 0.18383,-1.70253 0.32884,-2.54541 0.58869,-3.38486 1.73602,-6.6077 3.2903,-9.55163 1.63626,-3.09586 3.68716,-5.88379 5.95376,-8.3555 5.17607,-5.6337 11.42046,-9.82471 17.58679,-12.99731 0,0 1e-5,-1e-5 1e-5,-1e-5 7.31989,-3.77921 14.79614,-6.30447 21.83123,-7.96442 8.04581,-1.9039 15.49247,-2.6805 22.25955,-2.61849 7.68063,0.0561 13.77119,1.1849 18.83386,3.19568 2.90767,1.15448 5.13823,2.52915 6.84406,3.96706 3.52845,2.9726 4.22927,5.59225 3.98955,5.7202 z"
       id="path1146"
       inkscape:path-effect="#path-effect1148"
       inkscape:original-d="m 267.9769,321.59572 c -16.80235,-31.48009 -152.07371,6.1322 -75.30873,73.1049 16.50599,14.40045 42.15082,16.10881 67.75221,8.95933"
       class="UnoptimicedTransforms"
       sodipodi:nodetypes="csc"
       transform="translate(7.5084064,-2.88259)" />
    <path
       style="fill:#000000;fill-opacity:1;stroke:none;stroke-width:0.5"
       d="m 297.69846,264.65428 c -0.0351,1.04064 -19.68057,-0.27755 -51.74484,9.85711 -15.13345,4.78681 -31.98866,11.89788 -51.0045,22.68189 -29.35289,16.64715 -60.06496,39.71364 -92.08697,71.93268 -12.401452,12.48959 -24.749248,26.18013 -36.565731,41.09583 -9.558732,12.07155 -18.895568,25.02939 -27.145229,38.86074 -3.324039,5.57318 -6.481427,11.29974 -9.297222,17.18628 -2.321137,4.86158 -4.429521,9.80504 -6.053344,14.83592 -1.259326,3.95476 -2.276409,7.85036 -2.590752,11.62732 -0.168181,2.82075 -0.195347,5.35832 0.564716,7.2001 0,0 9e-6,3e-5 9e-6,3e-5 1.715609,4.96214 4.618351,9.69238 8.113845,14.19897 3.963074,5.07463 8.717785,9.68461 13.933709,13.97561 11.694103,9.61138 25.360846,17.17804 40.063049,23.07265 12.414271,4.94266 25.49519,8.62883 38.85769,10.35697 2.57451,0.33296 5.15066,0.59209 7.72623,0.77395 14.54569,0.95206 28.95261,-0.3183 41.1965,-5.9729 3.89194,-1.76039 7.49864,-4.13082 10.61898,-6.97764 3.14346,-2.849 5.86023,-6.25827 8.17181,-9.95517 5.24444,-8.31017 8.27448,-18.19676 10.42157,-28.22977 2.48841,-11.85256 3.525,-24.10268 4.09653,-36.17734 0.61734,-13.25783 0.58711,-26.71149 0.5211,-39.67941 -0.0712,-13.36149 -0.21766,-25.9847 0.16125,-38.97375 0.32655,-11.65476 1.03705,-23.06117 3.19872,-34.39489 0.92419,-4.85487 2.16552,-9.69006 3.94158,-14.41035 1.55367,-4.16491 3.61835,-8.24952 6.3891,-11.98928 2.57503,-3.47039 5.82775,-6.47818 9.64389,-8.72058 4.20839,-2.35653 8.76099,-3.6691 13.24334,-4.11766 127.15306,1.78099 209.26556,4.07369 209.25552,6.23149 -0.01,2.1573 -82.09141,3.68668 -208.68446,4.28599 -3.00321,0.40197 -5.92615,1.31254 -8.3426,2.86754 -2.39109,1.42259 -4.51645,3.51009 -6.29933,5.95185 -1.96795,2.68899 -3.47495,5.88955 -4.74659,9.3605 -1.43283,3.95226 -2.43,8.17846 -3.22177,12.60683 -1.85532,10.39813 -2.34418,21.17085 -2.55178,32.60219 -0.21525,12.69426 0.0737,25.14053 0.27769,38.57419 0.20069,13.00544 0.3483,26.65947 -0.1771,40.34021 -0.46783,12.42638 -1.4994,25.34672 -4.09789,38.23466 -2.16044,10.91698 -5.68323,22.20948 -11.95067,32.49546 -2.8286,4.60647 -6.29159,8.94739 -10.41898,12.75014 -4.13873,3.79415 -8.8787,6.93315 -14.02186,9.27627 -15.00238,6.71996 -31.55582,8.41286 -47.56516,7.18091 -2.83286,-0.20473 -5.65983,-0.49142 -8.47856,-0.85669 -14.63217,-1.89609 -28.776015,-5.87447 -42.055609,-11.22421 -15.73543,-6.29802 -30.534139,-14.60469 -43.4352,-25.24886 -5.780393,-4.76511 -11.172854,-10.08341 -15.840393,-16.08381 -4.153996,-5.30944 -7.690113,-11.28949 -10.0141909,-17.91691 0,0 -1.73e-5,-5e-5 -1.73e-5,-5e-5 -1.4428879,-4.47865 -1.6054196,-8.80371 -1.1539775,-12.59374 0.520201,-5.12705 1.7624597,-9.93246 3.2644907,-14.37986 1.910113,-5.72206 4.269701,-11.16072 6.808972,-16.33538 3.079532,-6.28669 6.472184,-12.31481 10.005276,-18.09995 8.760738,-14.34507 18.549421,-27.62122 28.512749,-39.85988 12.321231,-15.14226 25.165191,-28.95968 38.050323,-41.49461 33.163847,-32.29187 65.344067,-55.22833 95.878817,-71.28427 19.80467,-10.41481 37.53021,-17.04529 53.27501,-21.15801 33.45481,-8.74672 53.38741,-5.31995 53.35226,-4.27931 z"
       id="path2638"
       inkscape:path-effect="#path-effect2640"
       inkscape:original-d="M 297.69846,264.65428 C 159.03954,259.97016 0.55380766,458.46894 15.739577,502.03576 c 15.18577,43.56682 107.134723,83.6698 158.640063,60.27741 74.51805,-33.84417 2.15082,-226.86298 67.97938,-234.34284 l 208.96997,0.97275"
       class="UnoptimicedTransforms"
       sodipodi:nodetypes="csscc"
       transform="matrix(0.63469609,0,0,0.63469609,1.3484415,77.59528)" />
    <path
       style="fill:#000000;stroke:none"
       d="m 191.88387,315.36739 c -0.12483,-0.23369 11.16843,-7.14685 28.76156,-11.51956 0,1e-5 1e-5,0 1e-5,0 4.73361,-1.17724 9.88881,-2.17287 15.33017,-2.77647 4.13406,-0.45858 8.12418,-0.65662 11.96832,-0.61728 8.47442,0.078 15.05327,1.17305 20.67922,3.62844 2.77364,1.20777 4.80372,2.61024 6.28472,4.20421 2.7483,2.95856 2.62642,5.61564 2.51687,5.62969 -0.10955,0.0141 -0.23248,-2.5206 -2.95271,-5.2075 -1.4838,-1.46648 -3.45539,-2.71712 -6.18406,-3.83259 -5.56356,-2.26899 -11.9426,-3.20637 -20.35216,-3.24478 -3.7975,-0.0134 -7.737,0.19623 -11.82586,0.65027 -5.38026,0.59745 -10.48896,1.55939 -15.1926,2.68185 0,0 -1e-5,0 -1e-5,0 -17.47682,4.17324 -28.90864,10.63742 -29.03347,10.40372 z"
       id="path1150"
       inkscape:path-effect="#path-effect1152"
       inkscape:original-d="m 191.88387,315.36739 c 37.50995,-20.03651 83.45908,-17.6787 85.54087,-1.45097"
       class="UnoptimicedTransforms"
       sodipodi:nodetypes="cc" />
    <path
       style="fill:#000000;stroke:none"
       d="m 288.91218,237.88923 c 0.006,0.0168 0.0209,0.03 0.0448,0.0402 0,0 0,0 0,0 0.0231,0.01 0.0546,0.0166 0.0942,0.0203 0,0 0,0 0,0 0.0788,0.007 0.18988,0.003 0.33146,-0.0129 l 0,0 c 0.28079,-0.0313 0.68309,-0.10728 1.19239,-0.22233 l 0,0 c 0.99881,-0.22564 2.42387,-0.60537 4.16204,-1.09389 l 0,0 c 3.29718,-0.92664 7.74531,-2.25791 12.7129,-3.67076 -0.38043,0.10809 1.92755,-0.54688 1.54712,-0.43879 4.74864,-1.34258 8.20397,-2.24863 11.87212,-3.00735 0,0 0,-10e-6 0,-10e-6 2.16046,-0.44417 3.56624,-0.67925 5.06034,-0.79245 0.76137,-0.0564 1.28119,-0.0648 1.79467,-0.0286 0.833,0.0694 1.24469,0.25017 1.32006,0.14994 0.0703,-0.0934 -0.23752,-0.54818 -1.17741,-0.84771 -0.52585,-0.17355 -1.14756,-0.28868 -1.93604,-0.34562 -1.5142,-0.1118 -3.16768,-0.0174 -5.33163,0.2752 0,0 0,0 0,0 -3.62895,0.48698 -7.52133,1.35926 -12.14749,2.66861 -0.52419,0.14836 -1.04322,0.29811 -1.5552,0.44799 -4.98475,1.45782 -9.41507,3.01668 -12.60405,4.26248 l 0,0 c -1.69293,0.66132 -3.04426,1.23869 -3.97369,1.68689 l 0,0 c -0.47215,0.22768 -0.83291,0.4209 -1.07177,0.57413 l 0,0 c -0.12014,0.0771 -0.20913,0.14387 -0.26555,0.19965 0,0 0,0 0,0 -0.0283,0.028 -0.0484,0.0532 -0.0601,0.0755 0,0 0,0 0,0 -0.012,0.0231 -0.0152,0.0427 -0.009,0.0596 z"
       id="path1264"
       inkscape:path-effect="#path-effect1266"
       inkscape:original-d="m 288.91216,237.88924 c 0,0 35.2853,-12.70168 40.13212,-9.05669"
       class="UnoptimicedTransforms" />
    <path
       style="fill:#000000;stroke:none"
       d="m 286.80824,236.62755 c 0.001,0.009 0.007,0.0177 0.0165,0.0257 0.01,0.008 0.0231,0.015 0.0406,0.0217 0.035,0.0134 0.0859,0.0247 0.15231,0.0339 0,0 0,0 0,0 l 0,0 c 0.13224,0.0184 0.32624,0.0289 0.57836,0.0318 l 0,0 c 0.49958,0.006 1.23202,-0.0176 2.16639,-0.0656 l 0,0 c 1.82577,-0.0938 4.47208,-0.2845 7.68843,-0.52994 l 0,0 c 5.91526,-0.45136 14.42791,-1.15189 23.34027,-1.68472 -0.094,0.006 1.24627,-0.0739 1.15232,-0.0683 9.24461,-0.54481 15.67173,-0.77812 22.42497,-0.49627 3.54147,0.1536 5.72791,0.34945 7.98822,0.90328 1.06426,0.26563 1.75286,0.50594 2.37286,0.86758 0.94504,0.56897 1.15049,1.20209 1.26014,1.17929 0.0246,-0.005 0.2434,-0.79643 -0.89148,-1.70315 -0.61104,-0.50264 -1.38868,-0.90932 -2.46073,-1.28221 -2.23562,-0.78769 -4.66584,-1.19381 -8.16849,-1.50011 -6.60592,-0.58751 -13.59242,-0.50522 -22.64373,0.0317 -0.38672,0.0229 -0.772,0.0463 -1.15541,0.0701 -9.07659,0.55957 -17.35505,1.46102 -23.36764,2.25698 l 0,0 c -3.22005,0.42624 -5.81653,0.828 -7.63264,1.16091 l 0,0 c -0.9235,0.16928 -1.63808,0.31959 -2.12404,0.44591 l 0,0 c -0.24448,0.0635 -0.43009,0.12078 -0.55409,0.17109 l 0,0 c 0,0 0,0 0,0 -0.0622,0.0252 -0.10879,0.0487 -0.13945,0.0703 -0.0154,0.0108 -0.0267,0.0212 -0.034,0.0311 -0.008,0.0102 -0.0108,0.0198 -0.01,0.029 z"
       id="path1268"
       inkscape:path-effect="#path-effect1270"
       inkscape:original-d="m 286.80823,236.62755 c 0,0 67.36512,-8.51388 69.18132,0.21847"
       class="UnoptimicedTransforms"
       transform="translate(2.2831741,1.9360041)" />
    <path
       style="fill:#000000;stroke:none"
       d="m 186.47774,242.92357 c 0.13897,-0.52035 -8.42317,-3.26204 -19.28234,-6.18509 0,0 0,0 0,0 -0.28793,-0.0726 -0.57766,-0.14527 -0.86888,-0.21776 -5.15194,-1.28248 -9.40132,-2.1739 -13.22743,-2.73841 -2.14251,-0.3169 -3.70195,-0.46865 -5.12067,-0.46755 -0.70765,-4.3e-4 -1.23666,0.0417 -1.69621,0.13918 0,0 0,0 0,0 -0.69394,0.12058 -0.96323,0.4209 -0.89088,0.52103 0.0606,0.0839 0.30621,0.0481 0.92991,0.0726 0,0 0,0 0,0 0.47924,0.0439 0.85059,0.10079 1.57687,0.22478 1.53223,0.26471 2.64371,0.50887 4.91645,1.02711 4.479,1.02402 7.13179,1.69793 13.01375,3.16128 -0.031,-0.008 0.8972,0.22283 0.86621,0.21512 0,0 0,0 0,0 10.86006,2.87729 19.64426,4.76809 19.78322,4.24775 z"
       id="path1272"
       inkscape:path-effect="#path-effect1274"
       inkscape:original-d="m 186.47776,242.92358 c 0,0 -38.35879,-10.9193 -41.08641,-8.94862"
       class="UnoptimicedTransforms" />
    <path
       style="fill:#000000;stroke:none"
       d="m 183.06601,241.98125 c 0.38479,-0.39688 -3.82018,-5.09861 -9.38981,-10.49858 -0.12645,-0.1226 -0.25252,-0.24451 -0.37817,-0.36569 -2.8922,-2.67627 -5.20215,-4.60215 -7.44021,-6.08176 -1.06724,-0.71311 -1.82147,-1.14042 -2.62811,-1.36698 -0.28411,-0.10594 -0.60464,-0.13033 -0.87391,-0.0424 -0.14182,0.046 -0.23641,0.152 -0.28389,0.25352 0,0 0,0 0,0 -0.0967,0.27702 0.0326,0.3504 0.0978,0.3504 0.0652,-10e-6 0.12683,-0.13715 0.21758,-0.13633 0,0 0,0 0,0 0.0186,0.003 0.0473,0.0203 0.0652,0.0363 0.1011,0.0148 0.20452,0.1346 0.45111,0.265 0.74093,0.49797 1.01987,0.79722 2.10153,1.74893 2.92669,2.61556 3.0843,2.84835 6.91499,6.42481 0.12484,0.12167 0.2504,0.24374 0.37667,0.36617 5.55816,5.38898 10.38443,9.4435 10.76922,9.04662 z"
       id="path1276"
       inkscape:path-effect="#path-effect1278"
       inkscape:original-d="m 183.06603,241.98127 c 0,0 -20.8963,-21.09712 -20.8963,-17.75159"
       class="UnoptimicedTransforms" />
  </g>
</svg>
