<?xml version="1.0" encoding="UTF-8" standalone="no"?>
<!-- Created with Inkscape (http://www.inkscape.org/) -->

<svg
   width="512"
   height="512"
   viewBox="0 0 512 512.00002"
   version="1.1"
   id="svg5"
   inkscape:version="1.2.2 (b0a8486541, 2022-12-01)"
   sodipodi:docname="proud.svg"
   inkscape:export-filename="../../../../static/icons/avatars/ezran/proud.webp"
   inkscape:export-xdpi="96"
   inkscape:export-ydpi="96"
   xmlns:inkscape="http://www.inkscape.org/namespaces/inkscape"
   xmlns:sodipodi="http://sodipodi.sourceforge.net/DTD/sodipodi-0.dtd"
   xmlns="http://www.w3.org/2000/svg"
   xmlns:svg="http://www.w3.org/2000/svg">
  <sodipodi:namedview
     id="namedview7"
     pagecolor="#ffffff"
     bordercolor="#000000"
     borderopacity="0.25"
     inkscape:showpageshadow="2"
     inkscape:pageopacity="0.0"
     inkscape:pagecheckerboard="0"
     inkscape:deskcolor="#d1d1d1"
     inkscape:document-units="px"
     showgrid="false"
     inkscape:zoom="1.0227042"
     inkscape:cx="341.25215"
     inkscape:cy="11.733598"
     inkscape:window-width="1366"
     inkscape:window-height="699"
     inkscape:window-x="0"
     inkscape:window-y="0"
     inkscape:window-maximized="1"
     inkscape:current-layer="layer1" />
  <defs
     id="defs2">
    <inkscape:path-effect
       effect="skeletal"
       id="path-effect1722"
       is_visible="true"
       lpeversion="1"
       pattern="M 0,18.867925 C 0,8.4528302 8.4528302,0 18.867925,0 c 10.415094,0 18.867924,8.4528302 18.867924,18.867925 0,10.415094 -8.45283,18.867924 -18.867924,18.867924 C 8.4528302,37.735849 0,29.283019 0,18.867925 Z"
       copytype="single_stretched"
       prop_scale="1.1385963"
       scale_y_rel="false"
       spacing="0"
       normal_offset="0"
       tang_offset="0"
       prop_units="false"
       vertical_pattern="false"
       hide_knot="false"
       fuse_tolerance="0" />
    <inkscape:path-effect
       effect="skeletal"
       id="path-effect1509"
       is_visible="true"
       lpeversion="1"
       pattern="M 0,18.867925 C 0,8.4528302 8.4528302,0 18.867925,0 c 10.415094,0 18.867924,8.4528302 18.867924,18.867925 0,10.415094 -8.45283,18.867924 -18.867924,18.867924 C 8.4528302,37.735849 0,29.283019 0,18.867925 Z"
       copytype="single_stretched"
       prop_scale="0.13085941"
       scale_y_rel="false"
       spacing="0"
       normal_offset="0"
       tang_offset="0"
       prop_units="false"
       vertical_pattern="false"
       hide_knot="false"
       fuse_tolerance="0" />
    <inkscape:path-effect
       effect="skeletal"
       id="path-effect1027"
       is_visible="true"
       lpeversion="1"
       pattern="M 0,18.867925 C 0,8.4528302 8.4528302,0 18.867925,0 c 10.415094,0 18.867924,8.4528302 18.867924,18.867925 0,10.415094 -8.45283,18.867924 -18.867924,18.867924 C 8.4528302,37.735849 0,29.283019 0,18.867925 Z"
       copytype="single_stretched"
       prop_scale="0.087111828"
       scale_y_rel="false"
       spacing="0"
       normal_offset="0"
       tang_offset="0"
       prop_units="false"
       vertical_pattern="false"
       hide_knot="false"
       fuse_tolerance="0" />
    <inkscape:path-effect
       effect="skeletal"
       id="path-effect918"
       is_visible="true"
       lpeversion="1"
       pattern="M 0,18.867925 C 0,8.4528302 8.4528302,0 18.867925,0 c 10.415094,0 18.867924,8.4528302 18.867924,18.867925 0,10.415094 -8.45283,18.867924 -18.867924,18.867924 C 8.4528302,37.735849 0,29.283019 0,18.867925 Z"
       copytype="single_stretched"
       prop_scale="0.24771703"
       scale_y_rel="false"
       spacing="0"
       normal_offset="0"
       tang_offset="0"
       prop_units="false"
       vertical_pattern="false"
       hide_knot="false"
       fuse_tolerance="0" />
    <inkscape:path-effect
       effect="skeletal"
       id="path-effect910"
       is_visible="true"
       lpeversion="1"
       pattern="M 0,18.867925 C 0,8.4528302 8.4528302,0 18.867925,0 c 10.415094,0 18.867924,8.4528302 18.867924,18.867925 0,10.415094 -8.45283,18.867924 -18.867924,18.867924 C 8.4528302,37.735849 0,29.283019 0,18.867925 Z"
       copytype="single_stretched"
       prop_scale="0.24771703"
       scale_y_rel="false"
       spacing="0"
       normal_offset="0"
       tang_offset="0"
       prop_units="false"
       vertical_pattern="false"
       hide_knot="false"
       fuse_tolerance="0" />
    <inkscape:path-effect
       effect="skeletal"
       id="path-effect906"
       is_visible="true"
       lpeversion="1"
       pattern="M 0,18.867925 C 0,8.4528302 8.4528302,0 18.867925,0 c 10.415094,0 18.867924,8.4528302 18.867924,18.867925 0,10.415094 -8.45283,18.867924 -18.867924,18.867924 C 8.4528302,37.735849 0,29.283019 0,18.867925 Z"
       copytype="single_stretched"
       prop_scale="0.32788554"
       scale_y_rel="false"
       spacing="0"
       normal_offset="0"
       tang_offset="0"
       prop_units="false"
       vertical_pattern="false"
       hide_knot="false"
       fuse_tolerance="0" />
    <inkscape:path-effect
       effect="skeletal"
       id="path-effect701"
       is_visible="true"
       lpeversion="1"
       pattern="M 0,18.867925 C 0,8.4528302 8.4528302,0 18.867925,0 c 10.415094,0 18.867924,8.4528302 18.867924,18.867925 0,10.415094 -8.45283,18.867924 -18.867924,18.867924 C 8.4528302,37.735849 0,29.283019 0,18.867925 Z"
       copytype="single_stretched"
       prop_scale="0.044599021"
       scale_y_rel="false"
       spacing="0"
       normal_offset="0"
       tang_offset="0"
       prop_units="false"
       vertical_pattern="false"
       hide_knot="false"
       fuse_tolerance="0" />
    <inkscape:path-effect
       effect="skeletal"
       id="path-effect636"
       is_visible="true"
       lpeversion="1"
       pattern="M 0,18.867925 C 0,8.4528302 8.4528302,0 18.867925,0 c 10.415094,0 18.867924,8.4528302 18.867924,18.867925 0,10.415094 -8.45283,18.867924 -18.867924,18.867924 C 8.4528302,37.735849 0,29.283019 0,18.867925 Z"
       copytype="single_stretched"
       prop_scale="0.080816992"
       scale_y_rel="false"
       spacing="0"
       normal_offset="0"
       tang_offset="0"
       prop_units="false"
       vertical_pattern="false"
       hide_knot="false"
       fuse_tolerance="0" />
    <inkscape:path-effect
       effect="skeletal"
       id="path-effect632"
       is_visible="true"
       lpeversion="1"
       pattern="M 0,18.867925 C 0,8.4528302 8.4528302,0 18.867925,0 c 10.415094,0 18.867924,8.4528302 18.867924,18.867925 0,10.415094 -8.45283,18.867924 -18.867924,18.867924 C 8.4528302,37.735849 0,29.283019 0,18.867925 Z"
       copytype="single_stretched"
       prop_scale="0.040842712"
       scale_y_rel="false"
       spacing="0"
       normal_offset="0"
       tang_offset="0"
       prop_units="false"
       vertical_pattern="false"
       hide_knot="false"
       fuse_tolerance="0" />
    <inkscape:path-effect
       effect="skeletal"
       id="path-effect628"
       is_visible="true"
       lpeversion="1"
       pattern="M 0,18.867925 C 0,8.4528302 8.4528302,0 18.867925,0 c 10.415094,0 18.867924,8.4528302 18.867924,18.867925 0,10.415094 -8.45283,18.867924 -18.867924,18.867924 C 8.4528302,37.735849 0,29.283019 0,18.867925 Z"
       copytype="single_stretched"
       prop_scale="0.020208704"
       scale_y_rel="false"
       spacing="0"
       normal_offset="0"
       tang_offset="0"
       prop_units="false"
       vertical_pattern="false"
       hide_knot="false"
       fuse_tolerance="0" />
    <inkscape:path-effect
       effect="skeletal"
       id="path-effect561"
       is_visible="true"
       lpeversion="1"
       pattern="M 0,18.867925 C 0,8.4528302 8.4528302,0 18.867925,0 c 10.415094,0 18.867924,8.4528302 18.867924,18.867925 0,10.415094 -8.45283,18.867924 -18.867924,18.867924 C 8.4528302,37.735849 0,29.283019 0,18.867925 Z"
       copytype="single_stretched"
       prop_scale="0.020208704"
       scale_y_rel="false"
       spacing="0"
       normal_offset="0"
       tang_offset="0"
       prop_units="false"
       vertical_pattern="false"
       hide_knot="false"
       fuse_tolerance="0" />
    <inkscape:path-effect
       effect="skeletal"
       id="path-effect2919"
       is_visible="true"
       lpeversion="1"
       pattern="M 0,18.867925 C 0,8.4528302 8.4528302,0 18.867925,0 c 10.415094,0 18.867924,8.4528302 18.867924,18.867925 0,10.415094 -8.45283,18.867924 -18.867924,18.867924 C 8.4528302,37.735849 0,29.283019 0,18.867925 Z"
       copytype="single_stretched"
       prop_scale="0.12128785"
       scale_y_rel="false"
       spacing="0"
       normal_offset="0"
       tang_offset="0"
       prop_units="false"
       vertical_pattern="false"
       hide_knot="false"
       fuse_tolerance="0" />
    <inkscape:path-effect
       effect="skeletal"
       id="path-effect2862"
       is_visible="true"
       lpeversion="1"
       pattern="M 0,18.867925 C 0,8.4528302 8.4528302,0 18.867925,0 c 10.415094,0 18.867924,8.4528302 18.867924,18.867925 0,10.415094 -8.45283,18.867924 -18.867924,18.867924 C 8.4528302,37.735849 0,29.283019 0,18.867925 Z"
       copytype="single_stretched"
       prop_scale="0.12128785"
       scale_y_rel="false"
       spacing="0"
       normal_offset="0"
       tang_offset="0"
       prop_units="false"
       vertical_pattern="false"
       hide_knot="false"
       fuse_tolerance="0" />
    <inkscape:path-effect
       effect="skeletal"
       id="path-effect2802"
       is_visible="true"
       lpeversion="1"
       pattern="M 0,18.867925 C 0,8.4528302 8.4528302,0 18.867925,0 c 10.415094,0 18.867924,8.4528302 18.867924,18.867925 0,10.415094 -8.45283,18.867924 -18.867924,18.867924 C 8.4528302,37.735849 0,29.283019 0,18.867925 Z"
       copytype="single_stretched"
       prop_scale="0.35501243"
       scale_y_rel="false"
       spacing="0"
       normal_offset="0"
       tang_offset="0"
       prop_units="false"
       vertical_pattern="false"
       hide_knot="false"
       fuse_tolerance="0" />
    <inkscape:path-effect
       effect="skeletal"
       id="path-effect2798"
       is_visible="true"
       lpeversion="1"
       pattern="M 0,18.867925 C 0,8.4528302 8.4528302,0 18.867925,0 c 10.415094,0 18.867924,8.4528302 18.867924,18.867925 0,10.415094 -8.45283,18.867924 -18.867924,18.867924 C 8.4528302,37.735849 0,29.283019 0,18.867925 Z"
       copytype="single_stretched"
       prop_scale="0.35501243"
       scale_y_rel="false"
       spacing="0"
       normal_offset="0"
       tang_offset="0"
       prop_units="false"
       vertical_pattern="false"
       hide_knot="false"
       fuse_tolerance="0" />
    <inkscape:path-effect
       effect="skeletal"
       id="path-effect2794"
       is_visible="true"
       lpeversion="1"
       pattern="M 0,18.867925 C 0,8.4528302 8.4528302,0 18.867925,0 c 10.415094,0 18.867924,8.4528302 18.867924,18.867925 0,10.415094 -8.45283,18.867924 -18.867924,18.867924 C 8.4528302,37.735849 0,29.283019 0,18.867925 Z"
       copytype="single_stretched"
       prop_scale="0.35501243"
       scale_y_rel="false"
       spacing="0"
       normal_offset="0"
       tang_offset="0"
       prop_units="false"
       vertical_pattern="false"
       hide_knot="false"
       fuse_tolerance="0" />
    <inkscape:path-effect
       effect="skeletal"
       id="path-effect2790"
       is_visible="true"
       lpeversion="1"
       pattern="M 0,18.867925 C 0,8.4528302 8.4528302,0 18.867925,0 c 10.415094,0 18.867924,8.4528302 18.867924,18.867925 0,10.415094 -8.45283,18.867924 -18.867924,18.867924 C 8.4528302,37.735849 0,29.283019 0,18.867925 Z"
       copytype="single_stretched"
       prop_scale="0.35501243"
       scale_y_rel="false"
       spacing="0"
       normal_offset="0"
       tang_offset="0"
       prop_units="false"
       vertical_pattern="false"
       hide_knot="false"
       fuse_tolerance="0" />
    <inkscape:path-effect
       effect="skeletal"
       id="path-effect1976"
       is_visible="true"
       lpeversion="1"
       pattern="M 0,18.867925 C 0,8.4528302 8.4528302,0 18.867925,0 c 10.415094,0 18.867924,8.4528302 18.867924,18.867925 0,10.415094 -8.45283,18.867924 -18.867924,18.867924 C 8.4528302,37.735849 0,29.283019 0,18.867925 Z"
       copytype="single_stretched"
       prop_scale="0.049362502"
       scale_y_rel="false"
       spacing="0"
       normal_offset="0"
       tang_offset="0"
       prop_units="false"
       vertical_pattern="false"
       hide_knot="false"
       fuse_tolerance="0" />
    <inkscape:path-effect
       effect="skeletal"
       id="path-effect1972"
       is_visible="true"
       lpeversion="1"
       pattern="M 0,18.867925 C 0,8.4528302 8.4528302,0 18.867925,0 c 10.415094,0 18.867924,8.4528302 18.867924,18.867925 0,10.415094 -8.45283,18.867924 -18.867924,18.867924 C 8.4528302,37.735849 0,29.283019 0,18.867925 Z"
       copytype="single_stretched"
       prop_scale="0.049362502"
       scale_y_rel="false"
       spacing="0"
       normal_offset="0"
       tang_offset="0"
       prop_units="false"
       vertical_pattern="false"
       hide_knot="false"
       fuse_tolerance="0" />
    <inkscape:path-effect
       effect="skeletal"
       id="path-effect938"
       is_visible="true"
       lpeversion="1"
       pattern="M 0,18.867925 C 0,8.4528302 8.4528302,0 18.867925,0 c 10.415094,0 18.867924,8.4528302 18.867924,18.867925 0,10.415094 -8.45283,18.867924 -18.867924,18.867924 C 8.4528302,37.735849 0,29.283019 0,18.867925 Z"
       copytype="single_stretched"
       prop_scale="0.052512135"
       scale_y_rel="false"
       spacing="0"
       normal_offset="0"
       tang_offset="0"
       prop_units="false"
       vertical_pattern="false"
       hide_knot="false"
       fuse_tolerance="0" />
    <inkscape:path-effect
       effect="skeletal"
       id="path-effect934"
       is_visible="true"
       lpeversion="1"
       pattern="M 0,18.867925 C 0,8.4528302 8.4528302,0 18.867925,0 c 10.415094,0 18.867924,8.4528302 18.867924,18.867925 0,10.415094 -8.45283,18.867924 -18.867924,18.867924 C 8.4528302,37.735849 0,29.283019 0,18.867925 Z"
       copytype="single_stretched"
       prop_scale="0.052512135"
       scale_y_rel="false"
       spacing="0"
       normal_offset="0"
       tang_offset="0"
       prop_units="false"
       vertical_pattern="false"
       hide_knot="false"
       fuse_tolerance="0" />
    <inkscape:path-effect
       effect="skeletal"
       id="path-effect930"
       is_visible="true"
       lpeversion="1"
       pattern="M 0,18.867925 C 0,8.4528302 8.4528302,0 18.867925,0 c 10.415094,0 18.867924,8.4528302 18.867924,18.867925 0,10.415094 -8.45283,18.867924 -18.867924,18.867924 C 8.4528302,37.735849 0,29.283019 0,18.867925 Z"
       copytype="single_stretched"
       prop_scale="0.052512135"
       scale_y_rel="false"
       spacing="0"
       normal_offset="0"
       tang_offset="0"
       prop_units="false"
       vertical_pattern="false"
       hide_knot="false"
       fuse_tolerance="0" />
    <inkscape:path-effect
       effect="skeletal"
       id="path-effect926"
       is_visible="true"
       lpeversion="1"
       pattern="M 0,18.867925 C 0,8.4528302 8.4528302,0 18.867925,0 c 10.415094,0 18.867924,8.4528302 18.867924,18.867925 0,10.415094 -8.45283,18.867924 -18.867924,18.867924 C 8.4528302,37.735849 0,29.283019 0,18.867925 Z"
       copytype="single_stretched"
       prop_scale="0.052512135"
       scale_y_rel="false"
       spacing="0"
       normal_offset="0"
       tang_offset="0"
       prop_units="false"
       vertical_pattern="false"
       hide_knot="false"
       fuse_tolerance="0" />
    <inkscape:path-effect
       effect="skeletal"
       id="path-effect919"
       is_visible="true"
       lpeversion="1"
       pattern="M 0,18.867925 C 0,8.4528302 8.4528302,0 18.867925,0 c 10.415094,0 18.867924,8.4528302 18.867924,18.867925 0,10.415094 -8.45283,18.867924 -18.867924,18.867924 C 8.4528302,37.735849 0,29.283019 0,18.867925 Z"
       copytype="single_stretched"
       prop_scale="0.14042457"
       scale_y_rel="false"
       spacing="0"
       normal_offset="0"
       tang_offset="0"
       prop_units="false"
       vertical_pattern="false"
       hide_knot="false"
       fuse_tolerance="0" />
    <inkscape:path-effect
       effect="skeletal"
       id="path-effect915"
       is_visible="true"
       lpeversion="1"
       pattern="M 0,18.867925 C 0,8.4528302 8.4528302,0 18.867925,0 c 10.415094,0 18.867924,8.4528302 18.867924,18.867925 0,10.415094 -8.45283,18.867924 -18.867924,18.867924 C 8.4528302,37.735849 0,29.283019 0,18.867925 Z"
       copytype="single_stretched"
       prop_scale="0.14042457"
       scale_y_rel="false"
       spacing="0"
       normal_offset="0"
       tang_offset="0"
       prop_units="false"
       vertical_pattern="false"
       hide_knot="false"
       fuse_tolerance="0" />
    <inkscape:path-effect
       effect="skeletal"
       id="path-effect911"
       is_visible="true"
       lpeversion="1"
       pattern="M 0,18.867925 C 0,8.4528302 8.4528302,0 18.867925,0 c 10.415094,0 18.867924,8.4528302 18.867924,18.867925 0,10.415094 -8.45283,18.867924 -18.867924,18.867924 C 8.4528302,37.735849 0,29.283019 0,18.867925 Z"
       copytype="single_stretched"
       prop_scale="0.14042457"
       scale_y_rel="false"
       spacing="0"
       normal_offset="0"
       tang_offset="0"
       prop_units="false"
       vertical_pattern="false"
       hide_knot="false"
       fuse_tolerance="0" />
    <inkscape:path-effect
       effect="skeletal"
       id="path-effect907"
       is_visible="true"
       lpeversion="1"
       pattern="M 0,18.867925 C 0,8.4528302 8.4528302,0 18.867925,0 c 10.415094,0 18.867924,8.4528302 18.867924,18.867925 0,10.415094 -8.45283,18.867924 -18.867924,18.867924 C 8.4528302,37.735849 0,29.283019 0,18.867925 Z"
       copytype="single_stretched"
       prop_scale="0.14042457"
       scale_y_rel="false"
       spacing="0"
       normal_offset="0"
       tang_offset="0"
       prop_units="false"
       vertical_pattern="false"
       hide_knot="false"
       fuse_tolerance="0" />
    <inkscape:path-effect
       effect="skeletal"
       id="path-effect903"
       is_visible="true"
       lpeversion="1"
       pattern="M 0,18.867925 C 0,8.4528302 8.4528302,0 18.867925,0 c 10.415094,0 18.867924,8.4528302 18.867924,18.867925 0,10.415094 -8.45283,18.867924 -18.867924,18.867924 C 8.4528302,37.735849 0,29.283019 0,18.867925 Z"
       copytype="single_stretched"
       prop_scale="0.14042457"
       scale_y_rel="false"
       spacing="0"
       normal_offset="0"
       tang_offset="0"
       prop_units="false"
       vertical_pattern="false"
       hide_knot="false"
       fuse_tolerance="0" />
    <inkscape:path-effect
       effect="skeletal"
       id="path-effect899"
       is_visible="true"
       lpeversion="1"
       pattern="M 0,18.867925 C 0,8.4528302 8.4528302,0 18.867925,0 c 10.415094,0 18.867924,8.4528302 18.867924,18.867925 0,10.415094 -8.45283,18.867924 -18.867924,18.867924 C 8.4528302,37.735849 0,29.283019 0,18.867925 Z"
       copytype="single_stretched"
       prop_scale="0.14042457"
       scale_y_rel="false"
       spacing="0"
       normal_offset="0"
       tang_offset="0"
       prop_units="false"
       vertical_pattern="false"
       hide_knot="false"
       fuse_tolerance="0" />
    <inkscape:path-effect
       effect="skeletal"
       id="path-effect895"
       is_visible="true"
       lpeversion="1"
       pattern="M 0,18.867925 C 0,8.4528302 8.4528302,0 18.867925,0 c 10.415094,0 18.867924,8.4528302 18.867924,18.867925 0,10.415094 -8.45283,18.867924 -18.867924,18.867924 C 8.4528302,37.735849 0,29.283019 0,18.867925 Z"
       copytype="single_stretched"
       prop_scale="0.14042457"
       scale_y_rel="false"
       spacing="0"
       normal_offset="0"
       tang_offset="0"
       prop_units="false"
       vertical_pattern="false"
       hide_knot="false"
       fuse_tolerance="0" />
    <inkscape:path-effect
       effect="skeletal"
       id="path-effect891"
       is_visible="true"
       lpeversion="1"
       pattern="M 0,18.867925 C 0,8.4528302 8.4528302,0 18.867925,0 c 10.415094,0 18.867924,8.4528302 18.867924,18.867925 0,10.415094 -8.45283,18.867924 -18.867924,18.867924 C 8.4528302,37.735849 0,29.283019 0,18.867925 Z"
       copytype="single_stretched"
       prop_scale="0.14042457"
       scale_y_rel="false"
       spacing="0"
       normal_offset="0"
       tang_offset="0"
       prop_units="false"
       vertical_pattern="false"
       hide_knot="false"
       fuse_tolerance="0" />
    <inkscape:path-effect
       effect="skeletal"
       id="path-effect581"
       is_visible="true"
       lpeversion="1"
       pattern="M 0,18.867925 C 0,8.4528302 8.4528302,0 18.867925,0 c 10.415094,0 18.867924,8.4528302 18.867924,18.867925 0,10.415094 -8.45283,18.867924 -18.867924,18.867924 C 8.4528302,37.735849 0,29.283019 0,18.867925 Z"
       copytype="single_stretched"
       prop_scale="0.12279503"
       scale_y_rel="false"
       spacing="0"
       normal_offset="0"
       tang_offset="0"
       prop_units="false"
       vertical_pattern="false"
       hide_knot="false"
       fuse_tolerance="0" />
    <inkscape:path-effect
       effect="skeletal"
       id="path-effect577"
       is_visible="true"
       lpeversion="1"
       pattern="M 0,18.867925 C 0,8.4528302 8.4528302,0 18.867925,0 c 10.415094,0 18.867924,8.4528302 18.867924,18.867925 0,10.415094 -8.45283,18.867924 -18.867924,18.867924 C 8.4528302,37.735849 0,29.283019 0,18.867925 Z"
       copytype="single_stretched"
       prop_scale="0.12279503"
       scale_y_rel="false"
       spacing="0"
       normal_offset="0"
       tang_offset="0"
       prop_units="false"
       vertical_pattern="false"
       hide_knot="false"
       fuse_tolerance="0" />
    <inkscape:path-effect
       effect="skeletal"
       id="path-effect510"
       is_visible="true"
       lpeversion="1"
       pattern="M 0,18.867925 C 0,8.4528302 8.4528302,0 18.867925,0 c 10.415094,0 18.867924,8.4528302 18.867924,18.867925 0,10.415094 -8.45283,18.867924 -18.867924,18.867924 C 8.4528302,37.735849 0,29.283019 0,18.867925 Z"
       copytype="single_stretched"
       prop_scale="0.14042457"
       scale_y_rel="false"
       spacing="0"
       normal_offset="0"
       tang_offset="0"
       prop_units="false"
       vertical_pattern="false"
       hide_knot="false"
       fuse_tolerance="0" />
    <inkscape:path-effect
       effect="skeletal"
       id="path-effect2644"
       is_visible="true"
       lpeversion="1"
       pattern="M 0,18.867925 C 0,8.4528302 8.4528302,0 18.867925,0 c 10.415094,0 18.867924,8.4528302 18.867924,18.867925 0,10.415094 -8.45283,18.867924 -18.867924,18.867924 C 8.4528302,37.735849 0,29.283019 0,18.867925 Z"
       copytype="single_stretched"
       prop_scale="0.34965791"
       scale_y_rel="false"
       spacing="0"
       normal_offset="0"
       tang_offset="0"
       prop_units="false"
       vertical_pattern="false"
       hide_knot="false"
       fuse_tolerance="0" />
    <inkscape:path-effect
       effect="skeletal"
       id="path-effect2640"
       is_visible="true"
       lpeversion="1"
       pattern="M 0,18.867925 C 0,8.4528302 8.4528302,0 18.867925,0 c 10.415094,0 18.867924,8.4528302 18.867924,18.867925 0,10.415094 -8.45283,18.867924 -18.867924,18.867924 C 8.4528302,37.735849 0,29.283019 0,18.867925 Z"
       copytype="single_stretched"
       prop_scale="0.34965791"
       scale_y_rel="false"
       spacing="0"
       normal_offset="0"
       tang_offset="0"
       prop_units="false"
       vertical_pattern="false"
       hide_knot="false"
       fuse_tolerance="0" />
    <inkscape:path-effect
       effect="skeletal"
       id="path-effect2636"
       is_visible="true"
       lpeversion="1"
       pattern="M 0,18.867925 C 0,8.4528302 8.4528302,0 18.867925,0 c 10.415094,0 18.867924,8.4528302 18.867924,18.867925 0,10.415094 -8.45283,18.867924 -18.867924,18.867924 C 8.4528302,37.735849 0,29.283019 0,18.867925 Z"
       copytype="single_stretched"
       prop_scale="0.34965791"
       scale_y_rel="false"
       spacing="0"
       normal_offset="0"
       tang_offset="0"
       prop_units="false"
       vertical_pattern="false"
       hide_knot="false"
       fuse_tolerance="0" />
    <inkscape:path-effect
       effect="skeletal"
       id="path-effect2632"
       is_visible="true"
       lpeversion="1"
       pattern="M 0,18.867925 C 0,8.4528302 8.4528302,0 18.867925,0 c 10.415094,0 18.867924,8.4528302 18.867924,18.867925 0,10.415094 -8.45283,18.867924 -18.867924,18.867924 C 8.4528302,37.735849 0,29.283019 0,18.867925 Z"
       copytype="single_stretched"
       prop_scale="0.34965791"
       scale_y_rel="false"
       spacing="0"
       normal_offset="0"
       tang_offset="0"
       prop_units="false"
       vertical_pattern="false"
       hide_knot="false"
       fuse_tolerance="0" />
    <inkscape:path-effect
       effect="skeletal"
       id="path-effect2628"
       is_visible="true"
       lpeversion="1"
       pattern="M 0,18.867925 C 0,8.4528302 8.4528302,0 18.867925,0 c 10.415094,0 18.867924,8.4528302 18.867924,18.867925 0,10.415094 -8.45283,18.867924 -18.867924,18.867924 C 8.4528302,37.735849 0,29.283019 0,18.867925 Z"
       copytype="single_stretched"
       prop_scale="0.34965791"
       scale_y_rel="false"
       spacing="0"
       normal_offset="0"
       tang_offset="0"
       prop_units="false"
       vertical_pattern="false"
       hide_knot="false"
       fuse_tolerance="0" />
    <inkscape:path-effect
       effect="skeletal"
       id="path-effect2624"
       is_visible="true"
       lpeversion="1"
       pattern="M 0,18.867925 C 0,8.4528302 8.4528302,0 18.867925,0 c 10.415094,0 18.867924,8.4528302 18.867924,18.867925 0,10.415094 -8.45283,18.867924 -18.867924,18.867924 C 8.4528302,37.735849 0,29.283019 0,18.867925 Z"
       copytype="single_stretched"
       prop_scale="0.34965791"
       scale_y_rel="false"
       spacing="0"
       normal_offset="0"
       tang_offset="0"
       prop_units="false"
       vertical_pattern="false"
       hide_knot="false"
       fuse_tolerance="0" />
    <inkscape:path-effect
       effect="skeletal"
       id="path-effect2615"
       is_visible="true"
       lpeversion="1"
       pattern="M 0,18.867925 C 0,8.4528302 8.4528302,0 18.867925,0 c 10.415094,0 18.867924,8.4528302 18.867924,18.867925 0,10.415094 -8.45283,18.867924 -18.867924,18.867924 C 8.4528302,37.735849 0,29.283019 0,18.867925 Z"
       copytype="single_stretched"
       prop_scale="0.63609496"
       scale_y_rel="false"
       spacing="0"
       normal_offset="0"
       tang_offset="0"
       prop_units="false"
       vertical_pattern="false"
       hide_knot="false"
       fuse_tolerance="0" />
    <inkscape:path-effect
       effect="skeletal"
       id="path-effect2611"
       is_visible="true"
       lpeversion="1"
       pattern="M 0,18.867925 C 0,8.4528302 8.4528302,0 18.867925,0 c 10.415094,0 18.867924,8.4528302 18.867924,18.867925 0,10.415094 -8.45283,18.867924 -18.867924,18.867924 C 8.4528302,37.735849 0,29.283019 0,18.867925 Z"
       copytype="single_stretched"
       prop_scale="-0.2289063"
       scale_y_rel="false"
       spacing="0"
       normal_offset="0"
       tang_offset="0"
       prop_units="false"
       vertical_pattern="false"
       hide_knot="false"
       fuse_tolerance="0" />
    <inkscape:path-effect
       effect="skeletal"
       id="path-effect2599"
       is_visible="true"
       lpeversion="1"
       pattern="M 0,18.867925 C 0,8.4528302 8.4528302,0 18.867925,0 c 10.415094,0 18.867924,8.4528302 18.867924,18.867925 0,10.415094 -8.45283,18.867924 -18.867924,18.867924 C 8.4528302,37.735849 0,29.283019 0,18.867925 Z"
       copytype="single_stretched"
       prop_scale="0.63609496"
       scale_y_rel="false"
       spacing="0"
       normal_offset="0"
       tang_offset="0"
       prop_units="false"
       vertical_pattern="false"
       hide_knot="false"
       fuse_tolerance="0" />
    <inkscape:path-effect
       effect="skeletal"
       id="path-effect2595"
       is_visible="true"
       lpeversion="1"
       pattern="M 0,18.867925 C 0,8.4528302 8.4528302,0 18.867925,0 c 10.415094,0 18.867924,8.4528302 18.867924,18.867925 0,10.415094 -8.45283,18.867924 -18.867924,18.867924 C 8.4528302,37.735849 0,29.283019 0,18.867925 Z"
       copytype="single_stretched"
       prop_scale="0.63609496"
       scale_y_rel="false"
       spacing="0"
       normal_offset="0"
       tang_offset="0"
       prop_units="false"
       vertical_pattern="false"
       hide_knot="false"
       fuse_tolerance="0" />
    <inkscape:path-effect
       effect="skeletal"
       id="path-effect2591"
       is_visible="true"
       lpeversion="1"
       pattern="M 0,18.867925 C 0,8.4528302 8.4528302,0 18.867925,0 c 10.415094,0 18.867924,8.4528302 18.867924,18.867925 0,10.415094 -8.45283,18.867924 -18.867924,18.867924 C 8.4528302,37.735849 0,29.283019 0,18.867925 Z"
       copytype="single_stretched"
       prop_scale="0.63609496"
       scale_y_rel="false"
       spacing="0"
       normal_offset="0"
       tang_offset="0"
       prop_units="false"
       vertical_pattern="false"
       hide_knot="false"
       fuse_tolerance="0" />
    <inkscape:path-effect
       effect="skeletal"
       id="path-effect1942"
       is_visible="true"
       lpeversion="1"
       pattern="M 0,18.867925 C 0,8.4528302 8.4528302,0 18.867925,0 c 10.415094,0 18.867924,8.4528302 18.867924,18.867925 0,10.415094 -8.45283,18.867924 -18.867924,18.867924 C 8.4528302,37.735849 0,29.283019 0,18.867925 Z"
       copytype="single_stretched"
       prop_scale="0.34965791"
       scale_y_rel="false"
       spacing="0"
       normal_offset="0"
       tang_offset="0"
       prop_units="false"
       vertical_pattern="false"
       hide_knot="false"
       fuse_tolerance="0" />
  </defs>
  <g
     inkscape:label="Layer 1"
     inkscape:groupmode="layer"
     id="layer1">
    <rect
       style="fill:#ffffff;fill-opacity:1;stroke-width:0.408162"
       id="rect2758"
       width="976.20673"
       height="773.77045"
       x="-163.67799"
       y="-72.321411"
       inkscape:transform-center-x="94.514527"
       inkscape:transform-center-y="-761.88405" />
    <path
       style="fill:#000000;fill-opacity:1;stroke:none;stroke-width:0.5"
       d="m 129.19616,106.828 c 1.95799,-0.15816 5.69453,32.99804 13.80203,84.99531 0,0 0,1e-5 0,1e-5 2.94072,18.85462 6.73297,41.52014 11.8405,64.54321 3.26992,14.72025 7.19527,30.45004 12.51055,45.78749 3.45442,9.90384 7.40478,19.90008 12.87473,28.75349 1.8989,3.07276 3.9296,5.9757 6.22355,8.49291 1.8093,1.96772 3.6843,3.71086 5.68781,4.95689 0.20242,0.12552 0.40553,0.24735 0.60914,0.36506 1.4355,0.82994 2.88587,1.44967 4.29367,1.72407 1.4644,0.31806 3.0403,0.32996 4.55366,0.0648 1.63771,-0.26531 3.34214,-0.94118 5.03915,-1.83064 0,0 10e-6,-10e-6 10e-6,-10e-6 1.95267,-1.03248 3.83712,-2.4426 5.67902,-4.04097 4.62841,-4.01048 8.52393,-9.17417 12.11969,-14.58178 4.52324,-6.86375 8.34692,-14.21384 11.75825,-21.56593 4.05779,-8.76063 7.51683,-17.64284 10.54033,-26.32621 0,-1e-5 0,-1e-5 0,-2e-5 7.24687,-20.82735 12.08185,-40.609 15.32706,-58.48801 1.83603,-10.12541 3.0986,-19.36604 3.88279,-28.0703 0.83703,-9.33848 1.09064,-17.24073 0.79645,-24.60323 -0.34388,-8.12529 -1.1595,-13.92207 -2.64301,-19.19425 -0.83111,-2.95515 -1.71159,-5.18043 -2.66774,-7.08221 -1.90867,-3.78574 -3.62303,-5.46062 -3.30649,-5.8782 0.23467,-0.30957 2.77202,0.39541 5.85451,4.21058 1.4787,1.82495 2.94743,4.18375 4.29175,7.23814 2.36293,5.36478 4.05667,11.78301 5.10776,20.14301 0.97716,7.64649 1.33225,16.01848 1.04999,25.66581 -0.26051,9.02525 -1.06413,18.66408 -2.4884,29.13414 -2.51187,18.49215 -6.81456,39.04526 -13.79953,60.7416 0,0 0,2e-5 0,2e-5 -2.91544,9.06184 -6.34379,18.3961 -10.47009,27.70625 -3.45092,7.79999 -7.4736,15.75683 -12.38694,23.41647 -3.82762,6.01739 -8.42732,12.09491 -14.28775,17.35418 -2.37145,2.12525 -5.0597,4.11649 -8.10036,5.78572 0,0 -3e-5,1e-5 -3e-5,1e-5 -2.6723,1.47462 -5.68689,2.62021 -8.97865,3.23582 -3.14184,0.56669 -6.39796,0.53619 -9.59347,-0.12857 -2.99102,-0.65336 -5.75559,-1.77304 -8.23017,-3.22609 -0.35103,-0.20612 -0.69589,-0.41875 -1.03439,-0.63745 -3.27335,-2.11196 -6.04612,-4.62041 -8.39077,-7.25466 -2.9909,-3.33761 -5.49644,-6.89996 -7.65717,-10.47707 -6.16999,-10.21352 -10.42649,-21.0876 -13.85686,-31.45992 -5.37694,-16.15208 -9.14625,-32.38924 -12.12086,-47.45424 -4.68437,-23.68795 -7.71851,-46.50126 -9.81821,-65.72315 0,0 -1e-5,-1e-5 -1e-5,-1e-5 -5.76084,-52.71234 -5.96949,-86.13386 -4.0115,-86.29202 z"
       id="path1940"
       inkscape:path-effect="#path-effect1942"
       inkscape:original-d="m 129.19616,106.828 c 41.60031,515.01328 183.84426,69.65589 128.92116,28.02144"
       class="UnoptimicedTransforms"
       transform="matrix(0.66939245,0,0,-0.66939245,-34.606183,240.45926)"
       sodipodi:nodetypes="cc" />
    <g
       id="g2620"
       transform="matrix(0.63469609,0,0,0.63469609,-18.412602,130.22913)">
      <path
         style="fill:#000000;fill-opacity:1;stroke:none;stroke-width:0.5"
         d="m 219.08364,67.937127 c -0.066,-5.06241 57.87354,-8.646781 141.9631,-7.142099 -0.66964,27.124778 -1.54148,57.477552 -2.59406,88.972212 -8.9e-4,-2e-5 -2.41372,-0.062 -2.41462,-0.0621 -62.52964,-1.61579 -122.6704,-3.81263 -161.51631,-5.54931 7.62478,-42.88341 15.67554,-66.938033 18.93494,-66.176188 3.2594,0.761844 0.0577,24.848488 -10.45686,59.570888 36.48152,-0.41488 88.78812,-0.66521 141.59993,-0.26111 -10e-4,0 2.07102,0.0162 2.07002,0.0162 1.04655,-22.96896 2.19759,-45.071978 3.37156,-65.782322 -75.73631,3.587078 -130.89174,1.476239 -130.9577,-3.586171 z"
         id="path2597"
         inkscape:original-d="m 219.08364,67.937127 136.4604,-1.777964 -2.98281,77.377267 -153.80044,-2.68322 14.69589,-62.873514"
         inkscape:path-effect="#path-effect2599"
         class="UnoptimicedTransforms" />
      <path
         style="fill:#000000;fill-opacity:1;stroke:none;stroke-width:0.5"
         d="m 359.5298,101.21372 c 0.0754,2.38289 20.38527,3.6764 45.33461,2.88729 24.94934,-0.7891 45.13691,-3.36347 45.06155,-5.746364 -0.0754,-2.382889 -20.38528,-3.676395 -45.33461,-2.887291 -24.94934,0.789104 -45.13692,3.363476 -45.06155,5.746365 z"
         id="path2609"
         inkscape:original-d="m 359.5298,101.21372 90.39614,-2.859073"
         inkscape:path-effect="#path-effect2611"
         class="UnoptimicedTransforms" />
      <path
         style="fill:#000000;fill-opacity:1;stroke:none;stroke-width:0.5"
         d="m 450.91262,66.465259 c -0.12433,-5.116777 58.56912,-9.382942 143.37027,-8.840133 -0.27496,26.57934 -0.71083,56.050544 -1.30561,86.730744 -2.1e-4,0.0103 -0.20304,10.21263 -0.20325,10.22296 -59.99162,-2.6726 -114.21689,-5.66221 -151.95124,-8.24581 0,0 0,-1e-5 0,-1e-5 2.61787,-42.84555 7.57729,-67.283191 10.89089,-66.94335 3.31361,0.339841 3.31986,24.19811 -2.05635,59.29869 0,0 0,0 0,10e-6 35.41022,0.4884 81.50643,1.70786 131.63084,3.65937 -1.5e-4,0.007 0.17122,-7.71969 0.17107,-7.71285 0.52726,-23.08653 1.16785,-45.188798 1.88251,-66.031046 -76.40528,4.459911 -132.3048,2.978203 -132.42913,-2.138575 z"
         id="path2613"
         inkscape:original-d="m 450.91262,66.465259 137.8997,-3.350779 -1.78122,85.3488 -141.79104,-5.95259 6.47362,-63.120997"
         inkscape:path-effect="#path-effect2615"
         class="UnoptimicedTransforms" />
    </g>
    <path
       style="fill:#000000;fill-opacity:1;stroke:none;stroke-width:0.5"
       d="m 728.35372,129.17577 c 0.0221,-0.007 0.0453,-0.0109 0.0696,-0.0112 0.0247,0.002 0.0509,0.009 0.0785,0.0198 0.0551,0.0222 0.11588,0.0623 0.18232,0.12026 0,0 0,0 0,0 0.13237,0.11543 0.28697,0.30136 0.46329,0.55667 0,0 0,0 0,0 l 0,0 c 0.3498,0.5065 0.78381,1.28425 1.29772,2.32566 l 0,1e-5 c 1.00986,2.0464 2.31924,5.09135 3.89312,9.0845 l 0,0 c 2.99805,7.60646 6.95573,18.64833 11.48898,32.57197 l 0,1e-5 0,1e-5 c 4.1391,12.71277 8.86822,28.17063 13.61471,45.43393 v 0 c 4.17616,15.18714 8.55952,32.43799 12.40918,50.702 l 0,0 0,2e-5 0,0 c 3.16687,15.0076 6.18143,31.47259 7.91979,48.47336 l 0,0 c 0.7008,6.84604 1.19634,13.93779 1.24008,21.16519 l 0,0 c 0.0444,5.82859 -0.22076,11.92144 -1.21255,18.10466 -0.70079,4.66195 -2.00131,9.69186 -4.56061,14.58872 0,0 -2e-5,2e-5 -2e-5,2e-5 -1.04498,1.98137 -2.4189,3.94705 -4.17624,5.77039 -1.62512,1.67454 -3.59022,3.09966 -5.84639,4.16465 0,0 -3e-5,10e-6 -3e-5,10e-6 -2.32284,1.05838 -4.74012,1.6472 -7.13005,1.79591 -2.72558,0.15966 -5.30079,-0.11347 -7.65582,-0.67654 -0.77066,-0.18704 -1.52891,-0.39409 -2.27501,-0.61929 -5.43988,-1.64197 -10.1834,-4.23383 -14.30535,-6.97257 -33.29368,-21.4965 -60.33447,-46.04649 -80.96942,-72.73269 -18.41293,-23.82596 -30.22481,-47.61699 -37.34613,-68.99764 -7.0115,-21.11025 -9.17949,-38.69921 -9.50176,-51.13959 0.58583,-12.76043 1.31805,-19.65569 2.18698,-19.63671 0,0 10e-6,1e-5 10e-6,1e-5 0,0 10e-6,0 10e-6,0 0,0 1e-5,0 1e-5,0 0,0 0,0 0,0 0.006,2.6e-4 0.012,5.9e-4 0.004,2.2e-4 -0.008,-3.7e-4 -0.002,-1.5e-4 0.004,1.5e-4 0,0 10e-6,0 10e-6,0 0,0 0,0 0,0 0,0 10e-6,0 10e-6,0 0,0 10e-6,0 10e-6,0 0.86885,0.0618 1.79686,7.02284 2.73459,19.39108 1.77727,12.047 5.14032,28.53397 12.949,48.3519 7.91503,20.1473 20.03408,42.34219 38.20377,64.71887 20.35712,25.08553 46.59551,48.18472 78.87557,68.97012 3.71082,2.31186 7.33613,4.39288 10.91862,5.43686 0.49185,0.14334 0.98252,0.26705 1.47231,0.36928 1.41276,0.3016 2.70679,0.47579 3.81836,0.37704 0.9289,-0.0748 1.79385,-0.2616 2.47499,-0.59516 0,0 10e-6,0 10e-6,0 0.67971,-0.29541 1.362,-0.80869 1.99335,-1.4318 0.72287,-0.70218 1.37413,-1.67587 2.00215,-2.79226 0,0 0,-1e-5 0,-1e-5 1.63963,-2.87811 2.50522,-6.54912 3.22752,-10.47813 0.88587,-5.15184 1.14209,-10.53761 1.1766,-15.95612 l 0,0 c 0.0315,-6.68173 -0.36242,-13.38412 -0.93872,-19.97565 l 0,0 c -1.43266,-16.36281 -4.07625,-32.53001 -6.81764,-47.39302 l 0,0 0,-1e-5 0,0 c -3.3283,-18.02362 -7.12716,-35.33783 -10.6278,-50.51824 l 0,0 c -3.95523,-17.14973 -7.89785,-33.07506 -11.07362,-45.82936 l 0,-1e-5 0,0 c -3.53057,-14.17875 -6.36623,-25.4447 -8.20247,-33.42345 l 0,0 c -0.95762,-4.16097 -1.6408,-7.41526 -2.00123,-9.65314 l 0,0 c -0.18408,-1.14294 -0.28523,-2.02759 -0.29803,-2.64082 l 0,0 c 0,0 0,0 0,0 -0.006,-0.30951 0.01,-0.55048 0.0487,-0.72132 0,0 0,0 0,0 0.0196,-0.0858 0.0451,-0.154 0.0765,-0.20434 0.0157,-0.0252 0.033,-0.046 0.0517,-0.0622 0.0198,-0.0141 0.0407,-0.0248 0.0628,-0.032 z"
       id="path2626"
       inkscape:path-effect="#path-effect2628"
       inkscape:original-d="m 728.35254,129.17218 c 0,0 97.58964,298.14417 9.0667,241.06462 C 595.80482,278.92389 608.22261,163.2675 608.22261,163.2675"
       class="UnoptimicedTransforms"
       sodipodi:nodetypes="csc"
       transform="matrix(0.63469609,0,0,-0.63469609,-17.641419,257.47893)" />
    <path
       style="fill:#000000;fill-opacity:1;stroke:none;stroke-width:0.5"
       d="m 361.15655,202.66801 c -0.007,-0.0409 -0.007,-0.0831 -3.5e-4,-0.12636 0.0117,-0.0434 0.0326,-0.0884 0.0627,-0.13488 0,0 0,0 0,0 0.0599,-0.0925 0.1561,-0.191 0.28798,-0.29525 0,0 0,0 0,0 l 0,0 c 0.26132,-0.20649 0.66233,-0.43521 1.19899,-0.68471 l 0,-1e-5 c 1.0506,-0.48844 2.61621,-1.05421 4.66818,-1.68396 l 0,0 c 3.88356,-1.19186 9.52122,-2.61662 16.64958,-4.13377 l 0,0 10e-6,0 c 11.6142,-2.47333 29.12373,-5.63989 48.4552,-7.49457 l 0,0 c 7.359,-0.70856 15.49907,-1.28182 23.89094,-1.2295 l 0,0 c 3.29566,0.0196 6.73972,0.14797 10.26571,0.50264 l 0,0 c 2.74818,0.26549 5.70176,0.71205 8.75629,1.55398 l 0,0 c 2.16774,0.52404 4.71697,1.54539 7.32931,3.42623 l 0,0 c 1.04007,0.76091 2.06321,1.8267 2.98962,3.21566 l 0,0 2e-5,3e-5 0,0 c 0.85186,1.33107 1.41041,2.84799 1.63596,4.49737 0,0 0,3e-5 0,3e-5 v 0 c 0.18669,1.76237 0.0468,3.34959 -0.35649,4.70522 -0.47486,1.63869 -1.10721,3.02112 -1.80737,4.14497 -1.95686,3.16149 -4.27181,5.61445 -6.50924,7.5883 -7.66139,7.00195 -16.26286,13.17429 -25.62322,18.56554 -3.49843,2.01497 -7.03533,3.88195 -10.58276,5.61238 -13.51125,6.61002 -27.22121,11.32262 -40.55305,14.46091 -13.26808,3.14323 -25.88279,4.67917 -37.96929,4.43262 0,0 -10e-6,0 -10e-6,0 -5.52213,-0.10982 -10.83332,-0.63595 -15.95268,-1.7211 -4.56565,-0.94633 -8.93075,-2.4148 -12.92663,-4.63103 -3.16862,-1.72233 -6.07817,-4.03412 -8.34715,-7.01092 -1.87768,-2.51289 -2.96963,-5.43784 -3.25446,-8.38382 -0.23104,-3.01664 0.31748,-5.74788 1.18781,-8.03066 1.01464,-2.6971 2.39164,-4.97916 3.75898,-6.84985 3.4446,-4.71598 7.3839,-8.01981 9.95281,-9.88983 3.54131,-2.34297 5.59148,-3.33782 5.99739,-2.86269 0,0 0,0 0,0 0,0 0,0 0,0 0,0 0,0 0,0 0.004,0.005 0.004,0.004 0.003,0.004 -3.1e-4,-3.7e-4 -6e-4,-7.5e-4 0.003,0.004 0,0 0,0 0,0 0,0 0,1e-5 0,1e-5 0,0 0,0 0,0 0.38722,0.49093 -0.89276,2.41828 -3.55769,5.51853 -1.79647,2.3017 -4.92502,6.2476 -7.12383,10.52716 -0.8992,1.75041 -1.75513,3.70252 -2.20493,5.68493 -0.36064,1.65108 -0.53036,3.3919 -0.18249,4.88852 0.27401,1.40651 1.0363,2.83374 2.12686,4.04493 1.38067,1.60237 3.44349,2.83678 5.94378,4.05256 3.02715,1.4235 6.5089,2.26092 10.46068,2.86965 4.41334,0.65528 9.0646,0.82668 14.08412,0.68747 0,-1e-5 10e-6,0 10e-6,0 11.0254,-0.31121 22.52957,-2.20363 34.97624,-5.46877 12.43404,-3.28253 25.19111,-7.89932 37.76049,-14.13538 3.29729,-1.64096 6.57703,-3.38694 9.8108,-5.24772 8.65392,-4.97963 16.53787,-10.52776 23.51143,-16.74988 1.84206,-1.71238 3.38421,-3.15063 4.22344,-4.60908 l 0,0 c 0.26456,-0.4701 0.45178,-0.77191 0.47202,-0.91666 -0.004,-0.0792 0.031,-0.002 0.0344,0.2905 0,0 0,1e-5 0,1e-5 0.0573,0.29839 0.13564,0.51106 0.26547,0.69623 l 0,0 0,10e-6 0,0 c 0.13674,0.1362 0.10644,0.13831 -0.0152,-0.005 l 0,0 c -0.44072,-0.49501 -1.58873,-0.86273 -3.07477,-1.40862 l 0,0 c -2.0154,-0.64265 -4.28293,-1.0304 -6.65975,-1.3604 l 0,0 c -3.00383,-0.40404 -6.083,-0.61994 -9.14546,-0.75812 l 0,0 c -7.78975,-0.34881 -15.6465,-0.1499 -22.84956,0.14243 h 0 c -17.85514,0.73017 -37.53127,2.51563 -48.22764,3.35125 l 0,0 -1e-5,0 c -7.22744,0.565 -12.96683,0.95859 -17.02369,1.07049 l 0,0 c -2.13357,0.0589 -3.79563,0.0395 -4.94258,-0.0705 l 0,0 c -0.58678,-0.0563 -1.04034,-0.13648 -1.35506,-0.24188 l 0,0 c 0,0 0,0 0,0 -0.15908,-0.0532 -0.28286,-0.113 -0.37061,-0.17939 0,0 0,-1e-5 0,-1e-5 -0.0441,-0.0334 -0.0791,-0.0684 -0.10498,-0.10518 -0.0214,-0.0383 -0.0357,-0.0778 -0.043,-0.11879 z"
       id="path2634"
       inkscape:path-effect="#path-effect2636"
       inkscape:original-d="m 361.14916,202.66933 c 0,0 153.45288,-27.35957 113.17439,9.0359 -40.2785,36.39548 -111.14193,50.83962 -137.10571,37.38197 -25.96378,-13.45765 7.14686,-38.87221 7.14686,-38.87221"
       class="UnoptimicedTransforms"
       transform="matrix(0.63469609,0,0,0.63469609,-35.999646,139.40787)" />
    <path
       style="fill:#000000;fill-opacity:1;stroke:none;stroke-width:0.5"
       d="m 297.69846,264.65428 c -0.0376,1.11341 -19.18042,-0.66657 -48.51858,10.94332 -13.17155,5.20712 -27.57095,13.09954 -42.7301,24.93755 -12.45442,9.73123 -24.73105,21.60096 -36.86128,36.01274 -10.61291,12.61528 -20.74767,26.77825 -30.31502,42.62924 -8.29991,13.75612 -16.07139,28.6237 -22.97778,44.55051 -5.71331,13.18505 -10.88555,27.12719 -14.83814,41.62984 -2.968708,10.96584 -5.429212,22.28354 -5.946646,33.57118 -0.181102,4.10329 -0.147745,8.1081 0.45341,11.87093 0,0 5e-6,3e-5 5e-6,3e-5 0.507256,2.84859 1.097561,5.40805 2.251058,7.23616 5.598323,9.53263 12.297543,18.55666 20.777003,25.12933 5.47156,4.25261 11.67944,7.58203 18.21451,9.0689 4.22536,0.9779 8.60493,1.29005 12.82485,0.76021 0.0511,-0.006 0.10219,-0.013 0.15324,-0.0196 1.24362,-0.16225 2.43064,-0.37749 3.54291,-0.67619 0.30446,-0.0818 0.57806,-0.15973 0.81872,-0.23922 0,1e-5 -1e-5,1e-5 -1e-5,1e-5 -0.13726,0.0807 -0.29012,0.16644 -0.45886,0.2565 -1e-5,10e-6 -1e-5,10e-6 -1e-5,10e-6 0.025,-0.009 0.0499,-0.0174 0.0748,-0.0264 0.009,-0.003 0.0174,-0.006 0.0261,-0.01 0.0279,-0.017 22.69274,-13.83422 22.72059,-13.85121 19.14566,-15.94168 32.15089,-38.35533 41.14312,-60.78166 7.17171,-17.87175 14.94338,-34.63875 21.2355,-51.11642 7.00851,-18.45323 12.3416,-35.82484 13.9207,-53.36699 0.97079,-10.62895 2.49255,-20.87055 4.88027,-30.79331 1.88171,-7.90584 4.31522,-15.57745 8.00477,-22.77071 2.43593,-5.06233 6.00656,-10.1839 11.50279,-13.71341 2.23018,-1.38172 4.85764,-2.24781 7.68894,-2.4099 2.95635,-0.0813 5.67961,0.61299 7.98415,1.80132 11.6717,5.88248 22.34431,10.47923 33.11465,13.59538 8.21795,2.3511 15.66688,3.73828 22.86146,3.45445 5.48012,-0.23411 10.39397,-1.36643 14.3584,-3.71113 3.61141,-2.07483 6.43762,-5.15308 8.37964,-8.37086 2.20284,-3.63318 3.46392,-7.69604 4.22829,-11.31185 0.90502,-4.31894 1.16503,-8.46943 1.21335,-11.82535 0,0 0,-10e-6 0,-10e-6 0.0547,-4.02417 -0.18086,-7.23349 -0.38985,-9.59364 -0.15993,-1.79482 -0.17925,-1.87085 -0.30116,-3.12015 -0.0374,-0.37948 -0.0704,-0.78132 -0.0825,-1.00003 0,0 0,0 0,0 -0.0315,-0.35854 0.0151,-0.59627 0.082,-0.6416 0.10807,-0.0732 0.30601,0.0574 0.55945,0.40467 0,0 0,0 0,0 0.16669,0.22833 0.33924,0.52816 0.53126,0.92738 0.36028,0.74862 0.73343,1.73088 1.13055,3.05798 0.70171,2.34301 1.43685,5.62906 1.85666,9.81467 0,0 0,0 0,0 0.35458,3.51156 0.50124,7.91013 -0.0933,12.71685 -0.49192,4.02837 -1.58453,8.69313 -3.90826,13.24159 -2.09549,4.07956 -5.35125,8.09008 -9.86355,11.07115 -4.94543,3.20017 -10.89065,5.01401 -17.26821,5.4968 -8.23075,0.64859 -16.6462,-0.46983 -25.42532,-2.69434 -11.546,-2.89158 -22.96646,-7.32835 -35.10906,-13.0328 -1.17791,-0.50609 -2.37181,-0.81914 -3.35499,-0.69353 -0.9461,0.0364 -2.01785,0.48405 -3.06069,1.12545 -3.1026,1.78501 -5.25518,5.6118 -7.55062,9.97217 -3.03628,6.20188 -4.99776,13.11337 -6.65855,20.60861 -2.04331,9.34133 -3.27843,19.0744 -4.03817,29.32829 -1.45848,19.11108 -6.75267,37.70858 -13.78463,56.70954 -6.28556,17.07451 -13.92757,34.0345 -20.78854,51.54202 -9.43624,24.03577 -23.7812,48.41775 -45.36302,66.70377 0.0309,-0.0188 -24.75373,15.06166 -24.72278,15.04282 -0.009,0.004 -0.0188,0.007 -0.0282,0.0108 -0.0269,0.0102 -0.0538,0.0201 -0.0808,0.0299 0,0 0,0 -1e-5,0 -0.37029,0.16178 -0.72589,0.31588 -1.06651,0.46306 0,0 0,0 -1e-5,0 -0.5346,0.17397 -1.04516,0.32225 -1.52949,0.45014 -1.77444,0.46854 -3.53424,0.79631 -5.26054,1.01334 -0.0715,0.009 -0.14298,0.0178 -0.21448,0.0265 -5.90422,0.71505 -11.82348,0.31483 -17.4462,-1.01709 -8.74213,-2.09632 -16.64828,-6.26685 -23.33102,-11.57804 -10.20125,-8.12656 -17.92398,-18.41957 -23.912374,-28.95578 -2.204541,-3.9883 -3.301732,-8.06187 -3.791821,-11.80017 0,0 -5e-6,-4e-5 -5e-6,-4e-5 -0.722537,-4.97933 -0.768645,-9.84642 -0.497562,-14.47496 0.72442,-12.69244 3.43365,-24.88593 6.683409,-36.27484 4.302852,-15.1748 9.840096,-29.60524 15.928523,-43.13033 7.35671,-16.35398 15.62138,-31.56185 24.43815,-45.57415 10.15632,-16.14685 20.96067,-30.54979 32.26292,-43.31047 12.90679,-14.57916 26.08043,-26.53411 39.3913,-36.1923 16.19839,-11.76003 31.70861,-19.33744 45.70982,-23.98327 31.3078,-10.37865 50.65898,-6.2571 50.62137,-5.14369 z"
       id="path2638"
       inkscape:path-effect="#path-effect2640"
       inkscape:original-d="M 297.69846,264.65428 C 159.03954,259.97016 69.515085,481.33083 92.58387,521.28714 c 29.12863,50.45226 64.42142,36.90059 64.42142,36.90059 0,0 40.89082,-12.42676 66.97475,-78.18972 12.58506,-31.72952 31.82546,-69.69263 34.86469,-106.36749 3.72962,-45.00596 16.92539,-71.62408 32.36197,-64.1135 105.71257,51.43389 87.61882,-33.6764 85.52702,-36.76436"
       class="UnoptimicedTransforms"
       sodipodi:nodetypes="cscsssc"
       transform="matrix(0.63469609,0,0,0.63469609,-18.412602,130.22913)" />
    <path
       style="fill:#000000;fill-opacity:1;stroke:none;stroke-width:0.5"
       d="m 448.00793,249.88422 c 0.28477,-0.72604 9.02944,1.90023 24.89713,7.37934 13.71829,5.79814 33.52721,16.06798 53.86141,33.26434 9.52059,8.06188 19.26322,17.78203 28.36458,29.31613 8.96538,11.36429 17.31013,24.52329 24.22384,39.37457 7.11541,15.29401 12.64815,32.219 16.14366,50.48315 3.78314,19.78462 5.15424,40.69961 4.17255,62.47275 -0.97132,22.26763 -3.55389,46.11182 -10.41793,69.445 -3.89808,13.36037 -9.48255,27.04029 -18.25155,39.17787 -4.70859,6.56268 -10.67265,12.7695 -18.18445,17.35666 -1.924,1.16706 -4.03769,2.23278 -6.35027,3.09551 0,0 -4e-5,2e-5 -4e-5,2e-5 -0.60597,0.22569 -1.27002,0.44501 -1.99404,0.64577 -0.18706,0.0518 -0.40089,0.10666 -0.64178,0.16289 0.1111,-0.0371 0.20897,-0.0719 0.29356,-0.10465 0,0 0,0 0,0 0.007,-0.003 0.0148,-0.005 0.0224,-0.008 6.9e-4,-4.4e-4 0.0105,-0.003 0.0204,-0.005 0.0118,-0.002 0.0238,-0.004 0.0359,-0.006 0.0473,-0.008 0.0973,-0.0185 0.15004,-0.0297 -0.24059,0.0905 -0.46885,0.17279 -0.68429,0.24793 -0.80634,0.28122 -1.59781,0.52954 -2.37107,0.75233 -2.69645,0.77803 -5.43338,1.34928 -8.18195,1.72992 -1.78018,0.25524 -3.58159,0.42714 -5.39508,0.51048 -6.77148,0.31119 -13.63905,-0.6154 -20.14597,-2.97596 -5.23495,-1.93646 -10.04825,-4.79166 -14.2241,-8.35241 -5.17418,-4.44533 -9.29454,-9.75471 -12.46899,-15.36843 -4.26974,-7.54167 -7.10183,-15.56544 -9.03929,-23.48722 -2.72583,-11.06841 -3.96463,-22.22674 -4.45172,-33.03287 -0.88441,-19.23069 -2.76358,-38.44489 -4.74417,-56.63452 -2.15246,-19.75012 -4.52961,-38.82761 -6.5834,-57.1506 0,0 0,-3e-5 0,-3e-5 -2.00269,-17.84022 -3.68033,-34.05238 -4.41969,-50.53861 -0.3166,-7.0284 -0.43471,-13.86315 -0.1438,-20.67269 0.22766,-5.59774 0.73963,-11.14976 1.98415,-16.66111 -0.17145,-0.0993 0.0407,0.33086 0.38675,1.46784 0,0 3e-5,4e-5 3e-5,4e-5 0.82619,0.91184 1.18676,1.32167 1.35543,1.18009 -0.0543,-0.0887 -0.49866,-0.0616 -1.24853,-0.10429 0,0 -10e-6,0 -10e-6,0 -1.01087,-0.002 -2.13209,0.11775 -3.34037,0.2636 -3.57335,0.44449 -7.30968,1.18246 -10.94011,1.85902 -5.39902,1.00993 -10.45147,1.94733 -15.60214,2.78849 -16.07178,2.62575 -30.30476,3.82578 -43.01496,4.03538 -35.88517,0.58734 -55.78858,-5.43232 -55.59677,-6.57901 0.19182,-1.1467 20.35642,2.62282 55.32262,0.17639 12.40021,-0.86618 26.16837,-2.64657 41.80422,-5.79178 5.0197,-1.01009 9.94202,-2.10307 15.3185,-3.29303 3.55588,-0.79042 7.42877,-1.67783 11.41379,-2.30752 1.34176,-0.21652 2.81452,-0.40549 4.41135,-0.47024 0,0 3e-5,0 3e-5,0 1.03975,-0.0856 2.4274,-0.0187 4.10636,0.3982 1.31248,0.19233 2.80974,1.21779 4.22834,3.17139 0,0 6e-5,8e-5 6e-5,8e-5 0.97519,2.24318 1.13349,4.04781 0.69265,5.20055 -0.94583,4.69555 -1.23701,9.65489 -1.34201,14.96894 -0.11222,6.41404 0.16672,12.93764 0.6282,19.78517 1.0886,16.10509 3.05893,31.95211 5.36021,49.75076 0,0 10e-6,3e-5 10e-6,3e-5 2.35748,18.20676 5.01057,37.2583 7.41332,57.12067 2.21375,18.28412 4.29745,37.71785 5.35214,57.39883 0.56221,10.25088 1.74769,20.57954 4.27518,30.51264 1.81943,7.09734 4.24335,14.00897 7.79395,20.13281 2.62186,4.51495 5.79623,8.65386 9.61434,11.85572 3.03676,2.57296 6.52749,4.64314 10.25316,6.00543 4.62535,1.73767 9.77047,2.3837 14.98618,2.14553 1.39674,-0.0638 2.79453,-0.19081 4.18411,-0.37606 2.16572,-0.30228 4.28839,-0.74126 6.33973,-1.33383 0.58918,-0.17053 1.15078,-0.34494 1.68167,-0.53067 0.14208,-0.0497 0.27018,-0.0954 0.38386,-0.13833 -1.32111,0.41915 1.74615,-0.55406 0.42504,-0.13491 -0.0136,0.004 0.11977,-0.0381 0.1062,-0.0338 -0.0361,0.0111 0.0901,-0.0277 0.054,-0.0166 0.0336,-0.008 0.058,-0.0142 0.0823,-0.0204 0,0 0,0 0,0 0.15082,-0.0467 0.31473,-0.0963 0.49177,-0.14859 0.0167,-0.003 0.0588,-0.0146 0.12671,-0.0326 0.26238,-0.0693 0.56925,-0.17361 0.92223,-0.30081 0,0 3e-5,-1e-5 3e-5,-1e-5 1.34556,-0.48344 2.71887,-1.19156 4.12655,-2.02255 5.52843,-3.23328 10.23041,-8.2554 14.36256,-13.79722 7.62815,-10.31295 12.63472,-22.663 16.45168,-35.1391 6.61198,-21.79601 9.2419,-44.65841 10.47949,-66.36233 1.16265,-20.91163 0.15174,-40.90141 -3.14491,-59.78211 -3.03841,-17.41995 -7.9588,-33.58594 -14.38054,-48.23855 -6.23232,-14.23008 -13.83339,-26.95324 -22.05461,-38.04344 -8.34534,-11.2602 -17.3621,-20.9032 -26.21562,-29.02767 -18.80207,-17.27916 -37.47446,-28.34177 -50.39434,-35.11849 -15.225,-6.716 -23.42053,-10.73432 -23.13581,-11.46024 z"
       id="path2642"
       inkscape:path-effect="#path-effect2644"
       inkscape:original-d="m 448.00793,249.88422 c 0,0 154.5222,42.27558 145.4945,221.98039 -5.78467,115.14922 -51.28827,123.79815 -51.28827,123.79815 0,0 -63.45881,25.55048 -68.42225,-74.05344 -3.62691,-72.78306 -23.27734,-164.8428 -15.65939,-200.34099 2.68256,-12.5002 -51.21284,17.53616 -132.64927,3.91356"
       class="UnoptimicedTransforms"
       sodipodi:nodetypes="cscssc"
       transform="matrix(0.63469609,0,0,0.63469609,-18.412602,130.22913)" />
    <path
       style="fill:#000000;stroke:none;stroke-opacity:1"
       d="m 264.41448,158.48138 c -0.0839,0.11784 -0.43137,0.16782 -0.85454,-0.33653 -0.16256,-0.20373 -0.30722,-0.50042 -0.3403,-0.86804 -0.0472,-0.65865 0.15231,-1.40132 0.59005,-2.08318 0,0 0,0 0,0 0.96604,-1.64975 2.46173,-3.07146 4.75577,-4.69751 2.34467,-1.69855 5.13218,-3.31578 8.55477,-4.91261 3.36653,-1.57357 7.15576,-3.02907 11.36638,-4.25822 3.48977,-1.02347 7.24302,-1.8879 11.1822,-2.46002 5.58581,-0.81127 10.88673,-0.93916 15.84702,-0.46869 5.19681,0.4939 9.67401,1.66848 13.41627,3.2207 7.90855,3.28222 11.40347,7.63445 10.97917,8.13918 -0.42429,0.50473 -4.5579,-2.71727 -12.11017,-4.99301 -3.59661,-1.0852 -7.74211,-1.85749 -12.60436,-2.11887 -4.65074,-0.25132 -9.58433,-0.0198 -14.86724,0.75323 -3.71826,0.54407 -7.30088,1.31127 -10.66751,2.18201 -4.06062,1.05581 -7.72128,2.25504 -11.04132,3.52797 -3.41376,1.31234 -6.09224,2.52493 -8.51294,3.83151 -2.4836,1.38392 -3.69994,2.0714 -4.90416,3.29587 0,0 0,0 0,0 -0.45743,0.51254 -0.70967,0.73604 -0.81579,1.09801 -0.0591,0.15041 -0.0814,0.29566 -0.0741,0.42525 0.008,0.33727 0.18475,0.60511 0.10081,0.72295 z"
       id="path2860"
       transform="matrix(0.59897002,0,0,-0.59897002,128.66083,296.07347)"
       sodipodi:nodetypes="cc"
       inkscape:original-d="m 264.41448,158.48138 c -6.99038,-4.97961 47.5843,-32.18894 75.49677,-8.72494"
       inkscape:path-effect="#path-effect2862"
       class="UnoptimicedTransforms" />
    <path
       style="fill:#000000;stroke:none;stroke-opacity:1"
       d="m 115.66645,165.0904 c -0.21931,-0.52453 2.90736,-2.39552 8.27518,-5.07368 0,0 0,0 0,0 5.10386,-2.35976 12.4258,-5.21123 21.02562,-7.34191 2.59303,-0.64599 5.32736,-1.23514 8.15391,-1.7006 6.24597,-1.02855 12.03077,-1.30093 17.44345,-0.81213 0,0 0,0 0,0 4.62308,0.41651 8.54164,1.42668 11.81666,2.84561 6.86971,2.9752 9.05413,6.98743 8.7773,7.26857 -0.43099,0.43771 -3.65059,-2.42986 -9.87282,-4.29711 -3.11752,-0.93637 -6.66849,-1.52103 -10.99109,-1.68893 0,0 0,0 0,0 -5.08162,-0.19689 -10.43533,0.21539 -16.42649,1.20763 -2.69764,0.44677 -5.34642,0.98113 -7.87673,1.53832 -8.30091,1.83884 -15.68856,4.12627 -20.94181,5.74461 0,0 0,0 0,0 -5.638,1.92378 -9.16392,2.834 -9.38318,2.30962 z"
       id="path2917"
       sodipodi:nodetypes="cc"
       transform="matrix(0.65106238,0,0,-0.65106238,58.630849,307.36829)"
       inkscape:original-d="m 115.66644,165.09041 c 0,0 54.30101,-25.67993 75.49211,-4.81417"
       inkscape:path-effect="#path-effect2919"
       class="UnoptimicedTransforms" />
    <path
       style="fill:#000000;stroke:none"
       d="m 260.03264,329.65598 c 0.21996,-0.28432 1.65357,0.44492 3.41484,1.70162 0,0 0,0 0,0 0.3131,0.27003 0.62881,0.58254 0.92783,0.93758 1.01063,1.19995 1.47536,2.45763 1.53381,3.48291 0.0572,1.00233 -0.26997,1.53983 -0.46513,1.51365 -0.21976,-0.0295 -0.28797,-0.58637 -0.56413,-1.29821 -0.30822,-0.79449 -0.78667,-1.58401 -1.66059,-2.64211 -0.24944,-0.30201 -0.50861,-0.59887 -0.74984,-0.87012 0,0 0,0 0,0 -1.60668,-1.34849 -2.65641,-2.54142 -2.43679,-2.82532 z"
       id="path630"
       inkscape:path-effect="#path-effect632"
       inkscape:original-d="m 260.03254,329.65592 c 0,0 5.97109,3.46393 5.41145,7.6358"
       class="UnoptimicedTransforms"
       transform="translate(13.7526,-2.4073826)" />
    <path
       style="fill:#000000;stroke:none"
       d="m 146.99491,320.38102 c 0.01,0.0231 0.0154,0.0475 0.0167,0.074 0,0 0,0 0,0 0.001,0.0247 -0.001,0.051 -0.007,0.0786 -0.0122,0.055 -0.0388,0.11586 -0.079,0.18211 l 0,0 0,0 c -0.0794,0.13118 -0.21245,0.28499 -0.39275,0.45872 l 0,0 c -0.35339,0.34054 -0.89617,0.76652 -1.5722,1.26174 l 0,0 c -1.29757,0.95099 -3.10099,2.16407 -5.05599,3.63735 -0.66619,0.50488 -1.35843,1.0417 -2.03781,1.60188 -1.27444,1.05083 -2.33423,2.04462 -3.26278,3.07839 0,0 0,0 0,0 -1.33747,1.51853 -2.08999,2.70125 -2.66981,3.80917 -0.52952,1.01181 -0.79312,1.71739 -1.11705,1.70299 -0.55503,-0.0247 -1.29726,-3.28849 1.60693,-7.25178 0,0 0,0 0,0 0.93144,-1.29592 2.09893,-2.53402 3.49754,-3.69237 0.75378,-0.62429 1.52086,-1.18095 2.27141,-1.67512 2.19607,-1.4543 4.29563,-2.414 5.87095,-2.94704 l 0,0 c 0.82795,-0.28043 1.51531,-0.44426 2.01956,-0.49817 l 0,0 c 0.25599,-0.0274 0.46328,-0.0264 0.61701,0.003 l 0,0 0,0 c 0.0771,0.0147 0.1405,0.0364 0.18957,0.0652 0.0246,0.0144 0.0455,0.0306 0.0628,0.0485 0,0 0,0 0,0 0.0184,0.0192 0.0324,0.04 0.0424,0.0631 z"
       id="path634"
       inkscape:path-effect="#path-effect636"
       inkscape:original-d="m 146.99495,320.381 c 0,0 -15.7668,6.6273 -16.17817,15.88492"
       class="UnoptimicedTransforms"
       transform="translate(13.7526,-2.4073826)" />
    <path
       style="fill:#000000;stroke:none"
       d="m 142.1548,321.07333 c 0.005,0.0246 7.5e-4,0.0499 -0.0122,0.0774 0,0 0,0 0,0 -0.0122,0.0256 -0.032,0.0526 -0.0591,0.081 0,0 0,0 0,0 -0.0537,0.0562 -0.13664,0.11844 -0.24493,0.18654 l 0,0 0,0 c -0.2106,0.13291 -0.52872,0.29514 -0.91589,0.48353 0,0 0,0 0,0 l 0,0 c -0.77688,0.37828 -1.80364,0.85117 -2.97575,1.51916 -0.62629,0.36059 -1.2796,0.77438 -1.93245,1.24849 -1.60798,1.16773 -2.68724,2.31403 -3.51302,3.34269 -0.78368,0.97621 -1.22513,1.67243 -1.44247,1.59057 -0.20101,-0.0757 -0.16506,-0.94913 0.43874,-2.21312 0.61534,-1.28812 1.74878,-2.79735 3.52218,-4.08807 0.72954,-0.53098 1.47638,-0.9579 2.20005,-1.29239 1.32227,-0.61687 2.52721,-0.93542 3.41356,-1.06266 l 0,0 c 0,0 0,0 0,0 0.45345,-0.0652 0.8199,-0.0797 1.08153,-0.0558 l 0,0 0,0 c 0.13128,0.0122 0.2349,0.0339 0.30904,0.0641 0,0 0,0 0,0 0.0372,0.0152 0.0668,0.0324 0.0885,0.0515 0,0 0,0 0,0 0.0232,0.0206 0.0372,0.0425 0.0422,0.0671 z"
       id="path699"
       inkscape:path-effect="#path-effect701"
       inkscape:original-d="m 142.1549,321.07331 c 0,0 -8.45398,1.51509 -11.09594,8.52931"
       class="UnoptimicedTransforms"
       transform="translate(12.60487,-3.7429354)" />
    <path
       style="fill:#000000;stroke:none"
       d="m 212.99007,20.815071 c 0.90684,-0.0063 2.57166,5.174819 0.0613,14.206331 -1.04129,3.724815 -2.85506,7.906852 -5.75804,12.226728 0,2e-6 -1e-5,4e-6 -1e-5,6e-6 -4.2164,6.249031 -9.94378,11.983409 -17.49042,17.785794 -2.68595,2.079635 -5.20711,3.885129 -8.01076,5.948892 -1.87659,1.404823 -3.67761,2.658726 -4.88669,3.955265 -0.35454,0.450538 -0.52973,0.575103 -0.34812,0.42235 0.34922,-0.282436 0.3429,-1.072646 0.14142,-2.54278 -0.70224,-1.190826 -0.939,-1.727561 -0.98806,-1.512654 0.16109,0.125742 0.69647,0.226846 1.53452,0.484205 0,0 1e-5,3e-6 1e-5,3e-6 4.65274,1.231005 9.14262,3.451394 13.10463,6.600743 3.64444,2.916224 6.75536,6.422416 9.34219,10.288052 4.80485,7.202479 8.00439,15.188024 10.44683,23.492434 0.99589,3.33036 1.85117,6.61193 2.70483,9.90611 0.62073,2.33644 1.0927,4.43753 1.74952,6.1023 0.30537,0.56237 0.2211,0.60385 -0.0399,0.11404 0,0 -1e-5,-1e-5 -1e-5,-1e-5 -0.0706,-0.25309 -0.63586,-0.67493 -1.68176,-1.31808 0,0 -9e-5,-4e-5 -9e-5,-4e-5 -1.17875,-0.56693 -2.45924,-0.67776 -3.88304,-0.34127 0,0 -1.1e-4,3e-5 -1.1e-4,3e-5 -1.31787,0.53586 -2.04697,0.92927 -2.17825,1.24229 -0.30047,0.34934 -0.42871,0.47803 -0.35665,0.41773 0.18932,-0.25197 0.39362,-0.86196 0.75479,-1.75391 0.50554,-1.35594 0.98999,-2.72966 1.45728,-4.12123 1.94059,-5.77901 3.55329,-11.77627 5.07341,-17.67708 1.38305,-5.560747 2.7745,-11.426293 5.59232,-17.339576 1.21276,-2.531315 2.82075,-4.994733 4.88738,-7.223978 2.20188,-2.31623 4.74576,-4.121103 7.4361,-5.420212 7.80563,-3.607184 15.84522,-4.11714 22.52673,-4.01896 1.32123,-0.01652 2.407,-0.01521 3.27853,-0.15471 0,0 1e-5,-10e-7 1e-5,-10e-7 0.27095,-0.05201 0.38354,-0.05178 0.33236,-0.03884 0,0 0,-2e-6 0,-2e-6 -0.023,-0.05542 -0.32165,0.16862 -0.93863,0.621128 0,0 -2e-5,1.6e-5 -2e-5,1.6e-5 -0.61165,0.43733 -1.06128,1.304657 -1.4067,2.616326 -0.0606,1.287737 0.0244,2.088041 0.30895,2.438203 0.49174,0.630418 0.42176,0.751533 0.0164,0.184741 -0.54932,-0.531806 -1.28995,-1.086866 -2.13042,-1.715747 -1.11245,-0.822271 -2.297,-1.642739 -3.48476,-2.464412 -3.27126,-2.259985 -6.30228,-4.344138 -9.37281,-6.632328 -8.72041,-6.446174 -15.27166,-12.785814 -20.03288,-19.845717 0,-3e-6 0,-5e-6 0,-7e-6 -3.14122,-4.665678 -5.01008,-9.200346 -5.95017,-13.286186 -2.18352,-9.59825 0.43851,-14.849157 1.35316,-14.716393 0.91465,0.132764 0.34679,5.487179 3.58734,13.165279 1.39065,3.329491 3.49884,6.840309 6.67131,10.59163 0,2e-6 0,4e-6 0,5e-6 4.88165,5.78957 11.07771,10.663473 19.77113,16.329738 3.06355,1.977541 6.05267,3.766837 9.50924,5.88094 1.24399,0.759748 2.55761,1.569856 3.88557,2.445795 0.96069,0.624535 2.04034,1.372514 3.16773,2.314801 0.64781,0.365083 1.64184,1.425919 2.72355,3.349115 0.46288,0.744007 0.65997,1.984078 0.52881,3.699787 -0.41285,1.720769 -1.10631,2.953083 -2.0291,3.66642 0,0 -4e-5,3e-5 -4e-5,3e-5 -1.0538,0.839995 -1.89474,1.314769 -2.46814,1.461396 0,0 -2e-5,6e-6 -2e-5,6e-6 -0.85844,0.309172 -1.58809,0.495629 -2.16913,0.593323 0,0 -10e-6,3e-6 -10e-6,3e-6 -1.80937,0.33147 -3.45025,0.445187 -4.89982,0.49201 -6.28506,0.394416 -12.81379,0.831595 -17.5421,3.491254 -1.51149,0.802464 -2.89047,1.818758 -3.94824,3.024843 -1.05822,1.147441 -1.94528,2.645248 -2.75473,4.342544 -2.05064,4.266963 -3.06432,9.338619 -4.53873,15.142389 -1.48316,6.04376 -3.15199,12.34088 -5.25915,18.61861 -0.50677,1.50979 -1.03645,3.01138 -1.59279,4.50445 -0.35802,1.03762 -0.90602,2.34835 -1.78006,3.84778 -0.24954,0.46948 -0.7301,1.11427 -1.46794,1.90132 -0.42447,0.60642 -1.49288,1.26502 -3.20955,1.91331 0,0 -1.3e-4,3e-5 -1.3e-4,3e-5 -1.7437,0.42667 -3.37476,0.27814 -4.85236,-0.43359 0,0 -1.2e-4,-6e-5 -1.2e-4,-6e-5 -1.41735,-0.82312 -2.28044,-1.5484 -2.60725,-2.12454 0,0 -2e-5,-3e-5 -2e-5,-3e-5 -1.10073,-1.55521 -1.65835,-2.74249 -1.83158,-3.44449 -0.99615,-2.73272 -1.58165,-5.26281 -2.10243,-7.41935 -0.82437,-3.31064 -1.59848,-6.45658 -2.46884,-9.5305 -2.22954,-7.72793 -4.72645,-14.65809 -8.49092,-20.528254 -1.98851,-3.114053 -4.20532,-5.84919 -6.73451,-7.997334 -2.67819,-2.297581 -5.75436,-4.012089 -8.91902,-5.002209 0,0 -1e-5,-3e-6 -1e-5,-3e-6 -1.1277,-0.30117 -2.5295,-0.838435 -4.08747,-1.75968 -1.0853,-0.414791 -2.31885,-1.77915 -3.40779,-4.106188 -0.53768,-2.45753 -0.29133,-4.345554 0.53125,-5.54728 0.87004,-1.489616 1.7426,-2.475852 2.45857,-3.054439 2.24034,-2.018083 4.51199,-3.467525 6.40642,-4.660472 2.90723,-1.874681 5.67592,-3.591726 8.23723,-5.291874 7.51319,-5.028534 12.96809,-9.443964 17.3034,-14.533145 1e-5,-2e-6 1e-5,-3e-6 1e-5,-5e-6 2.96286,-3.460933 5.0322,-6.768765 6.50439,-9.832597 3.55224,-7.354503 3.80493,-12.434044 4.71178,-12.440359 z"
       id="path904"
       inkscape:path-effect="#path-effect906"
       inkscape:original-d="m 212.99007,20.815071 c 0.27021,38.805191 -56.81216,50.528066 -37.20134,56.100091 33.84343,9.615937 29.80275,71.668038 37.21385,51.784168 12.70494,-34.087166 4.87847,-51.629759 41.30448,-52.462563 27.79978,-0.635583 -43.94324,-18.599396 -38.15272,-58.492103"
       class="UnoptimicedTransforms"
       sodipodi:nodetypes="csssc"
       transform="matrix(1.1433396,0,0,1.1433396,51.701938,-22.634993)" />
    <path
       style="fill:#000000;stroke:none"
       d="m 192.7654,60.418394 c 1.19625,0.978051 -4.61087,10.246483 -14.53016,23.723347 -0.91718,1.333536 -1.67254,2.799055 -1.82861,4.189164 -0.17378,1.099548 -0.0331,2.340718 0.36411,3.52508 0.74752,2.553529 2.92045,4.885244 5.6642,7.25073 2.58382,2.077325 5.5468,3.842065 8.7381,4.913575 1.11596,0.34856 2.09452,0.63655 2.89531,0.67516 0.059,0.003 0.11706,0.004 0.17412,0.004 0.44793,-0.16789 0.82634,-0.0195 -0.26085,0.3789 1.82057,-1.49655 3.54971,-3.29064 5.25347,-5.136358 2.19612,-2.409877 4.11937,-4.728516 5.67979,-7.149113 0.71559,-1.12155 1.31831,-2.144034 1.72629,-3.136574 0.30239,-0.86087 0.55772,-1.440074 0.52275,-1.763723 -0.0209,-0.06267 0.0862,-0.09879 0.24608,0.146831 0.22131,-0.07137 -0.26903,-0.148918 -1.02204,-0.443524 -4.05401,-0.76007 -7.87892,-1.980639 -11.26478,-4.184839 -2.62213,-1.697161 -4.43876,-4.176342 -5.29875,-6.840745 -0.83007,-3.020498 -0.51968,-5.718287 -0.12873,-7.588461 1.0075,-5.157815 2.28778,-7.631424 3.06712,-7.540512 0.77935,0.09091 0.92984,3.128982 1.27056,7.833769 0.14819,1.684025 0.3483,3.854913 1.17246,5.286963 0.58209,1.197771 1.8012,2.232533 3.37775,3.031876 2.42142,1.247193 5.2971,1.681331 9.06461,2.180982 1.59262,0.08468 3.56776,0.762977 5.55025,2.43221 1.51331,1.589731 2.33066,3.47709 2.38276,5.378027 0.0503,2.004544 -0.30907,3.739877 -0.85603,5.126409 -0.61706,1.719472 -1.39768,3.282769 -2.24779,4.715968 -1.82373,3.101224 -3.99232,5.948544 -6.37367,8.657094 -1.78457,2.05496 -3.79818,4.18384 -6.13936,6.16118 -2.48368,1.64304 -4.66204,2.10962 -6.10717,1.79341 -0.1498,-0.008 -0.29844,-0.0186 -0.44592,-0.0303 -2.0061,-0.15946 -3.7727,-0.61295 -5.27921,-1.16855 -4.42847,-1.55555 -8.31743,-3.9609 -11.55197,-6.78813 -3.6411,-3.01655 -6.60011,-7.025878 -7.98747,-11.820766 -0.67464,-2.505341 -0.70452,-5.104804 -0.13246,-7.565584 0.76273,-2.993427 2.24706,-5.432468 3.94226,-7.293449 11.23705,-12.399465 19.16673,-19.932518 20.36298,-18.954467 z"
       id="path908"
       inkscape:path-effect="#path-effect910"
       inkscape:original-d="m 192.7654,60.418394 -17.44657,21.338907 c -12.55544,15.35656 16.50721,31.201399 21.65416,26.905199 5.73918,-4.79053 22.17418,-23.022238 10.04509,-24.976675 C 188.63029,80.722881 191.4831,72.412193 192.76282,61.441787"
       class="UnoptimicedTransforms"
       sodipodi:nodetypes="csssc"
       transform="matrix(0.52042578,0,0,0.51851873,134.71358,42.625139)" />
    <path
       style="fill:#000000;stroke:none"
       d="m 198.44528,104.96117 c 0.92966,-0.53151 3.4309,1.8508 6.81084,6.1853 1.29004,1.30815 2.87079,2.86129 4.52125,3.792 1.25409,0.61348 2.51673,1.19744 3.04928,0.81143 0.31532,-0.33359 1.74162,-0.40245 4.28128,0.41667 1.32415,0.47868 2.198,1.92218 2.51964,4.31821 0,0 -1e-5,4e-5 -1e-5,4e-5 -0.38708,1.82182 -0.81598,2.80059 -1.18085,2.90911 0,0 -1e-5,1e-5 -1e-5,1e-5 -0.96473,1.11202 -1.80358,1.78976 -2.34505,2.13372 -0.92661,0.69027 -1.83758,1.2975 -2.726,1.87068 -1.99548,1.29159 -4.03007,2.50035 -5.97587,3.74373 -0.80754,0.51878 -1.56277,1.00642 -2.20717,1.4924 -0.52571,0.48268 -0.73374,0.53684 -0.47515,0.33 -0.61175,0.78883 -1.29839,1.39258 -2.03922,1.80484 -0.30121,0.16761 -0.61092,0.30332 -0.92765,0.40696 -1.16807,0.35797 -2.12716,0.46866 -2.84552,0.39002 0,0 0,-1e-5 0,-1e-5 l 0,0 c -1.90538,-0.15676 -3.38637,-0.6138 -4.44734,-1.11711 l 0,0 c -3.17391,-1.35032 -5.83661,-3.16372 -8.04436,-4.99404 -2.2238,-1.72807 -4.39962,-3.84568 -6.08279,-6.61294 l 0,0 c -0.68325,-0.69385 -1.22323,-2.34818 -1.20716,-4.74418 l 0,0 c 0.15064,-1.18202 0.69227,-2.23587 1.57515,-3.11065 1.06874,-0.87141 1.98918,-1.29886 2.69668,-1.37643 l 0,0 c 1.34494,-0.13636 2.83222,-0.85122 4.17955,-1.6026 l 0,0 c 1.62392,-0.93524 3.15854,-2.12652 4.38463,-3.10685 l 0,0 1e-5,0 0,0 c 1.52488,-1.22443 2.62369,-2.17583 3.61527,-2.89515 l 0,0 c 0.51357,-0.3727 0.95382,-0.64536 1.31606,-0.7979 l 0,0 c 0.18798,-0.0792 0.35696,-0.12596 0.50471,-0.13856 l 0,0 c 0,0 0,0 0,0 0.0749,-0.006 0.14528,-0.003 0.21012,0.009 l 0,0 c 0,0 0,0 0,0 0.16935,0.0727 0.18672,0.0682 0.18812,0.0673 0,0 0,0 0,0 1e-4,-7e-5 8e-5,-4e-5 8e-5,-4e-5 0,0 1e-5,-3e-5 1e-5,8e-5 0,0 0,0 0,0 -1.2e-4,0.002 0.004,0.019 0.15029,0.13153 0,0 0,0 0,0 l 0,0 c 0.0412,0.0522 0.0757,0.11406 0.10398,0.18603 0,0 0,0 0,0 l 0,0 c 0.0563,0.14048 0.0875,0.31688 0.0942,0.52854 l 0,0 c 0.0128,0.4081 -0.0687,0.94422 -0.25184,1.59451 l 0,0 c -0.3306,1.17516 -1.01479,2.7786 -2.13809,4.59623 l 0,0 c 0,0 0,0 0,0 -0.94413,1.53519 -2.29296,3.35085 -4.1543,5.08596 l 0,0 c -1.50407,1.43117 -3.57062,2.8975 -6.29958,3.80285 l 0,0 c 0.0473,0.091 0.30155,-0.0679 0.87133,-0.45437 0.48969,-0.49268 0.78082,-1.01966 0.87048,-1.64772 l 0,0 c -0.13678,-0.88571 0.0749,-1.2221 0.23039,-0.5804 l 0,0 c 0.9512,1.33589 2.53361,2.4368 4.57344,3.97292 1.98288,1.37854 4.0429,2.68813 6.11746,3.47295 l 0,0 c 0.7837,0.24683 1.24957,0.46175 1.37219,0.39805 h 0 c 0,0 0,0 0,0 0.003,-0.0455 -0.21843,0.0157 -0.70189,0.13137 -0.14987,0.0446 -0.29683,0.10795 -0.44228,0.19045 -0.35771,0.20291 -0.70513,0.52094 -1.06345,0.95695 1.06545,-1.32534 1.97503,-2.07443 2.54736,-2.39915 1.00014,-0.72065 1.96997,-1.32611 2.86344,-1.85626 2.13724,-1.27579 4.38011,-2.47101 6.24112,-3.50218 0.88342,-0.49236 1.66901,-0.92625 2.38615,-1.3716 0.6196,-0.46024 0.82413,-0.47884 0.74669,-0.41815 0,0 0,-1e-5 0,-1e-5 -0.1415,-0.16001 -0.34497,0.51855 -0.71049,1.99444 0,0 0,3e-5 0,3e-5 0.3382,2.13047 1.01508,3.33997 2.10349,3.69892 1.24192,0.18794 1.36278,0.45479 0.28085,0.22807 -3.75865,0.004 -6.51968,-1.50493 -8.24935,-3.19936 -2.3598,-2.17512 -3.88188,-4.55771 -4.87696,-6.47691 -2.15056,-5.34258 -2.94449,-8.71582 -2.01314,-9.24832 z"
       id="path916"
       inkscape:path-effect="#path-effect918"
       inkscape:original-d="m 198.44526,104.96113 c 0,0 6.82405,15.59619 14.76043,14.8567 8.48905,-0.79099 -10.07133,7.33991 -12.2839,10.42023 -2.87189,3.99821 -23.05129,-11.24473 -16.57494,-12.89687 7.4554,-1.90189 13.44695,-12.19547 13.44695,-12.19547"
       class="UnoptimicedTransforms"
       sodipodi:nodetypes="csssc"
       transform="matrix(0.40692163,0,0,0.40692163,155.94102,72.604351)" />
    <path
       style="fill:#000000;stroke:none"
       d="m 188.06435,100.56396 c 0.23069,0.0658 0.10445,0.94598 0.65444,1.82909 0.2191,0.38573 0.56534,0.73728 1.07684,1.10548 0,0 0,0 0,0 0.91298,0.6593 1.9588,1.00692 3.56816,1.49001 0.58331,0.16521 1.13418,0.30143 1.80394,0.47597 0.36606,0.0867 0.85882,0.20548 1.42541,0.45231 0.0951,-0.0549 0.39973,0.17482 0.86166,0.74926 0.20203,1.14338 0.021,1.8408 -0.48722,2.03061 -0.8452,0.5065 -1.52037,0.63408 -1.83912,0.63784 -1.63894,0.38896 -3.41675,1.16195 -4.32757,2.52732 -0.48671,0.61046 -0.77614,1.82022 -1.70247,3.19985 -0.21441,0.58531 -1.01763,0.8743 -2.34498,0.72718 -0.102,-0.0626 -0.1966,-0.12362 -0.28396,-0.18281 -0.56389,-0.38206 -0.82294,-0.68521 -0.82331,-0.83418 -0.47598,-0.73934 -0.77819,-1.39867 -1.07302,-1.89097 -0.43689,-0.7047 -0.85445,-1.30342 -1.34726,-1.70078 -0.51157,-0.43608 -1.16866,-0.70339 -1.7814,-0.72329 -0.31501,0.0264 -0.78106,-0.0634 -1.34885,-0.32407 -0.49413,-0.2603 -0.85009,-0.71742 -1.03184,-1.33029 -0.10133,-1.26818 0.23168,-2.0424 0.57526,-2.33584 1.09785,-1.68217 2.54144,-2.93729 3.61778,-3.85599 3.94162,-3.095486 6.57472,-4.844451 6.90812,-4.484975 0,0 1e-5,10e-7 1e-5,10e-7 0.004,0.0043 0.004,0.0041 0.003,0.0039 -1.9e-4,-2.24e-4 -3.5e-4,-4.61e-4 0.003,0.004 0,0 0,0 0,0 0.30044,0.388023 -1.75759,2.802176 -5.23008,6.283386 -0.93443,1.05176 -2.14184,2.30492 -2.78314,3.54643 -0.10207,0.49131 -0.26429,0.47567 -0.16669,0.11676 -0.10852,-0.31604 -0.2495,-0.51985 -0.4705,-0.6353 -0.17166,-0.0514 -0.18464,-0.0987 -0.0449,-0.0667 1.3387,2.1e-4 2.67134,0.44584 3.76746,1.31318 0.90138,0.73295 1.5872,1.60136 2.1206,2.49049 0.43113,0.70022 0.72369,1.33275 1.03106,1.78925 0.18409,0.12762 0.0956,0.11591 -0.1912,-0.0892 -0.0453,-0.0324 -0.0958,-0.0698 -0.1513,-0.11235 -1.07139,-0.037 -1.59618,0.0574 -1.65217,0.41512 0.50645,-0.67942 0.8579,-1.95272 1.80927,-3.26275 1.7479,-2.18409 4.1957,-3.19854 6.40013,-3.4935 0.57863,-0.15526 0.84545,-0.0719 0.71904,-0.0688 -0.39635,0.11143 -0.48775,0.66587 -0.35189,1.69087 0.36143,0.39498 0.46288,0.53619 0.37549,0.39109 -0.20668,-0.13272 -0.5684,-0.24295 -0.98843,-0.4016 -0.63058,-0.23045 -1.22173,-0.44746 -1.82686,-0.69873 -1.64097,-0.65738 -2.95786,-1.43186 -3.9603,-2.48072 0,0 0,0 0,0 -0.6116,-0.63545 -0.97559,-1.35331 -1.12877,-2.02009 -0.34033,-1.64609 0.38526,-2.34213 0.61595,-2.2763 z"
       id="path1025"
       inkscape:path-effect="#path-effect1027"
       inkscape:original-d="m 188.06435,100.56396 c -1.76942,6.20029 12.53118,6.29616 6.80494,7.31744 -5.72624,1.02128 -6.20412,4.9259 -7.11972,6.24171 -0.9156,1.31581 -1.73689,-5.15867 -6.28919,-5.20565 -4.5523,-0.047 8.70795,-10.787881 8.70795,-10.787881"
       class="UnoptimicedTransforms"
       sodipodi:nodetypes="czzzc"
       transform="translate(22.533285,3.8450849)" />
  </g>
</svg>
