<?xml version="1.0" encoding="UTF-8" standalone="no"?>
<!-- Created with Inkscape (http://www.inkscape.org/) -->

<svg
   width="512"
   height="512"
   viewBox="0 0 512 512.00002"
   version="1.1"
   id="svg5"
   inkscape:version="1.2.2 (b0a8486541, 2022-12-01)"
   sodipodi:docname="skeptical.svg"
   inkscape:export-filename="../../../../static/icons/avatars/ezran/speaking.webp"
   inkscape:export-xdpi="96"
   inkscape:export-ydpi="96"
   xmlns:inkscape="http://www.inkscape.org/namespaces/inkscape"
   xmlns:sodipodi="http://sodipodi.sourceforge.net/DTD/sodipodi-0.dtd"
   xmlns="http://www.w3.org/2000/svg"
   xmlns:svg="http://www.w3.org/2000/svg">
  <sodipodi:namedview
     id="namedview7"
     pagecolor="#ffffff"
     bordercolor="#000000"
     borderopacity="0.25"
     inkscape:showpageshadow="2"
     inkscape:pageopacity="0.0"
     inkscape:pagecheckerboard="0"
     inkscape:deskcolor="#d1d1d1"
     inkscape:document-units="px"
     showgrid="false"
     inkscape:zoom="0.42110139"
     inkscape:cx="-13.060987"
     inkscape:cy="140.10877"
     inkscape:window-width="1366"
     inkscape:window-height="699"
     inkscape:window-x="0"
     inkscape:window-y="0"
     inkscape:window-maximized="1"
     inkscape:current-layer="layer1" />
  <defs
     id="defs2">
    <inkscape:path-effect
       effect="skeletal"
       id="path-effect3022"
       is_visible="true"
       lpeversion="1"
       pattern="M 0,18.867925 C 0,8.4528302 8.4528302,0 18.867925,0 c 10.415094,0 18.867924,8.4528302 18.867924,18.867925 0,10.415094 -8.45283,18.867924 -18.867924,18.867924 C 8.4528302,37.735849 0,29.283019 0,18.867925 Z"
       copytype="single_stretched"
       prop_scale="0.16377935"
       scale_y_rel="false"
       spacing="0"
       normal_offset="0"
       tang_offset="0"
       prop_units="false"
       vertical_pattern="false"
       hide_knot="false"
       fuse_tolerance="0" />
    <inkscape:path-effect
       effect="skeletal"
       id="path-effect3018"
       is_visible="true"
       lpeversion="1"
       pattern="M 0,18.867925 C 0,8.4528302 8.4528302,0 18.867925,0 c 10.415094,0 18.867924,8.4528302 18.867924,18.867925 0,10.415094 -8.45283,18.867924 -18.867924,18.867924 C 8.4528302,37.735849 0,29.283019 0,18.867925 Z"
       copytype="single_stretched"
       prop_scale="0.16377935"
       scale_y_rel="false"
       spacing="0"
       normal_offset="0"
       tang_offset="0"
       prop_units="false"
       vertical_pattern="false"
       hide_knot="false"
       fuse_tolerance="0" />
    <inkscape:path-effect
       effect="skeletal"
       id="path-effect2822"
       is_visible="true"
       lpeversion="1"
       pattern="M 0,18.867925 C 0,8.4528302 8.4528302,0 18.867925,0 c 10.415094,0 18.867924,8.4528302 18.867924,18.867925 0,10.415094 -8.45283,18.867924 -18.867924,18.867924 C 8.4528302,37.735849 0,29.283019 0,18.867925 Z"
       copytype="single_stretched"
       prop_scale="0.16377935"
       scale_y_rel="false"
       spacing="0"
       normal_offset="0"
       tang_offset="0"
       prop_units="false"
       vertical_pattern="false"
       hide_knot="false"
       fuse_tolerance="0" />
    <inkscape:path-effect
       effect="skeletal"
       id="path-effect2644"
       is_visible="true"
       lpeversion="1"
       pattern="M 0,18.867925 C 0,8.4528302 8.4528302,0 18.867925,0 c 10.415094,0 18.867924,8.4528302 18.867924,18.867925 0,10.415094 -8.45283,18.867924 -18.867924,18.867924 C 8.4528302,37.735849 0,29.283019 0,18.867925 Z"
       copytype="single_stretched"
       prop_scale="0.34965791"
       scale_y_rel="false"
       spacing="0"
       normal_offset="0"
       tang_offset="0"
       prop_units="false"
       vertical_pattern="false"
       hide_knot="false"
       fuse_tolerance="0" />
    <inkscape:path-effect
       effect="skeletal"
       id="path-effect2640"
       is_visible="true"
       lpeversion="1"
       pattern="M 0,18.867925 C 0,8.4528302 8.4528302,0 18.867925,0 c 10.415094,0 18.867924,8.4528302 18.867924,18.867925 0,10.415094 -8.45283,18.867924 -18.867924,18.867924 C 8.4528302,37.735849 0,29.283019 0,18.867925 Z"
       copytype="single_stretched"
       prop_scale="0.34965791"
       scale_y_rel="false"
       spacing="0"
       normal_offset="0"
       tang_offset="0"
       prop_units="false"
       vertical_pattern="false"
       hide_knot="false"
       fuse_tolerance="0" />
    <inkscape:path-effect
       effect="skeletal"
       id="path-effect2636"
       is_visible="true"
       lpeversion="1"
       pattern="M 0,18.867925 C 0,8.4528302 8.4528302,0 18.867925,0 c 10.415094,0 18.867924,8.4528302 18.867924,18.867925 0,10.415094 -8.45283,18.867924 -18.867924,18.867924 C 8.4528302,37.735849 0,29.283019 0,18.867925 Z"
       copytype="single_stretched"
       prop_scale="0.34965791"
       scale_y_rel="false"
       spacing="0"
       normal_offset="0"
       tang_offset="0"
       prop_units="false"
       vertical_pattern="false"
       hide_knot="false"
       fuse_tolerance="0" />
    <inkscape:path-effect
       effect="skeletal"
       id="path-effect2632"
       is_visible="true"
       lpeversion="1"
       pattern="M 0,18.867925 C 0,8.4528302 8.4528302,0 18.867925,0 c 10.415094,0 18.867924,8.4528302 18.867924,18.867925 0,10.415094 -8.45283,18.867924 -18.867924,18.867924 C 8.4528302,37.735849 0,29.283019 0,18.867925 Z"
       copytype="single_stretched"
       prop_scale="0.34965791"
       scale_y_rel="false"
       spacing="0"
       normal_offset="0"
       tang_offset="0"
       prop_units="false"
       vertical_pattern="false"
       hide_knot="false"
       fuse_tolerance="0" />
    <inkscape:path-effect
       effect="skeletal"
       id="path-effect2628"
       is_visible="true"
       lpeversion="1"
       pattern="M 0,18.867925 C 0,8.4528302 8.4528302,0 18.867925,0 c 10.415094,0 18.867924,8.4528302 18.867924,18.867925 0,10.415094 -8.45283,18.867924 -18.867924,18.867924 C 8.4528302,37.735849 0,29.283019 0,18.867925 Z"
       copytype="single_stretched"
       prop_scale="0.34965791"
       scale_y_rel="false"
       spacing="0"
       normal_offset="0"
       tang_offset="0"
       prop_units="false"
       vertical_pattern="false"
       hide_knot="false"
       fuse_tolerance="0" />
    <inkscape:path-effect
       effect="skeletal"
       id="path-effect2624"
       is_visible="true"
       lpeversion="1"
       pattern="M 0,18.867925 C 0,8.4528302 8.4528302,0 18.867925,0 c 10.415094,0 18.867924,8.4528302 18.867924,18.867925 0,10.415094 -8.45283,18.867924 -18.867924,18.867924 C 8.4528302,37.735849 0,29.283019 0,18.867925 Z"
       copytype="single_stretched"
       prop_scale="0.34965791"
       scale_y_rel="false"
       spacing="0"
       normal_offset="0"
       tang_offset="0"
       prop_units="false"
       vertical_pattern="false"
       hide_knot="false"
       fuse_tolerance="0" />
    <inkscape:path-effect
       effect="skeletal"
       id="path-effect2615"
       is_visible="true"
       lpeversion="1"
       pattern="M 0,18.867925 C 0,8.4528302 8.4528302,0 18.867925,0 c 10.415094,0 18.867924,8.4528302 18.867924,18.867925 0,10.415094 -8.45283,18.867924 -18.867924,18.867924 C 8.4528302,37.735849 0,29.283019 0,18.867925 Z"
       copytype="single_stretched"
       prop_scale="0.63609496"
       scale_y_rel="false"
       spacing="0"
       normal_offset="0"
       tang_offset="0"
       prop_units="false"
       vertical_pattern="false"
       hide_knot="false"
       fuse_tolerance="0" />
    <inkscape:path-effect
       effect="skeletal"
       id="path-effect2611"
       is_visible="true"
       lpeversion="1"
       pattern="M 0,18.867925 C 0,8.4528302 8.4528302,0 18.867925,0 c 10.415094,0 18.867924,8.4528302 18.867924,18.867925 0,10.415094 -8.45283,18.867924 -18.867924,18.867924 C 8.4528302,37.735849 0,29.283019 0,18.867925 Z"
       copytype="single_stretched"
       prop_scale="-0.2289063"
       scale_y_rel="false"
       spacing="0"
       normal_offset="0"
       tang_offset="0"
       prop_units="false"
       vertical_pattern="false"
       hide_knot="false"
       fuse_tolerance="0" />
    <inkscape:path-effect
       effect="skeletal"
       id="path-effect2599"
       is_visible="true"
       lpeversion="1"
       pattern="M 0,18.867925 C 0,8.4528302 8.4528302,0 18.867925,0 c 10.415094,0 18.867924,8.4528302 18.867924,18.867925 0,10.415094 -8.45283,18.867924 -18.867924,18.867924 C 8.4528302,37.735849 0,29.283019 0,18.867925 Z"
       copytype="single_stretched"
       prop_scale="0.63609496"
       scale_y_rel="false"
       spacing="0"
       normal_offset="0"
       tang_offset="0"
       prop_units="false"
       vertical_pattern="false"
       hide_knot="false"
       fuse_tolerance="0" />
    <inkscape:path-effect
       effect="skeletal"
       id="path-effect2595"
       is_visible="true"
       lpeversion="1"
       pattern="M 0,18.867925 C 0,8.4528302 8.4528302,0 18.867925,0 c 10.415094,0 18.867924,8.4528302 18.867924,18.867925 0,10.415094 -8.45283,18.867924 -18.867924,18.867924 C 8.4528302,37.735849 0,29.283019 0,18.867925 Z"
       copytype="single_stretched"
       prop_scale="0.63609496"
       scale_y_rel="false"
       spacing="0"
       normal_offset="0"
       tang_offset="0"
       prop_units="false"
       vertical_pattern="false"
       hide_knot="false"
       fuse_tolerance="0" />
    <inkscape:path-effect
       effect="skeletal"
       id="path-effect2591"
       is_visible="true"
       lpeversion="1"
       pattern="M 0,18.867925 C 0,8.4528302 8.4528302,0 18.867925,0 c 10.415094,0 18.867924,8.4528302 18.867924,18.867925 0,10.415094 -8.45283,18.867924 -18.867924,18.867924 C 8.4528302,37.735849 0,29.283019 0,18.867925 Z"
       copytype="single_stretched"
       prop_scale="0.63609496"
       scale_y_rel="false"
       spacing="0"
       normal_offset="0"
       tang_offset="0"
       prop_units="false"
       vertical_pattern="false"
       hide_knot="false"
       fuse_tolerance="0" />
    <inkscape:path-effect
       effect="skeletal"
       id="path-effect1942"
       is_visible="true"
       lpeversion="1"
       pattern="M 0,18.867925 C 0,8.4528302 8.4528302,0 18.867925,0 c 10.415094,0 18.867924,8.4528302 18.867924,18.867925 0,10.415094 -8.45283,18.867924 -18.867924,18.867924 C 8.4528302,37.735849 0,29.283019 0,18.867925 Z"
       copytype="single_stretched"
       prop_scale="0.34965791"
       scale_y_rel="false"
       spacing="0"
       normal_offset="0"
       tang_offset="0"
       prop_units="false"
       vertical_pattern="false"
       hide_knot="false"
       fuse_tolerance="0" />
    <inkscape:path-effect
       effect="skeletal"
       id="path-effect2822-3"
       is_visible="true"
       lpeversion="1"
       pattern="M 0,18.867925 C 0,8.4528302 8.4528302,0 18.867925,0 c 10.415094,0 18.867924,8.4528302 18.867924,18.867925 0,10.415094 -8.45283,18.867924 -18.867924,18.867924 C 8.4528302,37.735849 0,29.283019 0,18.867925 Z"
       copytype="single_stretched"
       prop_scale="0.16377935"
       scale_y_rel="false"
       spacing="0"
       normal_offset="0"
       tang_offset="0"
       prop_units="false"
       vertical_pattern="false"
       hide_knot="false"
       fuse_tolerance="0" />
  </defs>
  <g
     inkscape:label="Layer 1"
     inkscape:groupmode="layer"
     id="layer1">
    <rect
       style="fill:#ffffff;fill-opacity:1;stroke-width:0.408162"
       id="rect2758"
       width="976.20673"
       height="773.77045"
       x="-205.96277"
       y="-118.80267" />
    <g
       id="g2649"
       transform="matrix(0.63469609,0,0,0.63469609,-3.0993817,84.763291)">
      <path
         style="fill:#000000;fill-opacity:1;stroke:none;stroke-width:0.5"
         d="m 361.15655,202.66801 c -0.007,-0.0409 -0.007,-0.0831 -3.5e-4,-0.12636 0.0117,-0.0434 0.0326,-0.0884 0.0627,-0.13488 0,0 0,0 0,0 0.0599,-0.0925 0.1561,-0.191 0.28798,-0.29525 0,0 0,0 0,0 l 0,0 c 0.26132,-0.20649 0.66233,-0.43521 1.19899,-0.68471 l 0,-1e-5 c 1.0506,-0.48844 2.61621,-1.05421 4.66818,-1.68396 l 0,0 c 3.88356,-1.19186 9.52122,-2.61662 16.64958,-4.13377 l 0,0 10e-6,0 c 11.6142,-2.47333 29.12373,-5.63989 48.4552,-7.49457 l 0,0 c 7.359,-0.70856 15.49907,-1.28182 23.89094,-1.2295 l 0,0 c 3.29566,0.0196 6.73972,0.14797 10.26571,0.50264 l 0,0 c 2.74818,0.26549 5.70176,0.71205 8.75629,1.55398 l 0,0 c 2.16774,0.52404 4.71697,1.54539 7.32931,3.42623 l 0,0 c 1.04007,0.76091 2.06321,1.8267 2.98962,3.21566 l 0,0 2e-5,3e-5 0,0 c 0.85186,1.33107 1.41041,2.84799 1.63596,4.49737 0,0 0,3e-5 0,3e-5 v 0 c 0.18669,1.76237 0.0468,3.34959 -0.35649,4.70522 -0.47486,1.63869 -1.10721,3.02112 -1.80737,4.14497 -1.95686,3.16149 -4.27181,5.61445 -6.50924,7.5883 -7.66139,7.00195 -16.26286,13.17429 -25.62322,18.56554 -3.49843,2.01497 -7.03533,3.88195 -10.58276,5.61238 -13.51125,6.61002 -27.22121,11.32262 -40.55305,14.46091 -13.26808,3.14323 -25.88279,4.67917 -37.96929,4.43262 0,0 -10e-6,0 -10e-6,0 -5.52213,-0.10982 -10.83332,-0.63595 -15.95268,-1.7211 -4.56565,-0.94633 -8.93075,-2.4148 -12.92663,-4.63103 -3.16862,-1.72233 -6.07817,-4.03412 -8.34715,-7.01092 -1.87768,-2.51289 -2.96963,-5.43784 -3.25446,-8.38382 -0.23104,-3.01664 0.31748,-5.74788 1.18781,-8.03066 1.01464,-2.6971 2.39164,-4.97916 3.75898,-6.84985 3.4446,-4.71598 7.3839,-8.01981 9.95281,-9.88983 3.54131,-2.34297 5.59148,-3.33782 5.99739,-2.86269 0,0 0,0 0,0 0,0 0,0 0,0 0,0 0,0 0,0 0.004,0.005 0.004,0.004 0.003,0.004 -3.1e-4,-3.7e-4 -6e-4,-7.5e-4 0.003,0.004 0,0 0,0 0,0 0,0 0,1e-5 0,1e-5 0,0 0,0 0,0 0.38722,0.49093 -0.89276,2.41828 -3.55769,5.51853 -1.79647,2.3017 -4.92502,6.2476 -7.12383,10.52716 -0.8992,1.75041 -1.75513,3.70252 -2.20493,5.68493 -0.36064,1.65108 -0.53036,3.3919 -0.18249,4.88852 0.27401,1.40651 1.0363,2.83374 2.12686,4.04493 1.38067,1.60237 3.44349,2.83678 5.94378,4.05256 3.02715,1.4235 6.5089,2.26092 10.46068,2.86965 4.41334,0.65528 9.0646,0.82668 14.08412,0.68747 0,-1e-5 10e-6,0 10e-6,0 11.0254,-0.31121 22.52957,-2.20363 34.97624,-5.46877 12.43404,-3.28253 25.19111,-7.89932 37.76049,-14.13538 3.29729,-1.64096 6.57703,-3.38694 9.8108,-5.24772 8.65392,-4.97963 16.53787,-10.52776 23.51143,-16.74988 1.84206,-1.71238 3.38421,-3.15063 4.22344,-4.60908 l 0,0 c 0.26456,-0.4701 0.45178,-0.77191 0.47202,-0.91666 -0.004,-0.0792 0.031,-0.002 0.0344,0.2905 0,0 0,1e-5 0,1e-5 0.0573,0.29839 0.13564,0.51106 0.26547,0.69623 l 0,0 0,10e-6 0,0 c 0.13674,0.1362 0.10644,0.13831 -0.0152,-0.005 l 0,0 c -0.44072,-0.49501 -1.58873,-0.86273 -3.07477,-1.40862 l 0,0 c -2.0154,-0.64265 -4.28293,-1.0304 -6.65975,-1.3604 l 0,0 c -3.00383,-0.40404 -6.083,-0.61994 -9.14546,-0.75812 l 0,0 c -7.78975,-0.34881 -15.6465,-0.1499 -22.84956,0.14243 h 0 c -17.85514,0.73017 -37.53127,2.51563 -48.22764,3.35125 l 0,0 -1e-5,0 c -7.22744,0.565 -12.96683,0.95859 -17.02369,1.07049 l 0,0 c -2.13357,0.0589 -3.79563,0.0395 -4.94258,-0.0705 l 0,0 c -0.58678,-0.0563 -1.04034,-0.13648 -1.35506,-0.24188 l 0,0 c 0,0 0,0 0,0 -0.15908,-0.0532 -0.28286,-0.113 -0.37061,-0.17939 0,0 0,-1e-5 0,-1e-5 -0.0441,-0.0334 -0.0791,-0.0684 -0.10498,-0.10518 -0.0214,-0.0383 -0.0357,-0.0778 -0.043,-0.11879 z"
         id="path2634"
         inkscape:path-effect="#path-effect2636"
         inkscape:original-d="m 361.14916,202.66933 c 0,0 153.45288,-27.35957 113.17439,9.0359 -40.2785,36.39548 -111.14193,50.83962 -137.10571,37.38197 -25.96378,-13.45765 7.14686,-38.87221 7.14686,-38.87221"
         class="UnoptimicedTransforms"
         transform="translate(-27.709395,14.461638)" />
      <path
         style="fill:#000000;fill-opacity:1;stroke:none;stroke-width:0.5"
         d="m 297.69846,264.65428 c -0.0386,1.14257 -19.10364,-0.63364 -48.17393,10.86416 -12.95092,5.11557 -27.10598,12.89524 -41.9022,24.56329 -12.17163,9.60303 -24.10931,21.32112 -35.8643,35.53547 -10.34084,12.51083 -20.15757,26.52945 -29.43453,42.20574 -8.11561,13.71875 -15.6868,28.50193 -22.48785,44.32834 -5.69224,13.25326 -10.86413,27.22851 -15.0106,41.76893 -3.17126,11.16235 -5.87014,22.69045 -7.024375,34.30873 -0.422049,4.28513 -0.654516,8.51674 -0.42546,12.61442 0.207745,3.09917 0.515152,5.94917 1.388997,8.28954 2.909818,8.19026 7.776708,15.83405 14.447578,21.18812 4.9764,4.08907 11.04675,7.05342 17.55246,8.97672 0.4677,0.13827 0.93715,0.27101 1.40807,0.39827 5.50811,1.47261 11.23737,2.18605 16.96492,2.26353 0,0 3e-5,0 3e-5,0 l 0,0 c 1.77988,0.0212 3.53174,-0.0175 5.25026,-0.13765 l 0,0 3e-5,0 0,0 c 0.47561,-0.0333 0.93255,-0.0705 1.3704,-0.11609 1e-5,0 1e-5,0 1e-5,0 0.11518,-0.012 0.22058,-0.0234 0.31612,-0.0348 -1e-5,10e-6 -2e-5,10e-6 -2e-5,10e-6 -0.77607,0.52008 -1.55707,1.04072 -2.34301,1.56183 l 0,0 c 0.009,-7.8e-4 0.0171,-0.002 0.0257,-0.002 5.5701,-10.04664 11.05586,-19.93693 16.49925,-29.7205 l 0,0 c 15.47696,-24.75779 30.98599,-47.83979 46.8665,-69.55289 9.70362,-13.26669 19.35413,-25.73924 29.22455,-37.56787 l 0,0 2e-5,-2e-5 0,0 c 10.11803,-12.12948 20.14192,-23.20994 30.63333,-33.37819 l 0,0 c 9.81874,-9.53598 19.62074,-17.88119 30.31857,-24.69612 l 0,0 c 4.71507,-3.00495 9.55768,-5.62165 14.62434,-7.67017 4.55212,-1.85222 9.28955,-3.16644 14.15875,-3.65902 l 0,0 c 7.15574,-0.70042 13.66429,-2.15528 19.40608,-4.74785 4.92114,-2.21289 9.15329,-5.18108 12.43774,-8.70251 3.24141,-3.44428 5.62924,-7.46507 7.28692,-11.46028 l 0,0 c 1.81928,-4.38011 2.83191,-8.91948 3.39512,-13.08118 l 0,0 c 1.32212,-9.76908 0.32722,-19.06603 -0.42328,-24.68835 l 0,0 c -0.47014,-3.50345 -0.97601,-6.37069 -1.27098,-8.24062 l 0,0 c -0.16175,-1.02526 -0.27331,-1.82518 -0.31205,-2.3732 l 0,0 c -0.0201,-0.28396 -0.021,-0.50521 -6.7e-4,-0.66118 l 0,0 c 0.0104,-0.0789 0.0264,-0.14169 0.048,-0.18786 l 0,0 0,0 0,0 c 0.0448,-0.0356 0.0661,-0.0579 0.0761,-0.0714 0.01,-0.0132 0.009,-0.018 0.009,-0.0185 0,0 0,0 0,0 0,0 0,0 0,0 0,0 0,0 0,0 0,0 0,0 0,0 0,0 0,0 0,0 0,0 0,0 0,0 0,-2e-5 10e-6,10e-6 10e-6,10e-6 0,0 -10e-6,-3e-5 -10e-6,-10e-6 0,0 0,0 0,0 0,0 0,0 0,0 0,0 0,0 0,0 0,0 0,0 0,0 0,0 0,0 0,0 0,0 0,0 0,0 2.2e-4,5e-4 0.003,0.005 0.0185,0.009 0.0163,0.004 0.0469,0.008 0.10399,0.007 l 0,0 0,0 0,0 c 0.046,0.0228 0.0978,0.0628 0.15532,0.12015 l 0,0 c 0.11336,0.11258 0.24763,0.29099 0.40167,0.53619 l 0,0 c 0.29967,0.47702 0.66919,1.19896 1.09309,2.1744 l 0,0 c 0.78649,1.80975 1.77638,4.52782 2.74108,8.08509 l 0,0 c 1.55002,5.69926 3.47489,15.0878 2.80809,25.83822 l 0,0 c -0.28346,4.56048 -1.0893,9.64968 -2.87129,14.80711 l 0,0 c -1.63535,4.72585 -4.18449,9.58639 -7.89131,13.9696 -3.79138,4.44964 -8.67267,8.26747 -14.39521,11.11272 -6.61569,3.27995 -13.97842,5.29237 -21.82442,6.29645 l 0,0 c -3.80775,0.49341 -7.6538,1.74276 -11.5691,3.45129 l 0,0 c -4.35401,1.91309 -8.59543,4.39721 -12.87573,7.28729 l 0,0 c -9.75599,6.58946 -18.75649,14.71857 -28.10405,24.17632 l 0,0 c -9.93187,10.07118 -19.45287,21.04254 -29.19595,33.13121 0,1e-5 -1e-5,1e-5 -2e-5,2e-5 l 0,0 c -9.49129,11.78053 -18.79657,24.18528 -28.2234,37.41083 -15.41869,21.63072 -30.52406,44.54116 -45.73306,69.14136 l 0,0 c -0.5468,0.85174 -20.58108,31.98762 -21.12788,32.83935 -0.0195,0.003 -0.0293,0.004 -0.039,0.006 l 0,0 c -0.85749,0.53026 -1.71008,1.0597 -2.55777,1.5884 0,0 0,0 -1e-5,1e-5 -0.1825,0.022 -0.3555,0.0413 -0.5189,0.0585 0,0 0,0 0,0 -0.62171,0.0653 -1.22695,0.11669 -1.81516,0.15836 l 0,0 -3e-5,0 0,0 c -2.12787,0.15089 -4.23981,0.20369 -6.32977,0.17969 l 0,0 c 0,0 -4e-5,0 -4e-5,0 -6.73022,-0.068 -13.53943,-0.92216 -20.20575,-2.69096 -0.57675,-0.15167 -1.15243,-0.31104 -1.72676,-0.47817 -7.98847,-2.32463 -15.59812,-6.11525 -22.16377,-11.43507 -8.776129,-7.23811 -14.967915,-16.8478 -18.483512,-27.09174 -1.391212,-4.15801 -1.917374,-8.21735 -2.055717,-11.93678 -0.233878,-5.02284 0.04162,-9.9172 0.551972,-14.61477 1.371917,-12.7183 4.307607,-24.96244 7.730405,-36.51044 4.465532,-15.11991 9.980142,-29.53713 16.033202,-43.11817 7.22916,-16.22824 15.28242,-31.3481 23.9119,-45.3309 9.85725,-15.9777 20.34718,-30.25374 31.38821,-42.93008 12.54014,-14.40464 25.39535,-26.23153 38.44832,-35.78104 15.86877,-11.61546 31.16241,-19.08509 44.96727,-23.63824 31.10749,-10.2467 50.35797,-6.06925 50.31937,-4.92668 z"
         id="path2638"
         inkscape:path-effect="#path-effect2640"
         inkscape:original-d="M 297.69846,264.65428 C 159.03954,259.97016 77.398101,477.72032 92.58387,521.28714 c 15.18577,43.56682 64.42142,36.90059 64.42142,36.90059 0,0 113.74381,-199.36072 179.57237,-206.84058 65.80591,-7.47729 40.15606,-78.59449 40.15606,-78.59449"
         class="UnoptimicedTransforms"
         sodipodi:nodetypes="cscsc" />
      <path
         style="fill:#000000;fill-opacity:1;stroke:none;stroke-width:0.5"
         d="m 448.00793,249.88422 c 0.29854,-0.76114 9.07978,1.84238 24.93686,7.28724 0,0 10e-6,10e-6 10e-6,10e-6 13.77372,5.79383 33.59293,16.05505 53.92943,33.2341 9.54297,8.0722 19.29424,17.79766 28.39823,29.33022 8.98636,11.38619 17.33086,24.54731 24.24766,39.40812 7.13021,15.32914 12.65881,32.27138 16.14601,50.52713 0,10e-6 0,2e-5 1e-5,3e-5 3.78493,19.8326 5.13881,40.7645 4.14386,62.51041 -0.98837,22.33179 -3.60025,46.16111 -10.4794,69.46118 -3.91892,13.38423 -9.52488,27.05565 -18.30164,39.17467 -1.46092,2.03133 -3.04061,4.02596 -4.74743,5.94746 -3.85167,4.33613 -8.31146,8.25559 -13.46235,11.39257 -1.93309,1.16941 -4.04787,2.23084 -6.35378,3.08811 -0.60676,0.2252 -1.27089,0.44373 -1.99429,0.64355 -0.1871,0.0516 -0.40089,0.10626 -0.64166,0.16227 -0.0302,0.007 -0.0736,0.0167 -0.13024,0.0282 -10e-6,0 -10e-6,0 -10e-6,0 -0.008,0.002 -0.0152,0.003 -0.0228,0.005 -0.014,0.003 -0.0188,0.004 -0.0236,0.005 -0.0149,0.004 -0.0296,0.007 -0.0441,0.0109 -0.057,0.014 -0.11193,0.0271 -0.16474,0.0395 -0.29945,0.0695 -0.58995,0.13383 -0.87118,0.19418 0,0 -4e-5,1e-5 -4e-5,1e-5 -1.05329,0.22604 -2.09421,0.42554 -3.12014,0.60571 0,0 -4e-5,0 -4e-5,0 -3.5744,0.62844 -7.1586,1.06787 -10.73204,1.33534 -4.91505,0.37184 -9.86855,0.41185 -14.8158,0.0432 -5.58626,-0.40748 -11.19881,-1.3859 -16.66687,-3.13407 -5.74666,-1.82726 -11.26785,-4.63104 -16.12256,-8.5071 -5.35781,-4.33801 -9.52978,-9.84963 -12.30694,-15.92086 -3.52242,-7.82726 -4.91957,-16.09448 -5.0794,-23.93953 -0.26898,-11.41225 1.57026,-22.43698 4.13188,-32.63922 0,0 0,-3e-5 0,-3e-5 8.28229,-33.62509 12.49816,-63.18192 9.3772,-91.59449 -1.20145,-11.05336 -3.52114,-21.28316 -7.13331,-30.58936 -3.33576,-8.61285 -7.71233,-16.27852 -12.78364,-22.83661 -5.17068,-6.70157 -11.10523,-12.30866 -17.04343,-16.89302 -6.66774,-5.14962 -13.65106,-9.24102 -19.93283,-12.47731 -11.27788,-5.81688 -25.10961,-11.01082 -30.8075,-13.26732 -7.25245,-2.87215 -11.05909,-4.59643 -10.89393,-5.12183 0.16516,-0.5254 4.27356,0.16929 11.87369,2.07802 6.6298,1.66503 19.69227,5.2204 32.44807,10.79513 6.73437,2.94662 14.28033,6.83536 21.69946,12.00456 6.60931,4.60707 13.29489,10.4014 19.27843,17.54808 5.85339,7.00536 10.97677,15.25978 14.93459,24.60775 4.25937,10.07797 7.12559,21.10997 8.68817,32.90235 3.95372,30.06655 0.2891,61.32543 -7.84276,95.70709 0,0 -1e-5,3e-5 -1e-5,3e-5 -2.22405,9.62573 -3.81879,19.5963 -3.42402,29.38256 0.29465,6.66932 1.38725,13.29464 4.11067,18.96459 2.03582,4.32949 5.04157,8.26237 8.77915,11.20895 3.39667,2.73255 7.54394,4.75598 12.00967,6.19173 4.29352,1.37079 8.90053,2.12727 13.66157,2.47712 4.21784,0.3022 8.51767,0.24599 12.85895,-0.0899 3.16205,-0.24749 6.31537,-0.64159 9.43912,-1.19873 0,0 3e-5,0 3e-5,0 0.89702,-0.1602 1.77657,-0.3301 2.63585,-0.51687 0,0 3e-5,0 3e-5,0 0.22963,-0.0499 0.44951,-0.0989 0.65929,-0.14817 0.079,-0.0184 0.15585,-0.0363 0.23045,-0.0541 0.0191,-0.005 0.038,-0.009 0.0568,-0.0136 0.007,-0.002 0.0137,-0.003 0.0204,-0.005 0.0185,-0.004 0.0278,-0.006 0.0371,-0.008 0,0 0,0 0,0 0.01,-0.002 0.0322,-0.008 0.068,-0.0157 0.0168,-0.003 0.0589,-0.015 0.12684,-0.0332 0.26224,-0.07 0.56882,-0.17499 0.92203,-0.30305 1.34099,-0.48476 2.71118,-1.19336 4.12304,-2.02996 3.78578,-2.22245 7.20104,-5.29475 10.33947,-8.85385 1.39058,-1.57698 2.72075,-3.24261 3.99777,-4.95999 7.60296,-10.30764 12.59244,-22.64653 16.40156,-35.14224 6.57625,-21.76 9.19168,-44.59065 10.41804,-66.34621 1.14582,-20.86781 0.13279,-40.84878 -3.1736,-59.74444 0,-10e-6 0,-2e-5 0,-3e-5 -3.0385,-17.3834 -7.95288,-33.53643 -14.37818,-48.19452 -6.22539,-14.21204 -13.81026,-26.91508 -22.03078,-38.0099 -8.3277,-11.24211 -17.33008,-20.88114 -26.18198,-29.01358 -18.75316,-17.25537 -37.38661,-28.33219 -50.32632,-35.14872 0,0 -10e-6,0 -10e-6,0 -15.18795,-6.73153 -23.39454,-10.79133 -23.09606,-11.55233 z"
         id="path2642"
         inkscape:path-effect="#path-effect2644"
         inkscape:original-d="m 448.00793,249.88422 c 0,0 154.5222,42.27558 145.4945,221.98039 -5.78467,115.14922 -51.28827,123.79815 -51.28827,123.79815 0,0 -91.82038,22.89037 -68.42225,-74.05344 37.58774,-155.7346 -40.96458,-177.17853 -95.14851,-194.21148"
         class="UnoptimicedTransforms"
         sodipodi:nodetypes="cscsc" />
    </g>
    <path
       style="fill:#000000;fill-opacity:1;stroke:none;stroke-width:0.5"
       d="m 182.82201,286.21453 c 0.47112,-0.38529 3.18005,2.20118 7.88342,6.45318 4.4985,4.06679 11.65059,10.32962 20.51053,15.22455 7.26529,4.01122 16.18223,7.34841 25.79223,7.72997 0.29255,0.0116 0.58471,0.0204 0.87646,0.0264 9.79569,0.25846 19.01105,-2.68357 26.39202,-6.47637 8.67255,-4.45144 15.64825,-10.38778 20.01216,-14.24356 4.56704,-4.03527 7.17844,-6.50395 7.6384,-6.12496 0.45996,0.37898 -1.28227,3.56666 -5.29924,8.39128 -3.88653,4.66796 -10.50114,11.41517 -19.71171,16.78507 -7.84946,4.56976 -17.97868,8.06996 -29.17346,7.84663 -0.33155,-0.008 -0.66332,-0.0199 -0.99526,-0.0346 -10.94371,-0.48678 -20.72064,-4.38844 -28.34066,-9.11452 -9.34702,-5.79595 -16.10254,-12.84302 -20.10467,-17.72475 -4.13034,-5.03814 -5.95134,-8.35302 -5.48022,-8.73831 z"
       id="path2820"
       inkscape:path-effect="#path-effect2822"
       inkscape:original-d="m 182.82201,286.21453 c 34.76289,42.5071 75.51331,43.35826 109.1052,2.58925"
       class="UnoptimicedTransforms"
       sodipodi:nodetypes="cc"
       transform="translate(0,38.894765)" />
    <path
       style="fill:#000000;fill-opacity:1;stroke-width:0.162304"
       d="m 277.18586,339.44125 c -4.63521,-3.63279 -14.48539,-7.97494 -22.33783,-9.84696 -6.29469,-1.50065 -9.36303,-1.8244 -17.29006,-1.8244 -8.2181,0 -11.30613,0.34745 -18.03057,2.02868 -6.51134,1.62796 -14.62094,5.04793 -19.31317,8.14471 -0.99946,0.65962 -1.90675,1.19932 -2.01621,1.19932 -0.27592,0 -2.88926,-2.29207 -9.00836,-7.90091 l -5.22507,-4.78937 1.23032,-1.11375 c 2.77238,-2.50972 7.15652,-6.01034 9.90035,-7.9052 6.39397,-4.41556 10.61671,-6.23998 16.95641,-7.32593 4.22332,-0.72342 8.57887,-2.00512 11.82311,-3.47918 5.07951,-2.30793 10.75029,-7.51127 13.19537,-12.10765 l 1.31773,-2.47712 1.73172,0.79014 c 0.95243,0.43458 4.86432,2.07203 8.69307,3.63879 7.96627,3.25988 17.74495,8.05275 22.05202,10.80848 8.43963,5.39979 14.68304,11.35495 19.54863,18.64611 l 1.85229,2.77568 -4.99292,4.4781 c -6.56298,5.88627 -8.20157,7.28255 -8.53328,7.2715 -0.15137,-0.005 -0.85047,-0.46002 -1.55355,-1.01104 z"
       id="path2965" />
    <path
       style="fill:#000000;fill-opacity:1;stroke:none;stroke-width:0.5"
       d="m 116.45285,95.856812 c 1.83842,0.689041 -5.95584,25.126808 -17.336805,63.908798 0,0 -3e-6,1e-5 -3e-6,1e-5 -3.970309,13.53256 -8.71331,30.07023 -12.665245,46.92511 -2.403888,10.2804 -4.767412,21.36899 -5.974768,32.46841 -0.665979,6.61261 -1.216888,13.18991 -0.07603,19.03745 0.365143,1.78625 0.753369,3.34631 1.395865,4.4685 0.472402,0.77606 0.872624,1.38863 1.229869,1.54941 0.224906,0.20579 0.720012,0.34075 1.272043,0.42285 0,0 5e-6,0 5e-6,0 0.74363,0.12935 1.789425,-0.0543 3.055282,-0.32536 1.064183,-0.25349 2.170644,-0.65546 3.326856,-1.1525 0.532893,-0.22908 1.075027,-0.47779 1.626259,-0.74024 2.108472,-1.01969 4.19609,-2.26838 6.286064,-3.62924 l 0,0 c 5.295387,-3.45104 10.309207,-7.5541 15.158967,-11.77565 6.04306,-5.27339 11.80622,-10.83619 17.284,-16.34393 l 0,0 c 6.3953,-6.43254 12.51794,-12.93967 18.2744,-19.21729 0,0 1e-5,-1e-5 1e-5,-1e-5 l 0,0 c 13.23512,-14.43373 25.62892,-28.86421 35.59147,-40.55572 l 0,0 c 11.87439,-13.93602 20.8282,-24.63743 27.95638,-32.80672 l 0,0 c 3.6601,-4.1947 6.60177,-7.44468 8.7257,-9.57897 l 0,0 c 1.08997,-1.09528 1.97064,-1.90311 2.62862,-2.40219 l 0,0 c 0.33276,-0.25241 0.60928,-0.42637 0.82784,-0.51939 l 0,0 c 0,0 0,0 0,0 0.17701,0.002 0.28919,-0.0121 0.36185,-0.0236 0,0 0,0 0,0 0.0531,0.006 0.0836,0.004 0.10087,6.3e-4 0,0 0,0 0,0 0.009,-0.002 0.014,-0.004 0.0171,-0.006 0.004,-0.003 0.004,-0.003 0.004,-0.003 0,0 0,0 0.001,9.1e-4 -0.004,0.008 -0.004,0.0135 -0.003,0.0223 0,0 0,0 0,0 0.002,0.0176 0.01,0.0472 0.0322,0.0956 0,0 0,0 0,0 0.0118,0.0726 0.0338,0.18381 0.0904,0.35146 0,0 0,1e-5 0,1e-5 l 0,0 c -0.0205,0.23721 -0.10059,0.55447 -0.23899,0.94974 l 0,0 c -0.27402,0.78264 -0.77578,1.86803 -1.49802,3.2407 l 0,0 c -1.41158,2.68282 -3.65283,6.44068 -6.67733,11.15385 l 0,0 c -5.63723,8.78474 -14.10509,21.06128 -24.87188,35.47553 l 0,0 c -9.36736,12.54174 -20.96127,27.372 -34.07209,42.5837 l 0,0 -1e-5,1e-5 0,0 c -5.6531,6.55908 -11.72549,13.34346 -18.1728,20.08704 l 0,0 c -5.51067,5.76604 -11.41256,11.63024 -17.73462,17.27048 -5.03079,4.49916 -10.49751,9.00963 -16.55194,13.01411 l 0,0 c -2.40028,1.58871 -4.97131,3.11941 -7.741792,4.4768 -0.714041,0.35401 -1.453715,0.69664 -2.219308,1.02209 -1.660852,0.70602 -3.433905,1.32706 -5.323814,1.80952 -2.250497,0.60497 -4.840651,0.88676 -7.674463,0.62545 0,0 -2.6e-5,0 -2.6e-5,0 -2.575154,-0.25937 -5.13238,-1.1889 -7.456283,-2.79171 -2.431017,-1.81786 -4.168699,-3.98784 -5.262211,-6.22237 -1.425913,-2.8545 -2.218568,-5.66989 -2.625045,-8.25234 -1.323076,-8.10379 -0.703497,-15.89044 0.235226,-22.81877 1.526054,-11.96472 4.246241,-23.46127 7.039868,-33.88615 4.619698,-17.28395 10.073417,-33.5495 14.931906,-47.06253 10e-7,0 3e-6,0 4e-6,-1e-5 13.790668,-38.36642 24.883568,-61.535679 26.721988,-60.846638 z"
       id="path1940"
       inkscape:path-effect="#path-effect1942"
       inkscape:original-d="M 116.45285,95.856812 C -24.661992,472.3629 225.52373,125.55808 225.52373,125.55808"
       class="UnoptimicedTransforms"
       transform="matrix(0.66939245,0,0,0.66939245,-44.691199,65.431268)"
       sodipodi:nodetypes="cc" />
    <path
       style="fill:#000000;fill-opacity:1;stroke:none;stroke-width:0.5"
       d="m 178.59022,53.18205 c 0.87091,-1.135471 5.12066,0.535242 11.33074,5.927318 2.99487,2.579752 6.40305,5.946311 10.30855,9.542778 3.28505,3.021489 7.2532,6.501972 11.54665,9.48733 4.13743,2.886085 8.91596,5.609749 14.2326,7.702326 12.24081,4.982133 26.74856,6.188834 44.3998,4.598987 27.48407,-0.890718 55.08572,-6.831915 88.0418,-16.018184 -4e-4,-0.297127 0.0213,39.635705 0.0217,39.932835 -0.006,12.00585 -0.0261,23.77609 -0.0674,35.32305 -65.49761,-2.09853 -128.8493,-4.70336 -163.12071,-6.37327 8.09072,-31.05807 15.61128,-46.946212 18.17273,-46.083466 2.56146,0.862746 -0.85759,17.453806 -11.21905,41.179446 32.53269,-0.47497 90.26163,-1.02635 144.48017,-1.00683 0.59449,-8.07701 1.21897,-16.21867 1.8711,-24.52902 0.73284,-9.33884 1.48562,-18.698895 2.21309,-27.729186 -27.51422,13.775887 -52.96278,23.107136 -79.05759,25.715336 -20.08777,0.88226 -37.98618,-2.70127 -52.62995,-10.39553 -6.37633,-3.423816 -11.74374,-7.504882 -16.13837,-11.674234 -4.57265,-4.350368 -8.2316,-8.871126 -11.06554,-12.798791 -3.07215,-4.250305 -6.05772,-9.067481 -7.79776,-11.89542 -3.93964,-6.330795 -6.21306,-10.005208 -5.52256,-10.905475 z"
       id="path2597"
       inkscape:path-effect="#path-effect2599"
       inkscape:original-d="m 178.59022,53.18205 c 23.08145,17.703461 35.49692,80.00899 176.03595,26.597335 l -2.06494,63.757045 -153.80044,-2.68322 14.69589,-43.631444"
       class="UnoptimicedTransforms"
       sodipodi:nodetypes="ccccc"
       transform="matrix(0.63469609,0,0,0.63469609,-3.0993817,84.763291)" />
    <path
       style="fill:#000000;fill-opacity:1;stroke:none;stroke-width:0.5"
       d="m 359.5298,101.21372 c 0.0754,2.38289 20.38527,3.6764 45.33461,2.88729 24.94934,-0.7891 45.13691,-3.36347 45.06155,-5.746364 -0.0754,-2.382889 -20.38528,-3.676395 -45.33461,-2.887291 -24.94934,0.789104 -45.13692,3.363476 -45.06155,5.746365 z"
       id="path2609"
       inkscape:path-effect="#path-effect2611"
       inkscape:original-d="m 359.5298,101.21372 90.39614,-2.859073"
       class="UnoptimicedTransforms"
       transform="matrix(0.63469609,0,0,0.63469609,-3.0993817,84.763291)"
       sodipodi:nodetypes="cc" />
    <path
       style="fill:#000000;fill-opacity:1;stroke:none;stroke-width:0.5"
       d="m 450.91262,66.465259 c -0.12433,-5.116777 58.56912,-9.382942 143.37027,-8.840133 -0.27496,26.57934 -0.71083,56.050544 -1.30561,86.730744 -2.1e-4,0.0103 -0.20304,10.21263 -0.20325,10.22296 -59.99162,-2.6726 -114.21689,-5.66221 -151.95124,-8.24581 0,0 0,-1e-5 0,-1e-5 2.61787,-42.84555 7.57729,-67.283191 10.89089,-66.94335 3.31361,0.339841 3.31986,24.19811 -2.05635,59.29869 0,0 0,10e-6 0,10e-6 35.41022,0.4884 81.50643,1.70786 131.63084,3.65937 -1.5e-4,0.007 0.17122,-7.71969 0.17107,-7.71285 0.52726,-23.08653 1.16785,-45.188798 1.88251,-66.031046 -76.40528,4.459911 -132.3048,2.978203 -132.42913,-2.138575 z"
       id="path2613"
       inkscape:path-effect="#path-effect2615"
       inkscape:original-d="m 450.91262,66.465259 137.8997,-3.350779 -1.78122,85.3488 -141.79104,-5.95259 6.47362,-63.120997"
       class="UnoptimicedTransforms"
       transform="matrix(0.63469609,0,0,0.63469609,-3.0993817,84.763291)"
       sodipodi:nodetypes="ccccc" />
    <path
       style="fill:#000000;fill-opacity:1;stroke:none;stroke-width:0.5"
       d="m 690.53122,82.9728 c 1.3429,-0.501877 9.91831,18.65265 23.38733,51.60033 5.83798,14.77706 12.61439,32.70119 19.67134,52.73243 6.24424,17.72393 12.96286,37.7939 19.33388,59.05535 0,0 0,2e-5 0,2e-5 5.28106,17.617 10.61029,36.86069 14.85293,56.76822 1.71913,8.06451 3.28461,16.397 4.46282,24.90568 0.95696,6.87171 1.68312,14.01769 1.77643,21.33411 0.103,5.39997 -0.19085,11.23304 -1.66256,17.18827 0,0 -10e-6,3e-5 -10e-6,3e-5 -0.55635,2.26645 -1.40474,4.65125 -2.67674,7.03614 -0.41619,0.79371 -0.9049,1.58179 -1.46922,2.35265 -0.87619,1.1969 -1.93248,2.34938 -3.17838,3.4155 -2.00043,1.64703 -4.32384,2.7941 -6.81893,3.38087 0,0 -4e-5,1e-5 -4e-5,1e-5 -2.78712,0.60074 -5.4196,0.5992 -7.76164,0.18474 -2.97199,-0.50078 -5.64636,-1.3962 -8.01172,-2.45982 0,0 -2e-5,-1e-5 -2e-5,-1e-5 -3.10992,-1.37466 -5.95565,-3.00165 -8.577,-4.71012 -46.41135,-30.00799 -82.72538,-58.29481 -112.21572,-91.0295 -11.04721,-12.2631 -20.03983,-24.20759 -27.19141,-36.38567 -6.13346,-10.42971 -10.44511,-20.39353 -13.10379,-30.07824 -2.36915,-8.61896 -3.18863,-16.49354 -2.8784,-23.51018 0.33795,-6.76528 1.71054,-12.38194 3.39739,-16.78025 5.04058,-8.34832 7.92346,-12.47576 8.50142,-12.08708 0.004,0.002 0.003,0.002 0.002,0.002 -5.8e-4,-4e-4 -0.001,-8.1e-4 0.002,0.002 0.56392,0.41339 -1.20844,5.30042 -4.77759,13.61248 -0.98562,4.18846 -1.61417,9.26765 -1.313,15.26854 0.27163,6.41419 1.57233,13.46263 4.24217,21.29511 3.00902,8.81898 7.51687,17.80383 13.75633,27.45145 7.294,11.26239 16.27422,22.27037 27.3169,33.8363 29.68331,31.09387 65.15628,57.64014 111.37996,87.36284 2.25176,1.43371 4.48428,2.71972 6.7302,3.68543 0,0 2e-5,10e-6 2e-5,10e-6 1.72878,0.72541 3.33647,1.30231 4.80311,1.50507 1.11328,0.13321 2.05802,0.19193 2.6923,-0.008 0,0 10e-6,0 10e-6,0 0.50597,-0.11555 1.02417,-0.3694 1.40582,-0.6964 0.29626,-0.21188 0.589,-0.5548 0.88899,-0.98711 0.19318,-0.27839 0.38913,-0.59348 0.59047,-0.93348 0.61573,-1.08074 1.06789,-2.45176 1.48423,-3.99099 0,0 0,-2e-5 0,-2e-5 1.11602,-4.16956 1.28874,-8.87886 1.28738,-13.78885 -0.0468,-6.53021 -0.69975,-13.14464 -1.55907,-19.71981 -1.06612,-8.10731 -2.51246,-16.15717 -4.1055,-24.04041 -3.93071,-19.44561 -8.90473,-38.51921 -13.7717,-56.0622 0,-1e-5 0,-2e-5 0,-2e-5 -5.858,-21.10692 -12.02422,-41.35307 -17.59054,-59.1289 -6.24006,-19.9284 -12.2902,-38.48931 -17.13187,-53.3292 -11.42603,-33.6649 -17.51425,-53.746885 -16.17142,-54.24874 z"
       id="path2626"
       inkscape:path-effect="#path-effect2628"
       inkscape:original-d="m 690.53122,82.972798 c 0,0 135.41096,344.343542 46.88802,287.264002 C 526.84903,234.46123 590.37161,165.88797 590.37161,165.88797"
       class="UnoptimicedTransforms"
       sodipodi:nodetypes="csc"
       transform="matrix(0.63469609,0,0,0.63469609,20.723293,72.438386)" />
    <path
       style="fill:#000000;fill-opacity:1;stroke:none;stroke-width:0.5"
       d="m 273.48645,60.454546 c -0.56095,-0.642457 3.68448,-5.815172 12.45113,-12.045822 8.8135,-6.263939 22.17072,-13.249667 38.76662,-15.642144 1.09587,-0.157982 2.1886,-0.293268 3.27764,-0.406212 0,0 1e-5,10e-7 1e-5,10e-7 16.12321,-1.645429 29.86986,1.93849 39.25647,6.220112 9.24102,4.215205 13.81919,8.587664 13.36613,9.276401 -0.45306,0.688738 -5.76547,-2.331624 -14.91586,-5.31953 -9.31595,-3.041967 -22.14852,-5.644841 -37.06391,-4.039397 0,1e-6 0,0 0,0 -1.01169,0.10708 -2.02754,0.232676 -3.04742,0.37709 -15.39742,2.180262 -28.23277,8.143169 -37.29106,13.231162 -9.00865,5.060112 -14.2388,8.990796 -14.79975,8.348339 z"
       id="path3020"
       inkscape:path-effect="#path-effect3022"
       inkscape:original-d="M 273.48645,60.454546 C 307.54626,30.715709 349.89881,27.658249 380.60443,47.856871"
       class="UnoptimicedTransforms"
       sodipodi:nodetypes="cc"
       transform="translate(-5.0246899,50.254601)" />
  </g>
</svg>
