<?xml version="1.0" encoding="UTF-8"?>
<svg width="32mm" height="32mm" version="1.1" viewBox="0 0 32 32" xmlns="http://www.w3.org/2000/svg" xmlns:cc="http://creativecommons.org/ns#" xmlns:dc="http://purl.org/dc/elements/1.1/" xmlns:rdf="http://www.w3.org/1999/02/22-rdf-syntax-ns#">
 <metadata>
  <rdf:RDF>
   <cc:Work rdf:about="">
    <dc:format>image/svg+xml</dc:format>
    <dc:type rdf:resource="http://purl.org/dc/dcmitype/StillImage"/>
    <dc:title/>
   </cc:Work>
  </rdf:RDF>
 </metadata>
 <g transform="translate(0 -2.3931)">
  <g transform="translate(6.2997 -.43454)">
   <g>
    <path d="m10.967 19.55c-0.1385 1.1509-3.0571 3.871-4.3669 3.7133-1.3097-0.1576-3.4973-3.5312-3.3588-4.6821 0.1385-1.1509 2.8536-1.8187 4.1633-1.6611 1.3097 0.15762 3.7009 1.4789 3.5624 2.6298z"/>
    <circle transform="rotate(6.8621)" cx="11.995" cy="25.484" r=".48681" style="paint-order:markers fill stroke"/>
    <circle transform="rotate(6.8621)" cx="15.789" cy="20.134" r=".48681" style="paint-order:markers fill stroke"/>
    <circle transform="rotate(6.8621)" cx="17.054" cy="24.905" r=".48681" style="paint-order:markers fill stroke"/>
    <circle transform="rotate(6.8621)" cx="5.9831" cy="23.376" r=".47794" style="paint-order:markers fill stroke"/>
    <circle transform="rotate(6.8621)" cx="2.0865" cy="20.466" r=".47794" style="paint-order:markers fill stroke"/>
    <circle transform="rotate(6.8621)" cx="2.3519" cy="25.959" r=".47794" style="paint-order:markers fill stroke"/>
   </g>
   <g transform="matrix(.51556 .02106 -.02106 .51556 -38.839 -17.42)" stroke-width="1.938">
    <g transform="matrix(1.1087 .039079 -.039079 1.1087 -8.1849 -9.937)" stroke-width="1.747">
     <circle transform="rotate(-1.0978 35.136 1.717)" cx="109.05" cy="51.329" r="2.3608" fill-rule="evenodd"/>
     <path transform="translate(-1.3125e-6)" d="m98.647 43.82c5.68e-4 0.42544 9.6748 0.64321 22.873 0.42256-0.0207 2.9481-0.0353 6.0566-0.0422 9.2832 0 1.1e-4 -6.9e-4 0.33658-6.9e-4 0.33669-8.6686 0.05635-16.56 0.15941-22.439 0.28013v-2e-6c0.12417-5.808-0.07185-9.5448-0.33602-9.5448-0.26417 0-0.46019 3.8226-0.33602 10.221v2e-6c6.0599 0.04855 14.62 0.05213 24.071-1e-3 0 1.37e-4 5e-4 -0.40367 5e-4 -0.40354 5e-3 -3.8698 1e-3 -7.6067-9e-3 -11.079-13.849-0.18455-23.782 0.05938-23.781 0.48482z"/>
     <circle transform="matrix(-.99982 -.019159 -.019159 .99982 191.65 .67348)" cx="109.05" cy="51.329" r="2.3608" fill-rule="evenodd"/>
     <path transform="matrix(-1 0 0 1 191.62 3.9583e-8)" d="m96.461 44.394c-0.0071 0.42991 10.244 0.84394 24.184 0.90331 0.25946 2.7617 0.5371 5.616 0.83453 8.6084 6.5e-4 -2e-6 -0.51514 0.0019-0.51449 0.0018-8.7663 0.03234-16.591 0.10585-22.742 0.21301-0.05665-6.5928-0.37521-10.859-0.65242-10.851-0.27721 0.0075-0.36161 4.3805-0.04465 11.572 6.3531 0.03412 14.84 0.0125 24.352-0.06191 6.6e-4 -5e-6 0.55604-0.0044 0.55671-0.0044-0.2952-3.6574-0.58387-7.1576-0.86581-10.471-14.579-0.41102-25.101-0.33963-25.109 0.09028z"/>
     <path d="m92.849 49.518c0 0.35051 1.6051 0.63498 3.5829 0.63498s3.5829-0.28447 3.5829-0.63498-1.6051-0.63498-3.5829-0.63498-3.5829 0.28447-3.5829 0.63498z"/>
    </g>
   </g>
  </g>
  <path d="m12.917 22.603c-0.1109 0.0065-0.0668 2.3975 0.09106 5.7778 0.06264 1.1369 0.62756 2.3225 1.6448 3.1408 0.51426 0.41369 1.1034 0.69724 1.7214 0.8292h1e-6c2.1762 0.41973 3.9904-0.83513 4.9494-1.7153 1.0226-0.93856 1.4276-1.6606 1.3771-1.7001-0.05043-0.03957-0.55818 0.59892-1.6036 1.4364-0.97846 0.78384-2.7265 1.9199-4.6144 1.4716h-1e-6c-0.5338-0.11415-1.047-0.36543-1.4994-0.73114-0.88294-0.71381-1.4138-1.7696-1.4853-2.7612v-1e-6c-0.23606-3.3748-0.47017-5.7545-0.58108-5.7481z"/>
  <path d="m3.1088 28.935c0.048149-0.04179 0.57044 0.55698 1.6391 1.2727 1.0243 0.68602 2.7634 1.557 4.6874 1.2131 0-1e-6 6e-7 0 6e-7 0 0.55748-0.09701 1.1302-0.31043 1.6474-0.63207 0.97401-0.60577 1.5936-1.4884 1.6793-2.4413v-1e-6c-0.02881-3.3578 0.01891-5.7426 0.13064-5.7448 0.11177-0.0022 0.25461 2.3822 0.36035 5.7629-0.11002 1.1302-0.79638 2.1725-1.8845 2.8656-0.57822 0.36829-1.2195 0.60328-1.8494 0.70092h-6e-7c-2.1465 0.32331-3.9135-0.62901-4.9704-1.4486-1.0569-0.81954-1.488-1.5067-1.4399-1.5485z"/>
 </g>
</svg>
