<svg id="logo" width="64" height="64" version="1.1" viewBox="0 0 16.933 16.933" xmlns="http://www.w3.org/2000/svg" xmlns:osb="http://www.openswatchbook.org/uri/2009/osb" xmlns:xlink="http://www.w3.org/1999/xlink">
 <g transform="translate(-34.6 -29.764)">
  <path d="m38.09 33.998c-0.0072-0.04045-1.3263 0.3203-2.4397 1.7545-0.29951 0.37956-0.60945 0.84152-0.8028 1.3743-0.13323 0.34623-0.22598 0.79746-0.01654 1.1836 0.0118 0.01885 0.02406 0.03717 0.03677 0.05496 0.44907 0.62854 1.3757 0.53973 1.9335 0.24115 2.034-1.0602 2.1765-3.0818 2.1321-3.0961-0.04447-0.01427-0.29811 1.9699-2.2239 2.9147v0c-0.50877 0.24151-1.3497 0.33472-1.6655-0.1778-9e-3 -0.01457-0.01749-0.0296-0.02552-0.04509-0.17404-0.27818-0.08018-0.67247 0.02864-1.0042 0.17623-0.50238 0.46996-0.95192 0.75406-1.3293 1.0921-1.4265 2.2962-1.8302 2.289-1.8707z"/>
  <path d="m48.552 34.677c-0.02846 0.02908 1.024 0.94325 2.0078 2.6659 0.26085 0.45853 0.53065 1.0072 0.62036 1.5937 0.06358 0.42386 0.0111 0.90451-0.24813 1.2619-0.01505 0.02075-0.03076 0.04102-0.04713 0.06078-0.27105 0.33252-0.6619 0.56098-1.0407 0.51635-0.42779-0.0369-0.80353-0.334-1.0855-0.63148-1.478-1.581-1.2253-3.4064-1.2687-3.4075-0.04332-0.0011-0.39769 1.8495 1.1242 3.54 0.2891 0.32531 0.70063 0.64966 1.2083 0.70921 0.47173 0.04304 0.92968-0.20875 1.2308-0.59077 0.01878-0.02353 0.0368-0.04755 0.05409-0.07202 0.29805-0.42206 0.35945-0.95509 0.28144-1.4197-0.1039-0.62838-0.38919-1.194-0.66562-1.6559-1.0355-1.7364-2.1428-2.5996-2.1712-2.5705z"/>
  <g>
   <path d="m43.379 39.068c-0.03712 0.30846-0.81937 1.0375-1.1704 0.99524-0.35103-0.04224-0.93734-0.94642-0.90022-1.2549 0.03712-0.30846 0.76481-0.48744 1.1158-0.44519 0.35103 0.04225 0.99189 0.39638 0.95477 0.70484z"/>
   <path d="m42.945 41.009a0.13047 0.13047 0 0 1-0.14513 0.11395 0.13047 0.13047 0 0 1-0.11395-0.14513 0.13047 0.13047 0 0 1 0.14513-0.11395 0.13047 0.13047 0 0 1 0.11395 0.14513z" style="paint-order:markers fill stroke"/>
   <path d="m44.126 39.707a0.13047 0.13047 0 0 1-0.14513 0.11395 0.13047 0.13047 0 0 1-0.11395-0.14513 0.13047 0.13047 0 0 1 0.14513-0.11395 0.13047 0.13047 0 0 1 0.11395 0.14513z" style="paint-order:markers fill stroke"/>
   <path d="m44.31 41.017a0.13047 0.13047 0 0 1-0.14513 0.11395 0.13047 0.13047 0 0 1-0.11395-0.14513 0.13047 0.13047 0 0 1 0.14513-0.11395 0.13047 0.13047 0 0 1 0.11395 0.14513z" style="paint-order:markers fill stroke"/>
   <path d="m41.41 40.255a0.1281 0.1281 0 0 1-0.14248 0.11187 0.1281 0.1281 0 0 1-0.11187-0.14248 0.1281 0.1281 0 0 1 0.14248-0.11187 0.1281 0.1281 0 0 1 0.11187 0.14248z" style="paint-order:markers fill stroke"/>
   <path d="m40.467 39.356a0.1281 0.1281 0 0 1-0.14248 0.11187 0.1281 0.1281 0 0 1-0.11187-0.14248 0.1281 0.1281 0 0 1 0.14248-0.11187 0.1281 0.1281 0 0 1 0.11187 0.14248z" style="paint-order:markers fill stroke"/>
   <path d="m40.361 40.826a0.1281 0.1281 0 0 1-0.14248 0.11187 0.1281 0.1281 0 0 1-0.11187-0.14248 0.1281 0.1281 0 0 1 0.14248-0.11187 0.1281 0.1281 0 0 1 0.11187 0.14248z" style="paint-order:markers fill stroke"/>
  </g>
  <path d="m42.226 39.983c-0.05381-0.01442-0.2325 0.61586-0.53849 1.4544-0.05367 0.18053-0.24451 0.32802-0.46415 0.38569-0.0089 0.0022-0.01781 0.0044-0.02678 0.0064-0.2569 0.05823-0.53003 0.02404-0.76643-0.03697-0.29885-0.0822-0.51827-0.19379-0.67308-0.35084-0.25308-0.25048-0.13558-0.5492-0.16685-0.56549-0.03127-0.0163-0.27236 0.30876 0.03159 0.68559 0.16471 0.20263 0.41582 0.36355 0.74185 0.46142 0.2609 0.08239 0.57166 0.12539 0.88829 0.05689 0.011-0.0024 0.02196-0.0049 0.0329-0.0075 0.30255-0.07096 0.54513-0.28504 0.63269-0.56022 0.27913-0.87218 0.36227-1.5149 0.30846-1.5294z"/>
  <path d="m44.05 41.794c0.01267 0.0019 0.06704 0.29708-0.38836 0.49604-0.21994 0.10669-0.50422 0.17981-0.83997 0.17683-0.24563 0.0021-0.54679-0.04129-0.79742-0.22606-0.0094-0.0077-0.01864-0.01562-0.02759-0.02374-0.21837-0.19832-0.26739-0.49622-0.19572-0.73635 0.24693-0.8569 0.36839-1.5066 0.42517-1.4975 0.05679 0.0091 0.03265 0.67166-0.18866 1.5622-0.04095 0.16262-0.0078 0.37251 0.12595 0.47874 0.0055 0.0044 0.01116 0.0085 0.01697 0.01251 0.1721 0.13851 0.42618 0.17518 0.64785 0.18998 0.30347 0.01446 0.55704-0.02818 0.76495-0.10036 0.33413-0.13282 0.42281-0.33743 0.45683-0.33232z"/>
  <path d="m40.991 34.57c-6.9e-4 0.0268 0.60493-0.0933 1.0791 0.41098 0.25426 0.24757 0.24127 0.68998 0.05241 1.1659-0.15498 0.33363-0.51554 0.62931-0.92086 0.6265-0.04466-3.09e-4 -0.08923-0.0044-0.13342-0.01234-0.42904-0.06604-0.7919-0.34009-0.96111-0.67231-0.10998-0.43527 0.17227-0.84437 0.43165-1.0843 0.47501-0.43425 0.88643-0.52216 0.8817-0.54664-0.0044-0.0226-0.42993-4.59e-4 -0.96647 0.44979-0.29534 0.24564-0.61565 0.69369-0.50843 1.2383 1e-6 0 0 0 0 0 0.19231 0.39309 0.60492 0.71718 1.0929 0.79923 0.05461 8e-3 0.10931 0.0116 0.16378 0.01104 0.49498-0.0052 0.90599-0.34486 1.0816-0.73965 0.21628-0.51203 0.18496-1.0306-0.11825-1.3324-0.58705-0.54172-1.1739-0.34089-1.1746-0.31409z"/>
  <path d="m44.065 34.782c0.0063 0.02801 0.75292-0.32884 1.3849 0.22956 0.3232 0.25785 0.32248 0.77845 0.13632 1.3332-0.1358 0.30181-0.43386 0.55455-0.78425 0.61965-0.10939 0.02033-0.2203 0.0213-0.32836 8.29e-4 -0.42468-0.07941-0.80052-0.33299-0.89863-0.67574-0.14524-0.45309 0.1369-0.90975 0.39422-1.1431 0.51829-0.45908 0.9846-0.48484 0.98419-0.50972-3.6e-4 -0.02182-0.46772-0.08505-1.0677 0.41214-0.29756 0.2416-0.62278 0.73339-0.47524 1.2889 0.12757 0.4226 0.54789 0.73174 1.0312 0.81074 0.13159 0.02133 0.26474 0.01865 0.3948-0.0061 0.41677-0.07933 0.75767-0.37287 0.91639-0.73113 0.21749-0.59114 0.16834-1.1914-0.21228-1.5103-0.77541-0.5949-1.4819-0.1469-1.4756-0.1189z"/>
  <path d="m42.098 34.926c0.01626 0.04291 0.50038-0.13997 1.0483-0.17549 0.54795-0.03552 0.87631 0.26576 0.90954 0.23413 0.03323-0.03164-0.32059-0.42096-0.91803-0.3967-0.59744 0.02425-1.0561 0.29516-1.0398 0.33807z"/>
 </g>
</svg>
