<?xml version="1.0" encoding="UTF-8"?>
<svg id="logo" width="64" height="64" version="1.1" viewBox="0 0 16.933 16.933" xmlns="http://www.w3.org/2000/svg" xmlns:cc="http://creativecommons.org/ns#" xmlns:dc="http://purl.org/dc/elements/1.1/" xmlns:osb="http://www.openswatchbook.org/uri/2009/osb" xmlns:rdf="http://www.w3.org/1999/02/22-rdf-syntax-ns#" xmlns:xlink="http://www.w3.org/1999/xlink">
 <metadata>
  <rdf:RDF>
   <cc:Work rdf:about="">
    <dc:format>image/svg+xml</dc:format>
    <dc:type rdf:resource="http://purl.org/dc/dcmitype/StillImage"/>
    <dc:title/>
   </cc:Work>
  </rdf:RDF>
 </metadata>
 <g transform="translate(-10.292 -6.4467)" display="none" fill="#684338">
  <path transform="scale(.26458)" d="m336.37 57.961c-32.337-1.75e-4 -58.551 20.933-58.551 46.756-1e-3 25.823 26.213 46.758 58.551 46.758 32.337 1.7e-4 58.552-20.934 58.551-46.758 0-4.1532-0.10627-12.819-2.0606-12.295-2.4325 0.45751-4.9948 0.69114-7.5781 0.69141-12.38 4.5e-5 -22.416-5.251-22.416-11.729 2e-5 -4.6854 7.0552-4.274 13.555-10.773 7.1439-7.1439-25.173-12.65-40.051-12.65zm-20.998 11.193c1.1119-0.0012 2.2216 0.07178 3.3242 0.21875 16.626 2.2224 28.324 20.452 26.129 40.717-2.1946 20.265-17.452 34.892-34.078 32.67-16.626-2.2223-28.325-20.453-26.129-40.719 2.0272-18.707 15.276-32.875 30.754-32.887z" style="paint-order:markers fill stroke"/>
  <path transform="matrix(-.55675 .83068 -.99938 .035244 -24.308 -23.317)" d="m72.49-90.929c-1e-6 2.3455-3.838 7.9289-7.8579 7.9289-2.1718 0-2.0217-2.308-3.1999-4.1764-1.0026-1.5899-3.4995-2.6742-3.4995-3.7525-1e-6 -2.3455 3.2588-4.2469 7.2787-4.2469 4.0199 0 7.2787 1.9014 7.2787 4.2469z" stroke-width="0" style="paint-order:markers fill stroke"/>
 </g>
 <g transform="translate(-34.6 -29.764)">
  <g transform="translate(-3.8513e-6 1.6565)">
   <g transform="translate(0 -1.6565)">
    <g transform="matrix(.1383 0 0 .1383 29.742 29.695)" stroke-width="7.2309">
     <g>
      <g>
       <path d="m98.607 67.778c-0.26842 2.2305-5.9248 7.5019-8.463 7.1965-2.5383-0.30546-6.7778-6.8435-6.5094-9.074 0.26842-2.2305 5.5303-3.5246 8.0686-3.2191 2.5383 0.30546 7.1723 2.8662 6.9039 5.0966z"/>
       <circle transform="rotate(6.8621)" cx="103.62" cy="69.822" r=".94344" style="paint-order:markers fill stroke"/>
       <circle transform="rotate(6.8621)" cx="110.97" cy="59.455" r=".94344" style="paint-order:markers fill stroke"/>
       <circle transform="rotate(6.8621)" cx="113.42" cy="68.7" r=".94344" style="paint-order:markers fill stroke"/>
       <circle transform="rotate(6.8621)" cx="91.965" cy="65.737" r=".92624" style="paint-order:markers fill stroke"/>
       <circle transform="rotate(6.8621)" cx="84.413" cy="60.097" r=".92624" style="paint-order:markers fill stroke"/>
       <circle transform="rotate(6.8621)" cx="84.928" cy="70.743" r=".92624" style="paint-order:markers fill stroke"/>
      </g>
      <path d="m60.365 31.119c-0.03353-0.18871-4.0209 0.3521-8.9525 4.0802-2.7671 2.0761-5.7527 4.8735-8.689 8.6062-2.1657 2.7446-4.4069 6.085-5.805 9.9376-0.51822 1.421-0.92313 2.9754-0.98675 4.6071-0.05788 1.3041 0.16508 2.7045 0.86713 3.9512 0.08233 0.13964 0.16907 0.27609 0.26 0.40928 1.3075 1.915 3.4238 3.0786 5.5762 3.4021 3.0368 0.4471 6.0017-0.41501 8.4104-1.6703 7.1912-3.7482 11.054-10.607 12.97-14.898 2.0407-4.5707 2.6074-7.4379 2.4466-7.4895-0.16078-0.05158-1.0465 2.7166-3.2786 7.0922-2.09 4.0968-6.0275 10.66-12.802 13.984-2.2539 1.1057-4.9315 1.8832-7.5071 1.4525-1.7657-0.28928-3.5272-1.2414-4.5244-2.7435-0.0694-0.10453-0.13488-0.21145-0.19624-0.32068-0.53116-0.88927-0.68979-2.0128-0.66576-3.1161 0.03961-1.4026 0.4057-2.8061 0.87288-4.1451 1.2743-3.6327 3.3983-6.8833 5.4525-9.6122 2.7964-3.7031 5.6057-6.506 8.2207-8.6545 4.71-3.8396 8.3644-4.6834 8.3309-4.8722z"/>
      <path d="m136.01 36.031c-0.1321 0.135 2.7179 3.0095 6.8918 8.2491v2e-6c2.2607 2.839 5.1336 6.6628 7.6263 11.028 1.8862 3.3156 3.8371 7.283 4.4858 11.524 0.25913 1.6917 0.31013 3.4598-0.0478 5.1516-0.2937 1.4062-0.88404 2.7753-1.7454 3.9669-0.10994 0.15209-0.22394 0.3008-0.34187 0.44588-1.0536 1.304-2.2777 2.4142-3.6887 3.0693-1.2045 0.56858-2.553 0.7928-3.8364 0.66436-3.0933-0.26683-5.8103-2.4151-7.8492-4.5662-3.0914-3.3095-5.0532-7.2698-6.3213-10.627v-2e-6c-3.0997-8.2309-2.631-14.007-2.8523-14.012-0.22133-0.0054-1.1266 5.8309 1.7909 14.393v2e-6c1.1868 3.4942 3.1251 7.6387 6.338 11.204 2.0905 2.3523 5.0662 4.6976 8.7372 5.1282 1.5608 0.16473 3.1835-0.09477 4.6517-0.7782 1.6846-0.79494 3.0992-2.0472 4.2478-3.4936 0.13627-0.16806 0.26788-0.34007 0.3947-0.51578 0.9937-1.3769 1.6675-2.9458 1.9992-4.5636 0.39163-1.9322 0.33334-3.8834 0.0322-5.7074-0.75126-4.5437-2.8142-8.634-4.813-11.973-2.6392-4.4256-5.6396-8.1944-8.0426-10.973v-2e-6c-4.4172-5.1101-7.5252-7.7487-7.6573-7.6137z"/>
     </g>
     <g stroke-width="7.2309">
      <g transform="rotate(5.1295 120.58 22.083)" stroke-width="7.2309"></g>
     </g>
     <g transform="matrix(-1 0 0 1 191.62 0)" stroke-width="7.2309">
      <g transform="rotate(5.1295 120.58 22.083)" stroke-width="7.2309"></g>
     </g>
     <path transform="translate(-1.2292e-6)" d="m90.268 74.395c-0.38912-0.10426-1.6812 4.4532-3.8938 10.517-0.22858 0.68081-0.65824 1.3339-1.2459 1.8045-0.56552 0.46451-1.3005 0.77805-2.1103 0.98441-0.0642 0.01625-0.12872 0.03172-0.19354 0.04641-1.8576 0.42106-3.8327 0.17383-5.5421-0.2673-2.1609-0.59441-3.7475-1.4013-4.867-2.5369-0.5963-0.60658-0.96176-1.1977-1.1294-1.7844v-1e-6c-0.39642-1.2776 0.07999-2.2227-0.07706-2.3046-0.15705-0.08186-1.055 0.67576-0.87358 2.4827v1e-6c0.0916 0.79364 0.43976 1.6645 1.102 2.4748 1.191 1.4652 3.0067 2.6288 5.3642 3.3365 1.8866 0.59575 4.1337 0.90666 6.4233 0.41135 0.07946-0.01719 0.15872-0.03531 0.23774-0.05435 1.0242-0.24561 2.0025-0.69598 2.8279-1.3756 0.86525-0.72464 1.4552-1.6768 1.747-2.6753 2.0184-6.3067 2.6196-10.954 2.2304-11.059z"/>
     <path transform="translate(24.308 23.317)" d="m79.149 64.172c0.06919 0.0104 0.37961 0.87512-0.66821 2.0412-0.50377 0.57002-1.2053 1.0975-2.14 1.5456h-1e-6c-1.5904 0.77145-3.646 1.3002-6.0737 1.2786-1.7761 0.01516-3.9538-0.29857-5.7661-1.6346-0.06697-0.05042-0.13288-0.10272-0.1976-0.15686-0.67264-0.56264-1.1913-1.3016-1.4715-2.149-0.33858-1.1285-0.2397-2.2485 0.05435-3.1903 1.7855-6.1962 2.6638-10.894 3.0744-10.828 0.41062 0.06553 0.23608 4.8567-1.3642 11.296-0.1739 0.73192-0.24731 1.5157-0.01241 2.1531 0.14999 0.47692 0.48548 0.92577 0.91864 1.2951 0.04168 0.03554 0.0841 0.07021 0.12716 0.10395 1.2444 1.0015 3.0817 1.2667 4.6845 1.3737 2.1944 0.10453 4.0279-0.20376 5.5313-0.72573l1e-6 -1e-6c0.88065-0.31054 1.5036-0.62579 2.018-1.0153 0.91068-0.69941 1.1242-1.4119 1.2853-1.3877z"/>
    </g>
    <g transform="translate(-.33446 .20222)">
     <g>
      <path d="m41.326 34.367c-6.9e-4 0.0268 0.60493-0.0933 1.0791 0.41098 0.25426 0.24757 0.24127 0.68998 0.05241 1.1659-0.15498 0.33363-0.51554 0.62931-0.92086 0.6265-0.04466-3.09e-4 -0.08923-0.0044-0.13342-0.01234-0.42904-0.06604-0.7919-0.34009-0.96111-0.67231-0.10998-0.43527 0.17227-0.84437 0.43165-1.0843 0.47501-0.43425 0.88643-0.52216 0.8817-0.54664-0.0044-0.0226-0.42993-4.59e-4 -0.96647 0.44979-0.29534 0.24564-0.61565 0.69369-0.50843 1.2383 1e-6 0 0 0 0 0 0.19231 0.39309 0.60492 0.71718 1.0929 0.79923 0.05461 8e-3 0.10931 0.0116 0.16378 0.01104 0.49498-0.0052 0.90599-0.34486 1.0816-0.73965 0.21628-0.51203 0.18496-1.0306-0.11825-1.3324-0.58705-0.54172-1.1739-0.34089-1.1746-0.31409z"/>
      <path d="m44.399 34.58c0.0063 0.02801 0.75292-0.32884 1.3849 0.22956 0.3232 0.25785 0.32248 0.77845 0.13632 1.3332-0.1358 0.30181-0.43386 0.55455-0.78425 0.61965-0.10939 0.02033-0.2203 0.0213-0.32836 8.29e-4 -0.42468-0.07941-0.80052-0.33299-0.89863-0.67574-0.14524-0.45309 0.1369-0.90975 0.39422-1.1431 0.51829-0.45908 0.9846-0.48484 0.98419-0.50972-3.6e-4 -0.02182-0.46772-0.08505-1.0677 0.41214-0.29756 0.2416-0.62278 0.73339-0.47524 1.2889 0.12757 0.4226 0.54789 0.73174 1.0312 0.81074 0.13159 0.02133 0.26474 0.01865 0.3948-0.0061 0.41677-0.07933 0.75767-0.37287 0.91639-0.73113 0.21749-0.59114 0.16834-1.1914-0.21228-1.5103-0.77541-0.5949-1.4819-0.1469-1.4756-0.1189z"/>
      <path d="m42.432 34.724c0.01626 0.04291 0.50038-0.13997 1.0483-0.17549 0.54795-0.03552 0.87631 0.26576 0.90954 0.23413 0.03323-0.03164-0.32059-0.42096-0.91803-0.3967-0.59744 0.02425-1.0561 0.29516-1.0398 0.33807z"/>
     </g>
    </g>
   </g>
  </g>
 </g>
</svg>
