<svg xmlns="http://www.w3.org/2000/svg">
	<symbol id="github" viewBox="0 0 24 24">
		<path d="M12 .297c-6.63 0-12 5.373-12 12 0 5.303 3.438 9.8 8.205 11.385.6.113.82-.258.82-.577 0-.285-.01-1.04-.015-2.04-3.338.724-4.042-1.61-4.042-1.61C4.422 18.07 3.633 17.7 3.633 17.7c-1.087-.744.084-.729.084-.729 1.205.084 1.838 1.236 1.838 1.236 1.07 1.835 2.809 1.305 3.495.998.108-.776.417-1.305.76-1.605-2.665-.3-5.466-1.332-5.466-5.93 0-1.31.465-2.38 1.235-3.22-.135-.303-.54-1.523.105-3.176 0 0 1.005-.322 3.3 1.23.96-.267 1.98-.399 3-.405 1.02.006 2.04.138 3 .405 2.28-1.552 3.285-1.23 3.285-1.23.645 1.653.24 2.873.12 3.176.765.84 1.23 1.91 1.23 3.22 0 4.61-2.805 5.625-5.475 5.92.42.36.81 1.096.81 2.22 0 1.606-.015 2.896-.015 3.286 0 .315.21.69.825.57C20.565 22.092 24 17.592 24 12.297c0-6.627-5.373-12-12-12"/>
	</symbol>

	<symbol id="gitlab" viewBox="0 0 24 24">
		<path d="M23.955 13.587l-1.342-4.135-2.664-8.189c-.135-.423-.73-.423-.867 0L16.418 9.45H7.582L4.919 1.263C4.783.84 4.185.84 4.05 1.26L1.386 9.449.044 13.587c-.121.375.014.789.331 1.023L12 23.054l11.625-8.443c.318-.235.453-.647.33-1.024"/>
	</symbol>

	<symbol id="gmail" viewBox="0 0 24 24">
		<path d="M24 4.5v15c0 .85-.65 1.5-1.5 1.5H21V7.387l-9 6.463-9-6.463V21H1.5C.649 21 0 20.35 0 19.5v-15c0-.425.162-.8.431-1.068C.7 3.16 1.076 3 1.5 3H2l10 7.25L22 3h.5c.425 0 .8.162 1.069.432.27.268.431.643.431 1.068z"/>
	</symbol>

	<symbol id="keybase" viewBox="0 0 24 24">
		<path d="M10.446 21.371c0 .528-.428.953-.954.953-.525 0-.954-.425-.954-.953 0-.526.428-.954.953-.954.524 0 .951.431.951.955m5.922-.001c0 .528-.428.953-.955.953-.526 0-.952-.425-.952-.953 0-.526.423-.954.949-.954s.954.431.954.955"/><path d="M20.904 12.213l-.156-.204c-.046-.06-.096-.116-.143-.175-.045-.061-.094-.113-.141-.169-.104-.12-.209-.239-.319-.359l-.076-.08-.091-.099-.135-.131c-.015-.018-.032-.034-.05-.053-1.16-1.139-2.505-1.986-3.955-2.504l-.23-.078c.012-.027.024-.055.035-.083.41-1.064.367-2.223-.12-3.255-.491-1.035-1.356-1.8-2.438-2.16-.656-.216-1.23-.319-1.711-.305-.033-.105-.1-.577.496-1.848L10.663 0l-.287.399c-.33.455-.648.895-.945 1.328-.328-.345-.766-.552-1.245-.58L6.79 1.061h-.012c-.033-.003-.07-.003-.104-.003-.99 0-1.81.771-1.87 1.755l-.088 1.402v.003c-.061 1.029.727 1.915 1.755 1.979l1.002.061c-.065.84.073 1.62.405 2.306-1.346.562-2.586 1.401-3.66 2.484C.913 14.391.913 18.051.913 20.994v1.775l1.305-1.387c.266.93.652 1.807 1.145 2.615H5.06c-.833-1.114-1.419-2.426-1.68-3.848l1.913-2.03-.985 3.091 1.74-1.268c3.075-2.234 6.744-2.75 10.91-1.529 1.805.532 3.56.039 4.473-1.257l.104-.165c.091.498.141.998.141 1.496 0 1.563-.255 3.687-1.38 5.512h1.611c.776-1.563 1.181-3.432 1.181-5.512-.001-2.199-.786-4.421-2.184-6.274zM8.894 6.191c.123-1.002.578-1.949 1.23-2.97.025.05.054.097.084.144.264.398.713.625 1.199.605.217-.008.605.025 1.233.232.714.236 1.286.744 1.608 1.425s.349 1.442.079 2.149c-.173.445-.454.82-.806 1.109l-.408-.502-.002-.003c-.279-.341-.694-.535-1.134-.535-.335 0-.664.117-.925.33-.334.27-.514.66-.534 1.058-1.2-.541-1.8-1.643-1.628-3.041l.004-.001zm4.304 5.11l-.519.425c-.046.036-.095.053-.146.053-.066 0-.133-.03-.177-.085l-.111-.135c-.083-.1-.067-.25.034-.334l.51-.42-1.055-1.299c-.109-.133-.091-.33.044-.436.058-.048.126-.072.194-.072.091 0 .181.038.24.113l2.963 3.645c.109.135.09.33-.042.436-.039.029-.082.053-.126.063-.023.006-.045.009-.07.009-.09 0-.178-.04-.24-.113l-.295-.365-1.045.854c-.046.037-.1.055-.154.055-.068 0-.139-.03-.186-.09l-.477-.579c-.082-.102-.068-.252.035-.336l1.051-.857-.426-.533-.002.001zM7.753 4.866l-1.196-.075c-.255-.015-.45-.235-.435-.488l.09-1.401c.014-.245.216-.436.461-.436h.024l1.401.091c.123.006.236.06.317.152.083.094.123.21.116.336l-.007.101c-.32.567-.585 1.134-.773 1.72h.002zm12.524 11.481c-.565.805-1.687 1.081-2.924.718-3.886-1.141-7.396-.903-10.468.701l1.636-5.123-5.291 5.609c.099-3.762 2.453-6.966 5.758-8.311.471.373 1.034.66 1.673.841.16.044.322.074.48.102-.183.458-.119.997.21 1.407l.075.09c-.172.45-.105.975.221 1.374l.475.582c.266.325.659.513 1.079.513.321 0 .635-.111.886-.314l.285-.232c.174.074.367.113.566.113.113 0 .222-.01.33-.035.218-.05.424-.15.598-.291.623-.51.72-1.435.209-2.06l-1.67-2.056c.145-.117.281-.244.408-.381.135.037.271.078.4.12.266.097.533.198.795.315 1.005.445 1.954 1.1 2.771 1.897.029.03.059.055.085.083l.17.175c.038.039.076.079.111.12.079.085.16.175.239.267l.126.15c.045.053.086.104.13.16l.114.15c.04.051.079.102.117.154.838 1.149.987 2.329.404 3.157v.005z"/><path d="M7.719 4.115l-.835-.051.053-.835.834.051-.052.835z"/>
	</symbol>

	<symbol id="twitter" viewBox="0 0 24 24">
		<path d="M23.954 4.569c-.885.389-1.83.654-2.825.775 1.014-.611 1.794-1.574 2.163-2.723-.951.555-2.005.959-3.127 1.184-.896-.959-2.173-1.559-3.591-1.559-2.717 0-4.92 2.203-4.92 4.917 0 .39.045.765.127 1.124C7.691 8.094 4.066 6.13 1.64 3.161c-.427.722-.666 1.561-.666 2.475 0 1.71.87 3.213 2.188 4.096-.807-.026-1.566-.248-2.228-.616v.061c0 2.385 1.693 4.374 3.946 4.827-.413.111-.849.171-1.296.171-.314 0-.615-.03-.916-.086.631 1.953 2.445 3.377 4.604 3.417-1.68 1.319-3.809 2.105-6.102 2.105-.39 0-.779-.023-1.17-.067 2.189 1.394 4.768 2.209 7.557 2.209 9.054 0 13.999-7.496 13.999-13.986 0-.209 0-.42-.015-.63.961-.689 1.8-1.56 2.46-2.548l-.047-.02z"/>
	</symbol>

	<symbol id="youtube" viewBox="0 0 24 24">
		<path class="a" d="M23.495 6.205a3.007 3.007 0 0 0-2.088-2.088c-1.87-.501-9.396-.501-9.396-.501s-7.507-.01-9.396.501A3.007 3.007 0 0 0 .527 6.205a31.247 31.247 0 0 0-.522 5.805 31.247 31.247 0 0 0 .522 5.783 3.007 3.007 0 0 0 2.088 2.088c1.868.502 9.396.502 9.396.502s7.506 0 9.396-.502a3.007 3.007 0 0 0 2.088-2.088 31.247 31.247 0 0 0 .5-5.783 31.247 31.247 0 0 0-.5-5.805zM9.609 15.601V8.408l6.264 3.602z"/>
	</symbol>

</svg>